<svg width="1650" height="990" xmlns="http://www.w3.org/2000/svg" xmlns:xlink="http://www.w3.org/1999/xlink" overflow="hidden"><defs><clipPath id="clip0"><rect x="4998" y="694" width="1650" height="990"/></clipPath><clipPath id="clip1"><rect x="4998" y="694" width="1650" height="990"/></clipPath><clipPath id="clip2"><rect x="4998" y="694" width="1650" height="990"/></clipPath><clipPath id="clip3"><rect x="4998" y="694" width="1650" height="990"/></clipPath><clipPath id="clip4"><rect x="4998" y="694" width="1650" height="990"/></clipPath><clipPath id="clip5"><rect x="4998" y="694" width="1650" height="990"/></clipPath><clipPath id="clip6"><rect x="4998" y="694" width="1650" height="990"/></clipPath><clipPath id="clip7"><rect x="4998" y="694" width="1650" height="990"/></clipPath><clipPath id="clip8"><rect x="4998" y="694" width="1650" height="990"/></clipPath><clipPath id="clip9"><rect x="4998" y="694" width="1650" height="990"/></clipPath><clipPath id="clip10"><rect x="4998" y="694" width="1650" height="990"/></clipPath><clipPath id="clip11"><rect x="4998" y="694" width="1650" height="990"/></clipPath><clipPath id="clip12"><rect x="4998" y="694" width="1650" height="990"/></clipPath><clipPath id="clip13"><rect x="4998" y="694" width="1650" height="990"/></clipPath><clipPath id="clip14"><rect x="4998" y="694" width="1650" height="990"/></clipPath><clipPath id="clip15"><rect x="4998" y="694" width="1650" height="990"/></clipPath><clipPath id="clip16"><rect x="4998" y="694" width="1650" height="990"/></clipPath><clipPath id="clip17"><rect x="4998" y="694" width="1650" height="990"/></clipPath><clipPath id="clip18"><rect x="4998" y="694" width="1650" height="990"/></clipPath><clipPath id="clip19"><rect x="4998" y="694" width="1650" height="990"/></clipPath><clipPath id="clip20"><rect x="1984" y="1477" width="7946" height="199"/></clipPath><clipPath id="clip21"><rect x="4998" y="694" width="1650" height="990"/></clipPath><clipPath id="clip22"><rect x="1984" y="1477" width="7946" height="199"/></clipPath><clipPath id="clip23"><rect x="4998" y="694" width="1650" height="990"/></clipPath><clipPath id="clip24"><rect x="1984" y="1477" width="7946" height="199"/></clipPath><clipPath id="clip25"><rect x="4998" y="694" width="1650" height="990"/></clipPath><clipPath id="clip26"><rect x="4998" y="694" width="1650" height="990"/></clipPath><clipPath id="clip27"><rect x="4998" y="694" width="1650" height="990"/></clipPath><clipPath id="clip28"><rect x="4998" y="694" width="1650" height="990"/></clipPath><clipPath id="clip29"><rect x="4998" y="694" width="1650" height="990"/></clipPath></defs><g clip-path="url(#clip0)" transform="translate(-4998 -694)"><rect x="4998" y="694" width="1650" height="990" fill="#FFFFFF"/><g clip-path="url(#clip1)"><path d="M5375.5 1329.54 6516.5 1329.54M5375.5 1292.54 6516.5 1292.54M5375.5 1265.54 6516.5 1265.54M5375.5 1245.54 6516.5 1245.54M5375.5 1228.54 6516.5 1228.54M5375.5 1214.54 6516.5 1214.54M5375.5 1201.54 6516.5 1201.54M5375.5 1190.54 6516.5 1190.54M5375.5 1117.54 6516.5 1117.54M5375.5 1079.54 6516.5 1079.54M5375.5 1053.53 6516.5 1053.53M5375.5 1032.53 6516.5 1032.53M5375.5 1015.53 6516.5 1015.53M5375.5 1001.53 6516.5 1001.53M5375.5 989.533 6516.5 989.533M5375.5 978.532 6516.5 978.532M5375.5 904.53 6516.5 904.53M5375.5 867.529 6516.5 867.529M5375.5 840.528 6516.5 840.528M5375.5 820.527 6516.5 820.527M5375.5 803.527 6516.5 803.527M5375.5 789.526 6516.5 789.526M5375.5 777.526 6516.5 777.526M5375.5 766.525 6516.5 766.525" stroke="#A5A5A5" stroke-width="3.4375" stroke-linejoin="round" stroke-miterlimit="10" fill="none"/></g><g clip-path="url(#clip2)"><path d="M5376 1394 6516 1394M5376 1181.04 6516 1181.04M5376 756 6516 756" stroke="#000000" stroke-width="5.72917" stroke-linejoin="round" stroke-miterlimit="10" fill="none"/></g><g clip-path="url(#clip3)"><path d="M5718.69 756.5 5718.69 1393.5M5919.69 756.5 5919.69 1393.5M6062.7 756.5 6062.7 1393.5M6172.7 756.5 6172.7 1393.5M6263.71 756.5 6263.71 1393.5M6339.71 756.5 6339.71 1393.5M6405.71 756.5 6405.71 1393.5M6464.71 756.5 6464.71 1393.5" stroke="#A5A5A5" stroke-width="3.4375" stroke-linejoin="round" stroke-miterlimit="10" fill="none"/></g><g clip-path="url(#clip4)"><path d="M6516.5 756.5 6516.5 1393.5" stroke="#D9D9D9" stroke-width="3.4375" stroke-linejoin="round" stroke-miterlimit="10" fill="none"/></g><g clip-path="url(#clip5)"><rect x="5376" y="756" width="1140" height="638" stroke="#000000" stroke-width="5.72917" stroke-linejoin="round" stroke-miterlimit="10" fill="none"/></g><g clip-path="url(#clip6)"><path d="M0 0 0.000360892 637" stroke="#000000" stroke-width="3.4375" stroke-linejoin="round" stroke-miterlimit="10" fill="none" fill-rule="evenodd" transform="matrix(1 0 0 -1 5375.5 1393.5)"/></g><g clip-path="url(#clip7)"><path d="M5376 969 6516 969" stroke="#000000" stroke-width="5.72917" stroke-linejoin="round" stroke-miterlimit="10" fill="none" fill-rule="evenodd"/></g><g clip-path="url(#clip8)"><path d="M5670.62 987.875C5670.62 993.95 5665.7 998.874 5659.62 998.874 5653.55 998.874 5648.62 993.95 5648.62 987.875 5648.62 981.8 5653.55 976.875 5659.62 976.875 5665.7 976.875 5670.62 981.8 5670.62 987.875Z" stroke="#4472C4" stroke-width="3.4375" stroke-linejoin="round" stroke-miterlimit="10" fill="#4472C4"/><path d="M5705.62 1027.87C5705.62 1033.95 5700.7 1038.87 5694.62 1038.87 5688.55 1038.87 5683.62 1033.95 5683.62 1027.87 5683.62 1021.8 5688.55 1016.87 5694.62 1016.87 5700.7 1016.87 5705.62 1021.8 5705.62 1027.87Z" stroke="#4472C4" stroke-width="3.4375" stroke-linejoin="round" stroke-miterlimit="10" fill="#4472C4"/><path d="M5833.62 1030.87C5833.62 1036.95 5828.7 1041.87 5822.62 1041.87 5816.55 1041.87 5811.62 1036.95 5811.62 1030.87 5811.62 1024.8 5816.55 1019.88 5822.62 1019.88 5828.7 1019.88 5833.62 1024.8 5833.62 1030.87Z" stroke="#4472C4" stroke-width="3.4375" stroke-linejoin="round" stroke-miterlimit="10" fill="#4472C4"/><path d="M5996.62 1030.87C5996.62 1036.95 5991.7 1041.87 5985.62 1041.87 5979.55 1041.87 5974.62 1036.95 5974.62 1030.87 5974.62 1024.8 5979.55 1019.88 5985.62 1019.88 5991.7 1019.88 5996.62 1024.8 5996.62 1030.87Z" stroke="#4472C4" stroke-width="3.4375" stroke-linejoin="round" stroke-miterlimit="10" fill="#4472C4"/></g><g clip-path="url(#clip9)"><path d="M5659.62 1011.88 5670.62 1033.87 5648.62 1033.87Z" stroke="#ED7D31" stroke-width="3.4375" stroke-linejoin="round" stroke-miterlimit="10" fill="#ED7D31"/><path d="M5694.62 1023.88 5705.62 1045.87 5683.62 1045.87Z" stroke="#ED7D31" stroke-width="3.4375" stroke-linejoin="round" stroke-miterlimit="10" fill="#ED7D31"/><path d="M5822.62 1023.88 5833.62 1045.87 5811.62 1045.87Z" stroke="#ED7D31" stroke-width="3.4375" stroke-linejoin="round" stroke-miterlimit="10" fill="#ED7D31"/><path d="M5985.62 1023.88 5996.62 1045.87 5974.62 1045.87Z" stroke="#ED7D31" stroke-width="3.4375" stroke-linejoin="round" stroke-miterlimit="10" fill="#ED7D31"/></g><g clip-path="url(#clip10)"><text font-family="Calibri,Calibri_MSFontService,sans-serif" font-weight="400" font-size="64" transform="matrix(1 0 0 1 5202.4 1412)">0.01</text></g><g clip-path="url(#clip11)"><text font-family="Calibri,Calibri_MSFontService,sans-serif" font-weight="400" font-size="64" transform="matrix(1 0 0 1 5234.92 1199)">0.1</text></g><g clip-path="url(#clip12)"><text font-family="Calibri,Calibri_MSFontService,sans-serif" font-weight="400" font-size="64" transform="matrix(1 0 0 1 5283.64 987)">1</text></g><g clip-path="url(#clip13)"><text font-family="Calibri,Calibri_MSFontService,sans-serif" font-weight="400" font-size="64" transform="matrix(1 0 0 1 5251.13 775)">10</text></g><g clip-path="url(#clip14)"><text font-family="Calibri,Calibri_MSFontService,sans-serif" font-weight="400" font-size="64" transform="matrix(1 0 0 1 5310.65 1495)">1000</text></g><g clip-path="url(#clip15)"><text font-family="Calibri,Calibri_MSFontService,sans-serif" font-weight="400" font-size="64" transform="matrix(1 0 0 1 6435.11 1495)">10000</text></g><g clip-path="url(#clip16)"><text font-family="Calibri,Calibri_MSFontService,sans-serif" font-weight="400" font-size="83" transform="matrix(6.12323e-17 -1 1 6.12323e-17 5134.41 1307)">Error norm [</text></g><g clip-path="url(#clip17)"><text font-family="Calibri,Calibri_MSFontService,sans-serif" font-weight="400" font-size="83" transform="matrix(6.12323e-17 -1 1 6.12323e-17 5134.41 894)">-</text></g><g clip-path="url(#clip18)"><text font-family="Calibri,Calibri_MSFontService,sans-serif" font-weight="400" font-size="83" transform="matrix(6.12323e-17 -1 1 6.12323e-17 5134.41 869)">]</text></g><g clip-path="url(#clip19)"><g clip-path="url(#clip20)"><text font-family="Calibri,Calibri_MSFontService,sans-serif" font-weight="400" font-size="83" transform="matrix(1 0 0 1 5389.44 1605)">Number of degrees of freedom [</text></g></g><g clip-path="url(#clip21)"><g clip-path="url(#clip22)"><text font-family="Calibri,Calibri_MSFontService,sans-serif" font-weight="400" font-size="83" transform="matrix(1 0 0 1 6473.97 1605)">-</text></g></g><g clip-path="url(#clip23)"><g clip-path="url(#clip24)"><text font-family="Calibri,Calibri_MSFontService,sans-serif" font-weight="400" font-size="83" transform="matrix(1 0 0 1 6499.23 1605)">]</text></g></g><g clip-path="url(#clip25)"><rect x="6273.5" y="809.5" width="176" height="155" stroke="#000000" stroke-width="3.4375" stroke-linejoin="round" stroke-miterlimit="10" fill="#FFFFFF"/></g><g clip-path="url(#clip26)"><path d="M6310 847.999C6310 854.075 6305.08 858.999 6299 858.999 6292.92 858.999 6288 854.075 6288 847.999 6288 841.924 6292.92 837 6299 837 6305.08 837 6310 841.924 6310 847.999Z" stroke="#4472C4" stroke-width="3.4375" stroke-linejoin="round" stroke-miterlimit="10" fill="#4472C4"/></g><g clip-path="url(#clip27)"><text font-family="Calibri,Calibri_MSFontService,sans-serif" font-weight="400" font-size="41" transform="matrix(1 0 0 1 6320.71 860)">Order2</text></g><g clip-path="url(#clip28)"><path d="M6299.5 914.5 6310.5 936.499 6288.5 936.499Z" stroke="#ED7D31" stroke-width="3.4375" stroke-linejoin="round" stroke-miterlimit="10" fill="#ED7D31"/></g><g clip-path="url(#clip29)"><text font-family="Calibri,Calibri_MSFontService,sans-serif" font-weight="400" font-size="41" transform="matrix(1 0 0 1 6320.71 937)">Order3</text></g></g></svg>