<svg width="1650" height="990" xmlns="http://www.w3.org/2000/svg" xmlns:xlink="http://www.w3.org/1999/xlink" overflow="hidden"><defs><clipPath id="clip0"><rect x="4840" y="739" width="1650" height="990"/></clipPath><clipPath id="clip1"><rect x="4840" y="739" width="1650" height="990"/></clipPath><clipPath id="clip2"><rect x="4840" y="739" width="1650" height="990"/></clipPath><clipPath id="clip3"><rect x="4840" y="739" width="1650" height="990"/></clipPath><clipPath id="clip4"><rect x="4840" y="739" width="1650" height="990"/></clipPath><clipPath id="clip5"><rect x="4840" y="739" width="1650" height="990"/></clipPath><clipPath id="clip6"><rect x="4840" y="739" width="1650" height="990"/></clipPath><clipPath id="clip7"><rect x="4840" y="739" width="1650" height="990"/></clipPath><clipPath id="clip8"><rect x="4840" y="739" width="1650" height="990"/></clipPath><clipPath id="clip9"><rect x="4840" y="739" width="1650" height="990"/></clipPath><clipPath id="clip10"><rect x="4840" y="739" width="1650" height="990"/></clipPath><clipPath id="clip11"><rect x="4840" y="739" width="1650" height="990"/></clipPath><clipPath id="clip12"><rect x="4840" y="739" width="1650" height="990"/></clipPath><clipPath id="clip13"><rect x="4840" y="739" width="1650" height="990"/></clipPath><clipPath id="clip14"><rect x="4840" y="739" width="1650" height="990"/></clipPath><clipPath id="clip15"><rect x="4840" y="739" width="1650" height="990"/></clipPath><clipPath id="clip16"><rect x="4840" y="739" width="1650" height="990"/></clipPath><clipPath id="clip17"><rect x="4840" y="739" width="1650" height="990"/></clipPath><clipPath id="clip18"><rect x="4840" y="739" width="1650" height="990"/></clipPath><clipPath id="clip19"><rect x="4840" y="739" width="1650" height="990"/></clipPath><clipPath id="clip20"><rect x="1826" y="1522" width="7946" height="199"/></clipPath><clipPath id="clip21"><rect x="4840" y="739" width="1650" height="990"/></clipPath><clipPath id="clip22"><rect x="1826" y="1522" width="7946" height="199"/></clipPath><clipPath id="clip23"><rect x="4840" y="739" width="1650" height="990"/></clipPath><clipPath id="clip24"><rect x="1826" y="1522" width="7946" height="199"/></clipPath><clipPath id="clip25"><rect x="4840" y="739" width="1650" height="990"/></clipPath><clipPath id="clip26"><rect x="4840" y="739" width="1650" height="990"/></clipPath><clipPath id="clip27"><rect x="4840" y="739" width="1650" height="990"/></clipPath><clipPath id="clip28"><rect x="4840" y="739" width="1650" height="990"/></clipPath><clipPath id="clip29"><rect x="4840" y="739" width="1650" height="990"/></clipPath></defs><g clip-path="url(#clip0)" transform="translate(-4840 -739)"><rect x="4840" y="739" width="1650" height="990" fill="#FFFFFF"/><g clip-path="url(#clip1)"><path d="M5217.5 1374.55 6358.5 1374.55M5217.5 1336.54 6358.5 1336.54M5217.5 1310.54 6358.5 1310.54M5217.5 1289.54 6358.5 1289.54M5217.5 1272.54 6358.5 1272.54M5217.5 1258.54 6358.5 1258.54M5217.5 1246.54 6358.5 1246.54M5217.5 1235.54 6358.5 1235.54M5217.5 1161.54 6358.5 1161.54M5217.5 1124.54 6358.5 1124.54M5217.5 1097.54 6358.5 1097.54M5217.5 1077.54 6358.5 1077.54M5217.5 1060.53 6358.5 1060.53M5217.5 1046.53 6358.5 1046.53M5217.5 1034.53 6358.5 1034.53M5217.5 1023.53 6358.5 1023.53M5217.5 949.531 6358.5 949.531M5217.5 912.53 6358.5 912.53M5217.5 885.529 6358.5 885.529M5217.5 865.529 6358.5 865.529M5217.5 848.528 6358.5 848.528M5217.5 834.528 6358.5 834.528M5217.5 821.527 6358.5 821.527M5217.5 810.527 6358.5 810.527" stroke="#A5A5A5" stroke-width="3.4375" stroke-linejoin="round" stroke-miterlimit="10" fill="none"/></g><g clip-path="url(#clip2)"><path d="M5218 1438 6358 1438M5218 1226.04 6358 1226.04M5218 801 6358 801" stroke="#000000" stroke-width="5.72917" stroke-linejoin="round" stroke-miterlimit="10" fill="none"/></g><g clip-path="url(#clip3)"><path d="M5560.68 801.5 5560.68 1438.5M5761.69 801.5 5761.69 1438.5M5904.69 801.5 5904.69 1438.5M6014.7 801.5 6014.7 1438.5M6105.7 801.5 6105.7 1438.5M6181.7 801.5 6181.7 1438.5M6247.71 801.5 6247.71 1438.5M6305.71 801.5 6305.71 1438.5" stroke="#A5A5A5" stroke-width="3.4375" stroke-linejoin="round" stroke-miterlimit="10" fill="none"/></g><g clip-path="url(#clip4)"><path d="M6358.5 801.5 6358.5 1438.5" stroke="#D9D9D9" stroke-width="3.4375" stroke-linejoin="round" stroke-miterlimit="10" fill="none"/></g><g clip-path="url(#clip5)"><rect x="5218" y="801" width="1140" height="637" stroke="#000000" stroke-width="5.72917" stroke-linejoin="round" stroke-miterlimit="10" fill="none"/></g><g clip-path="url(#clip6)"><path d="M0 0 0.000360892 637" stroke="#000000" stroke-width="3.4375" stroke-linejoin="round" stroke-miterlimit="10" fill="none" fill-rule="evenodd" transform="matrix(1 0 0 -1 5217.5 1438.5)"/></g><g clip-path="url(#clip7)"><path d="M5218 1014 6358 1014" stroke="#000000" stroke-width="5.72917" stroke-linejoin="round" stroke-miterlimit="10" fill="none" fill-rule="evenodd"/></g><g clip-path="url(#clip8)"><path d="M5511.5 1025.56C5511.5 1031.64 5506.57 1036.56 5500.5 1036.56 5494.42 1036.56 5489.5 1031.64 5489.5 1025.56 5489.5 1019.49 5494.42 1014.56 5500.5 1014.56 5506.57 1014.56 5511.5 1019.49 5511.5 1025.56Z" stroke="#4472C4" stroke-width="3.4375" stroke-linejoin="round" stroke-miterlimit="10" fill="#4472C4"/><path d="M5547.5 1095.56C5547.5 1101.64 5542.57 1106.56 5536.5 1106.56 5530.42 1106.56 5525.5 1101.64 5525.5 1095.56 5525.5 1089.49 5530.42 1084.56 5536.5 1084.56 5542.57 1084.56 5547.5 1089.49 5547.5 1095.56Z" stroke="#4472C4" stroke-width="3.4375" stroke-linejoin="round" stroke-miterlimit="10" fill="#4472C4"/><path d="M5674.5 1124.56C5674.5 1130.64 5669.57 1135.56 5663.5 1135.56 5657.42 1135.56 5652.5 1130.64 5652.5 1124.56 5652.5 1118.49 5657.42 1113.56 5663.5 1113.56 5669.57 1113.56 5674.5 1118.49 5674.5 1124.56Z" stroke="#4472C4" stroke-width="3.4375" stroke-linejoin="round" stroke-miterlimit="10" fill="#4472C4"/><path d="M5838.5 1126.56C5838.5 1132.64 5833.57 1137.56 5827.5 1137.56 5821.42 1137.56 5816.5 1132.64 5816.5 1126.56 5816.5 1120.49 5821.42 1115.56 5827.5 1115.56 5833.57 1115.56 5838.5 1120.49 5838.5 1126.56Z" stroke="#4472C4" stroke-width="3.4375" stroke-linejoin="round" stroke-miterlimit="10" fill="#4472C4"/></g><g clip-path="url(#clip9)"><path d="M5500.5 1044.56 5511.5 1066.56 5489.5 1066.56Z" stroke="#ED7D31" stroke-width="3.4375" stroke-linejoin="round" stroke-miterlimit="10" fill="#ED7D31"/><path d="M5536.5 1109.56 5547.5 1131.56 5525.5 1131.56Z" stroke="#ED7D31" stroke-width="3.4375" stroke-linejoin="round" stroke-miterlimit="10" fill="#ED7D31"/><path d="M5663.5 1118.56 5674.5 1140.56 5652.5 1140.56Z" stroke="#ED7D31" stroke-width="3.4375" stroke-linejoin="round" stroke-miterlimit="10" fill="#ED7D31"/><path d="M5827.5 1118.56 5838.5 1140.56 5816.5 1140.56Z" stroke="#ED7D31" stroke-width="3.4375" stroke-linejoin="round" stroke-miterlimit="10" fill="#ED7D31"/></g><g clip-path="url(#clip10)"><text font-family="Calibri,Calibri_MSFontService,sans-serif" font-weight="400" font-size="64" transform="matrix(1 0 0 1 5044.28 1457)">0.01</text></g><g clip-path="url(#clip11)"><text font-family="Calibri,Calibri_MSFontService,sans-serif" font-weight="400" font-size="64" transform="matrix(1 0 0 1 5076.8 1244)">0.1</text></g><g clip-path="url(#clip12)"><text font-family="Calibri,Calibri_MSFontService,sans-serif" font-weight="400" font-size="64" transform="matrix(1 0 0 1 5125.52 1032)">1</text></g><g clip-path="url(#clip13)"><text font-family="Calibri,Calibri_MSFontService,sans-serif" font-weight="400" font-size="64" transform="matrix(1 0 0 1 5093 819)">10</text></g><g clip-path="url(#clip14)"><text font-family="Calibri,Calibri_MSFontService,sans-serif" font-weight="400" font-size="64" transform="matrix(1 0 0 1 5152.53 1540)">1000</text></g><g clip-path="url(#clip15)"><text font-family="Calibri,Calibri_MSFontService,sans-serif" font-weight="400" font-size="64" transform="matrix(1 0 0 1 6276.99 1540)">10000</text></g><g clip-path="url(#clip16)"><text font-family="Calibri,Calibri_MSFontService,sans-serif" font-weight="400" font-size="83" transform="matrix(6.12323e-17 -1 1 6.12323e-17 4976.29 1351)">Error norm [</text></g><g clip-path="url(#clip17)"><text font-family="Calibri,Calibri_MSFontService,sans-serif" font-weight="400" font-size="83" transform="matrix(6.12323e-17 -1 1 6.12323e-17 4976.29 939)">-</text></g><g clip-path="url(#clip18)"><text font-family="Calibri,Calibri_MSFontService,sans-serif" font-weight="400" font-size="83" transform="matrix(6.12323e-17 -1 1 6.12323e-17 4976.29 913)">]</text></g><g clip-path="url(#clip19)"><g clip-path="url(#clip20)"><text font-family="Calibri,Calibri_MSFontService,sans-serif" font-weight="400" font-size="83" transform="matrix(1 0 0 1 5231.32 1650)">Number of degrees of freedom [</text></g></g><g clip-path="url(#clip21)"><g clip-path="url(#clip22)"><text font-family="Calibri,Calibri_MSFontService,sans-serif" font-weight="400" font-size="83" transform="matrix(1 0 0 1 6315.85 1650)">-</text></g></g><g clip-path="url(#clip23)"><g clip-path="url(#clip24)"><text font-family="Calibri,Calibri_MSFontService,sans-serif" font-weight="400" font-size="83" transform="matrix(1 0 0 1 6341.1 1650)">]</text></g></g><g clip-path="url(#clip25)"><rect x="6115.5" y="854.5" width="176" height="154" stroke="#000000" stroke-width="3.4375" stroke-linejoin="round" stroke-miterlimit="10" fill="#FFFFFF"/></g><g clip-path="url(#clip26)"><path d="M6152 891.999C6152 898.075 6147.08 902.999 6141 902.999 6134.92 902.999 6130 898.075 6130 891.999 6130 885.924 6134.92 881 6141 881 6147.08 881 6152 885.924 6152 891.999Z" stroke="#4472C4" stroke-width="3.4375" stroke-linejoin="round" stroke-miterlimit="10" fill="#4472C4"/></g><g clip-path="url(#clip27)"><text font-family="Calibri,Calibri_MSFontService,sans-serif" font-weight="400" font-size="41" transform="matrix(1 0 0 1 6162.59 904)">Order2</text></g><g clip-path="url(#clip28)"><path d="M6141.5 959.5 6152.5 981.499 6130.5 981.499Z" stroke="#ED7D31" stroke-width="3.4375" stroke-linejoin="round" stroke-miterlimit="10" fill="#ED7D31"/></g><g clip-path="url(#clip29)"><text font-family="Calibri,Calibri_MSFontService,sans-serif" font-weight="400" font-size="41" transform="matrix(1 0 0 1 6162.59 982)">Order3</text></g></g></svg>