<svg width="1650" height="990" xmlns="http://www.w3.org/2000/svg" xmlns:xlink="http://www.w3.org/1999/xlink" overflow="hidden"><defs><clipPath id="clip0"><rect x="4950" y="687" width="1650" height="990"/></clipPath><clipPath id="clip1"><rect x="4950" y="687" width="1650" height="990"/></clipPath><clipPath id="clip2"><rect x="4950" y="687" width="1650" height="990"/></clipPath><clipPath id="clip3"><rect x="4950" y="687" width="1650" height="990"/></clipPath><clipPath id="clip4"><rect x="4950" y="687" width="1650" height="990"/></clipPath><clipPath id="clip5"><rect x="4950" y="687" width="1650" height="990"/></clipPath><clipPath id="clip6"><rect x="4950" y="687" width="1650" height="990"/></clipPath><clipPath id="clip7"><rect x="4950" y="687" width="1650" height="990"/></clipPath><clipPath id="clip8"><rect x="4950" y="687" width="1650" height="990"/></clipPath><clipPath id="clip9"><rect x="4950" y="687" width="1650" height="990"/></clipPath><clipPath id="clip10"><rect x="4950" y="687" width="1650" height="990"/></clipPath><clipPath id="clip11"><rect x="4950" y="687" width="1650" height="990"/></clipPath><clipPath id="clip12"><rect x="4950" y="687" width="1650" height="990"/></clipPath><clipPath id="clip13"><rect x="4950" y="687" width="1650" height="990"/></clipPath><clipPath id="clip14"><rect x="4950" y="687" width="1650" height="990"/></clipPath><clipPath id="clip15"><rect x="4950" y="687" width="1650" height="990"/></clipPath><clipPath id="clip16"><rect x="4950" y="687" width="1650" height="990"/></clipPath><clipPath id="clip17"><rect x="4950" y="687" width="1650" height="990"/></clipPath><clipPath id="clip18"><rect x="4950" y="687" width="1650" height="990"/></clipPath><clipPath id="clip19"><rect x="4950" y="687" width="1650" height="990"/></clipPath><clipPath id="clip20"><rect x="1936" y="1470" width="7946" height="199"/></clipPath><clipPath id="clip21"><rect x="4950" y="687" width="1650" height="990"/></clipPath><clipPath id="clip22"><rect x="1936" y="1470" width="7946" height="199"/></clipPath><clipPath id="clip23"><rect x="4950" y="687" width="1650" height="990"/></clipPath><clipPath id="clip24"><rect x="1936" y="1470" width="7946" height="199"/></clipPath><clipPath id="clip25"><rect x="4950" y="687" width="1650" height="990"/></clipPath><clipPath id="clip26"><rect x="4950" y="687" width="1650" height="990"/></clipPath><clipPath id="clip27"><rect x="4950" y="687" width="1650" height="990"/></clipPath><clipPath id="clip28"><rect x="4950" y="687" width="1650" height="990"/></clipPath><clipPath id="clip29"><rect x="4950" y="687" width="1650" height="990"/></clipPath></defs><g clip-path="url(#clip0)" transform="translate(-4950 -687)"><rect x="4950" y="688" width="1650" height="989" fill="#FFFFFF"/><g clip-path="url(#clip1)"><path d="M5327.5 1322.54 6468.5 1322.54M5327.5 1285.54 6468.5 1285.54M5327.5 1258.54 6468.5 1258.54M5327.5 1238.54 6468.5 1238.54M5327.5 1221.54 6468.5 1221.54M5327.5 1207.54 6468.5 1207.54M5327.5 1194.54 6468.5 1194.54M5327.5 1183.54 6468.5 1183.54M5327.5 1110.54 6468.5 1110.54M5327.5 1072.54 6468.5 1072.54M5327.5 1046.53 6468.5 1046.53M5327.5 1025.53 6468.5 1025.53M5327.5 1009.53 6468.5 1009.53M5327.5 994.533 6468.5 994.533M5327.5 982.532 6468.5 982.532M5327.5 971.532 6468.5 971.532M5327.5 897.53 6468.5 897.53M5327.5 860.528 6468.5 860.528M5327.5 834.528 6468.5 834.528M5327.5 813.527 6468.5 813.527M5327.5 796.526 6468.5 796.526M5327.5 782.526 6468.5 782.526M5327.5 770.525 6468.5 770.525M5327.5 759.525 6468.5 759.525" stroke="#A5A5A5" stroke-width="3.4375" stroke-linejoin="round" stroke-miterlimit="10" fill="none"/></g><g clip-path="url(#clip2)"><path d="M5328 1387 6468 1387M5328 1174.04 6468 1174.04M5328 750 6468 750" stroke="#000000" stroke-width="5.72917" stroke-linejoin="round" stroke-miterlimit="10" fill="none"/></g><g clip-path="url(#clip3)"><path d="M5670.69 749.5 5670.69 1386.5M5871.69 749.5 5871.69 1386.5M6014.7 749.5 6014.7 1386.5M6124.7 749.5 6124.7 1386.5M6215.7 749.5 6215.7 1386.5M6291.71 749.5 6291.71 1386.5M6357.71 749.5 6357.71 1386.5M6415.71 749.5 6415.71 1386.5" stroke="#A5A5A5" stroke-width="3.4375" stroke-linejoin="round" stroke-miterlimit="10" fill="none"/></g><g clip-path="url(#clip4)"><path d="M6468.5 749.5 6468.5 1386.5" stroke="#D9D9D9" stroke-width="3.4375" stroke-linejoin="round" stroke-miterlimit="10" fill="none"/></g><g clip-path="url(#clip5)"><rect x="5328" y="750" width="1140" height="637" stroke="#000000" stroke-width="5.72917" stroke-linejoin="round" stroke-miterlimit="10" fill="none"/></g><g clip-path="url(#clip6)"><path d="M0 0 0.000360892 637" stroke="#000000" stroke-width="3.4375" stroke-linejoin="round" stroke-miterlimit="10" fill="none" fill-rule="evenodd" transform="matrix(1 0 0 -1 5327.5 1386.5)"/></g><g clip-path="url(#clip7)"><path d="M5328 962 6468 962.001" stroke="#000000" stroke-width="5.72917" stroke-linejoin="round" stroke-miterlimit="10" fill="none" fill-rule="evenodd"/></g><g clip-path="url(#clip8)"><path d="M5621.5 964C5621.5 970.074 5616.57 974.999 5610.5 974.999 5604.42 974.999 5599.5 970.074 5599.5 964 5599.5 957.925 5604.42 953 5610.5 953 5616.57 953 5621.5 957.925 5621.5 964Z" stroke="#4472C4" stroke-width="3.4375" stroke-linejoin="round" stroke-miterlimit="10" fill="#4472C4"/><path d="M5657.5 1053C5657.5 1059.07 5652.57 1064 5646.5 1064 5640.42 1064 5635.5 1059.07 5635.5 1053 5635.5 1046.92 5640.42 1042 5646.5 1042 5652.57 1042 5657.5 1046.92 5657.5 1053Z" stroke="#4472C4" stroke-width="3.4375" stroke-linejoin="round" stroke-miterlimit="10" fill="#4472C4"/><path d="M5784.5 1138C5784.5 1144.07 5779.57 1149 5773.5 1149 5767.42 1149 5762.5 1144.07 5762.5 1138 5762.5 1131.92 5767.42 1127 5773.5 1127 5779.57 1127 5784.5 1131.92 5784.5 1138Z" stroke="#4472C4" stroke-width="3.4375" stroke-linejoin="round" stroke-miterlimit="10" fill="#4472C4"/><path d="M5948.5 1172C5948.5 1178.07 5943.57 1183 5937.5 1183 5931.42 1183 5926.5 1178.07 5926.5 1172 5926.5 1165.92 5931.42 1161 5937.5 1161 5943.57 1161 5948.5 1165.92 5948.5 1172Z" stroke="#4472C4" stroke-width="3.4375" stroke-linejoin="round" stroke-miterlimit="10" fill="#4472C4"/></g><g clip-path="url(#clip9)"><path d="M5610.5 976 5621.5 997.999 5599.5 997.999Z" stroke="#ED7D31" stroke-width="3.4375" stroke-linejoin="round" stroke-miterlimit="10" fill="#ED7D31"/><path d="M5646.5 1152 5657.5 1174 5635.5 1174Z" stroke="#ED7D31" stroke-width="3.4375" stroke-linejoin="round" stroke-miterlimit="10" fill="#ED7D31"/><path d="M5773.5 1211 5784.5 1233 5762.5 1233Z" stroke="#ED7D31" stroke-width="3.4375" stroke-linejoin="round" stroke-miterlimit="10" fill="#ED7D31"/><path d="M5937.5 1212 5948.5 1234 5926.5 1234Z" stroke="#ED7D31" stroke-width="3.4375" stroke-linejoin="round" stroke-miterlimit="10" fill="#ED7D31"/></g><g clip-path="url(#clip10)"><text font-family="Calibri,Calibri_MSFontService,sans-serif" font-weight="400" font-size="64" transform="matrix(1 0 0 1 5154.28 1405)">0.01</text></g><g clip-path="url(#clip11)"><text font-family="Calibri,Calibri_MSFontService,sans-serif" font-weight="400" font-size="64" transform="matrix(1 0 0 1 5186.8 1193)">0.1</text></g><g clip-path="url(#clip12)"><text font-family="Calibri,Calibri_MSFontService,sans-serif" font-weight="400" font-size="64" transform="matrix(1 0 0 1 5235.52 980)">1</text></g><g clip-path="url(#clip13)"><text font-family="Calibri,Calibri_MSFontService,sans-serif" font-weight="400" font-size="64" transform="matrix(1 0 0 1 5203 768)">10</text></g><g clip-path="url(#clip14)"><text font-family="Calibri,Calibri_MSFontService,sans-serif" font-weight="400" font-size="64" transform="matrix(1 0 0 1 5262.53 1488)">1000</text></g><g clip-path="url(#clip15)"><text font-family="Calibri,Calibri_MSFontService,sans-serif" font-weight="400" font-size="64" transform="matrix(1 0 0 1 6386.99 1488)">10000</text></g><g clip-path="url(#clip16)"><text font-family="Calibri,Calibri_MSFontService,sans-serif" font-weight="400" font-size="83" transform="matrix(6.12323e-17 -1 1 6.12323e-17 5086.29 1300)">Error norm [</text></g><g clip-path="url(#clip17)"><text font-family="Calibri,Calibri_MSFontService,sans-serif" font-weight="400" font-size="83" transform="matrix(6.12323e-17 -1 1 6.12323e-17 5086.29 887)">-</text></g><g clip-path="url(#clip18)"><text font-family="Calibri,Calibri_MSFontService,sans-serif" font-weight="400" font-size="83" transform="matrix(6.12323e-17 -1 1 6.12323e-17 5086.29 862)">]</text></g><g clip-path="url(#clip19)"><g clip-path="url(#clip20)"><text font-family="Calibri,Calibri_MSFontService,sans-serif" font-weight="400" font-size="83" transform="matrix(1 0 0 1 5341.32 1598)">Number of degrees of freedom [</text></g></g><g clip-path="url(#clip21)"><g clip-path="url(#clip22)"><text font-family="Calibri,Calibri_MSFontService,sans-serif" font-weight="400" font-size="83" transform="matrix(1 0 0 1 6425.85 1598)">-</text></g></g><g clip-path="url(#clip23)"><g clip-path="url(#clip24)"><text font-family="Calibri,Calibri_MSFontService,sans-serif" font-weight="400" font-size="83" transform="matrix(1 0 0 1 6451.1 1598)">]</text></g></g><g clip-path="url(#clip25)"><rect x="6225.5" y="802.5" width="176" height="155" stroke="#000000" stroke-width="3.4375" stroke-linejoin="round" stroke-miterlimit="10" fill="#FFFFFF"/></g><g clip-path="url(#clip26)"><path d="M6262 841C6262 847.075 6257.08 851.999 6251 851.999 6244.92 851.999 6240 847.075 6240 841 6240 834.925 6244.92 830 6251 830 6257.08 830 6262 834.925 6262 841Z" stroke="#4472C4" stroke-width="3.4375" stroke-linejoin="round" stroke-miterlimit="10" fill="#4472C4"/></g><g clip-path="url(#clip27)"><text font-family="Calibri,Calibri_MSFontService,sans-serif" font-weight="400" font-size="41" transform="matrix(1 0 0 1 6272.59 853)">Order2</text></g><g clip-path="url(#clip28)"><path d="M6251.5 907.5 6262.5 929.499 6240.5 929.499Z" stroke="#ED7D31" stroke-width="3.4375" stroke-linejoin="round" stroke-miterlimit="10" fill="#ED7D31"/></g><g clip-path="url(#clip29)"><text font-family="Calibri,Calibri_MSFontService,sans-serif" font-weight="400" font-size="41" transform="matrix(1 0 0 1 6272.59 930)">Order3</text></g></g></svg>