<?xml version="1.0" encoding="UTF-8" standalone="no"?>
<svg
   xmlns:dc="http://purl.org/dc/elements/1.1/"
   xmlns:cc="http://creativecommons.org/ns#"
   xmlns:rdf="http://www.w3.org/1999/02/22-rdf-syntax-ns#"
   xmlns:svg="http://www.w3.org/2000/svg"
   xmlns="http://www.w3.org/2000/svg"
   version="1.1"
   id="svg2"
   xml:space="preserve"
   width="610.66669"
   height="345.33334"
   viewBox="0 0 610.66669 345.33334"><metadata
     id="metadata8"><rdf:RDF><cc:Work
         rdf:about=""><dc:format>image/svg+xml</dc:format><dc:type
           rdf:resource="http://purl.org/dc/dcmitype/StillImage" /></cc:Work></rdf:RDF></metadata><defs
     id="defs6"><clipPath
       clipPathUnits="userSpaceOnUse"
       id="clipPath20"><path
         d="M 0,0 H 595.32001 V 841.92004 H 0 Z"
         id="path18" /></clipPath><clipPath
       clipPathUnits="userSpaceOnUse"
       id="clipPath34"><path
         d="m 67.199997,126.24 v 924.3201 H 726.56 V 126.24 Z"
         clip-rule="evenodd"
         id="path32" /></clipPath><clipPath
       clipPathUnits="userSpaceOnUse"
       id="clipPath62"><path
         d="m 67.199997,126.24 v 924.3201 H 726.56 V 126.24 Z"
         clip-rule="evenodd"
         id="path60" /></clipPath><clipPath
       clipPathUnits="userSpaceOnUse"
       id="clipPath192"><path
         d="m 67.199997,126.24 v 924.3201 H 726.56 V 126.24 Z"
         clip-rule="evenodd"
         id="path190" /></clipPath><clipPath
       clipPathUnits="userSpaceOnUse"
       id="clipPath214"><path
         d="m 67.199997,126.24 v 924.3201 H 726.56 V 126.24 Z"
         clip-rule="evenodd"
         id="path212" /></clipPath></defs><g
     id="g10"
     transform="matrix(1.3333333,0,0,-1.3333333,0,345.33333)"><g
       id="g12"
       transform="translate(-72,-275)"><g
         id="g14"><g
           id="g16"
           clip-path="url(#clipPath20)"><g
             id="g22"
             transform="matrix(0.75,0,0,-0.75,0,841.92004)"><g
               id="g24"><path
                 d="M 67.519997,397.76001 H 726.56 v 381.44 H 67.519997 Z"
                 style="fill:#ffffff;fill-opacity:1;fill-rule:nonzero;stroke:none"
                 id="path26" /></g><g
               id="g28"><g
                 id="g30"
                 clip-path="url(#clipPath34)"><g
                   id="g36"
                   transform="translate(177.75999,663.35998)"><path
                     d="M 0,0 H 508.79999 M 0,-16.16 H 508.79999 M 0,-27.360001 H 508.79999 M 0,-36.16 H 508.79999 M 0,-43.52 H 508.79999 M 0,-49.599998 H 508.79999 M 0,-54.880001 H 508.79999 M 0,-59.52 H 508.79999 M 0,-91.199997 H 508.79999 M 0,-107.04 H 508.79999 M 0,-118.56 H 508.79999 M 0,-127.36 H 508.79999 M 0,-134.72 H 508.79999 M 0,-140.64 H 508.79999 M 0,-145.92 H 508.79999 M 0,-150.56 H 508.79999 M 0,-182.08 H 508.79999 M 0,-198.24 H 508.79999 M 0,-209.60001 H 508.79999 M 0,-218.56 H 508.79999 M 0,-225.60001 H 508.79999 M 0,-231.67999 H 508.79999 M 0,-236.96001 H 508.79999 M 0,-241.75999 h 508.79999"
                     style="fill:none;stroke:#a5a5a5;stroke-width:1.28;stroke-linecap:butt;stroke-linejoin:round;stroke-miterlimit:10;stroke-dasharray:none;stroke-opacity:1"
                     id="path38" /></g><g
                   id="g40"><path
                     d="M 177.75999,690.71997 H 686.56 M 177.75999,599.52002 H 686.56 M 177.75999,417.60001 H 686.56"
                     style="fill:none;stroke:#000000;stroke-width:2.24;stroke-linecap:butt;stroke-linejoin:round;stroke-miterlimit:10;stroke-dasharray:none;stroke-opacity:1"
                     id="path42" /></g><g
                   id="g44"
                   transform="translate(330.88,417.60001)"><path
                     d="M 0,0 V 273.12 M 89.760002,0 V 273.12 M 153.28,0 V 273.12 M 202.56,0 V 273.12 M 242.88,0 V 273.12 M 276.95999,0 V 273.12 M 306.39999,0 V 273.12 M 332.32001,0 v 273.12"
                     style="fill:none;stroke:#a5a5a5;stroke-width:1.28;stroke-linecap:butt;stroke-linejoin:round;stroke-miterlimit:10;stroke-dasharray:none;stroke-opacity:1"
                     id="path46" /></g><g
                   id="g48"><path
                     d="M 686.56,417.60001 V 690.71997"
                     style="fill:none;stroke:#d9d9d9;stroke-width:1.28;stroke-linecap:butt;stroke-linejoin:round;stroke-miterlimit:10;stroke-dasharray:none;stroke-opacity:1"
                     id="path50" /></g></g></g><g
               id="g52"><path
                 d="M 177.75999,417.60001 H 686.56 V 690.71997 H 177.75999 Z"
                 style="fill:none;stroke:#000000;stroke-width:2.24;stroke-linecap:butt;stroke-linejoin:round;stroke-miterlimit:10;stroke-dasharray:none;stroke-opacity:1"
                 id="path54" /></g><g
               id="g56"><g
                 id="g58"
                 clip-path="url(#clipPath62)"><g
                   id="g64"><path
                     d="M 177.75999,690.71997 V 417.60001"
                     style="fill:none;stroke:#000000;stroke-width:1.28;stroke-linecap:butt;stroke-linejoin:round;stroke-miterlimit:10;stroke-dasharray:none;stroke-opacity:1"
                     id="path66" /></g><g
                   id="g68"><path
                     d="M 177.75999,508.64001 H 686.56"
                     style="fill:none;stroke:#000000;stroke-width:2.24;stroke-linecap:butt;stroke-linejoin:round;stroke-miterlimit:10;stroke-dasharray:none;stroke-opacity:1"
                     id="path70" /></g><g
                   id="g72"
                   transform="translate(308.79999,532.15997)"><path
                     d="m 0,0 c 0,2.56 -2.08,4.64 -4.48,4.64 -2.56,0 -4.48,-2.08 -4.48,-4.64 0,-2.4 1.92,-4.48 4.48,-4.48 C -2.08,-4.48 0,-2.4 0,0 Z"
                     style="fill:#4472c4;fill-opacity:1;fill-rule:nonzero;stroke:none"
                     id="path74" /></g><g
                   id="g76"
                   transform="translate(308.79999,532.15997)"><path
                     d="m 0,0 c 0,2.56 -2.08,4.64 -4.48,4.64 -2.56,0 -4.48,-2.08 -4.48,-4.64 0,-2.4 1.92,-4.48 4.48,-4.48 C -2.08,-4.48 0,-2.4 0,0"
                     style="fill:none;stroke:#4472c4;stroke-width:1.28;stroke-linecap:butt;stroke-linejoin:round;stroke-miterlimit:10;stroke-dasharray:none;stroke-opacity:1"
                     id="path78" /></g><g
                   id="g80"
                   transform="translate(324.48001,548)"><path
                     d="M 0,0 C 0,2.4 -1.92,4.48 -4.48,4.48 -7.04,4.48 -8.96,2.4 -8.96,0 c 0,-2.56 1.92,-4.48 4.48,-4.48 C -1.92,-4.48 0,-2.56 0,0 Z"
                     style="fill:#4472c4;fill-opacity:1;fill-rule:nonzero;stroke:none"
                     id="path82" /></g><g
                   id="g84"
                   transform="translate(324.48001,548)"><path
                     d="M 0,0 C 0,2.4 -1.92,4.48 -4.48,4.48 -7.04,4.48 -8.96,2.4 -8.96,0 c 0,-2.56 1.92,-4.48 4.48,-4.48 C -1.92,-4.48 0,-2.56 0,0"
                     style="fill:none;stroke:#4472c4;stroke-width:1.28;stroke-linecap:butt;stroke-linejoin:round;stroke-miterlimit:10;stroke-dasharray:none;stroke-opacity:1"
                     id="path86" /></g><g
                   id="g88"
                   transform="translate(381.44,590.40002)"><path
                     d="m 0,0 c 0,2.56 -2.08,4.48 -4.48,4.48 -2.56,0 -4.64,-1.92 -4.64,-4.48 0,-2.56 2.08,-4.48 4.64,-4.48 2.4,0 4.48,1.92 4.48,4.48 z"
                     style="fill:#4472c4;fill-opacity:1;fill-rule:nonzero;stroke:none"
                     id="path90" /></g><g
                   id="g92"
                   transform="translate(381.44,590.40002)"><path
                     d="m 0,0 c 0,2.56 -2.08,4.48 -4.48,4.48 -2.56,0 -4.64,-1.92 -4.64,-4.48 0,-2.56 2.08,-4.48 4.64,-4.48 2.4,0 4.48,1.92 4.48,4.48"
                     style="fill:none;stroke:#4472c4;stroke-width:1.28;stroke-linecap:butt;stroke-linejoin:round;stroke-miterlimit:10;stroke-dasharray:none;stroke-opacity:1"
                     id="path94" /></g><g
                   id="g96"
                   transform="translate(454.23999,616)"><path
                     d="m 0,0 c 0,2.56 -2.08,4.64 -4.48,4.64 -2.56,0 -4.48,-2.08 -4.48,-4.64 0,-2.4 1.92,-4.48 4.48,-4.48 C -2.08,-4.48 0,-2.4 0,0 Z"
                     style="fill:#4472c4;fill-opacity:1;fill-rule:nonzero;stroke:none"
                     id="path98" /></g><g
                   id="g100"
                   transform="translate(454.23999,616)"><path
                     d="m 0,0 c 0,2.56 -2.08,4.64 -4.48,4.64 -2.56,0 -4.48,-2.08 -4.48,-4.64 0,-2.4 1.92,-4.48 4.48,-4.48 C -2.08,-4.48 0,-2.4 0,0"
                     style="fill:none;stroke:#4472c4;stroke-width:1.28;stroke-linecap:butt;stroke-linejoin:round;stroke-miterlimit:10;stroke-dasharray:none;stroke-opacity:1"
                     id="path102" /></g><g
                   id="g104"><path
                     d="m 304.32001,556 4.47998,8.96002 H 299.84 Z"
                     style="fill:#ed7d31;fill-opacity:1;fill-rule:nonzero;stroke:none"
                     id="path106" /></g><g
                   id="g108"><path
                     d="m 304.32001,556 4.47998,8.96002 H 299.84 Z"
                     style="fill:none;stroke:#ed7d31;stroke-width:1.28;stroke-linecap:butt;stroke-linejoin:round;stroke-miterlimit:10;stroke-dasharray:none;stroke-opacity:1"
                     id="path110" /></g><g
                   id="g112"><path
                     d="m 320,611.35998 4.48001,8.96003 h -8.96002 z"
                     style="fill:#ed7d31;fill-opacity:1;fill-rule:nonzero;stroke:none"
                     id="path114" /></g><g
                   id="g116"><path
                     d="m 320,611.35998 4.48001,8.96003 h -8.96002 z"
                     style="fill:none;stroke:#ed7d31;stroke-width:1.28;stroke-linecap:butt;stroke-linejoin:round;stroke-miterlimit:10;stroke-dasharray:none;stroke-opacity:1"
                     id="path118" /></g><g
                   id="g120"><path
                     d="m 376.95999,661.28003 4.48001,9.11999 h -9.11999 z"
                     style="fill:#ed7d31;fill-opacity:1;fill-rule:nonzero;stroke:none"
                     id="path122" /></g><g
                   id="g124"><path
                     d="m 376.95999,661.28003 4.48001,9.11999 h -9.11999 z"
                     style="fill:none;stroke:#ed7d31;stroke-width:1.28;stroke-linecap:butt;stroke-linejoin:round;stroke-miterlimit:10;stroke-dasharray:none;stroke-opacity:1"
                     id="path126" /></g><g
                   id="g128"><path
                     d="m 449.76001,673.59998 4.47998,9.11999 H 445.28 Z"
                     style="fill:#ed7d31;fill-opacity:1;fill-rule:nonzero;stroke:none"
                     id="path130" /></g><g
                   id="g132"><path
                     d="m 449.76001,673.59998 4.47998,9.11999 H 445.28 Z"
                     style="fill:none;stroke:#ed7d31;stroke-width:1.28;stroke-linecap:butt;stroke-linejoin:round;stroke-miterlimit:10;stroke-dasharray:none;stroke-opacity:1"
                     id="path134" /></g></g></g><g
               id="g136"
               transform="scale(0.049319)"><text
                 transform="translate(2718.5601,14099.4)"
                 style="font-variant:normal;font-weight:normal;font-size:327.68px;font-family:F1;-inkscape-font-specification:F1;writing-mode:lr-tb;fill:#000000;fill-opacity:1;fill-rule:nonzero;stroke:none"
                 id="text140"><tspan
                   x="0 167.11679 249.03679 416.15359"
                   y="0"
                   id="tspan138">0.01</tspan></text></g><g
               id="g142"
               transform="scale(0.049319)"><text
                 transform="translate(2884.1599,12253.3)"
                 style="font-variant:normal;font-weight:normal;font-size:327.68px;font-family:F1;-inkscape-font-specification:F1;writing-mode:lr-tb;fill:#000000;fill-opacity:1;fill-rule:nonzero;stroke:none"
                 id="text146"><tspan
                   x="0 167.11679 249.03679"
                   y="0"
                   id="tspan144">0.1</tspan></text></g><g
               id="g148"
               transform="scale(0.049319)"><text
                 transform="translate(3133.9199,10404.2)"
                 style="font-variant:normal;font-weight:normal;font-size:327.68px;font-family:F1;-inkscape-font-specification:F1;writing-mode:lr-tb;fill:#000000;fill-opacity:1;fill-rule:nonzero;stroke:none"
                 id="text152"><tspan
                   x="0"
                   y="0"
                   id="tspan150">1</tspan></text></g><g
               id="g154"
               transform="scale(0.049319)"><text
                 transform="translate(2968.48,8558.2402)"
                 style="font-variant:normal;font-weight:normal;font-size:327.68px;font-family:F1;-inkscape-font-specification:F1;writing-mode:lr-tb;fill:#000000;fill-opacity:1;fill-rule:nonzero;stroke:none"
                 id="text158"><tspan
                   x="0 163.84"
                   y="0"
                   id="tspan156">10</tspan></text></g><g
               id="g160"
               transform="scale(0.049319)"><text
                 transform="translate(3273.4399,14524.3)"
                 style="font-variant:normal;font-weight:normal;font-size:327.68px;font-family:F1;-inkscape-font-specification:F1;writing-mode:lr-tb;fill:#000000;fill-opacity:1;fill-rule:nonzero;stroke:none"
                 id="text164"><tspan
                   x="0 163.84 330.95679 494.79678 10230.169 10397.286 10564.403 10728.243 10895.359"
                   y="0"
                   id="tspan162">100010000</tspan></text></g><g
               id="g166"
               transform="matrix(0,-0.076937,0.076937,0,0,0)"><text
                 transform="translate(-8120.96,1478.5601)"
                 style="font-variant:normal;font-weight:normal;font-size:327.68px;font-family:F1;-inkscape-font-specification:F1;writing-mode:lr-tb;fill:#000000;fill-opacity:1;fill-rule:nonzero;stroke:none"
                 id="text170"><tspan
                   x="0 157.28639 275.25119 383.38559 557.05597 671.74396 740.55676 914.22717 1084.6207 1199.3087 1461.4528 1533.5424 1635.1232 1736.704"
                   y="0"
                   id="tspan168">Error norm [-]</tspan></text></g><g
               id="g172"
               transform="scale(0.076937)"><text
                 transform="translate(3366.8799,9749.2803)"
                 style="font-variant:normal;font-weight:normal;font-size:327.68px;font-family:F1;-inkscape-font-specification:F1;writing-mode:lr-tb;fill:#000000;fill-opacity:1;fill-rule:nonzero;stroke:none"
                 id="text176"><tspan
                   x="0 212.99199 383.38559 645.5296 815.92316 976.48639 1094.4512 1166.5408 1340.2112 1441.792 1513.8816 1684.2751 1848.1151 2002.1248 2110.259 2274.0991 2434.6624 2565.7344 2637.824 2808.2175 2913.0752 2985.1648 3083.4688 3194.8799 3355.4431 3519.2832 3689.6768 3863.3472 4122.2144 4197.5806 4295.8848 4397.4653"
                   y="0"
                   id="tspan174">Number of degrees of freedom [-]</tspan></text></g><g
               id="g178"><path
                 d="m 577.12,442.07999 h 70.40002 v 59.68002 H 577.12 Z"
                 style="fill:#ffffff;fill-opacity:1;fill-rule:nonzero;stroke:none"
                 id="path180" /></g><g
               id="g182"><path
                 d="m 577.12,442.07999 h 70.40002 v 59.68002 H 577.12 Z"
                 style="fill:none;stroke:#000000;stroke-width:1.28;stroke-linecap:butt;stroke-linejoin:round;stroke-miterlimit:10;stroke-dasharray:none;stroke-opacity:1"
                 id="path184" /></g><g
               id="g186"><g
                 id="g188"
                 clip-path="url(#clipPath192)"><g
                   id="g194"
                   transform="translate(592.15997,456.95999)"><path
                     d="m 0,0 c 0,2.4 -2.08,4.48 -4.64,4.48 -2.4,0 -4.48,-2.08 -4.48,-4.48 0,-2.56 2.08,-4.48 4.48,-4.48 C -2.08,-4.48 0,-2.56 0,0 Z"
                     style="fill:#4472c4;fill-opacity:1;fill-rule:nonzero;stroke:none"
                     id="path196" /></g><g
                   id="g198"
                   transform="translate(592.15997,456.95999)"><path
                     d="m 0,0 c 0,2.4 -2.08,4.48 -4.64,4.48 -2.4,0 -4.48,-2.08 -4.48,-4.48 0,-2.56 2.08,-4.48 4.48,-4.48 C -2.08,-4.48 0,-2.56 0,0"
                     style="fill:none;stroke:#4472c4;stroke-width:1.28;stroke-linecap:butt;stroke-linejoin:round;stroke-miterlimit:10;stroke-dasharray:none;stroke-opacity:1"
                     id="path200" /></g></g></g><g
               id="g202"
               transform="scale(0.049319)"><text
                 transform="translate(12078.1,9359.5195)"
                 style="font-variant:normal;font-weight:normal;font-size:327.68px;font-family:F1;-inkscape-font-specification:F1;writing-mode:lr-tb;fill:#000000;fill-opacity:1;fill-rule:nonzero;stroke:none"
                 id="text206"><tspan
                   x="0 219.54559 334.23358 501.3504 671.74396 786.43201"
                   y="0"
                   id="tspan204">Order2</tspan></text></g><g
               id="g208"><g
                 id="g210"
                 clip-path="url(#clipPath214)"><g
                   id="g216"><path
                     d="m 587.52002,482.07999 4.63995,9.12002 h -9.11999 z"
                     style="fill:#ed7d31;fill-opacity:1;fill-rule:nonzero;stroke:none"
                     id="path218" /></g><g
                   id="g220"><path
                     d="m 587.52002,482.07999 4.63995,9.12002 h -9.11999 z"
                     style="fill:none;stroke:#ed7d31;stroke-width:1.28;stroke-linecap:butt;stroke-linejoin:round;stroke-miterlimit:10;stroke-dasharray:none;stroke-opacity:1"
                     id="path222" /></g></g></g><g
               id="g224"
               transform="scale(0.049319)"><text
                 transform="translate(12078.1,9966.2402)"
                 style="font-variant:normal;font-weight:normal;font-size:327.68px;font-family:F1;-inkscape-font-specification:F1;writing-mode:lr-tb;fill:#000000;fill-opacity:1;fill-rule:nonzero;stroke:none"
                 id="text228"><tspan
                   x="0 219.54559 334.23358 501.3504 671.74396 786.43201"
                   y="0"
                   id="tspan226">Order3</tspan></text></g></g></g></g></g></g></svg>
