<svg width="1650" height="990" xmlns="http://www.w3.org/2000/svg" xmlns:xlink="http://www.w3.org/1999/xlink" overflow="hidden"><defs><clipPath id="clip0"><rect x="4936" y="780" width="1650" height="990"/></clipPath><clipPath id="clip1"><rect x="4936" y="780" width="1650" height="990"/></clipPath><clipPath id="clip2"><rect x="4936" y="780" width="1650" height="990"/></clipPath><clipPath id="clip3"><rect x="4936" y="780" width="1650" height="990"/></clipPath><clipPath id="clip4"><rect x="4936" y="780" width="1650" height="990"/></clipPath><clipPath id="clip5"><rect x="4936" y="780" width="1650" height="990"/></clipPath><clipPath id="clip6"><rect x="4936" y="780" width="1650" height="990"/></clipPath><clipPath id="clip7"><rect x="4936" y="780" width="1650" height="990"/></clipPath><clipPath id="clip8"><rect x="4936" y="780" width="1650" height="990"/></clipPath><clipPath id="clip9"><rect x="4936" y="780" width="1650" height="990"/></clipPath><clipPath id="clip10"><rect x="4936" y="780" width="1650" height="990"/></clipPath><clipPath id="clip11"><rect x="4936" y="780" width="1650" height="990"/></clipPath><clipPath id="clip12"><rect x="4936" y="780" width="1650" height="990"/></clipPath><clipPath id="clip13"><rect x="4936" y="780" width="1650" height="990"/></clipPath><clipPath id="clip14"><rect x="4936" y="780" width="1650" height="990"/></clipPath><clipPath id="clip15"><rect x="4936" y="780" width="1650" height="990"/></clipPath><clipPath id="clip16"><rect x="4936" y="780" width="1650" height="990"/></clipPath><clipPath id="clip17"><rect x="4936" y="780" width="1650" height="990"/></clipPath><clipPath id="clip18"><rect x="4936" y="780" width="1650" height="990"/></clipPath><clipPath id="clip19"><rect x="4936" y="780" width="1650" height="990"/></clipPath><clipPath id="clip20"><rect x="1922" y="1563" width="7946" height="199"/></clipPath><clipPath id="clip21"><rect x="4936" y="780" width="1650" height="990"/></clipPath><clipPath id="clip22"><rect x="1922" y="1563" width="7946" height="199"/></clipPath><clipPath id="clip23"><rect x="4936" y="780" width="1650" height="990"/></clipPath><clipPath id="clip24"><rect x="1922" y="1563" width="7946" height="199"/></clipPath><clipPath id="clip25"><rect x="4936" y="780" width="1650" height="990"/></clipPath><clipPath id="clip26"><rect x="4936" y="780" width="1650" height="990"/></clipPath><clipPath id="clip27"><rect x="4936" y="780" width="1650" height="990"/></clipPath><clipPath id="clip28"><rect x="4936" y="780" width="1650" height="990"/></clipPath><clipPath id="clip29"><rect x="4936" y="780" width="1650" height="990"/></clipPath></defs><g clip-path="url(#clip0)" transform="translate(-4936 -780)"><rect x="4936" y="780" width="1650" height="990" fill="#FFFFFF"/><g clip-path="url(#clip1)"><path d="M5313.5 1415.55 6454.5 1415.55M5313.5 1378.55 6454.5 1378.55M5313.5 1351.54 6454.5 1351.54M5313.5 1331.54 6454.5 1331.54M5313.5 1314.54 6454.5 1314.54M5313.5 1299.54 6454.5 1299.54M5313.5 1287.54 6454.5 1287.54M5313.5 1276.54 6454.5 1276.54M5313.5 1203.54 6454.5 1203.54M5313.5 1165.54 6454.5 1165.54M5313.5 1139.54 6454.5 1139.54M5313.5 1118.54 6454.5 1118.54M5313.5 1101.54 6454.5 1101.54M5313.5 1087.54 6454.5 1087.54M5313.5 1075.54 6454.5 1075.54M5313.5 1064.54 6454.5 1064.54M5313.5 990.533 6454.5 990.533M5313.5 953.531 6454.5 953.531M5313.5 926.531 6454.5 926.531M5313.5 906.53 6454.5 906.53M5313.5 889.529 6454.5 889.529M5313.5 875.529 6454.5 875.529M5313.5 862.529 6454.5 862.529M5313.5 852.528 6454.5 852.528" stroke="#A5A5A5" stroke-width="3.4375" stroke-linejoin="round" stroke-miterlimit="10" fill="none"/></g><g clip-path="url(#clip2)"><path d="M5314 1479 6455 1479M5314 1267.04 6455 1267.04M5314 842 6455 842" stroke="#000000" stroke-width="5.72917" stroke-linejoin="round" stroke-miterlimit="10" fill="none"/></g><g clip-path="url(#clip3)"><path d="M5657.69 842.5 5657.69 1479.5M5857.69 842.5 5857.69 1479.5M6000.7 842.5 6000.7 1479.5M6110.7 842.5 6110.7 1479.5M6201.7 842.5 6201.7 1479.5M6277.71 842.5 6277.71 1479.5M6343.71 842.5 6343.71 1479.5M6402.71 842.5 6402.71 1479.5" stroke="#A5A5A5" stroke-width="3.4375" stroke-linejoin="round" stroke-miterlimit="10" fill="none"/></g><g clip-path="url(#clip4)"><path d="M6454.5 842.5 6454.5 1479.5" stroke="#D9D9D9" stroke-width="3.4375" stroke-linejoin="round" stroke-miterlimit="10" fill="none"/></g><g clip-path="url(#clip5)"><rect x="5314" y="842" width="1141" height="637" stroke="#000000" stroke-width="5.72917" stroke-linejoin="round" stroke-miterlimit="10" fill="none"/></g><g clip-path="url(#clip6)"><path d="M0 0 0.000360892 637" stroke="#000000" stroke-width="3.4375" stroke-linejoin="round" stroke-miterlimit="10" fill="none" fill-rule="evenodd" transform="matrix(1 0 0 -1 5313.5 1479.5)"/></g><g clip-path="url(#clip7)"><path d="M5314 1055 6455 1055" stroke="#000000" stroke-width="5.72917" stroke-linejoin="round" stroke-miterlimit="10" fill="none" fill-rule="evenodd"/></g><g clip-path="url(#clip8)"><path d="M5608.75 1109.81C5608.75 1115.89 5603.82 1120.81 5597.75 1120.81 5591.67 1120.81 5586.75 1115.89 5586.75 1109.81 5586.75 1103.74 5591.67 1098.81 5597.75 1098.81 5603.82 1098.81 5608.75 1103.74 5608.75 1109.81Z" stroke="#4472C4" stroke-width="3.4375" stroke-linejoin="round" stroke-miterlimit="10" fill="#4472C4"/><path d="M5643.75 1146.81C5643.75 1152.89 5638.82 1157.81 5632.75 1157.81 5626.67 1157.81 5621.75 1152.89 5621.75 1146.81 5621.75 1140.74 5626.67 1135.81 5632.75 1135.81 5638.82 1135.81 5643.75 1140.74 5643.75 1146.81Z" stroke="#4472C4" stroke-width="3.4375" stroke-linejoin="round" stroke-miterlimit="10" fill="#4472C4"/><path d="M5771.75 1245.81C5771.75 1251.89 5766.82 1256.81 5760.75 1256.81 5754.67 1256.81 5749.75 1251.89 5749.75 1245.81 5749.75 1239.74 5754.67 1234.81 5760.75 1234.81 5766.82 1234.81 5771.75 1239.74 5771.75 1245.81Z" stroke="#4472C4" stroke-width="3.4375" stroke-linejoin="round" stroke-miterlimit="10" fill="#4472C4"/><path d="M5934.75 1305.81C5934.75 1311.89 5929.82 1316.81 5923.75 1316.81 5917.67 1316.81 5912.75 1311.89 5912.75 1305.81 5912.75 1299.74 5917.67 1294.81 5923.75 1294.81 5929.82 1294.81 5934.75 1299.74 5934.75 1305.81Z" stroke="#4472C4" stroke-width="3.4375" stroke-linejoin="round" stroke-miterlimit="10" fill="#4472C4"/></g><g clip-path="url(#clip9)"><path d="M5597.75 1164.81 5608.75 1186.81 5586.75 1186.81Z" stroke="#ED7D31" stroke-width="3.4375" stroke-linejoin="round" stroke-miterlimit="10" fill="#ED7D31"/><path d="M5632.75 1293.81 5643.75 1315.81 5621.75 1315.81Z" stroke="#ED7D31" stroke-width="3.4375" stroke-linejoin="round" stroke-miterlimit="10" fill="#ED7D31"/><path d="M5760.75 1410.81 5771.75 1432.81 5749.75 1432.81Z" stroke="#ED7D31" stroke-width="3.4375" stroke-linejoin="round" stroke-miterlimit="10" fill="#ED7D31"/><path d="M5923.75 1438.81 5934.75 1460.81 5912.75 1460.81Z" stroke="#ED7D31" stroke-width="3.4375" stroke-linejoin="round" stroke-miterlimit="10" fill="#ED7D31"/></g><g clip-path="url(#clip10)"><text font-family="Calibri,Calibri_MSFontService,sans-serif" font-weight="400" font-size="64" transform="matrix(1 0 0 1 5140.53 1498)">0.01</text></g><g clip-path="url(#clip11)"><text font-family="Calibri,Calibri_MSFontService,sans-serif" font-weight="400" font-size="64" transform="matrix(1 0 0 1 5173.05 1285)">0.1</text></g><g clip-path="url(#clip12)"><text font-family="Calibri,Calibri_MSFontService,sans-serif" font-weight="400" font-size="64" transform="matrix(1 0 0 1 5221.77 1073)">1</text></g><g clip-path="url(#clip13)"><text font-family="Calibri,Calibri_MSFontService,sans-serif" font-weight="400" font-size="64" transform="matrix(1 0 0 1 5189.25 861)">10</text></g><g clip-path="url(#clip14)"><text font-family="Calibri,Calibri_MSFontService,sans-serif" font-weight="400" font-size="64" transform="matrix(1 0 0 1 5248.78 1581)">1000</text></g><g clip-path="url(#clip15)"><text font-family="Calibri,Calibri_MSFontService,sans-serif" font-weight="400" font-size="64" transform="matrix(1 0 0 1 6373.24 1581)">10000</text></g><g clip-path="url(#clip16)"><text font-family="Calibri,Calibri_MSFontService,sans-serif" font-weight="400" font-size="83" transform="matrix(6.12323e-17 -1 1 6.12323e-17 5072.54 1393)">Error norm [</text></g><g clip-path="url(#clip17)"><text font-family="Calibri,Calibri_MSFontService,sans-serif" font-weight="400" font-size="83" transform="matrix(6.12323e-17 -1 1 6.12323e-17 5072.54 980)">-</text></g><g clip-path="url(#clip18)"><text font-family="Calibri,Calibri_MSFontService,sans-serif" font-weight="400" font-size="83" transform="matrix(6.12323e-17 -1 1 6.12323e-17 5072.54 955)">]</text></g><g clip-path="url(#clip19)"><g clip-path="url(#clip20)"><text font-family="Calibri,Calibri_MSFontService,sans-serif" font-weight="400" font-size="83" transform="matrix(1 0 0 1 5327.57 1691)">Number of degrees of freedom [</text></g></g><g clip-path="url(#clip21)"><g clip-path="url(#clip22)"><text font-family="Calibri,Calibri_MSFontService,sans-serif" font-weight="400" font-size="83" transform="matrix(1 0 0 1 6412.1 1691)">-</text></g></g><g clip-path="url(#clip23)"><g clip-path="url(#clip24)"><text font-family="Calibri,Calibri_MSFontService,sans-serif" font-weight="400" font-size="83" transform="matrix(1 0 0 1 6437.35 1691)">]</text></g></g><g clip-path="url(#clip25)"><rect x="6211.5" y="895.5" width="177" height="155" stroke="#000000" stroke-width="3.4375" stroke-linejoin="round" stroke-miterlimit="10" fill="#FFFFFF"/></g><g clip-path="url(#clip26)"><path d="M6248.02 934C6248.02 940.075 6243.31 945 6237.5 945 6231.69 945 6226.98 940.075 6226.98 934 6226.98 927.925 6231.69 923 6237.5 923 6243.31 923 6248.02 927.925 6248.02 934Z" stroke="#4472C4" stroke-width="3.4375" stroke-linejoin="round" stroke-miterlimit="10" fill="#4472C4"/></g><g clip-path="url(#clip27)"><text font-family="Calibri,Calibri_MSFontService,sans-serif" font-weight="400" font-size="41" transform="matrix(1 0 0 1 6258.84 946)">Order2</text></g><g clip-path="url(#clip28)"><path d="M6237.5 1000.5 6248.5 1022.5 6226.5 1022.5Z" stroke="#ED7D31" stroke-width="3.4375" stroke-linejoin="round" stroke-miterlimit="10" fill="#ED7D31"/></g><g clip-path="url(#clip29)"><text font-family="Calibri,Calibri_MSFontService,sans-serif" font-weight="400" font-size="41" transform="matrix(1 0 0 1 6258.84 1023)">Order3</text></g></g></svg>