<svg width="1650" height="991" xmlns="http://www.w3.org/2000/svg" xmlns:xlink="http://www.w3.org/1999/xlink" overflow="hidden"><defs><clipPath id="clip0"><rect x="5019" y="783" width="1650" height="991"/></clipPath><clipPath id="clip1"><rect x="5018" y="783" width="1650" height="990"/></clipPath><clipPath id="clip2"><rect x="5018" y="783" width="1650" height="990"/></clipPath><clipPath id="clip3"><rect x="5018" y="783" width="1650" height="990"/></clipPath><clipPath id="clip4"><rect x="5018" y="783" width="1650" height="990"/></clipPath><clipPath id="clip5"><rect x="5018" y="783" width="1650" height="990"/></clipPath><clipPath id="clip6"><rect x="5018" y="783" width="1650" height="990"/></clipPath><clipPath id="clip7"><rect x="5018" y="783" width="1650" height="990"/></clipPath><clipPath id="clip8"><rect x="5018" y="783" width="1650" height="990"/></clipPath><clipPath id="clip9"><rect x="5018" y="783" width="1650" height="990"/></clipPath><clipPath id="clip10"><rect x="5018" y="783" width="1650" height="990"/></clipPath><clipPath id="clip11"><rect x="5018" y="783" width="1650" height="990"/></clipPath><clipPath id="clip12"><rect x="5018" y="783" width="1650" height="990"/></clipPath><clipPath id="clip13"><rect x="5018" y="783" width="1650" height="990"/></clipPath><clipPath id="clip14"><rect x="5018" y="783" width="1650" height="990"/></clipPath><clipPath id="clip15"><rect x="5018" y="783" width="1650" height="990"/></clipPath><clipPath id="clip16"><rect x="5018" y="783" width="1650" height="990"/></clipPath><clipPath id="clip17"><rect x="5018" y="783" width="1650" height="990"/></clipPath><clipPath id="clip18"><rect x="5018" y="783" width="1650" height="990"/></clipPath><clipPath id="clip19"><rect x="5018" y="783" width="1650" height="990"/></clipPath><clipPath id="clip20"><rect x="2004" y="1567" width="7947" height="199"/></clipPath><clipPath id="clip21"><rect x="5018" y="783" width="1650" height="990"/></clipPath><clipPath id="clip22"><rect x="2004" y="1567" width="7947" height="199"/></clipPath><clipPath id="clip23"><rect x="5018" y="783" width="1650" height="990"/></clipPath><clipPath id="clip24"><rect x="2004" y="1567" width="7947" height="199"/></clipPath><clipPath id="clip25"><rect x="5018" y="783" width="1650" height="990"/></clipPath><clipPath id="clip26"><rect x="5018" y="783" width="1650" height="990"/></clipPath><clipPath id="clip27"><rect x="5018" y="783" width="1650" height="990"/></clipPath><clipPath id="clip28"><rect x="5018" y="783" width="1650" height="990"/></clipPath><clipPath id="clip29"><rect x="5018" y="783" width="1650" height="990"/></clipPath></defs><g clip-path="url(#clip0)" transform="translate(-5019 -783)"><rect x="5019" y="784" width="1650" height="990" fill="#FFFFFF"/><g clip-path="url(#clip1)"><path d="M5396.5 1418.55 6537.5 1418.55M5396.5 1381.55 6537.5 1381.55M5396.5 1355.54 6537.5 1355.54M5396.5 1334.54 6537.5 1334.54M5396.5 1317.54 6537.5 1317.54M5396.5 1303.54 6537.5 1303.54M5396.5 1291.54 6537.5 1291.54M5396.5 1280.54 6537.5 1280.54M5396.5 1206.54 6537.5 1206.54M5396.5 1169.54 6537.5 1169.54M5396.5 1142.54 6537.5 1142.54M5396.5 1122.54 6537.5 1122.54M5396.5 1105.54 6537.5 1105.54M5396.5 1091.54 6537.5 1091.54M5396.5 1078.54 6537.5 1078.54M5396.5 1067.54 6537.5 1067.54M5396.5 994.533 6537.5 994.533M5396.5 956.532 6537.5 956.532M5396.5 930.531 6537.5 930.531M5396.5 909.53 6537.5 909.53M5396.5 892.529 6537.5 892.529M5396.5 878.529 6537.5 878.529M5396.5 866.529 6537.5 866.529M5396.5 855.528 6537.5 855.528" stroke="#A5A5A5" stroke-width="3.4375" stroke-linejoin="round" stroke-miterlimit="10" fill="none"/></g><g clip-path="url(#clip2)"><path d="M5396 1483 6537 1483M5396 1271.04 6537 1271.04M5396 846 6537 846" stroke="#000000" stroke-width="5.72917" stroke-linejoin="round" stroke-miterlimit="10" fill="none"/></g><g clip-path="url(#clip3)"><path d="M5739.69 845.5 5739.69 1482.5M5940.7 845.5 5940.7 1482.5M6082.7 845.5 6082.7 1482.5M6193.7 845.5 6193.7 1482.5M6283.71 845.5 6283.71 1482.5M6360.71 845.5 6360.71 1482.5M6426.71 845.5 6426.71 1482.5M6484.71 845.5 6484.71 1482.5" stroke="#A5A5A5" stroke-width="3.4375" stroke-linejoin="round" stroke-miterlimit="10" fill="none"/></g><g clip-path="url(#clip4)"><path d="M6537.5 845.5 6537.5 1482.5" stroke="#D9D9D9" stroke-width="3.4375" stroke-linejoin="round" stroke-miterlimit="10" fill="none"/></g><g clip-path="url(#clip5)"><rect x="5396" y="846" width="1141" height="637" stroke="#000000" stroke-width="5.72917" stroke-linejoin="round" stroke-miterlimit="10" fill="none"/></g><g clip-path="url(#clip6)"><path d="M0 0 0.000360892 637" stroke="#000000" stroke-width="3.4375" stroke-linejoin="round" stroke-miterlimit="10" fill="none" fill-rule="evenodd" transform="matrix(1 0 0 -1 5396.5 1482.5)"/></g><g clip-path="url(#clip7)"><path d="M5396 1058 6537 1058" stroke="#000000" stroke-width="5.72917" stroke-linejoin="round" stroke-miterlimit="10" fill="none" fill-rule="evenodd"/></g><g clip-path="url(#clip8)"><path d="M5690.25 1178.25C5690.25 1184.32 5685.32 1189.25 5679.25 1189.25 5673.17 1189.25 5668.25 1184.32 5668.25 1178.25 5668.25 1172.17 5673.17 1167.25 5679.25 1167.25 5685.32 1167.25 5690.25 1172.17 5690.25 1178.25Z" stroke="#4472C4" stroke-width="3.4375" stroke-linejoin="round" stroke-miterlimit="10" fill="#4472C4"/><path d="M5725.25 1226.25C5725.25 1232.32 5720.32 1237.25 5714.25 1237.25 5708.17 1237.25 5703.25 1232.32 5703.25 1226.25 5703.25 1220.17 5708.17 1215.25 5714.25 1215.25 5720.32 1215.25 5725.25 1220.17 5725.25 1226.25Z" stroke="#4472C4" stroke-width="3.4375" stroke-linejoin="round" stroke-miterlimit="10" fill="#4472C4"/><path d="M5853.25 1304.25C5853.25 1310.32 5848.32 1315.25 5842.25 1315.25 5836.17 1315.25 5831.25 1310.32 5831.25 1304.25 5831.25 1298.17 5836.17 1293.25 5842.25 1293.25 5848.32 1293.25 5853.25 1298.17 5853.25 1304.25Z" stroke="#4472C4" stroke-width="3.4375" stroke-linejoin="round" stroke-miterlimit="10" fill="#4472C4"/><path d="M6016.25 1355.25C6016.25 1361.32 6011.32 1366.25 6005.25 1366.25 5999.17 1366.25 5994.25 1361.32 5994.25 1355.25 5994.25 1349.17 5999.17 1344.25 6005.25 1344.25 6011.32 1344.25 6016.25 1349.17 6016.25 1355.25Z" stroke="#4472C4" stroke-width="3.4375" stroke-linejoin="round" stroke-miterlimit="10" fill="#4472C4"/></g><g clip-path="url(#clip9)"><path d="M5679.25 1210.25 5690.25 1232.25 5668.25 1232.25Z" stroke="#ED7D31" stroke-width="3.4375" stroke-linejoin="round" stroke-miterlimit="10" fill="#ED7D31"/><path d="M5714.25 1294.25 5725.25 1316.25 5703.25 1316.25Z" stroke="#ED7D31" stroke-width="3.4375" stroke-linejoin="round" stroke-miterlimit="10" fill="#ED7D31"/><path d="M5842.25 1412.25 5853.25 1434.25 5831.25 1434.25Z" stroke="#ED7D31" stroke-width="3.4375" stroke-linejoin="round" stroke-miterlimit="10" fill="#ED7D31"/><path d="M6005.25 1441.25 6016.25 1463.25 5994.25 1463.25Z" stroke="#ED7D31" stroke-width="3.4375" stroke-linejoin="round" stroke-miterlimit="10" fill="#ED7D31"/></g><g clip-path="url(#clip10)"><text font-family="Calibri,Calibri_MSFontService,sans-serif" font-weight="400" font-size="64" transform="matrix(1 0 0 1 5223.03 1501)">0.01</text></g><g clip-path="url(#clip11)"><text font-family="Calibri,Calibri_MSFontService,sans-serif" font-weight="400" font-size="64" transform="matrix(1 0 0 1 5255.55 1289)">0.1</text></g><g clip-path="url(#clip12)"><text font-family="Calibri,Calibri_MSFontService,sans-serif" font-weight="400" font-size="64" transform="matrix(1 0 0 1 5304.27 1076)">1</text></g><g clip-path="url(#clip13)"><text font-family="Calibri,Calibri_MSFontService,sans-serif" font-weight="400" font-size="64" transform="matrix(1 0 0 1 5271.75 864)">10</text></g><g clip-path="url(#clip14)"><text font-family="Calibri,Calibri_MSFontService,sans-serif" font-weight="400" font-size="64" transform="matrix(1 0 0 1 5331.28 1585)">1000</text></g><g clip-path="url(#clip15)"><text font-family="Calibri,Calibri_MSFontService,sans-serif" font-weight="400" font-size="64" transform="matrix(1 0 0 1 6455.74 1585)">10000</text></g><g clip-path="url(#clip16)"><text font-family="Calibri,Calibri_MSFontService,sans-serif" font-weight="400" font-size="83" transform="matrix(6.12323e-17 -1 1 6.12323e-17 5155.04 1396)">Error norm [</text></g><g clip-path="url(#clip17)"><text font-family="Calibri,Calibri_MSFontService,sans-serif" font-weight="400" font-size="83" transform="matrix(6.12323e-17 -1 1 6.12323e-17 5155.04 983)">-</text></g><g clip-path="url(#clip18)"><text font-family="Calibri,Calibri_MSFontService,sans-serif" font-weight="400" font-size="83" transform="matrix(6.12323e-17 -1 1 6.12323e-17 5155.04 958)">]</text></g><g clip-path="url(#clip19)"><g clip-path="url(#clip20)"><text font-family="Calibri,Calibri_MSFontService,sans-serif" font-weight="400" font-size="83" transform="matrix(1 0 0 1 5410.07 1695)">Number of degrees of freedom [</text></g></g><g clip-path="url(#clip21)"><g clip-path="url(#clip22)"><text font-family="Calibri,Calibri_MSFontService,sans-serif" font-weight="400" font-size="83" transform="matrix(1 0 0 1 6494.6 1695)">-</text></g></g><g clip-path="url(#clip23)"><g clip-path="url(#clip24)"><text font-family="Calibri,Calibri_MSFontService,sans-serif" font-weight="400" font-size="83" transform="matrix(1 0 0 1 6519.85 1695)">]</text></g></g><g clip-path="url(#clip25)"><rect x="6294.5" y="898.5" width="176" height="155" stroke="#000000" stroke-width="3.4375" stroke-linejoin="round" stroke-miterlimit="10" fill="#FFFFFF"/></g><g clip-path="url(#clip26)"><path d="M6331 937C6331 943.075 6326.08 947.999 6320 947.999 6313.92 947.999 6309 943.075 6309 937 6309 930.924 6313.92 926 6320 926 6326.08 926 6331 930.924 6331 937Z" stroke="#4472C4" stroke-width="3.4375" stroke-linejoin="round" stroke-miterlimit="10" fill="#4472C4"/></g><g clip-path="url(#clip27)"><text font-family="Calibri,Calibri_MSFontService,sans-serif" font-weight="400" font-size="41" transform="matrix(1 0 0 1 6341.34 949)">Order2</text></g><g clip-path="url(#clip28)"><path d="M6320.5 1003.5 6331.5 1025.5 6309.5 1025.5Z" stroke="#ED7D31" stroke-width="3.4375" stroke-linejoin="round" stroke-miterlimit="10" fill="#ED7D31"/></g><g clip-path="url(#clip29)"><text font-family="Calibri,Calibri_MSFontService,sans-serif" font-weight="400" font-size="41" transform="matrix(1 0 0 1 6341.34 1026)">Order3</text></g></g></svg>