<?xml version="1.0" encoding="UTF-8" standalone="no"?>
<svg
   xmlns:dc="http://purl.org/dc/elements/1.1/"
   xmlns:cc="http://creativecommons.org/ns#"
   xmlns:rdf="http://www.w3.org/1999/02/22-rdf-syntax-ns#"
   xmlns:svg="http://www.w3.org/2000/svg"
   xmlns="http://www.w3.org/2000/svg"
   viewBox="0 0 610.66669 345.33334"
   height="345.33334"
   width="610.66669"
   xml:space="preserve"
   id="svg2"
   version="1.1"><metadata
     id="metadata8"><rdf:RDF><cc:Work
         rdf:about=""><dc:format>image/svg+xml</dc:format><dc:type
           rdf:resource="http://purl.org/dc/dcmitype/StillImage" /></cc:Work></rdf:RDF></metadata><defs
     id="defs6"><clipPath
       id="clipPath20"
       clipPathUnits="userSpaceOnUse"><path
         id="path18"
         d="M 0,0 H 595.32001 V 841.92004 H 0 Z" /></clipPath><clipPath
       id="clipPath34"
       clipPathUnits="userSpaceOnUse"><path
         style="clip-rule:evenodd"
         id="path32"
         d="m 67.199997,126.24 v 924.3201 H 726.56 V 126.24 Z" /></clipPath><clipPath
       id="clipPath62"
       clipPathUnits="userSpaceOnUse"><path
         style="clip-rule:evenodd"
         id="path60"
         d="m 67.199997,126.24 v 924.3201 H 726.56 V 126.24 Z" /></clipPath><clipPath
       id="clipPath192"
       clipPathUnits="userSpaceOnUse"><path
         style="clip-rule:evenodd"
         id="path190"
         d="m 67.199997,126.24 v 924.3201 H 726.56 V 126.24 Z" /></clipPath><clipPath
       id="clipPath214"
       clipPathUnits="userSpaceOnUse"><path
         style="clip-rule:evenodd"
         id="path212"
         d="m 67.199997,126.24 v 924.3201 H 726.56 V 126.24 Z" /></clipPath></defs><g
     transform="matrix(1.3333333,0,0,-1.3333333,0,345.33333)"
     id="g10"><g
       transform="translate(-72,-275)"
       id="g12"><g
         id="g14"><g
           clip-path="url(#clipPath20)"
           id="g16"><g
             transform="matrix(0.75,0,0,-0.75,0,841.92004)"
             id="g22"><g
               id="g24"><path
                 id="path26"
                 style="fill:#ffffff;fill-opacity:1;fill-rule:nonzero;stroke:none"
                 d="M 67.360001,397.76001 H 726.56 v 381.44 H 67.360001 Z" /></g><g
               id="g28"><g
                 clip-path="url(#clipPath34)"
                 id="g30"><g
                   transform="translate(177.75999,663.52002)"
                   id="g36"><path
                     id="path38"
                     style="fill:none;stroke:#a5a5a5;stroke-width:1.27999997;stroke-linecap:butt;stroke-linejoin:round;stroke-miterlimit:10;stroke-dasharray:none;stroke-opacity:1"
                     d="M 0,0 H 508.79999 M 0,-16.16 H 508.79999 M 0,-27.68 H 508.79999 M 0,-36.48 H 508.79999 M 0,-43.68 H 508.79999 M 0,-49.599998 H 508.79999 M 0,-55.040001 H 508.79999 M 0,-59.52 H 508.79999 M 0,-91.199997 H 508.79999 M 0,-107.2 H 508.79999 M 0,-118.56 H 508.79999 M 0,-127.36 H 508.79999 M 0,-134.72 H 508.79999 M 0,-140.8 H 508.79999 M 0,-146.24 H 508.79999 M 0,-150.72 H 508.79999 M 0,-182.39999 H 508.79999 M 0,-198.24 H 508.79999 M 0,-209.75999 H 508.79999 M 0,-218.56 H 508.79999 M 0,-225.75999 H 508.79999 M 0,-232 H 508.79999 M 0,-237.11999 H 508.79999 M 0,-241.92 h 508.79999" /></g><g
                   id="g40"><path
                     id="path42"
                     style="fill:none;stroke:#000000;stroke-width:2.24000001;stroke-linecap:butt;stroke-linejoin:round;stroke-miterlimit:10;stroke-dasharray:none;stroke-opacity:1"
                     d="M 177.75999,690.71997 H 686.56 M 177.75999,599.67999 H 686.56 M 177.75999,417.60001 H 686.56" /></g><g
                   transform="translate(330.88,417.60001)"
                   id="g44"><path
                     id="path46"
                     style="fill:none;stroke:#a5a5a5;stroke-width:1.27999997;stroke-linecap:butt;stroke-linejoin:round;stroke-miterlimit:10;stroke-dasharray:none;stroke-opacity:1"
                     d="M 0,0 V 273.12 M 89.599998,0 V 273.12 M 153.28,0 V 273.12 M 202.56,0 V 273.12 M 242.88,0 V 273.12 M 276.95999,0 V 273.12 M 306.39999,0 V 273.12 M 332.32001,0 v 273.12" /></g><g
                   id="g48"><path
                     id="path50"
                     style="fill:none;stroke:#d9d9d9;stroke-width:1.27999997;stroke-linecap:butt;stroke-linejoin:round;stroke-miterlimit:10;stroke-dasharray:none;stroke-opacity:1"
                     d="M 686.56,417.60001 V 690.71997" /></g></g></g><g
               id="g52"><path
                 id="path54"
                 style="fill:none;stroke:#000000;stroke-width:2.24000001;stroke-linecap:butt;stroke-linejoin:round;stroke-miterlimit:10;stroke-dasharray:none;stroke-opacity:1"
                 d="M 177.75999,417.60001 H 686.56 V 690.71997 H 177.75999 Z" /></g><g
               id="g56"><g
                 clip-path="url(#clipPath62)"
                 id="g58"><g
                   id="g64"><path
                     id="path66"
                     style="fill:none;stroke:#000000;stroke-width:1.27999997;stroke-linecap:butt;stroke-linejoin:round;stroke-miterlimit:10;stroke-dasharray:none;stroke-opacity:1"
                     d="M 177.75999,690.71997 V 417.60001" /></g><g
                   id="g68"><path
                     id="path70"
                     style="fill:none;stroke:#000000;stroke-width:2.24000001;stroke-linecap:butt;stroke-linejoin:round;stroke-miterlimit:10;stroke-dasharray:none;stroke-opacity:1"
                     d="M 177.75999,508.64001 H 686.56" /></g><g
                   transform="translate(308.79999,560)"
                   id="g72"><path
                     id="path74"
                     style="fill:#4472c4;fill-opacity:1;fill-rule:nonzero;stroke:none"
                     d="m 0,0 c 0,2.56 -2.08,4.64 -4.48,4.64 -2.56,0 -4.64,-2.08 -4.64,-4.64 0,-2.4 2.08,-4.48 4.64,-4.48 C -2.08,-4.48 0,-2.4 0,0 Z" /></g><g
                   transform="translate(308.79999,560)"
                   id="g76"><path
                     id="path78"
                     style="fill:none;stroke:#4472c4;stroke-width:1.27999997;stroke-linecap:butt;stroke-linejoin:round;stroke-miterlimit:10;stroke-dasharray:none;stroke-opacity:1"
                     d="m 0,0 c 0,2.56 -2.08,4.64 -4.48,4.64 -2.56,0 -4.64,-2.08 -4.64,-4.64 0,-2.4 2.08,-4.48 4.64,-4.48 C -2.08,-4.48 0,-2.4 0,0" /></g><g
                   transform="translate(324.48001,580.96002)"
                   id="g80"><path
                     id="path82"
                     style="fill:#4472c4;fill-opacity:1;fill-rule:nonzero;stroke:none"
                     d="m 0,0 c 0,2.56 -2.08,4.48 -4.48,4.48 -2.56,0 -4.48,-1.92 -4.48,-4.48 0,-2.56 1.92,-4.48 4.48,-4.48 2.4,0 4.48,1.92 4.48,4.48 z" /></g><g
                   transform="translate(324.48001,580.96002)"
                   id="g84"><path
                     id="path86"
                     style="fill:none;stroke:#4472c4;stroke-width:1.27999997;stroke-linecap:butt;stroke-linejoin:round;stroke-miterlimit:10;stroke-dasharray:none;stroke-opacity:1"
                     d="m 0,0 c 0,2.56 -2.08,4.48 -4.48,4.48 -2.56,0 -4.48,-1.92 -4.48,-4.48 0,-2.56 1.92,-4.48 4.48,-4.48 2.4,0 4.48,1.92 4.48,4.48" /></g><g
                   transform="translate(381.44,614.08002)"
                   id="g88"><path
                     id="path90"
                     style="fill:#4472c4;fill-opacity:1;fill-rule:nonzero;stroke:none"
                     d="m 0,0 c 0,2.56 -2.08,4.64 -4.64,4.64 -2.4,0 -4.48,-2.08 -4.48,-4.64 0,-2.4 2.08,-4.48 4.48,-4.48 C -2.08,-4.48 0,-2.4 0,0 Z" /></g><g
                   transform="translate(381.44,614.08002)"
                   id="g92"><path
                     id="path94"
                     style="fill:none;stroke:#4472c4;stroke-width:1.27999997;stroke-linecap:butt;stroke-linejoin:round;stroke-miterlimit:10;stroke-dasharray:none;stroke-opacity:1"
                     d="m 0,0 c 0,2.56 -2.08,4.64 -4.64,4.64 -2.4,0 -4.48,-2.08 -4.48,-4.64 0,-2.4 2.08,-4.48 4.48,-4.48 C -2.08,-4.48 0,-2.4 0,0" /></g><g
                   transform="translate(454.23999,636.32001)"
                   id="g96"><path
                     id="path98"
                     style="fill:#4472c4;fill-opacity:1;fill-rule:nonzero;stroke:none"
                     d="m 0,0 c 0,2.56 -2.08,4.48 -4.48,4.48 -2.56,0 -4.64,-1.92 -4.64,-4.48 0,-2.56 2.08,-4.48 4.64,-4.48 2.4,0 4.48,1.92 4.48,4.48 z" /></g><g
                   transform="translate(454.23999,636.32001)"
                   id="g100"><path
                     id="path102"
                     style="fill:none;stroke:#4472c4;stroke-width:1.27999997;stroke-linecap:butt;stroke-linejoin:round;stroke-miterlimit:10;stroke-dasharray:none;stroke-opacity:1"
                     d="m 0,0 c 0,2.56 -2.08,4.48 -4.48,4.48 -2.56,0 -4.64,-1.92 -4.64,-4.48 0,-2.56 2.08,-4.48 4.64,-4.48 2.4,0 4.48,1.92 4.48,4.48" /></g><g
                   id="g104"><path
                     id="path106"
                     style="fill:#ed7d31;fill-opacity:1;fill-rule:nonzero;stroke:none"
                     d="m 304.32001,574.08002 4.47998,8.95996 h -9.12 z" /></g><g
                   id="g108"><path
                     id="path110"
                     style="fill:none;stroke:#ed7d31;stroke-width:1.27999997;stroke-linecap:butt;stroke-linejoin:round;stroke-miterlimit:10;stroke-dasharray:none;stroke-opacity:1"
                     d="m 304.32001,574.08002 4.47998,8.95996 h -9.12 z" /></g><g
                   id="g112"><path
                     id="path114"
                     style="fill:#ed7d31;fill-opacity:1;fill-rule:nonzero;stroke:none"
                     d="m 320,610.23999 4.48001,9.11999 h -8.96002 z" /></g><g
                   id="g116"><path
                     id="path118"
                     style="fill:none;stroke:#ed7d31;stroke-width:1.27999997;stroke-linecap:butt;stroke-linejoin:round;stroke-miterlimit:10;stroke-dasharray:none;stroke-opacity:1"
                     d="m 320,610.23999 4.48001,9.11999 h -8.96002 z" /></g><g
                   id="g120"><path
                     id="path122"
                     style="fill:#ed7d31;fill-opacity:1;fill-rule:nonzero;stroke:none"
                     d="m 376.79999,660.96002 4.64001,8.95996 h -9.11999 z" /></g><g
                   id="g124"><path
                     id="path126"
                     style="fill:none;stroke:#ed7d31;stroke-width:1.27999997;stroke-linecap:butt;stroke-linejoin:round;stroke-miterlimit:10;stroke-dasharray:none;stroke-opacity:1"
                     d="m 376.79999,660.96002 4.64001,8.95996 h -9.11999 z" /></g><g
                   id="g128"><path
                     id="path130"
                     style="fill:#ed7d31;fill-opacity:1;fill-rule:nonzero;stroke:none"
                     d="m 449.76001,673.12 4.47998,9.11999 H 445.12 Z" /></g><g
                   id="g132"><path
                     id="path134"
                     style="fill:none;stroke:#ed7d31;stroke-width:1.27999997;stroke-linecap:butt;stroke-linejoin:round;stroke-miterlimit:10;stroke-dasharray:none;stroke-opacity:1"
                     d="m 449.76001,673.12 4.47998,9.11999 H 445.12 Z" /></g></g></g><g
               transform="scale(0.049319)"
               id="g136"><text
                 id="text140"
                 style="font-variant:normal;font-weight:normal;font-size:327.67999268px;font-family:F1;-inkscape-font-specification:F1;writing-mode:lr-tb;fill:#000000;fill-opacity:1;fill-rule:nonzero;stroke:none"
                 transform="translate(2718.5601,14099.4)"><tspan
                   id="tspan138"
                   y="0"
                   x="0 167.11679 249.03679 416.15359">0.01</tspan></text>
</g><g
               transform="scale(0.049319)"
               id="g142"><text
                 id="text146"
                 style="font-variant:normal;font-weight:normal;font-size:327.67999268px;font-family:F1;-inkscape-font-specification:F1;writing-mode:lr-tb;fill:#000000;fill-opacity:1;fill-rule:nonzero;stroke:none"
                 transform="translate(2884.1599,12253.3)"><tspan
                   id="tspan144"
                   y="0"
                   x="0 163.84 249.03679">0.1</tspan></text>
</g><g
               transform="scale(0.049319)"
               id="g148"><text
                 id="text152"
                 style="font-variant:normal;font-weight:normal;font-size:327.67999268px;font-family:F1;-inkscape-font-specification:F1;writing-mode:lr-tb;fill:#000000;fill-opacity:1;fill-rule:nonzero;stroke:none"
                 transform="translate(3133.9199,10407.4)"><tspan
                   id="tspan150"
                   y="0"
                   x="0">1</tspan></text>
</g><g
               transform="scale(0.049319)"
               id="g154"><text
                 id="text158"
                 style="font-variant:normal;font-weight:normal;font-size:327.67999268px;font-family:F1;-inkscape-font-specification:F1;writing-mode:lr-tb;fill:#000000;fill-opacity:1;fill-rule:nonzero;stroke:none"
                 transform="translate(2968.48,8558.2402)"><tspan
                   id="tspan156"
                   y="0"
                   x="0 163.84">10</tspan></text>
</g><g
               transform="scale(0.049319)"
               id="g160"><text
                 id="text164"
                 style="font-variant:normal;font-weight:normal;font-size:327.67999268px;font-family:F1;-inkscape-font-specification:F1;writing-mode:lr-tb;fill:#000000;fill-opacity:1;fill-rule:nonzero;stroke:none"
                 transform="translate(3270.0801,14527.5)"><tspan
                   id="tspan162"
                   y="0"
                   x="0 170.3936 334.23358 498.07358 10233.446 10400.562 10567.68 10731.52 10898.637">100010000</tspan></text>
</g><g
               transform="matrix(0,-0.076937,0.076937,0,0,0)"
               id="g166"><text
                 id="text170"
                 style="font-variant:normal;font-weight:normal;font-size:327.67999268px;font-family:F1;-inkscape-font-specification:F1;writing-mode:lr-tb;fill:#000000;fill-opacity:1;fill-rule:nonzero;stroke:none"
                 transform="translate(-8123.04,1478.5601)"><tspan
                   id="tspan168"
                   y="0"
                   x="0 160.5632 275.25119 383.38559 557.05597 671.74396 743.83356 914.22717 1087.8976 1202.5856 1461.4528 1533.5424 1638.4 1736.704">Error norm [-]</tspan></text>
</g><g
               transform="scale(0.076937)"
               id="g172"><text
                 id="text176"
                 style="font-variant:normal;font-weight:normal;font-size:327.67999268px;font-family:F1;-inkscape-font-specification:F1;writing-mode:lr-tb;fill:#000000;fill-opacity:1;fill-rule:nonzero;stroke:none"
                 transform="translate(3366.8799,9749.2803)"><tspan
                   id="tspan174"
                   y="0"
                   x="0 212.99199 383.38559 645.5296 815.92316 976.48639 1094.4512 1166.5408 1340.2112 1441.792 1513.8816 1684.2751 1848.1151 2002.1248 2110.259 2270.8223 2434.6624 2565.7344 2637.824 2808.2175 2913.0752 2985.1648 3083.4688 3194.8799 3355.4431 3519.2832 3689.6768 3863.3472 4122.2144 4197.5806 4295.8848 4397.4653">Number of degrees of freedom [-]</tspan></text>
</g><g
               id="g178"><path
                 id="path180"
                 style="fill:#ffffff;fill-opacity:1;fill-rule:nonzero;stroke:none"
                 d="m 577.12,442.23999 h 70.40002 v 59.52002 H 577.12 Z" /></g><g
               id="g182"><path
                 id="path184"
                 style="fill:none;stroke:#000000;stroke-width:1.27999997;stroke-linecap:butt;stroke-linejoin:round;stroke-miterlimit:10;stroke-dasharray:none;stroke-opacity:1"
                 d="m 577.12,442.23999 h 70.40002 v 59.52002 H 577.12 Z" /></g><g
               id="g186"><g
                 clip-path="url(#clipPath192)"
                 id="g188"><g
                   transform="translate(592,456.95999)"
                   id="g194"><path
                     id="path196"
                     style="fill:#4472c4;fill-opacity:1;fill-rule:nonzero;stroke:none"
                     d="m 0,0 c 0,2.56 -1.92,4.64 -4.48,4.64 -2.56,0 -4.48,-2.08 -4.48,-4.64 0,-2.4 1.92,-4.48 4.48,-4.48 C -1.92,-4.48 0,-2.4 0,0 Z" /></g><g
                   transform="translate(592,456.95999)"
                   id="g198"><path
                     id="path200"
                     style="fill:none;stroke:#4472c4;stroke-width:1.27999997;stroke-linecap:butt;stroke-linejoin:round;stroke-miterlimit:10;stroke-dasharray:none;stroke-opacity:1"
                     d="m 0,0 c 0,2.56 -1.92,4.64 -4.48,4.64 -2.56,0 -4.48,-2.08 -4.48,-4.64 0,-2.4 1.92,-4.48 4.48,-4.48 C -1.92,-4.48 0,-2.4 0,0" /></g></g></g><g
               transform="scale(0.049319)"
               id="g202"><text
                 id="text206"
                 style="font-variant:normal;font-weight:normal;font-size:327.67999268px;font-family:F1;-inkscape-font-specification:F1;writing-mode:lr-tb;fill:#000000;fill-opacity:1;fill-rule:nonzero;stroke:none"
                 transform="translate(12078.1,9359.5195)"><tspan
                   id="tspan204"
                   y="0"
                   x="0 219.54559 334.23358 501.3504 668.46716 783.15521">Order2</tspan></text>
</g><g
               id="g208"><g
                 clip-path="url(#clipPath214)"
                 id="g210"><g
                   id="g216"><path
                     id="path218"
                     style="fill:#ed7d31;fill-opacity:1;fill-rule:nonzero;stroke:none"
                     d="M 587.52002,482.23999 592,491.20001 h -8.96002 z" /></g><g
                   id="g220"><path
                     id="path222"
                     style="fill:none;stroke:#ed7d31;stroke-width:1.27999997;stroke-linecap:butt;stroke-linejoin:round;stroke-miterlimit:10;stroke-dasharray:none;stroke-opacity:1"
                     d="M 587.52002,482.23999 592,491.20001 h -8.96002 z" /></g></g></g><g
               transform="scale(0.049319)"
               id="g224"><text
                 id="text228"
                 style="font-variant:normal;font-weight:normal;font-size:327.67999268px;font-family:F1;-inkscape-font-specification:F1;writing-mode:lr-tb;fill:#000000;fill-opacity:1;fill-rule:nonzero;stroke:none"
                 transform="translate(12078.1,9966.2402)"><tspan
                   id="tspan226"
                   y="0"
                   x="0 219.54559 334.23358 501.3504 668.46716 783.15521">Order3</tspan></text>
</g></g></g></g></g></g></svg>