<svg width="1650" height="990" xmlns="http://www.w3.org/2000/svg" xmlns:xlink="http://www.w3.org/1999/xlink" overflow="hidden"><defs><clipPath id="clip0"><rect x="4950" y="773" width="1650" height="990"/></clipPath><clipPath id="clip1"><rect x="4950" y="773" width="1650" height="990"/></clipPath><clipPath id="clip2"><rect x="4950" y="773" width="1650" height="990"/></clipPath><clipPath id="clip3"><rect x="4950" y="773" width="1650" height="990"/></clipPath><clipPath id="clip4"><rect x="4950" y="773" width="1650" height="990"/></clipPath><clipPath id="clip5"><rect x="4950" y="773" width="1650" height="990"/></clipPath><clipPath id="clip6"><rect x="4950" y="773" width="1650" height="990"/></clipPath><clipPath id="clip7"><rect x="4950" y="773" width="1650" height="990"/></clipPath><clipPath id="clip8"><rect x="4950" y="773" width="1650" height="990"/></clipPath><clipPath id="clip9"><rect x="4950" y="773" width="1650" height="990"/></clipPath><clipPath id="clip10"><rect x="4950" y="773" width="1650" height="990"/></clipPath><clipPath id="clip11"><rect x="4950" y="773" width="1650" height="990"/></clipPath><clipPath id="clip12"><rect x="4950" y="773" width="1650" height="990"/></clipPath><clipPath id="clip13"><rect x="4950" y="773" width="1650" height="990"/></clipPath><clipPath id="clip14"><rect x="4950" y="773" width="1650" height="990"/></clipPath><clipPath id="clip15"><rect x="4950" y="773" width="1650" height="990"/></clipPath><clipPath id="clip16"><rect x="4950" y="773" width="1650" height="990"/></clipPath><clipPath id="clip17"><rect x="4950" y="773" width="1650" height="990"/></clipPath><clipPath id="clip18"><rect x="4950" y="773" width="1650" height="990"/></clipPath><clipPath id="clip19"><rect x="4950" y="773" width="1650" height="990"/></clipPath><clipPath id="clip20"><rect x="1936" y="1556" width="7946" height="199"/></clipPath><clipPath id="clip21"><rect x="4950" y="773" width="1650" height="990"/></clipPath><clipPath id="clip22"><rect x="1936" y="1556" width="7946" height="199"/></clipPath><clipPath id="clip23"><rect x="4950" y="773" width="1650" height="990"/></clipPath><clipPath id="clip24"><rect x="1936" y="1556" width="7946" height="199"/></clipPath><clipPath id="clip25"><rect x="4950" y="773" width="1650" height="990"/></clipPath><clipPath id="clip26"><rect x="4950" y="773" width="1650" height="990"/></clipPath><clipPath id="clip27"><rect x="4950" y="773" width="1650" height="990"/></clipPath><clipPath id="clip28"><rect x="4950" y="773" width="1650" height="990"/></clipPath><clipPath id="clip29"><rect x="4950" y="773" width="1650" height="990"/></clipPath></defs><g clip-path="url(#clip0)" transform="translate(-4950 -773)"><rect x="4950" y="773" width="1650" height="990" fill="#FFFFFF"/><g clip-path="url(#clip1)"><path d="M5327.5 1408.55 6468.5 1408.55M5327.5 1371.55 6468.5 1371.55M5327.5 1344.54 6468.5 1344.54M5327.5 1324.54 6468.5 1324.54M5327.5 1307.54 6468.5 1307.54M5327.5 1293.54 6468.5 1293.54M5327.5 1280.54 6468.5 1280.54M5327.5 1269.54 6468.5 1269.54M5327.5 1196.54 6468.5 1196.54M5327.5 1158.54 6468.5 1158.54M5327.5 1132.54 6468.5 1132.54M5327.5 1111.54 6468.5 1111.54M5327.5 1094.54 6468.5 1094.54M5327.5 1080.54 6468.5 1080.54M5327.5 1068.54 6468.5 1068.54M5327.5 1057.53 6468.5 1057.53M5327.5 983.532 6468.5 983.532M5327.5 946.531 6468.5 946.531M5327.5 919.53 6468.5 919.53M5327.5 899.53 6468.5 899.53M5327.5 882.529 6468.5 882.529M5327.5 868.529 6468.5 868.529M5327.5 856.528 6468.5 856.528M5327.5 845.528 6468.5 845.528" stroke="#A5A5A5" stroke-width="3.4375" stroke-linejoin="round" stroke-miterlimit="10" fill="none"/></g><g clip-path="url(#clip2)"><path d="M5328 1473 6468 1473M5328 1260.04 6468 1260.04M5328 836 6468 836" stroke="#000000" stroke-width="5.72917" stroke-linejoin="round" stroke-miterlimit="10" fill="none"/></g><g clip-path="url(#clip3)"><path d="M5670.69 835.5 5670.69 1472.5M5871.69 835.5 5871.69 1472.5M6014.7 835.5 6014.7 1472.5M6124.7 835.5 6124.7 1472.5M6215.7 835.5 6215.7 1472.5M6291.71 835.5 6291.71 1472.5M6357.71 835.5 6357.71 1472.5M6415.71 835.5 6415.71 1472.5" stroke="#A5A5A5" stroke-width="3.4375" stroke-linejoin="round" stroke-miterlimit="10" fill="none"/></g><g clip-path="url(#clip4)"><path d="M6468.5 835.5 6468.5 1472.5" stroke="#D9D9D9" stroke-width="3.4375" stroke-linejoin="round" stroke-miterlimit="10" fill="none"/></g><g clip-path="url(#clip5)"><rect x="5328" y="836" width="1140" height="637" stroke="#000000" stroke-width="5.72917" stroke-linejoin="round" stroke-miterlimit="10" fill="none"/></g><g clip-path="url(#clip6)"><path d="M0 0 0.000360892 637" stroke="#000000" stroke-width="3.4375" stroke-linejoin="round" stroke-miterlimit="10" fill="none" fill-rule="evenodd" transform="matrix(1 0 0 -1 5327.5 1472.5)"/></g><g clip-path="url(#clip7)"><path d="M5328 1048 6468 1048" stroke="#000000" stroke-width="5.72917" stroke-linejoin="round" stroke-miterlimit="10" fill="none" fill-rule="evenodd"/></g><g clip-path="url(#clip8)"><path d="M5621.5 1196.94C5621.5 1203.01 5616.57 1207.94 5610.5 1207.94 5604.42 1207.94 5599.5 1203.01 5599.5 1196.94 5599.5 1190.86 5604.42 1185.94 5610.5 1185.94 5616.57 1185.94 5621.5 1190.86 5621.5 1196.94Z" stroke="#4472C4" stroke-width="3.4375" stroke-linejoin="round" stroke-miterlimit="10" fill="#4472C4"/><path d="M5657.5 1258.94C5657.5 1265.01 5652.57 1269.94 5646.5 1269.94 5640.42 1269.94 5635.5 1265.01 5635.5 1258.94 5635.5 1252.86 5640.42 1247.94 5646.5 1247.94 5652.57 1247.94 5657.5 1252.86 5657.5 1258.94Z" stroke="#4472C4" stroke-width="3.4375" stroke-linejoin="round" stroke-miterlimit="10" fill="#4472C4"/><path d="M5784.5 1338.94C5784.5 1345.01 5779.57 1349.94 5773.5 1349.94 5767.42 1349.94 5762.5 1345.01 5762.5 1338.94 5762.5 1332.86 5767.42 1327.94 5773.5 1327.94 5779.57 1327.94 5784.5 1332.86 5784.5 1338.94Z" stroke="#4472C4" stroke-width="3.4375" stroke-linejoin="round" stroke-miterlimit="10" fill="#4472C4"/><path d="M5948.5 1379.94C5948.5 1386.01 5943.57 1390.94 5937.5 1390.94 5931.42 1390.94 5926.5 1386.01 5926.5 1379.94 5926.5 1373.86 5931.42 1368.94 5937.5 1368.94 5943.57 1368.94 5948.5 1373.86 5948.5 1379.94Z" stroke="#4472C4" stroke-width="3.4375" stroke-linejoin="round" stroke-miterlimit="10" fill="#4472C4"/></g><g clip-path="url(#clip9)"><path d="M5610.5 1239.94 5621.5 1261.94 5599.5 1261.94Z" stroke="#ED7D31" stroke-width="3.4375" stroke-linejoin="round" stroke-miterlimit="10" fill="#ED7D31"/><path d="M5646.5 1328.94 5657.5 1350.94 5635.5 1350.94Z" stroke="#ED7D31" stroke-width="3.4375" stroke-linejoin="round" stroke-miterlimit="10" fill="#ED7D31"/><path d="M5773.5 1406.94 5784.5 1428.94 5762.5 1428.94Z" stroke="#ED7D31" stroke-width="3.4375" stroke-linejoin="round" stroke-miterlimit="10" fill="#ED7D31"/><path d="M5937.5 1427.94 5948.5 1449.94 5926.5 1449.94Z" stroke="#ED7D31" stroke-width="3.4375" stroke-linejoin="round" stroke-miterlimit="10" fill="#ED7D31"/></g><g clip-path="url(#clip10)"><text font-family="Calibri,Calibri_MSFontService,sans-serif" font-weight="400" font-size="64" transform="matrix(1 0 0 1 5154.28 1491)">0.01</text></g><g clip-path="url(#clip11)"><text font-family="Calibri,Calibri_MSFontService,sans-serif" font-weight="400" font-size="64" transform="matrix(1 0 0 1 5186.8 1279)">0.1</text></g><g clip-path="url(#clip12)"><text font-family="Calibri,Calibri_MSFontService,sans-serif" font-weight="400" font-size="64" transform="matrix(1 0 0 1 5235.52 1066)">1</text></g><g clip-path="url(#clip13)"><text font-family="Calibri,Calibri_MSFontService,sans-serif" font-weight="400" font-size="64" transform="matrix(1 0 0 1 5203 854)">10</text></g><g clip-path="url(#clip14)"><text font-family="Calibri,Calibri_MSFontService,sans-serif" font-weight="400" font-size="64" transform="matrix(1 0 0 1 5262.53 1574)">1000</text></g><g clip-path="url(#clip15)"><text font-family="Calibri,Calibri_MSFontService,sans-serif" font-weight="400" font-size="64" transform="matrix(1 0 0 1 6386.99 1574)">10000</text></g><g clip-path="url(#clip16)"><text font-family="Calibri,Calibri_MSFontService,sans-serif" font-weight="400" font-size="83" transform="matrix(6.12323e-17 -1 1 6.12323e-17 5086.29 1386)">Error norm [</text></g><g clip-path="url(#clip17)"><text font-family="Calibri,Calibri_MSFontService,sans-serif" font-weight="400" font-size="83" transform="matrix(6.12323e-17 -1 1 6.12323e-17 5086.29 973)">-</text></g><g clip-path="url(#clip18)"><text font-family="Calibri,Calibri_MSFontService,sans-serif" font-weight="400" font-size="83" transform="matrix(6.12323e-17 -1 1 6.12323e-17 5086.29 948)">]</text></g><g clip-path="url(#clip19)"><g clip-path="url(#clip20)"><text font-family="Calibri,Calibri_MSFontService,sans-serif" font-weight="400" font-size="83" transform="matrix(1 0 0 1 5341.32 1684)">Number of degrees of freedom [</text></g></g><g clip-path="url(#clip21)"><g clip-path="url(#clip22)"><text font-family="Calibri,Calibri_MSFontService,sans-serif" font-weight="400" font-size="83" transform="matrix(1 0 0 1 6425.85 1684)">-</text></g></g><g clip-path="url(#clip23)"><g clip-path="url(#clip24)"><text font-family="Calibri,Calibri_MSFontService,sans-serif" font-weight="400" font-size="83" transform="matrix(1 0 0 1 6451.1 1684)">]</text></g></g><g clip-path="url(#clip25)"><rect x="6225.5" y="888.5" width="176" height="155" stroke="#000000" stroke-width="3.4375" stroke-linejoin="round" stroke-miterlimit="10" fill="#FFFFFF"/></g><g clip-path="url(#clip26)"><path d="M6262 927C6262 933.075 6257.08 937.999 6251 937.999 6244.92 937.999 6240 933.075 6240 927 6240 920.924 6244.92 916 6251 916 6257.08 916 6262 920.924 6262 927Z" stroke="#4472C4" stroke-width="3.4375" stroke-linejoin="round" stroke-miterlimit="10" fill="#4472C4"/></g><g clip-path="url(#clip27)"><text font-family="Calibri,Calibri_MSFontService,sans-serif" font-weight="400" font-size="41" transform="matrix(1 0 0 1 6272.59 939)">Order2</text></g><g clip-path="url(#clip28)"><path d="M6251.5 993.5 6262.5 1015.5 6240.5 1015.5Z" stroke="#ED7D31" stroke-width="3.4375" stroke-linejoin="round" stroke-miterlimit="10" fill="#ED7D31"/></g><g clip-path="url(#clip29)"><text font-family="Calibri,Calibri_MSFontService,sans-serif" font-weight="400" font-size="41" transform="matrix(1 0 0 1 6272.59 1016)">Order3</text></g></g></svg>