<?xml version="1.0" encoding="UTF-8" standalone="no"?>
<svg
   xmlns:dc="http://purl.org/dc/elements/1.1/"
   xmlns:cc="http://creativecommons.org/ns#"
   xmlns:rdf="http://www.w3.org/1999/02/22-rdf-syntax-ns#"
   xmlns:svg="http://www.w3.org/2000/svg"
   xmlns="http://www.w3.org/2000/svg"
   viewBox="0 0 610.66669 346.66666"
   height="346.66666"
   width="610.66669"
   xml:space="preserve"
   id="svg2"
   version="1.1"><metadata
     id="metadata8"><rdf:RDF><cc:Work
         rdf:about=""><dc:format>image/svg+xml</dc:format><dc:type
           rdf:resource="http://purl.org/dc/dcmitype/StillImage" /></cc:Work></rdf:RDF></metadata><defs
     id="defs6"><clipPath
       id="clipPath20"
       clipPathUnits="userSpaceOnUse"><path
         id="path18"
         d="M 0,0 H 595.32001 V 841.92004 H 0 Z" /></clipPath><clipPath
       id="clipPath34"
       clipPathUnits="userSpaceOnUse"><path
         style="clip-rule:evenodd"
         id="path32"
         d="m 67.199997,126.24 v 924.3201 H 726.56 V 126.24 Z" /></clipPath><clipPath
       id="clipPath58"
       clipPathUnits="userSpaceOnUse"><path
         style="clip-rule:evenodd"
         id="path56"
         d="m 67.199997,126.24 v 924.3201 H 726.56 V 126.24 Z" /></clipPath><clipPath
       id="clipPath268"
       clipPathUnits="userSpaceOnUse"><path
         style="clip-rule:evenodd"
         id="path266"
         d="m 67.199997,126.24 v 924.3201 H 726.56 V 126.24 Z" /></clipPath><clipPath
       id="clipPath290"
       clipPathUnits="userSpaceOnUse"><path
         style="clip-rule:evenodd"
         id="path288"
         d="m 67.199997,126.24 v 924.3201 H 726.56 V 126.24 Z" /></clipPath></defs><g
     transform="matrix(1.3333333,0,0,-1.3333333,0,346.66667)"
     id="g10"><g
       transform="translate(-72,-274)"
       id="g12"><g
         id="g14"><g
           clip-path="url(#clipPath20)"
           id="g16"><g
             transform="matrix(0.75,0,0,-0.75,0,841.92004)"
             id="g22"><g
               id="g24"><path
                 id="path26"
                 style="fill:#ffffff;fill-opacity:1;fill-rule:nonzero;stroke:none"
                 d="M 67.360001,397.76001 H 726.56 V 779.03998 H 67.360001 Z" /></g><g
               id="g28"><g
                 clip-path="url(#clipPath34)"
                 id="g30"><g
                   transform="translate(177.75999,663.20001)"
                   id="g36"><path
                     id="path38"
                     style="fill:none;stroke:#a5a5a5;stroke-width:1.27999997;stroke-linecap:butt;stroke-linejoin:round;stroke-miterlimit:10;stroke-dasharray:none;stroke-opacity:1"
                     d="M 0,0 H 519.03998 M 0,-16 H 519.03998 M 0,-27.360001 H 519.03998 M 0,-36.32 H 519.03998 M 0,-43.360001 H 519.03998 M 0,-49.599998 H 519.03998 M 0,-54.720001 H 519.03998 M 0,-59.52 H 519.03998 M 0,-91.040001 H 519.03998 M 0,-107.2 H 519.03998 M 0,-118.56 H 519.03998 M 0,-127.2 H 519.03998 M 0,-134.56 H 519.03998 M 0,-140.48 H 519.03998 M 0,-145.92 H 519.03998 M 0,-150.39999 H 519.03998 M 0,-182.08 H 519.03998 M 0,-198.08 H 519.03998 M 0,-209.44 H 519.03998 M 0,-218.24 H 519.03998 M 0,-225.60001 H 519.03998 M 0,-231.67999 H 519.03998 M 0,-236.8 H 519.03998 M 0,-241.60001 h 519.03998" /></g><g
                   id="g40"><path
                     id="path42"
                     style="fill:none;stroke:#000000;stroke-width:2.24000001;stroke-linecap:butt;stroke-linejoin:round;stroke-miterlimit:10;stroke-dasharray:none;stroke-opacity:1"
                     d="m 177.75999,690.56 h 519.04 m -519.04,-91.03998 h 519.04 M 177.75999,417.44 h 519.04" /></g><g
                   transform="translate(235.36,417.44)"
                   id="g44"><path
                     id="path46"
                     style="fill:none;stroke:#000000;stroke-width:2.24000001;stroke-linecap:butt;stroke-linejoin:round;stroke-miterlimit:10;stroke-dasharray:none;stroke-opacity:1"
                     d="M 0,0 V 273.12 M 57.759998,0 V 273.12 M 115.36,0 V 273.12 M 172.96001,0 V 273.12 M 230.72,0 V 273.12 M 288.48001,0 V 273.12 M 345.92001,0 V 273.12 M 403.67999,0 V 273.12 M 461.44,0 v 273.12" /></g></g></g><g
               id="g48"><path
                 id="path50"
                 style="fill:none;stroke:#000000;stroke-width:2.24000001;stroke-linecap:butt;stroke-linejoin:round;stroke-miterlimit:10;stroke-dasharray:none;stroke-opacity:1"
                 d="m 177.75999,417.44 h 519.04 v 273.12 h -519.04 z" /></g><g
               id="g52"><g
                 clip-path="url(#clipPath58)"
                 id="g54"><g
                   id="g60"><path
                     id="path62"
                     style="fill:none;stroke:#000000;stroke-width:1.27999997;stroke-linecap:butt;stroke-linejoin:round;stroke-miterlimit:10;stroke-dasharray:none;stroke-opacity:1"
                     d="M 177.75999,690.56 V 417.44" /></g><g
                   id="g64"><path
                     id="path66"
                     style="fill:none;stroke:#000000;stroke-width:2.24000001;stroke-linecap:butt;stroke-linejoin:round;stroke-miterlimit:10;stroke-dasharray:none;stroke-opacity:1"
                     d="m 177.75999,508.48001 h 519.04" /></g><g
                   transform="translate(263.04001,535.03998)"
                   id="g68"><path
                     id="path70"
                     style="fill:#4472c4;fill-opacity:1;fill-rule:nonzero;stroke:none"
                     d="m 0,0 c 0,2.4 -2.08,4.48 -4.64,4.48 -2.4,0 -4.48,-2.08 -4.48,-4.48 0,-2.56 2.08,-4.64 4.48,-4.64 C -2.08,-4.64 0,-2.56 0,0 Z" /></g><g
                   transform="translate(263.04001,535.03998)"
                   id="g72"><path
                     id="path74"
                     style="fill:none;stroke:#4472c4;stroke-width:1.27999997;stroke-linecap:butt;stroke-linejoin:round;stroke-miterlimit:10;stroke-dasharray:none;stroke-opacity:1"
                     d="m 0,0 c 0,2.4 -2.08,4.48 -4.64,4.48 -2.4,0 -4.48,-2.08 -4.48,-4.48 0,-2.56 2.08,-4.64 4.48,-4.64 C -2.08,-4.64 0,-2.56 0,0" /></g><g
                   transform="translate(343.84,556.96002)"
                   id="g76"><path
                     id="path78"
                     style="fill:#4472c4;fill-opacity:1;fill-rule:nonzero;stroke:none"
                     d="m 0,0 c 0,2.4 -2.08,4.48 -4.64,4.48 -2.4,0 -4.48,-2.08 -4.48,-4.48 0,-2.56 2.08,-4.48 4.48,-4.48 C -2.08,-4.48 0,-2.56 0,0 Z" /></g><g
                   transform="translate(343.84,556.96002)"
                   id="g80"><path
                     id="path82"
                     style="fill:none;stroke:#4472c4;stroke-width:1.27999997;stroke-linecap:butt;stroke-linejoin:round;stroke-miterlimit:10;stroke-dasharray:none;stroke-opacity:1"
                     d="m 0,0 c 0,2.4 -2.08,4.48 -4.64,4.48 -2.4,0 -4.48,-2.08 -4.48,-4.48 0,-2.56 2.08,-4.48 4.48,-4.48 C -2.08,-4.48 0,-2.56 0,0" /></g><g
                   transform="translate(424.48001,598.56)"
                   id="g84"><path
                     id="path86"
                     style="fill:#4472c4;fill-opacity:1;fill-rule:nonzero;stroke:none"
                     d="m 0,0 c 0,2.4 -1.92,4.48 -4.48,4.48 -2.4,0 -4.48,-2.08 -4.48,-4.48 0,-2.56 2.08,-4.64 4.48,-4.64 C -1.92,-4.64 0,-2.56 0,0 Z" /></g><g
                   transform="translate(424.48001,598.56)"
                   id="g88"><path
                     id="path90"
                     style="fill:none;stroke:#4472c4;stroke-width:1.27999997;stroke-linecap:butt;stroke-linejoin:round;stroke-miterlimit:10;stroke-dasharray:none;stroke-opacity:1"
                     d="m 0,0 c 0,2.4 -1.92,4.48 -4.48,4.48 -2.4,0 -4.48,-2.08 -4.48,-4.48 0,-2.56 2.08,-4.64 4.48,-4.64 C -1.92,-4.64 0,-2.56 0,0" /></g><g
                   transform="translate(505.12,615.67999)"
                   id="g92"><path
                     id="path94"
                     style="fill:#4472c4;fill-opacity:1;fill-rule:nonzero;stroke:none"
                     d="m 0,0 c 0,2.56 -2.08,4.64 -4.48,4.64 -2.56,0 -4.64,-2.08 -4.64,-4.64 0,-2.4 2.08,-4.48 4.64,-4.48 C -2.08,-4.48 0,-2.4 0,0 Z" /></g><g
                   transform="translate(505.12,615.67999)"
                   id="g96"><path
                     id="path98"
                     style="fill:none;stroke:#4472c4;stroke-width:1.27999997;stroke-linecap:butt;stroke-linejoin:round;stroke-miterlimit:10;stroke-dasharray:none;stroke-opacity:1"
                     d="m 0,0 c 0,2.56 -2.08,4.64 -4.48,4.64 -2.56,0 -4.64,-2.08 -4.64,-4.64 0,-2.4 2.08,-4.48 4.64,-4.48 C -2.08,-4.48 0,-2.4 0,0" /></g><g
                   transform="translate(585.91998,636.15997)"
                   id="g100"><path
                     id="path102"
                     style="fill:#4472c4;fill-opacity:1;fill-rule:nonzero;stroke:none"
                     d="m 0,0 c 0,2.56 -2.08,4.64 -4.64,4.64 -2.4,0 -4.48,-2.08 -4.48,-4.64 0,-2.4 2.08,-4.48 4.48,-4.48 C -2.08,-4.48 0,-2.4 0,0 Z" /></g><g
                   transform="translate(585.91998,636.15997)"
                   id="g104"><path
                     id="path106"
                     style="fill:none;stroke:#4472c4;stroke-width:1.27999997;stroke-linecap:butt;stroke-linejoin:round;stroke-miterlimit:10;stroke-dasharray:none;stroke-opacity:1"
                     d="m 0,0 c 0,2.56 -2.08,4.64 -4.64,4.64 -2.4,0 -4.48,-2.08 -4.48,-4.64 0,-2.4 2.08,-4.48 4.48,-4.48 C -2.08,-4.48 0,-2.4 0,0" /></g><g
                   transform="translate(666.71997,650.56)"
                   id="g108"><path
                     id="path110"
                     style="fill:#4472c4;fill-opacity:1;fill-rule:nonzero;stroke:none"
                     d="m 0,0 c 0,2.56 -2.08,4.64 -4.64,4.64 -2.4,0 -4.48,-2.08 -4.48,-4.64 0,-2.4 2.08,-4.48 4.48,-4.48 C -2.08,-4.48 0,-2.4 0,0 Z" /></g><g
                   transform="translate(666.71997,650.56)"
                   id="g112"><path
                     id="path114"
                     style="fill:none;stroke:#4472c4;stroke-width:1.27999997;stroke-linecap:butt;stroke-linejoin:round;stroke-miterlimit:10;stroke-dasharray:none;stroke-opacity:1"
                     d="m 0,0 c 0,2.56 -2.08,4.64 -4.64,4.64 -2.4,0 -4.48,-2.08 -4.48,-4.64 0,-2.4 2.08,-4.48 4.48,-4.48 C -2.08,-4.48 0,-2.4 0,0" /></g><g
                   id="g116"><path
                     id="path118"
                     style="fill:#ed7d31;fill-opacity:1;fill-rule:nonzero;stroke:none"
                     d="M 255.67999,532.32001 260.16,541.44 h -8.96 z" /></g><g
                   id="g120"><path
                     id="path122"
                     style="fill:none;stroke:#ed7d31;stroke-width:1.27999997;stroke-linecap:butt;stroke-linejoin:round;stroke-miterlimit:10;stroke-dasharray:none;stroke-opacity:1"
                     d="M 255.67999,532.32001 260.16,541.44 h -8.96 z" /></g><g
                   id="g124"><path
                     id="path126"
                     style="fill:#ed7d31;fill-opacity:1;fill-rule:nonzero;stroke:none"
                     d="m 333.44,553.91998 4.48001,9.12 h -8.96002 z" /></g><g
                   id="g128"><path
                     id="path130"
                     style="fill:none;stroke:#ed7d31;stroke-width:1.27999997;stroke-linecap:butt;stroke-linejoin:round;stroke-miterlimit:10;stroke-dasharray:none;stroke-opacity:1"
                     d="m 333.44,553.91998 4.48001,9.12 h -8.96002 z" /></g><g
                   id="g132"><path
                     id="path134"
                     style="fill:#ed7d31;fill-opacity:1;fill-rule:nonzero;stroke:none"
                     d="m 411.20001,615.67999 4.47998,9.12 H 406.72 Z" /></g><g
                   id="g136"><path
                     id="path138"
                     style="fill:none;stroke:#ed7d31;stroke-width:1.27999997;stroke-linecap:butt;stroke-linejoin:round;stroke-miterlimit:10;stroke-dasharray:none;stroke-opacity:1"
                     d="m 411.20001,615.67999 4.47998,9.12 H 406.72 Z" /></g><g
                   id="g140"><path
                     id="path142"
                     style="fill:#ed7d31;fill-opacity:1;fill-rule:nonzero;stroke:none"
                     d="m 489.12,673.44 4.64001,9.12 h -9.12 z" /></g><g
                   id="g144"><path
                     id="path146"
                     style="fill:none;stroke:#ed7d31;stroke-width:1.27999997;stroke-linecap:butt;stroke-linejoin:round;stroke-miterlimit:10;stroke-dasharray:none;stroke-opacity:1"
                     d="m 489.12,673.44 4.64001,9.12 h -9.12 z" /></g><g
                   id="g148"><path
                     id="path150"
                     style="fill:#ed7d31;fill-opacity:1;fill-rule:nonzero;stroke:none"
                     d="m 566.88,673.12 4.64002,8.96002 h -9.12 z" /></g><g
                   id="g152"><path
                     id="path154"
                     style="fill:none;stroke:#ed7d31;stroke-width:1.27999997;stroke-linecap:butt;stroke-linejoin:round;stroke-miterlimit:10;stroke-dasharray:none;stroke-opacity:1"
                     d="m 566.88,673.12 4.64002,8.96002 h -9.12 z" /></g><g
                   id="g156"><path
                     id="path158"
                     style="fill:#ed7d31;fill-opacity:1;fill-rule:nonzero;stroke:none"
                     d="m 644.96002,671.35998 4.47998,8.96003 h -9.11999 z" /></g><g
                   id="g160"><path
                     id="path162"
                     style="fill:none;stroke:#ed7d31;stroke-width:1.27999997;stroke-linecap:butt;stroke-linejoin:round;stroke-miterlimit:10;stroke-dasharray:none;stroke-opacity:1"
                     d="m 644.96002,671.35998 4.47998,8.96003 h -9.11999 z" /></g></g></g><g
               transform="scale(0.049303)"
               id="g164"><text
                 id="text168"
                 style="font-variant:normal;font-weight:normal;font-size:327.67999268px;font-family:F1;-inkscape-font-specification:F1;writing-mode:lr-tb;fill:#000000;fill-opacity:1;fill-rule:nonzero;stroke:none"
                 transform="translate(2719.52,14100.6)"><tspan
                   id="tspan166"
                   y="0"
                   x="0 163.84 245.75999 412.8768">0.01</tspan></text>
</g><g
               transform="scale(0.049303)"
               id="g170"><text
                 id="text174"
                 style="font-variant:normal;font-weight:normal;font-size:327.67999268px;font-family:F1;-inkscape-font-specification:F1;writing-mode:lr-tb;fill:#000000;fill-opacity:1;fill-rule:nonzero;stroke:none"
                 transform="translate(2884.96,12254.1)"><tspan
                   id="tspan172"
                   y="0"
                   x="0 167.11679 249.03679">0.1</tspan></text>
</g><g
               transform="scale(0.049303)"
               id="g176"><text
                 id="text180"
                 style="font-variant:normal;font-weight:normal;font-size:327.67999268px;font-family:F1;-inkscape-font-specification:F1;writing-mode:lr-tb;fill:#000000;fill-opacity:1;fill-rule:nonzero;stroke:none"
                 transform="translate(3131.6799,10407.5)"><tspan
                   id="tspan178"
                   y="0"
                   x="0">1</tspan></text>
</g><g
               transform="scale(0.049303)"
               id="g182"><text
                 id="text186"
                 style="font-variant:normal;font-weight:normal;font-size:327.67999268px;font-family:F1;-inkscape-font-specification:F1;writing-mode:lr-tb;fill:#000000;fill-opacity:1;fill-rule:nonzero;stroke:none"
                 transform="translate(2966.24,8560.96)"><tspan
                   id="tspan184"
                   y="0"
                   x="0 163.84">10</tspan></text>
</g><g
               transform="scale(0.049303)"
               id="g188"><text
                 id="text192"
                 style="font-variant:normal;font-weight:normal;font-size:327.67999268px;font-family:F1;-inkscape-font-specification:F1;writing-mode:lr-tb;fill:#000000;fill-opacity:1;fill-rule:nonzero;stroke:none"
                 transform="translate(3521.1201,14525.8)"><tspan
                   id="tspan190"
                   y="0"
                   x="0 1045.2992 1209.1392 1294.3359 2339.6353 3384.9343 3548.7744 3630.6943 4675.9937 5724.5693 5891.686 5970.3296 7015.6284 8064.2046 8231.3213 8309.9648 9355.2637 10400.562 10570.957 10649.6">00.511.522.533.544.5</tspan></text>
</g><g
               transform="matrix(0,-0.076912,0.076912,0,0,0)"
               id="g194"><text
                 id="text198"
                 style="font-variant:normal;font-weight:normal;font-size:327.67999268px;font-family:F1;-inkscape-font-specification:F1;writing-mode:lr-tb;fill:#000000;fill-opacity:1;fill-rule:nonzero;stroke:none"
                 transform="translate(-8123.52,1479.04)"><tspan
                   id="tspan196"
                   y="0"
                   x="0 160.5632 275.25119 383.38559 557.05597 671.74396 743.83356 914.22717 1087.8976 1202.5856 1461.4528 1536.8192 1635.1232 1736.704">Error norm [-]</tspan></text>
</g><g
               transform="scale(0.076912)"
               id="g200"><text
                 id="text204"
                 style="font-variant:normal;font-weight:normal;font-size:327.67999268px;font-family:F1;-inkscape-font-specification:F1;writing-mode:lr-tb;fill:#000000;fill-opacity:1;fill-rule:nonzero;stroke:none"
                 transform="translate(4828.3198,9750.4004)"><tspan
                   id="tspan202"
                   y="0"
                   x="0">(</tspan></text>
</g><g
               transform="scale(0.076912)"
               id="g206"><text
                 id="text210"
                 style="font-variant:normal;font-weight:normal;font-size:327.67999268px;font-family:F2;-inkscape-font-specification:F2;writing-mode:lr-tb;fill:#000000;fill-opacity:1;fill-rule:nonzero;stroke:none"
                 transform="translate(4926.0801,9750.4004)"><tspan
                   id="tspan208"
                   y="0"
                   x="0">r</tspan></text>
</g><g
               transform="scale(0.051275)"
               id="g212"><text
                 id="text216"
                 style="font-variant:normal;font-weight:normal;font-size:327.67999268px;font-family:F2;-inkscape-font-specification:F2;writing-mode:lr-tb;fill:#000000;fill-opacity:1;fill-rule:nonzero;stroke:none"
                 transform="translate(7557.7598,14744.2)"><tspan
                   id="tspan214"
                   y="0"
                   x="0">2</tspan></text>
</g><g
               transform="scale(0.076912)"
               id="g218"><text
                 id="text222"
                 style="font-variant:normal;font-weight:normal;font-size:327.67999268px;font-family:F1;-inkscape-font-specification:F1;writing-mode:lr-tb;fill:#000000;fill-opacity:1;fill-rule:nonzero;stroke:none"
                 transform="translate(5223.6802,9750.4004)"><tspan
                   id="tspan220"
                   y="0"
                   x="0">-</tspan></text>
</g><g
               transform="scale(0.076912)"
               id="g224"><text
                 id="text228"
                 style="font-variant:normal;font-weight:normal;font-size:327.67999268px;font-family:F2;-inkscape-font-specification:F2;writing-mode:lr-tb;fill:#000000;fill-opacity:1;fill-rule:nonzero;stroke:none"
                 transform="translate(5396.3198,9750.4004)"><tspan
                   id="tspan226"
                   y="0"
                   x="0">r</tspan></text>
</g><g
               transform="scale(0.051275)"
               id="g230"><text
                 id="text234"
                 style="font-variant:normal;font-weight:normal;font-size:327.67999268px;font-family:F2;-inkscape-font-specification:F2;writing-mode:lr-tb;fill:#000000;fill-opacity:1;fill-rule:nonzero;stroke:none"
                 transform="translate(8262.8799,14744.2)"><tspan
                   id="tspan232"
                   y="0"
                   x="0">1</tspan></text>
</g><g
               transform="scale(0.076912)"
               id="g236"><text
                 id="text240"
                 style="font-variant:normal;font-weight:normal;font-size:327.67999268px;font-family:F1;-inkscape-font-specification:F1;writing-mode:lr-tb;fill:#000000;fill-opacity:1;fill-rule:nonzero;stroke:none"
                 transform="translate(5620.96,9750.4004)"><tspan
                   id="tspan238"
                   y="0"
                   x="0 98.304001 170.3936 298.18878">) / </tspan></text>
</g><g
               transform="scale(0.076912)"
               id="g242"><text
                 id="text246"
                 style="font-variant:normal;font-weight:normal;font-size:327.67999268px;font-family:F2;-inkscape-font-specification:F2;writing-mode:lr-tb;fill:#000000;fill-opacity:1;fill-rule:nonzero;stroke:none"
                 transform="translate(5993.2798,9750.4004)"><tspan
                   id="tspan244"
                   y="0"
                   x="0">d</tspan></text>
</g><g
               transform="scale(0.076912)"
               id="g248"><text
                 id="text252"
                 style="font-variant:normal;font-weight:normal;font-size:327.67999268px;font-family:F1;-inkscape-font-specification:F1;writing-mode:lr-tb;fill:#000000;fill-opacity:1;fill-rule:nonzero;stroke:none"
                 transform="translate(6234.7202,9750.4004)"><tspan
                   id="tspan250"
                   y="0"
                   x="0 101.5808 203.16159">[-]</tspan></text>
</g><g
               id="g254"><path
                 id="path256"
                 style="fill:#ffffff;fill-opacity:1;fill-rule:nonzero;stroke:none"
                 d="m 575.20001,449.12 h 70.39997 v 59.67999 h -70.39997 z" /></g><g
               id="g258"><path
                 id="path260"
                 style="fill:none;stroke:#000000;stroke-width:1.27999997;stroke-linecap:butt;stroke-linejoin:round;stroke-miterlimit:10;stroke-dasharray:none;stroke-opacity:1"
                 d="m 575.20001,449.12 h 70.39997 v 59.67999 h -70.39997 z" /></g><g
               id="g262"><g
                 clip-path="url(#clipPath268)"
                 id="g264"><g
                   transform="translate(590.23999,463.84)"
                   id="g270"><path
                     id="path272"
                     style="fill:#4472c4;fill-opacity:1;fill-rule:nonzero;stroke:none"
                     d="m 0,0 c 0,2.56 -2.08,4.48 -4.64,4.48 -2.4,0 -4.48,-1.92 -4.48,-4.48 0,-2.4 2.08,-4.48 4.48,-4.48 C -2.08,-4.48 0,-2.4 0,0 Z" /></g><g
                   transform="translate(590.23999,463.84)"
                   id="g274"><path
                     id="path276"
                     style="fill:none;stroke:#4472c4;stroke-width:1.27999997;stroke-linecap:butt;stroke-linejoin:round;stroke-miterlimit:10;stroke-dasharray:none;stroke-opacity:1"
                     d="m 0,0 c 0,2.56 -2.08,4.48 -4.64,4.48 -2.4,0 -4.48,-1.92 -4.48,-4.48 0,-2.4 2.08,-4.48 4.48,-4.48 C -2.08,-4.48 0,-2.4 0,0" /></g></g></g><g
               transform="scale(0.049303)"
               id="g278"><text
                 id="text282"
                 style="font-variant:normal;font-weight:normal;font-size:327.67999268px;font-family:F1;-inkscape-font-specification:F1;writing-mode:lr-tb;fill:#000000;fill-opacity:1;fill-rule:nonzero;stroke:none"
                 transform="translate(12046.4,9505.4404)"><tspan
                   id="tspan280"
                   y="0"
                   x="0 216.2688 330.95679 504.6272 668.46716 783.15521">Order2</tspan></text>
</g><g
               id="g284"><g
                 clip-path="url(#clipPath290)"
                 id="g286"><g
                   id="g292"><path
                     id="path294"
                     style="fill:#ed7d31;fill-opacity:1;fill-rule:nonzero;stroke:none"
                     d="m 585.59998,489.28 4.64001,9.11999 H 581.12 Z" /></g><g
                   id="g296"><path
                     id="path298"
                     style="fill:none;stroke:#ed7d31;stroke-width:1.27999997;stroke-linecap:butt;stroke-linejoin:round;stroke-miterlimit:10;stroke-dasharray:none;stroke-opacity:1"
                     d="m 585.59998,489.28 4.64001,9.11999 H 581.12 Z" /></g></g></g><g
               transform="scale(0.049303)"
               id="g300"><text
                 id="text304"
                 style="font-variant:normal;font-weight:normal;font-size:327.67999268px;font-family:F1;-inkscape-font-specification:F1;writing-mode:lr-tb;fill:#000000;fill-opacity:1;fill-rule:nonzero;stroke:none"
                 transform="translate(12046.4,10109)"><tspan
                   id="tspan302"
                   y="0"
                   x="0 216.2688 330.95679 504.6272 668.46716 783.15521">Order3</tspan></text>
</g></g></g></g></g></g></svg>