<svg width="1658" height="1007" xmlns="http://www.w3.org/2000/svg" xmlns:xlink="http://www.w3.org/1999/xlink" overflow="hidden"><defs><clipPath id="clip0"><rect x="531" y="2545" width="1658" height="1007"/></clipPath><clipPath id="clip1"><rect x="531" y="2545" width="1657" height="1006"/></clipPath><clipPath id="clip2"><rect x="531" y="2545" width="1657" height="1006"/></clipPath><clipPath id="clip3"><rect x="531" y="2545" width="1657" height="1006"/></clipPath><clipPath id="clip4"><rect x="531" y="2545" width="1657" height="1006"/></clipPath><clipPath id="clip5"><rect x="531" y="2545" width="1657" height="1006"/></clipPath><clipPath id="clip6"><rect x="531" y="2545" width="1657" height="1006"/></clipPath><clipPath id="clip7"><rect x="531" y="2545" width="1657" height="1006"/></clipPath><clipPath id="clip8"><rect x="531" y="2545" width="1657" height="1006"/></clipPath><clipPath id="clip9"><rect x="531" y="2545" width="1657" height="1006"/></clipPath><clipPath id="clip10"><rect x="531" y="2545" width="1657" height="1006"/></clipPath><clipPath id="clip11"><rect x="531" y="2545" width="1657" height="1006"/></clipPath><clipPath id="clip12"><rect x="531" y="2545" width="1657" height="1006"/></clipPath><clipPath id="clip13"><rect x="531" y="2545" width="1657" height="1006"/></clipPath><clipPath id="clip14"><rect x="531" y="2545" width="1657" height="1006"/></clipPath><clipPath id="clip15"><rect x="531" y="2545" width="1657" height="1006"/></clipPath><clipPath id="clip16"><rect x="531" y="2545" width="1657" height="1006"/></clipPath><clipPath id="clip17"><rect x="531" y="2545" width="1657" height="1006"/></clipPath><clipPath id="clip18"><rect x="531" y="2545" width="1657" height="1006"/></clipPath><clipPath id="clip19"><rect x="531" y="2545" width="1657" height="1006"/></clipPath><clipPath id="clip20"><rect x="531" y="2545" width="1657" height="1006"/></clipPath><clipPath id="clip21"><rect x="531" y="2545" width="1657" height="1006"/></clipPath><clipPath id="clip22"><rect x="531" y="2545" width="1657" height="1006"/></clipPath><clipPath id="clip23"><rect x="7" y="3343" width="3018" height="202"/></clipPath><clipPath id="clip24"><rect x="531" y="2545" width="1657" height="1006"/></clipPath><clipPath id="clip25"><rect x="7" y="3343" width="3018" height="202"/></clipPath><clipPath id="clip26"><rect x="531" y="2545" width="1657" height="1006"/></clipPath><clipPath id="clip27"><rect x="7" y="3343" width="3018" height="202"/></clipPath><clipPath id="clip28"><rect x="531" y="2545" width="1657" height="1006"/></clipPath><clipPath id="clip29"><rect x="7" y="3343" width="3018" height="202"/></clipPath><clipPath id="clip30"><rect x="531" y="2545" width="1657" height="1006"/></clipPath><clipPath id="clip31"><rect x="7" y="3343" width="3018" height="202"/></clipPath><clipPath id="clip32"><rect x="531" y="2545" width="1657" height="1006"/></clipPath><clipPath id="clip33"><rect x="7" y="3343" width="3018" height="202"/></clipPath><clipPath id="clip34"><rect x="531" y="2545" width="1657" height="1006"/></clipPath><clipPath id="clip35"><rect x="7" y="3343" width="3018" height="202"/></clipPath><clipPath id="clip36"><rect x="531" y="2545" width="1657" height="1006"/></clipPath><clipPath id="clip37"><rect x="7" y="3343" width="3018" height="202"/></clipPath><clipPath id="clip38"><rect x="531" y="2545" width="1657" height="1006"/></clipPath><clipPath id="clip39"><rect x="7" y="3343" width="3018" height="202"/></clipPath><clipPath id="clip40"><rect x="531" y="2545" width="1657" height="1006"/></clipPath><clipPath id="clip41"><rect x="7" y="3343" width="3018" height="202"/></clipPath><clipPath id="clip42"><rect x="531" y="2545" width="1657" height="1006"/></clipPath><clipPath id="clip43"><rect x="7" y="3343" width="3018" height="202"/></clipPath><clipPath id="clip44"><rect x="531" y="2545" width="1657" height="1006"/></clipPath><clipPath id="clip45"><rect x="531" y="2545" width="1657" height="1006"/></clipPath><clipPath id="clip46"><rect x="531" y="2545" width="1657" height="1006"/></clipPath><clipPath id="clip47"><rect x="531" y="2545" width="1657" height="1006"/></clipPath><clipPath id="clip48"><rect x="531" y="2545" width="1657" height="1006"/></clipPath></defs><g clip-path="url(#clip0)" transform="translate(-531 -2545)"><rect x="531" y="2546" width="1658" height="1006" fill="#FFFFFF"/><g clip-path="url(#clip1)"><path d="M909.5 3195.6 2122.5 3195.6M909.5 3157.6 2122.5 3157.6M909.5 3129.6 2122.5 3129.6M909.5 3108.6 2122.5 3108.6M909.5 3091.6 2122.5 3091.6M909.5 3077.6 2122.5 3077.6M909.5 3064.6 2122.5 3064.6M909.5 3053.6 2122.5 3053.6M909.5 2977.6 2122.5 2977.6M909.5 2939.6 2122.5 2939.6M909.5 2912.6 2122.5 2912.6M909.5 2891.59 2122.5 2891.59M909.5 2873.59 2122.5 2873.59M909.5 2859.59 2122.5 2859.59M909.5 2846.59 2122.5 2846.59M909.5 2835.59 2122.5 2835.59M909.5 2760.59 2122.5 2760.59M909.5 2721.59 2122.5 2721.59M909.5 2694.59 2122.5 2694.59M909.5 2673.59 2122.5 2673.59M909.5 2656.59 2122.5 2656.59M909.5 2641.59 2122.5 2641.59M909.5 2629.59 2122.5 2629.59M909.5 2617.59 2122.5 2617.59" stroke="#A5A5A5" stroke-width="3.4375" stroke-linejoin="round" stroke-miterlimit="10" fill="none"/></g><g clip-path="url(#clip2)"><path d="M909 3261 2122 3261M909 3043.1 2122 3043.1M909 2608 2122 2608" stroke="#000000" stroke-width="5.72917" stroke-linejoin="round" stroke-miterlimit="10" fill="none"/></g><g clip-path="url(#clip3)"><path d="M1152.04 2608 1152.04 3261M1394.05 2608 1394.05 3261M1637.05 2608 1637.05 3261M1880.06 2608 1880.06 3261M2122 2608 2122 3261" stroke="#000000" stroke-width="5.72917" stroke-linejoin="round" stroke-miterlimit="10" fill="none"/></g><g clip-path="url(#clip4)"><rect x="909" y="2608" width="1213" height="653" stroke="#000000" stroke-width="5.72917" stroke-linejoin="round" stroke-miterlimit="10" fill="none"/></g><g clip-path="url(#clip5)"><path d="M0 0 0.000360892 653" stroke="#000000" stroke-width="3.4375" stroke-linejoin="round" stroke-miterlimit="10" fill="none" fill-rule="evenodd" transform="matrix(1 0 0 -1 909.5 3261.5)"/></g><g clip-path="url(#clip6)"><path d="M909 2826 2122 2826" stroke="#000000" stroke-width="5.72917" stroke-linejoin="round" stroke-miterlimit="10" fill="none" fill-rule="evenodd"/></g><g clip-path="url(#clip7)"><path d="M1089.99 2889.5C1089.99 2895.57 1085.07 2900.5 1078.99 2900.5 1072.92 2900.5 1067.99 2895.57 1067.99 2889.5 1067.99 2883.42 1072.92 2878.5 1078.99 2878.5 1085.07 2878.5 1089.99 2883.42 1089.99 2889.5Z" stroke="#4472C4" stroke-width="3.4375" stroke-linejoin="round" stroke-miterlimit="10" fill="#4472C4"/><path d="M1259.99 2941.5C1259.99 2947.57 1255.06 2952.5 1248.99 2952.5 1242.92 2952.5 1237.99 2947.57 1237.99 2941.5 1237.99 2935.42 1242.92 2930.5 1248.99 2930.5 1255.06 2930.5 1259.99 2935.42 1259.99 2941.5Z" stroke="#4472C4" stroke-width="3.4375" stroke-linejoin="round" stroke-miterlimit="10" fill="#4472C4"/><path d="M1429.99 3040.5C1429.99 3046.57 1425.07 3051.5 1418.99 3051.5 1412.92 3051.5 1407.99 3046.57 1407.99 3040.5 1407.99 3034.42 1412.92 3029.5 1418.99 3029.5 1425.07 3029.5 1429.99 3034.42 1429.99 3040.5Z" stroke="#4472C4" stroke-width="3.4375" stroke-linejoin="round" stroke-miterlimit="10" fill="#4472C4"/><path d="M1599.99 3082.5C1599.99 3088.57 1595.06 3093.5 1588.99 3093.5 1582.92 3093.5 1577.99 3088.57 1577.99 3082.5 1577.99 3076.42 1582.92 3071.5 1588.99 3071.5 1595.06 3071.5 1599.99 3076.42 1599.99 3082.5Z" stroke="#4472C4" stroke-width="3.4375" stroke-linejoin="round" stroke-miterlimit="10" fill="#4472C4"/><path d="M1769.99 3130.5C1769.99 3136.57 1765.07 3141.5 1758.99 3141.5 1752.92 3141.5 1747.99 3136.57 1747.99 3130.5 1747.99 3124.42 1752.92 3119.5 1758.99 3119.5 1765.07 3119.5 1769.99 3124.42 1769.99 3130.5Z" stroke="#4472C4" stroke-width="3.4375" stroke-linejoin="round" stroke-miterlimit="10" fill="#4472C4"/><path d="M1939.99 3165.5C1939.99 3171.57 1935.06 3176.5 1928.99 3176.5 1922.92 3176.5 1917.99 3171.57 1917.99 3165.5 1917.99 3159.42 1922.92 3154.5 1928.99 3154.5 1935.06 3154.5 1939.99 3159.42 1939.99 3165.5Z" stroke="#4472C4" stroke-width="3.4375" stroke-linejoin="round" stroke-miterlimit="10" fill="#4472C4"/></g><g clip-path="url(#clip8)"><path d="M1072.99 2882.5 1083.99 2904.5 1061.99 2904.5Z" stroke="#ED7D31" stroke-width="3.4375" stroke-linejoin="round" stroke-miterlimit="10" fill="#ED7D31"/><path d="M1236.99 2933.5 1247.99 2955.5 1225.99 2955.5Z" stroke="#ED7D31" stroke-width="3.4375" stroke-linejoin="round" stroke-miterlimit="10" fill="#ED7D31"/><path d="M1400.99 3081.5 1411.99 3103.5 1389.99 3103.5Z" stroke="#ED7D31" stroke-width="3.4375" stroke-linejoin="round" stroke-miterlimit="10" fill="#ED7D31"/><path d="M1564.99 3219.5 1575.99 3241.5 1553.99 3241.5Z" stroke="#ED7D31" stroke-width="3.4375" stroke-linejoin="round" stroke-miterlimit="10" fill="#ED7D31"/><path d="M1727.99 3218.5 1738.99 3240.5 1716.99 3240.5Z" stroke="#ED7D31" stroke-width="3.4375" stroke-linejoin="round" stroke-miterlimit="10" fill="#ED7D31"/><path d="M1891.99 3214.5 1902.99 3236.5 1880.99 3236.5Z" stroke="#ED7D31" stroke-width="3.4375" stroke-linejoin="round" stroke-miterlimit="10" fill="#ED7D31"/></g><g clip-path="url(#clip9)"><text font-family="Calibri,Calibri_MSFontService,sans-serif" font-weight="400" font-size="64" transform="matrix(1 0 0 1 735.77 3279)">0.01</text></g><g clip-path="url(#clip10)"><text font-family="Calibri,Calibri_MSFontService,sans-serif" font-weight="400" font-size="64" transform="matrix(1 0 0 1 768.289 3062)">0.1</text></g><g clip-path="url(#clip11)"><text font-family="Calibri,Calibri_MSFontService,sans-serif" font-weight="400" font-size="64" transform="matrix(1 0 0 1 817.01 2844)">1</text></g><g clip-path="url(#clip12)"><text font-family="Calibri,Calibri_MSFontService,sans-serif" font-weight="400" font-size="64" transform="matrix(1 0 0 1 784.491 2626)">10</text></g><g clip-path="url(#clip13)"><text font-family="Calibri,Calibri_MSFontService,sans-serif" font-weight="400" font-size="64" transform="matrix(1 0 0 1 892.799 3363)">0</text></g><g clip-path="url(#clip14)"><text font-family="Calibri,Calibri_MSFontService,sans-serif" font-weight="400" font-size="64" transform="matrix(1 0 0 1 1135.43 3363)">1</text></g><g clip-path="url(#clip15)"><text font-family="Calibri,Calibri_MSFontService,sans-serif" font-weight="400" font-size="64" transform="matrix(1 0 0 1 1378.06 3363)">2</text></g><g clip-path="url(#clip16)"><text font-family="Calibri,Calibri_MSFontService,sans-serif" font-weight="400" font-size="64" transform="matrix(1 0 0 1 1620.7 3363)">3</text></g><g clip-path="url(#clip17)"><text font-family="Calibri,Calibri_MSFontService,sans-serif" font-weight="400" font-size="64" transform="matrix(1 0 0 1 1863.33 3363)">4</text></g><g clip-path="url(#clip18)"><text font-family="Calibri,Calibri_MSFontService,sans-serif" font-weight="400" font-size="64" transform="matrix(1 0 0 1 2105.96 3363)">5</text></g><g clip-path="url(#clip19)"><text font-family="Calibri,Calibri_MSFontService,sans-serif" font-weight="400" font-size="83" transform="matrix(6.12323e-17 -1 1 6.12323e-17 667.776 3166)">Error norm [</text></g><g clip-path="url(#clip20)"><text font-family="Calibri,Calibri_MSFontService,sans-serif" font-weight="400" font-size="83" transform="matrix(6.12323e-17 -1 1 6.12323e-17 667.776 2753)">-</text></g><g clip-path="url(#clip21)"><text font-family="Calibri,Calibri_MSFontService,sans-serif" font-weight="400" font-size="83" transform="matrix(6.12323e-17 -1 1 6.12323e-17 667.776 2728)">]</text></g><g clip-path="url(#clip22)"><g clip-path="url(#clip23)"><text font-family="Calibri,Calibri_MSFontService,sans-serif" font-weight="400" font-size="83" transform="matrix(1 0 0 1 1300.14 3473)">(</text></g></g><g clip-path="url(#clip24)"><g clip-path="url(#clip25)"><text font-family="Calibri,Calibri_MSFontService,sans-serif" font-style="italic" font-weight="400" font-size="83" transform="matrix(1 0 0 1 1325.17 3473)">r</text></g></g><g clip-path="url(#clip26)"><g clip-path="url(#clip27)"><text font-family="Calibri,Calibri_MSFontService,sans-serif" font-style="italic" font-weight="400" font-size="55" transform="matrix(1 0 0 1 1353.45 3493)">2</text></g></g><g clip-path="url(#clip28)"><g clip-path="url(#clip29)"><text font-family="Calibri,Calibri_MSFontService,sans-serif" font-weight="400" font-size="83" transform="matrix(1 0 0 1 1399.97 3473)">-</text></g></g><g clip-path="url(#clip30)"><g clip-path="url(#clip31)"><text font-family="Calibri,Calibri_MSFontService,sans-serif" font-style="italic" font-weight="400" font-size="83" transform="matrix(1 0 0 1 1443.87 3473)">r</text></g></g><g clip-path="url(#clip32)"><g clip-path="url(#clip33)"><text font-family="Calibri,Calibri_MSFontService,sans-serif" font-style="italic" font-weight="400" font-size="55" transform="matrix(1 0 0 1 1472.15 3493)">1</text></g></g><g clip-path="url(#clip34)"><g clip-path="url(#clip35)"><text font-family="Calibri,Calibri_MSFontService,sans-serif" font-weight="400" font-size="83" transform="matrix(1 0 0 1 1500.02 3473)">) / </text></g></g><g clip-path="url(#clip36)"><g clip-path="url(#clip37)"><text font-family="Calibri,Calibri_MSFontService,sans-serif" font-style="italic" font-weight="400" font-size="83" transform="matrix(1 0 0 1 1594.21 3473)">d</text></g></g><g clip-path="url(#clip38)"><g clip-path="url(#clip39)"><text font-family="Calibri,Calibri_MSFontService,sans-serif" font-weight="400" font-size="83" transform="matrix(1 0 0 1 1655.28 3473)">[</text></g></g><g clip-path="url(#clip40)"><g clip-path="url(#clip41)"><text font-family="Calibri,Calibri_MSFontService,sans-serif" font-weight="400" font-size="83" transform="matrix(1 0 0 1 1680.58 3473)">-</text></g></g><g clip-path="url(#clip42)"><g clip-path="url(#clip43)"><text font-family="Calibri,Calibri_MSFontService,sans-serif" font-weight="400" font-size="83" transform="matrix(1 0 0 1 1705.84 3473)">]</text></g></g><g clip-path="url(#clip44)"><rect x="1808.5" y="2681.5" width="177" height="157" stroke="#000000" stroke-width="3.4375" stroke-linejoin="round" stroke-miterlimit="10" fill="#FFFFFF"/></g><g clip-path="url(#clip45)"><path d="M1845 2720C1845 2726.07 1840.08 2731 1834 2731 1827.93 2731 1823 2726.07 1823 2720 1823 2713.92 1827.93 2709 1834 2709 1840.08 2709 1845 2713.92 1845 2720Z" stroke="#4472C4" stroke-width="3.4375" stroke-linejoin="round" stroke-miterlimit="10" fill="#4472C4"/></g><g clip-path="url(#clip46)"><text font-family="Calibri,Calibri_MSFontService,sans-serif" font-weight="400" font-size="41" transform="matrix(1 0 0 1 1855.18 2732)">Order2</text></g><g clip-path="url(#clip47)"><path d="M1834.5 2788.5 1845.5 2810.5 1823.5 2810.5Z" stroke="#ED7D31" stroke-width="3.4375" stroke-linejoin="round" stroke-miterlimit="10" fill="#ED7D31"/></g><g clip-path="url(#clip48)"><text font-family="Calibri,Calibri_MSFontService,sans-serif" font-weight="400" font-size="41" transform="matrix(1 0 0 1 1855.18 2811)">Order3</text></g></g></svg>