<svg width="1658" height="1006" xmlns="http://www.w3.org/2000/svg" xmlns:xlink="http://www.w3.org/1999/xlink" overflow="hidden"><defs><clipPath id="clip0"><rect x="2494" y="2530" width="1658" height="1006"/></clipPath><clipPath id="clip1"><rect x="2494" y="2530" width="1657" height="1006"/></clipPath><clipPath id="clip2"><rect x="2494" y="2530" width="1657" height="1006"/></clipPath><clipPath id="clip3"><rect x="2494" y="2530" width="1657" height="1006"/></clipPath><clipPath id="clip4"><rect x="2494" y="2530" width="1657" height="1006"/></clipPath><clipPath id="clip5"><rect x="2494" y="2530" width="1657" height="1006"/></clipPath><clipPath id="clip6"><rect x="2494" y="2530" width="1657" height="1006"/></clipPath><clipPath id="clip7"><rect x="2494" y="2530" width="1657" height="1006"/></clipPath><clipPath id="clip8"><rect x="2494" y="2530" width="1657" height="1006"/></clipPath><clipPath id="clip9"><rect x="2494" y="2530" width="1657" height="1006"/></clipPath><clipPath id="clip10"><rect x="2494" y="2530" width="1657" height="1006"/></clipPath><clipPath id="clip11"><rect x="2494" y="2530" width="1657" height="1006"/></clipPath><clipPath id="clip12"><rect x="2494" y="2530" width="1657" height="1006"/></clipPath><clipPath id="clip13"><rect x="2494" y="2530" width="1657" height="1006"/></clipPath><clipPath id="clip14"><rect x="2494" y="2530" width="1657" height="1006"/></clipPath><clipPath id="clip15"><rect x="2494" y="2530" width="1657" height="1006"/></clipPath><clipPath id="clip16"><rect x="2494" y="2530" width="1657" height="1006"/></clipPath><clipPath id="clip17"><rect x="2494" y="2530" width="1657" height="1006"/></clipPath><clipPath id="clip18"><rect x="2494" y="2530" width="1657" height="1006"/></clipPath><clipPath id="clip19"><rect x="2494" y="2530" width="1657" height="1006"/></clipPath><clipPath id="clip20"><rect x="2494" y="2530" width="1657" height="1006"/></clipPath><clipPath id="clip21"><rect x="2494" y="2530" width="1657" height="1006"/></clipPath><clipPath id="clip22"><rect x="2494" y="2530" width="1657" height="1006"/></clipPath><clipPath id="clip23"><rect x="1969" y="3328" width="3018" height="202"/></clipPath><clipPath id="clip24"><rect x="2494" y="2530" width="1657" height="1006"/></clipPath><clipPath id="clip25"><rect x="1969" y="3328" width="3018" height="202"/></clipPath><clipPath id="clip26"><rect x="2494" y="2530" width="1657" height="1006"/></clipPath><clipPath id="clip27"><rect x="1969" y="3328" width="3018" height="202"/></clipPath><clipPath id="clip28"><rect x="2494" y="2530" width="1657" height="1006"/></clipPath><clipPath id="clip29"><rect x="1969" y="3328" width="3018" height="202"/></clipPath><clipPath id="clip30"><rect x="2494" y="2530" width="1657" height="1006"/></clipPath><clipPath id="clip31"><rect x="1969" y="3328" width="3018" height="202"/></clipPath><clipPath id="clip32"><rect x="2494" y="2530" width="1657" height="1006"/></clipPath><clipPath id="clip33"><rect x="1969" y="3328" width="3018" height="202"/></clipPath><clipPath id="clip34"><rect x="2494" y="2530" width="1657" height="1006"/></clipPath><clipPath id="clip35"><rect x="1969" y="3328" width="3018" height="202"/></clipPath><clipPath id="clip36"><rect x="2494" y="2530" width="1657" height="1006"/></clipPath><clipPath id="clip37"><rect x="1969" y="3328" width="3018" height="202"/></clipPath><clipPath id="clip38"><rect x="2494" y="2530" width="1657" height="1006"/></clipPath><clipPath id="clip39"><rect x="1969" y="3328" width="3018" height="202"/></clipPath><clipPath id="clip40"><rect x="2494" y="2530" width="1657" height="1006"/></clipPath><clipPath id="clip41"><rect x="1969" y="3328" width="3018" height="202"/></clipPath><clipPath id="clip42"><rect x="2494" y="2530" width="1657" height="1006"/></clipPath><clipPath id="clip43"><rect x="1969" y="3328" width="3018" height="202"/></clipPath><clipPath id="clip44"><rect x="2494" y="2530" width="1657" height="1006"/></clipPath><clipPath id="clip45"><rect x="2494" y="2530" width="1657" height="1006"/></clipPath><clipPath id="clip46"><rect x="2494" y="2530" width="1657" height="1006"/></clipPath><clipPath id="clip47"><rect x="2494" y="2530" width="1657" height="1006"/></clipPath><clipPath id="clip48"><rect x="2494" y="2530" width="1657" height="1006"/></clipPath></defs><g clip-path="url(#clip0)" transform="translate(-2494 -2530)"><rect x="2494" y="2531" width="1658" height="1005" fill="#FFFFFF"/><g clip-path="url(#clip1)"><path d="M2871.5 3179.6 4084.5 3179.6M2871.5 3141.6 4084.5 3141.6M2871.5 3114.6 4084.5 3114.6M2871.5 3093.6 4084.5 3093.6M2871.5 3076.6 4084.5 3076.6M2871.5 3061.6 4084.5 3061.6M2871.5 3048.6 4084.5 3048.6M2871.5 3037.6 4084.5 3037.6M2871.5 2962.6 4084.5 2962.6M2871.5 2923.6 4084.5 2923.6M2871.5 2896.6 4084.5 2896.6M2871.5 2875.59 4084.5 2875.59M2871.5 2858.59 4084.5 2858.59M2871.5 2843.59 4084.5 2843.59M2871.5 2831.59 4084.5 2831.59M2871.5 2820.59 4084.5 2820.59M2871.5 2744.59 4084.5 2744.59M2871.5 2706.59 4084.5 2706.59M2871.5 2679.59 4084.5 2679.59M2871.5 2658.59 4084.5 2658.59M2871.5 2640.59 4084.5 2640.59M2871.5 2626.59 4084.5 2626.59M2871.5 2613.59 4084.5 2613.59M2871.5 2602.59 4084.5 2602.59" stroke="#A5A5A5" stroke-width="3.4375" stroke-linejoin="round" stroke-miterlimit="10" fill="none"/></g><g clip-path="url(#clip2)"><path d="M2872 3246 4085 3246M2872 3028.1 4085 3028.1M2872 2593 4085 2593" stroke="#000000" stroke-width="5.72917" stroke-linejoin="round" stroke-miterlimit="10" fill="none"/></g><g clip-path="url(#clip3)"><path d="M3114.1 2593 3114.1 3246M3357.11 2593 3357.11 3246M3600.12 2593 3600.12 3246M3842.13 2593 3842.13 3246M4085 2593 4085 3246" stroke="#000000" stroke-width="5.72917" stroke-linejoin="round" stroke-miterlimit="10" fill="none"/></g><g clip-path="url(#clip4)"><rect x="2872" y="2593" width="1213" height="653" stroke="#000000" stroke-width="5.72917" stroke-linejoin="round" stroke-miterlimit="10" fill="none"/></g><g clip-path="url(#clip5)"><path d="M0 0 0.000360892 653" stroke="#000000" stroke-width="3.4375" stroke-linejoin="round" stroke-miterlimit="10" fill="none" fill-rule="evenodd" transform="matrix(1 0 0 -1 2871.5 3245.5)"/></g><g clip-path="url(#clip6)"><path d="M2872 2810 4085 2810" stroke="#000000" stroke-width="5.72917" stroke-linejoin="round" stroke-miterlimit="10" fill="none" fill-rule="evenodd"/></g><g clip-path="url(#clip7)"><path d="M3052.67 2892.03C3052.67 2898.1 3047.75 2903.03 3041.67 2903.03 3035.6 2903.03 3030.67 2898.1 3030.67 2892.03 3030.67 2885.95 3035.6 2881.03 3041.67 2881.03 3047.75 2881.03 3052.67 2885.95 3052.67 2892.03Z" stroke="#4472C4" stroke-width="3.4375" stroke-linejoin="round" stroke-miterlimit="10" fill="#4472C4"/><path d="M3222.67 2989.03C3222.67 2995.1 3217.75 3000.03 3211.67 3000.03 3205.6 3000.03 3200.67 2995.1 3200.67 2989.03 3200.67 2982.95 3205.6 2978.03 3211.67 2978.03 3217.75 2978.03 3222.67 2982.95 3222.67 2989.03Z" stroke="#4472C4" stroke-width="3.4375" stroke-linejoin="round" stroke-miterlimit="10" fill="#4472C4"/><path d="M3392.67 3143.03C3392.67 3149.1 3387.75 3154.03 3381.67 3154.03 3375.6 3154.03 3370.67 3149.1 3370.67 3143.03 3370.67 3136.95 3375.6 3132.03 3381.67 3132.03 3387.75 3132.03 3392.67 3136.95 3392.67 3143.03Z" stroke="#4472C4" stroke-width="3.4375" stroke-linejoin="round" stroke-miterlimit="10" fill="#4472C4"/><path d="M3562.67 3142.03C3562.67 3148.1 3557.75 3153.03 3551.67 3153.03 3545.6 3153.03 3540.67 3148.1 3540.67 3142.03 3540.67 3135.95 3545.6 3131.03 3551.67 3131.03 3557.75 3131.03 3562.67 3135.95 3562.67 3142.03Z" stroke="#4472C4" stroke-width="3.4375" stroke-linejoin="round" stroke-miterlimit="10" fill="#4472C4"/><path d="M3731.67 3153.03C3731.67 3159.1 3726.75 3164.03 3720.67 3164.03 3714.6 3164.03 3709.67 3159.1 3709.67 3153.03 3709.67 3146.95 3714.6 3142.03 3720.67 3142.03 3726.75 3142.03 3731.67 3146.95 3731.67 3153.03Z" stroke="#4472C4" stroke-width="3.4375" stroke-linejoin="round" stroke-miterlimit="10" fill="#4472C4"/><path d="M3901.67 3158.03C3901.67 3164.1 3896.75 3169.03 3890.67 3169.03 3884.6 3169.03 3879.67 3164.1 3879.67 3158.03 3879.67 3151.95 3884.6 3147.03 3890.67 3147.03 3896.75 3147.03 3901.67 3151.95 3901.67 3158.03Z" stroke="#4472C4" stroke-width="3.4375" stroke-linejoin="round" stroke-miterlimit="10" fill="#4472C4"/></g><g clip-path="url(#clip8)"><path d="M3035.67 2877.03 3046.67 2899.03 3024.67 2899.03Z" stroke="#ED7D31" stroke-width="3.4375" stroke-linejoin="round" stroke-miterlimit="10" fill="#ED7D31"/><path d="M3199.67 2996.03 3210.67 3018.03 3188.67 3018.03Z" stroke="#ED7D31" stroke-width="3.4375" stroke-linejoin="round" stroke-miterlimit="10" fill="#ED7D31"/><path d="M3363.67 3158.03 3374.67 3180.03 3352.67 3180.03Z" stroke="#ED7D31" stroke-width="3.4375" stroke-linejoin="round" stroke-miterlimit="10" fill="#ED7D31"/><path d="M3526.67 3148.03 3537.67 3170.03 3515.67 3170.03Z" stroke="#ED7D31" stroke-width="3.4375" stroke-linejoin="round" stroke-miterlimit="10" fill="#ED7D31"/><path d="M3690.67 3146.03 3701.67 3168.03 3679.67 3168.03Z" stroke="#ED7D31" stroke-width="3.4375" stroke-linejoin="round" stroke-miterlimit="10" fill="#ED7D31"/><path d="M3854.67 3149.03 3865.67 3171.03 3843.67 3171.03Z" stroke="#ED7D31" stroke-width="3.4375" stroke-linejoin="round" stroke-miterlimit="10" fill="#ED7D31"/></g><g clip-path="url(#clip9)"><text font-family="Calibri,Calibri_MSFontService,sans-serif" font-weight="400" font-size="64" transform="matrix(1 0 0 1 2698.45 3264)">0.01</text></g><g clip-path="url(#clip10)"><text font-family="Calibri,Calibri_MSFontService,sans-serif" font-weight="400" font-size="64" transform="matrix(1 0 0 1 2730.97 3046)">0.1</text></g><g clip-path="url(#clip11)"><text font-family="Calibri,Calibri_MSFontService,sans-serif" font-weight="400" font-size="64" transform="matrix(1 0 0 1 2779.69 2829)">1</text></g><g clip-path="url(#clip12)"><text font-family="Calibri,Calibri_MSFontService,sans-serif" font-weight="400" font-size="64" transform="matrix(1 0 0 1 2747.17 2611)">10</text></g><g clip-path="url(#clip13)"><text font-family="Calibri,Calibri_MSFontService,sans-serif" font-weight="400" font-size="64" transform="matrix(1 0 0 1 2855.48 3347)">0</text></g><g clip-path="url(#clip14)"><text font-family="Calibri,Calibri_MSFontService,sans-serif" font-weight="400" font-size="64" transform="matrix(1 0 0 1 3098.11 3347)">1</text></g><g clip-path="url(#clip15)"><text font-family="Calibri,Calibri_MSFontService,sans-serif" font-weight="400" font-size="64" transform="matrix(1 0 0 1 3340.74 3347)">2</text></g><g clip-path="url(#clip16)"><text font-family="Calibri,Calibri_MSFontService,sans-serif" font-weight="400" font-size="64" transform="matrix(1 0 0 1 3583.38 3347)">3</text></g><g clip-path="url(#clip17)"><text font-family="Calibri,Calibri_MSFontService,sans-serif" font-weight="400" font-size="64" transform="matrix(1 0 0 1 3826.01 3347)">4</text></g><g clip-path="url(#clip18)"><text font-family="Calibri,Calibri_MSFontService,sans-serif" font-weight="400" font-size="64" transform="matrix(1 0 0 1 4068.64 3347)">5</text></g><g clip-path="url(#clip19)"><text font-family="Calibri,Calibri_MSFontService,sans-serif" font-weight="400" font-size="83" transform="matrix(6.12323e-17 -1 1 6.12323e-17 2630.46 3151)">Error norm [</text></g><g clip-path="url(#clip20)"><text font-family="Calibri,Calibri_MSFontService,sans-serif" font-weight="400" font-size="83" transform="matrix(6.12323e-17 -1 1 6.12323e-17 2630.46 2738)">-</text></g><g clip-path="url(#clip21)"><text font-family="Calibri,Calibri_MSFontService,sans-serif" font-weight="400" font-size="83" transform="matrix(6.12323e-17 -1 1 6.12323e-17 2630.46 2713)">]</text></g><g clip-path="url(#clip22)"><g clip-path="url(#clip23)"><text font-family="Calibri,Calibri_MSFontService,sans-serif" font-weight="400" font-size="83" transform="matrix(1 0 0 1 3262.82 3457)">(</text></g></g><g clip-path="url(#clip24)"><g clip-path="url(#clip25)"><text font-family="Calibri,Calibri_MSFontService,sans-serif" font-style="italic" font-weight="400" font-size="83" transform="matrix(1 0 0 1 3287.85 3457)">r</text></g></g><g clip-path="url(#clip26)"><g clip-path="url(#clip27)"><text font-family="Calibri,Calibri_MSFontService,sans-serif" font-style="italic" font-weight="400" font-size="55" transform="matrix(1 0 0 1 3316.13 3477)">2</text></g></g><g clip-path="url(#clip28)"><g clip-path="url(#clip29)"><text font-family="Calibri,Calibri_MSFontService,sans-serif" font-weight="400" font-size="83" transform="matrix(1 0 0 1 3362.65 3457)">-</text></g></g><g clip-path="url(#clip30)"><g clip-path="url(#clip31)"><text font-family="Calibri,Calibri_MSFontService,sans-serif" font-style="italic" font-weight="400" font-size="83" transform="matrix(1 0 0 1 3406.55 3457)">r</text></g></g><g clip-path="url(#clip32)"><g clip-path="url(#clip33)"><text font-family="Calibri,Calibri_MSFontService,sans-serif" font-style="italic" font-weight="400" font-size="55" transform="matrix(1 0 0 1 3434.83 3477)">1</text></g></g><g clip-path="url(#clip34)"><g clip-path="url(#clip35)"><text font-family="Calibri,Calibri_MSFontService,sans-serif" font-weight="400" font-size="83" transform="matrix(1 0 0 1 3462.7 3457)">) / </text></g></g><g clip-path="url(#clip36)"><g clip-path="url(#clip37)"><text font-family="Calibri,Calibri_MSFontService,sans-serif" font-style="italic" font-weight="400" font-size="83" transform="matrix(1 0 0 1 3556.89 3457)">d</text></g></g><g clip-path="url(#clip38)"><g clip-path="url(#clip39)"><text font-family="Calibri,Calibri_MSFontService,sans-serif" font-weight="400" font-size="83" transform="matrix(1 0 0 1 3617.96 3457)">[</text></g></g><g clip-path="url(#clip40)"><g clip-path="url(#clip41)"><text font-family="Calibri,Calibri_MSFontService,sans-serif" font-weight="400" font-size="83" transform="matrix(1 0 0 1 3643.26 3457)">-</text></g></g><g clip-path="url(#clip42)"><g clip-path="url(#clip43)"><text font-family="Calibri,Calibri_MSFontService,sans-serif" font-weight="400" font-size="83" transform="matrix(1 0 0 1 3668.52 3457)">]</text></g></g><g clip-path="url(#clip44)"><rect x="3770.5" y="2666.5" width="177" height="157" stroke="#000000" stroke-width="3.4375" stroke-linejoin="round" stroke-miterlimit="10" fill="#FFFFFF"/></g><g clip-path="url(#clip45)"><path d="M3807 2705C3807 2711.07 3802.07 2716 3796 2716 3789.92 2716 3785 2711.07 3785 2705 3785 2698.92 3789.92 2694 3796 2694 3802.07 2694 3807 2698.92 3807 2705Z" stroke="#4472C4" stroke-width="3.4375" stroke-linejoin="round" stroke-miterlimit="10" fill="#4472C4"/></g><g clip-path="url(#clip46)"><text font-family="Calibri,Calibri_MSFontService,sans-serif" font-weight="400" font-size="41" transform="matrix(1 0 0 1 3817.86 2717)">Order2</text></g><g clip-path="url(#clip47)"><path d="M3796.5 2773.5 3807.5 2795.5 3785.5 2795.5Z" stroke="#ED7D31" stroke-width="3.4375" stroke-linejoin="round" stroke-miterlimit="10" fill="#ED7D31"/></g><g clip-path="url(#clip48)"><text font-family="Calibri,Calibri_MSFontService,sans-serif" font-weight="400" font-size="41" transform="matrix(1 0 0 1 3817.86 2796)">Order3</text></g></g></svg>