<?xml version="1.0" encoding="UTF-8" standalone="no"?>
<svg
   xmlns:dc="http://purl.org/dc/elements/1.1/"
   xmlns:cc="http://creativecommons.org/ns#"
   xmlns:rdf="http://www.w3.org/1999/02/22-rdf-syntax-ns#"
   xmlns:svg="http://www.w3.org/2000/svg"
   xmlns="http://www.w3.org/2000/svg"
   viewBox="0 0 610.66669 346.66666"
   height="346.66666"
   width="610.66669"
   xml:space="preserve"
   id="svg2"
   version="1.1"><metadata
     id="metadata8"><rdf:RDF><cc:Work
         rdf:about=""><dc:format>image/svg+xml</dc:format><dc:type
           rdf:resource="http://purl.org/dc/dcmitype/StillImage" /></cc:Work></rdf:RDF></metadata><defs
     id="defs6"><clipPath
       id="clipPath20"
       clipPathUnits="userSpaceOnUse"><path
         id="path18"
         d="M 0,0 H 595.32001 V 841.92004 H 0 Z" /></clipPath><clipPath
       id="clipPath34"
       clipPathUnits="userSpaceOnUse"><path
         style="clip-rule:evenodd"
         id="path32"
         d="m 67.199997,126.24 v 924.3201 H 726.56 V 126.24 Z" /></clipPath><clipPath
       id="clipPath58"
       clipPathUnits="userSpaceOnUse"><path
         style="clip-rule:evenodd"
         id="path56"
         d="m 67.199997,126.24 v 924.3201 H 726.56 V 126.24 Z" /></clipPath><clipPath
       id="clipPath268"
       clipPathUnits="userSpaceOnUse"><path
         style="clip-rule:evenodd"
         id="path266"
         d="m 67.199997,126.24 v 924.3201 H 726.56 V 126.24 Z" /></clipPath><clipPath
       id="clipPath290"
       clipPathUnits="userSpaceOnUse"><path
         style="clip-rule:evenodd"
         id="path288"
         d="m 67.199997,126.24 v 924.3201 H 726.56 V 126.24 Z" /></clipPath></defs><g
     transform="matrix(1.3333333,0,0,-1.3333333,0,346.66667)"
     id="g10"><g
       transform="translate(-72,-274)"
       id="g12"><g
         id="g14"><g
           clip-path="url(#clipPath20)"
           id="g16"><g
             transform="matrix(0.75,0,0,-0.75,0,841.92004)"
             id="g22"><g
               id="g24"><path
                 id="path26"
                 style="fill:#ffffff;fill-opacity:1;fill-rule:nonzero;stroke:none"
                 d="M 67.519997,397.76001 H 726.56 V 779.03998 H 67.519997 Z" /></g><g
               id="g28"><g
                 clip-path="url(#clipPath34)"
                 id="g30"><g
                   transform="translate(177.92,663.20001)"
                   id="g36"><path
                     id="path38"
                     style="fill:none;stroke:#a5a5a5;stroke-width:1.27999997;stroke-linecap:butt;stroke-linejoin:round;stroke-miterlimit:10;stroke-dasharray:none;stroke-opacity:1"
                     d="M 0,0 H 518.71997 M 0,-16 H 518.71997 M 0,-27.360001 H 518.71997 M 0,-36.16 H 518.71997 M 0,-43.360001 H 518.71997 M 0,-49.599998 H 518.71997 M 0,-54.720001 H 518.71997 M 0,-59.52 H 518.71997 M 0,-90.879997 H 518.71997 M 0,-107.04 H 518.71997 M 0,-118.56 H 518.71997 M 0,-127.36 H 518.71997 M 0,-134.39999 H 518.71997 M 0,-140.48 H 518.71997 M 0,-145.92 H 518.71997 M 0,-150.39999 H 518.71997 M 0,-182.08 H 518.71997 M 0,-197.92 H 518.71997 M 0,-209.44 H 518.71997 M 0,-218.24 H 518.71997 M 0,-225.60001 H 518.71997 M 0,-231.52 H 518.71997 M 0,-236.8 H 518.71997 M 0,-241.44 h 518.71997" /></g><g
                   id="g40"><path
                     id="path42"
                     style="fill:none;stroke:#000000;stroke-width:2.24000001;stroke-linecap:butt;stroke-linejoin:round;stroke-miterlimit:10;stroke-dasharray:none;stroke-opacity:1"
                     d="M 177.92,690.56 H 696.64001 M 177.92,599.67999 H 696.64001 M 177.92,417.44 h 518.72001" /></g><g
                   transform="translate(235.36,417.44)"
                   id="g44"><path
                     id="path46"
                     style="fill:none;stroke:#000000;stroke-width:2.24000001;stroke-linecap:butt;stroke-linejoin:round;stroke-miterlimit:10;stroke-dasharray:none;stroke-opacity:1"
                     d="M 0,0 V 273.12 M 57.759998,0 V 273.12 M 115.52,0 V 273.12 M 172.96001,0 V 273.12 M 230.72,0 V 273.12 M 288.32001,0 V 273.12 M 345.92001,0 V 273.12 M 403.67999,0 V 273.12 M 461.28,0 v 273.12" /></g></g></g><g
               id="g48"><path
                 id="path50"
                 style="fill:none;stroke:#000000;stroke-width:2.24000001;stroke-linecap:butt;stroke-linejoin:round;stroke-miterlimit:10;stroke-dasharray:none;stroke-opacity:1"
                 d="M 177.92,417.44 H 696.64001 V 690.56 H 177.92 Z" /></g><g
               id="g52"><g
                 clip-path="url(#clipPath58)"
                 id="g54"><g
                   id="g60"><path
                     id="path62"
                     style="fill:none;stroke:#000000;stroke-width:1.27999997;stroke-linecap:butt;stroke-linejoin:round;stroke-miterlimit:10;stroke-dasharray:none;stroke-opacity:1"
                     d="M 177.92,690.56 V 417.44" /></g><g
                   id="g64"><path
                     id="path66"
                     style="fill:none;stroke:#000000;stroke-width:2.24000001;stroke-linecap:butt;stroke-linejoin:round;stroke-miterlimit:10;stroke-dasharray:none;stroke-opacity:1"
                     d="M 177.92,508.48001 H 696.64001" /></g><g
                   transform="translate(262.88,543.20001)"
                   id="g68"><path
                     id="path70"
                     style="fill:#4472c4;fill-opacity:1;fill-rule:nonzero;stroke:none"
                     d="M 0,0 C 0,2.4 -1.92,4.48 -4.48,4.48 -7.04,4.48 -8.96,2.4 -8.96,0 c 0,-2.56 1.92,-4.48 4.48,-4.48 C -1.92,-4.48 0,-2.56 0,0 Z" /></g><g
                   transform="translate(262.88,543.20001)"
                   id="g72"><path
                     id="path74"
                     style="fill:none;stroke:#4472c4;stroke-width:1.27999997;stroke-linecap:butt;stroke-linejoin:round;stroke-miterlimit:10;stroke-dasharray:none;stroke-opacity:1"
                     d="M 0,0 C 0,2.4 -1.92,4.48 -4.48,4.48 -7.04,4.48 -8.96,2.4 -8.96,0 c 0,-2.56 1.92,-4.48 4.48,-4.48 C -1.92,-4.48 0,-2.56 0,0" /></g><g
                   transform="translate(343.67999,583.20001)"
                   id="g76"><path
                     id="path78"
                     style="fill:#4472c4;fill-opacity:1;fill-rule:nonzero;stroke:none"
                     d="m 0,0 c 0,2.56 -2.08,4.64 -4.48,4.64 -2.56,0 -4.64,-2.08 -4.64,-4.64 0,-2.4 2.08,-4.48 4.64,-4.48 C -2.08,-4.48 0,-2.4 0,0 Z" /></g><g
                   transform="translate(343.67999,583.20001)"
                   id="g80"><path
                     id="path82"
                     style="fill:none;stroke:#4472c4;stroke-width:1.27999997;stroke-linecap:butt;stroke-linejoin:round;stroke-miterlimit:10;stroke-dasharray:none;stroke-opacity:1"
                     d="m 0,0 c 0,2.56 -2.08,4.64 -4.48,4.64 -2.56,0 -4.64,-2.08 -4.64,-4.64 0,-2.4 2.08,-4.48 4.64,-4.48 C -2.08,-4.48 0,-2.4 0,0" /></g><g
                   transform="translate(424.48001,647.84003)"
                   id="g84"><path
                     id="path86"
                     style="fill:#4472c4;fill-opacity:1;fill-rule:nonzero;stroke:none"
                     d="m 0,0 c 0,2.56 -2.08,4.48 -4.48,4.48 -2.56,0 -4.64,-1.92 -4.64,-4.48 0,-2.4 2.08,-4.48 4.64,-4.48 C -2.08,-4.48 0,-2.4 0,0 Z" /></g><g
                   transform="translate(424.48001,647.84003)"
                   id="g88"><path
                     id="path90"
                     style="fill:none;stroke:#4472c4;stroke-width:1.27999997;stroke-linecap:butt;stroke-linejoin:round;stroke-miterlimit:10;stroke-dasharray:none;stroke-opacity:1"
                     d="m 0,0 c 0,2.56 -2.08,4.48 -4.48,4.48 -2.56,0 -4.64,-1.92 -4.64,-4.48 0,-2.4 2.08,-4.48 4.64,-4.48 C -2.08,-4.48 0,-2.4 0,0" /></g><g
                   transform="translate(504.95999,647.35998)"
                   id="g92"><path
                     id="path94"
                     style="fill:#4472c4;fill-opacity:1;fill-rule:nonzero;stroke:none"
                     d="m 0,0 c 0,2.56 -1.92,4.64 -4.48,4.64 -2.4,0 -4.48,-2.08 -4.48,-4.64 0,-2.4 2.08,-4.48 4.48,-4.48 C -1.92,-4.48 0,-2.4 0,0 Z" /></g><g
                   transform="translate(504.95999,647.35998)"
                   id="g96"><path
                     id="path98"
                     style="fill:none;stroke:#4472c4;stroke-width:1.27999997;stroke-linecap:butt;stroke-linejoin:round;stroke-miterlimit:10;stroke-dasharray:none;stroke-opacity:1"
                     d="m 0,0 c 0,2.56 -1.92,4.64 -4.48,4.64 -2.4,0 -4.48,-2.08 -4.48,-4.64 0,-2.4 2.08,-4.48 4.48,-4.48 C -1.92,-4.48 0,-2.4 0,0" /></g><g
                   transform="translate(585.76001,652)"
                   id="g100"><path
                     id="path102"
                     style="fill:#4472c4;fill-opacity:1;fill-rule:nonzero;stroke:none"
                     d="M 0,0 C 0,2.4 -1.92,4.48 -4.48,4.48 -7.04,4.48 -8.96,2.4 -8.96,0 c 0,-2.56 1.92,-4.64 4.48,-4.64 C -1.92,-4.64 0,-2.56 0,0 Z" /></g><g
                   transform="translate(585.76001,652)"
                   id="g104"><path
                     id="path106"
                     style="fill:none;stroke:#4472c4;stroke-width:1.27999997;stroke-linecap:butt;stroke-linejoin:round;stroke-miterlimit:10;stroke-dasharray:none;stroke-opacity:1"
                     d="M 0,0 C 0,2.4 -1.92,4.48 -4.48,4.48 -7.04,4.48 -8.96,2.4 -8.96,0 c 0,-2.56 1.92,-4.64 4.48,-4.64 C -1.92,-4.64 0,-2.56 0,0" /></g><g
                   transform="translate(666.56,654.08002)"
                   id="g108"><path
                     id="path110"
                     style="fill:#4472c4;fill-opacity:1;fill-rule:nonzero;stroke:none"
                     d="m 0,0 c 0,2.56 -2.08,4.48 -4.48,4.48 -2.56,0 -4.48,-1.92 -4.48,-4.48 0,-2.4 1.92,-4.48 4.48,-4.48 C -2.08,-4.48 0,-2.4 0,0 Z" /></g><g
                   transform="translate(666.56,654.08002)"
                   id="g112"><path
                     id="path114"
                     style="fill:none;stroke:#4472c4;stroke-width:1.27999997;stroke-linecap:butt;stroke-linejoin:round;stroke-miterlimit:10;stroke-dasharray:none;stroke-opacity:1"
                     d="m 0,0 c 0,2.56 -2.08,4.48 -4.48,4.48 -2.56,0 -4.48,-1.92 -4.48,-4.48 0,-2.4 1.92,-4.48 4.48,-4.48 C -2.08,-4.48 0,-2.4 0,0" /></g><g
                   id="g116"><path
                     id="path118"
                     style="fill:#ed7d31;fill-opacity:1;fill-rule:nonzero;stroke:none"
                     d="m 255.52,536.64001 4.64,9.12 h -9.12001 z" /></g><g
                   id="g120"><path
                     id="path122"
                     style="fill:none;stroke:#ed7d31;stroke-width:1.27999997;stroke-linecap:butt;stroke-linejoin:round;stroke-miterlimit:10;stroke-dasharray:none;stroke-opacity:1"
                     d="m 255.52,536.64001 4.64,9.12 h -9.12001 z" /></g><g
                   id="g124"><path
                     id="path126"
                     style="fill:#ed7d31;fill-opacity:1;fill-rule:nonzero;stroke:none"
                     d="m 333.28,586.23999 4.64001,9.11999 h -9.12002 z" /></g><g
                   id="g128"><path
                     id="path130"
                     style="fill:none;stroke:#ed7d31;stroke-width:1.27999997;stroke-linecap:butt;stroke-linejoin:round;stroke-miterlimit:10;stroke-dasharray:none;stroke-opacity:1"
                     d="m 333.28,586.23999 4.64001,9.11999 h -9.12002 z" /></g><g
                   id="g132"><path
                     id="path134"
                     style="fill:#ed7d31;fill-opacity:1;fill-rule:nonzero;stroke:none"
                     d="m 411.35999,654.08002 4.48001,9.11999 h -8.96 z" /></g><g
                   id="g136"><path
                     id="path138"
                     style="fill:none;stroke:#ed7d31;stroke-width:1.27999997;stroke-linecap:butt;stroke-linejoin:round;stroke-miterlimit:10;stroke-dasharray:none;stroke-opacity:1"
                     d="m 411.35999,654.08002 4.48001,9.11999 h -8.96 z" /></g><g
                   id="g140"><path
                     id="path142"
                     style="fill:#ed7d31;fill-opacity:1;fill-rule:nonzero;stroke:none"
                     d="m 489.12,650.23999 4.48001,8.96002 h -8.96 z" /></g><g
                   id="g144"><path
                     id="path146"
                     style="fill:none;stroke:#ed7d31;stroke-width:1.27999997;stroke-linecap:butt;stroke-linejoin:round;stroke-miterlimit:10;stroke-dasharray:none;stroke-opacity:1"
                     d="m 489.12,650.23999 4.48001,8.96002 h -8.96 z" /></g><g
                   id="g148"><path
                     id="path150"
                     style="fill:#ed7d31;fill-opacity:1;fill-rule:nonzero;stroke:none"
                     d="m 566.88,649.44 4.47998,8.96002 h -8.95996 z" /></g><g
                   id="g152"><path
                     id="path154"
                     style="fill:none;stroke:#ed7d31;stroke-width:1.27999997;stroke-linecap:butt;stroke-linejoin:round;stroke-miterlimit:10;stroke-dasharray:none;stroke-opacity:1"
                     d="m 566.88,649.44 4.47998,8.96002 h -8.95996 z" /></g><g
                   id="g156"><path
                     id="path158"
                     style="fill:#ed7d31;fill-opacity:1;fill-rule:nonzero;stroke:none"
                     d="m 644.64001,650.40002 4.47999,9.12 h -8.96003 z" /></g><g
                   id="g160"><path
                     id="path162"
                     style="fill:none;stroke:#ed7d31;stroke-width:1.27999997;stroke-linecap:butt;stroke-linejoin:round;stroke-miterlimit:10;stroke-dasharray:none;stroke-opacity:1"
                     d="m 644.64001,650.40002 4.47999,9.12 h -8.96003 z" /></g></g></g><g
               transform="scale(0.049303)"
               id="g164"><text
                 id="text168"
                 style="font-variant:normal;font-weight:normal;font-size:327.67999268px;font-family:F1;-inkscape-font-specification:F1;writing-mode:lr-tb;fill:#000000;fill-opacity:1;fill-rule:nonzero;stroke:none"
                 transform="translate(2719.52,14100.6)"><tspan
                   id="tspan166"
                   y="0"
                   x="0 170.3936 249.03679 416.15359">0.01</tspan></text>
</g><g
               transform="scale(0.049303)"
               id="g170"><text
                 id="text174"
                 style="font-variant:normal;font-weight:normal;font-size:327.67999268px;font-family:F1;-inkscape-font-specification:F1;writing-mode:lr-tb;fill:#000000;fill-opacity:1;fill-rule:nonzero;stroke:none"
                 transform="translate(2888.3201,12254.1)"><tspan
                   id="tspan172"
                   y="0"
                   x="0 163.84 245.75999">0.1</tspan></text>
</g><g
               transform="scale(0.049303)"
               id="g176"><text
                 id="text180"
                 style="font-variant:normal;font-weight:normal;font-size:327.67999268px;font-family:F1;-inkscape-font-specification:F1;writing-mode:lr-tb;fill:#000000;fill-opacity:1;fill-rule:nonzero;stroke:none"
                 transform="translate(3134.8799,10407.5)"><tspan
                   id="tspan178"
                   y="0"
                   x="0">1</tspan></text>
</g><g
               transform="scale(0.049303)"
               id="g182"><text
                 id="text186"
                 style="font-variant:normal;font-weight:normal;font-size:327.67999268px;font-family:F1;-inkscape-font-specification:F1;writing-mode:lr-tb;fill:#000000;fill-opacity:1;fill-rule:nonzero;stroke:none"
                 transform="translate(2969.4399,8560.96)"><tspan
                   id="tspan184"
                   y="0"
                   x="0 163.84">10</tspan></text>
</g><g
               transform="scale(0.049303)"
               id="g188"><text
                 id="text192"
                 style="font-variant:normal;font-weight:normal;font-size:327.67999268px;font-family:F1;-inkscape-font-specification:F1;writing-mode:lr-tb;fill:#000000;fill-opacity:1;fill-rule:nonzero;stroke:none"
                 transform="translate(3524.3201,14525.8)"><tspan
                   id="tspan190"
                   y="0"
                   x="0 1042.0223 1209.1392 1291.0592 2336.3584 3381.6575 3545.4976 3630.6943 4675.9937 5721.2925 5888.4097 5967.0527 7012.3521 8057.6509 8224.7676 8306.6875 9351.9873 10397.286 10564.403 10643.046">00.511.522.533.544.5</tspan></text>
</g><g
               transform="matrix(0,-0.076912,0.076912,0,0,0)"
               id="g194"><text
                 id="text198"
                 style="font-variant:normal;font-weight:normal;font-size:327.67999268px;font-family:F1;-inkscape-font-specification:F1;writing-mode:lr-tb;fill:#000000;fill-opacity:1;fill-rule:nonzero;stroke:none"
                 transform="translate(-8123.52,1479.04)"><tspan
                   id="tspan196"
                   y="0"
                   x="0 160.5632 275.25119 383.38559 557.05597 671.74396 743.83356 914.22717 1084.6207 1202.5856 1461.4528 1536.8192 1635.1232 1736.704">Error norm [-]</tspan></text>
</g><g
               transform="scale(0.076912)"
               id="g200"><text
                 id="text204"
                 style="font-variant:normal;font-weight:normal;font-size:327.67999268px;font-family:F1;-inkscape-font-specification:F1;writing-mode:lr-tb;fill:#000000;fill-opacity:1;fill-rule:nonzero;stroke:none"
                 transform="translate(4830.3999,9750.4004)"><tspan
                   id="tspan202"
                   y="0"
                   x="0">(</tspan></text>
</g><g
               transform="scale(0.076912)"
               id="g206"><text
                 id="text210"
                 style="font-variant:normal;font-weight:normal;font-size:327.67999268px;font-family:F2;-inkscape-font-specification:F2;writing-mode:lr-tb;fill:#000000;fill-opacity:1;fill-rule:nonzero;stroke:none"
                 transform="translate(4928.1602,9750.4004)"><tspan
                   id="tspan208"
                   y="0"
                   x="0">r</tspan></text>
</g><g
               transform="scale(0.051275)"
               id="g212"><text
                 id="text216"
                 style="font-variant:normal;font-weight:normal;font-size:327.67999268px;font-family:F2;-inkscape-font-specification:F2;writing-mode:lr-tb;fill:#000000;fill-opacity:1;fill-rule:nonzero;stroke:none"
                 transform="translate(7560.7998,14744.2)"><tspan
                   id="tspan214"
                   y="0"
                   x="0">2</tspan></text>
</g><g
               transform="scale(0.076912)"
               id="g218"><text
                 id="text222"
                 style="font-variant:normal;font-weight:normal;font-size:327.67999268px;font-family:F1;-inkscape-font-specification:F1;writing-mode:lr-tb;fill:#000000;fill-opacity:1;fill-rule:nonzero;stroke:none"
                 transform="translate(5225.7598,9750.4004)"><tspan
                   id="tspan220"
                   y="0"
                   x="0">-</tspan></text>
</g><g
               transform="scale(0.076912)"
               id="g224"><text
                 id="text228"
                 style="font-variant:normal;font-weight:normal;font-size:327.67999268px;font-family:F2;-inkscape-font-specification:F2;writing-mode:lr-tb;fill:#000000;fill-opacity:1;fill-rule:nonzero;stroke:none"
                 transform="translate(5398.3999,9750.4004)"><tspan
                   id="tspan226"
                   y="0"
                   x="0">r</tspan></text>
</g><g
               transform="scale(0.051275)"
               id="g230"><text
                 id="text234"
                 style="font-variant:normal;font-weight:normal;font-size:327.67999268px;font-family:F2;-inkscape-font-specification:F2;writing-mode:lr-tb;fill:#000000;fill-opacity:1;fill-rule:nonzero;stroke:none"
                 transform="translate(8266.0801,14744.2)"><tspan
                   id="tspan232"
                   y="0"
                   x="0">1</tspan></text>
</g><g
               transform="scale(0.076912)"
               id="g236"><text
                 id="text240"
                 style="font-variant:normal;font-weight:normal;font-size:327.67999268px;font-family:F1;-inkscape-font-specification:F1;writing-mode:lr-tb;fill:#000000;fill-opacity:1;fill-rule:nonzero;stroke:none"
                 transform="translate(5623.04,9750.4004)"><tspan
                   id="tspan238"
                   y="0"
                   x="0 98.304001 170.3936 298.18878">) / </tspan></text>
</g><g
               transform="scale(0.076912)"
               id="g242"><text
                 id="text246"
                 style="font-variant:normal;font-weight:normal;font-size:327.67999268px;font-family:F2;-inkscape-font-specification:F2;writing-mode:lr-tb;fill:#000000;fill-opacity:1;fill-rule:nonzero;stroke:none"
                 transform="translate(5995.3599,9750.4004)"><tspan
                   id="tspan244"
                   y="0"
                   x="0">d</tspan></text>
</g><g
               transform="scale(0.076912)"
               id="g248"><text
                 id="text252"
                 style="font-variant:normal;font-weight:normal;font-size:327.67999268px;font-family:F1;-inkscape-font-specification:F1;writing-mode:lr-tb;fill:#000000;fill-opacity:1;fill-rule:nonzero;stroke:none"
                 transform="translate(6236.7998,9750.4004)"><tspan
                   id="tspan250"
                   y="0"
                   x="0 98.304001 203.16159">[-]</tspan></text>
</g><g
               id="g254"><path
                 id="path256"
                 style="fill:#ffffff;fill-opacity:1;fill-rule:nonzero;stroke:none"
                 d="m 575.20001,449.12 h 70.39997 v 59.67999 h -70.39997 z" /></g><g
               id="g258"><path
                 id="path260"
                 style="fill:none;stroke:#000000;stroke-width:1.27999997;stroke-linecap:butt;stroke-linejoin:round;stroke-miterlimit:10;stroke-dasharray:none;stroke-opacity:1"
                 d="m 575.20001,449.12 h 70.39997 v 59.67999 h -70.39997 z" /></g><g
               id="g262"><g
                 clip-path="url(#clipPath268)"
                 id="g264"><g
                   transform="translate(590.23999,464)"
                   id="g270"><path
                     id="path272"
                     style="fill:#4472c4;fill-opacity:1;fill-rule:nonzero;stroke:none"
                     d="m 0,0 c 0,2.4 -2.08,4.48 -4.64,4.48 -2.4,0 -4.48,-2.08 -4.48,-4.48 0,-2.56 2.08,-4.64 4.48,-4.64 C -2.08,-4.64 0,-2.56 0,0 Z" /></g><g
                   transform="translate(590.23999,464)"
                   id="g274"><path
                     id="path276"
                     style="fill:none;stroke:#4472c4;stroke-width:1.27999997;stroke-linecap:butt;stroke-linejoin:round;stroke-miterlimit:10;stroke-dasharray:none;stroke-opacity:1"
                     d="m 0,0 c 0,2.4 -2.08,4.48 -4.64,4.48 -2.4,0 -4.48,-2.08 -4.48,-4.48 0,-2.56 2.08,-4.64 4.48,-4.64 C -2.08,-4.64 0,-2.56 0,0" /></g></g></g><g
               transform="scale(0.049303)"
               id="g278"><text
                 id="text282"
                 style="font-variant:normal;font-weight:normal;font-size:327.67999268px;font-family:F1;-inkscape-font-specification:F1;writing-mode:lr-tb;fill:#000000;fill-opacity:1;fill-rule:nonzero;stroke:none"
                 transform="translate(12043.2,9505.4404)"><tspan
                   id="tspan280"
                   y="0"
                   x="0 219.54559 334.23358 504.6272 668.46716 783.15521">Order2</tspan></text>
</g><g
               id="g284"><g
                 clip-path="url(#clipPath290)"
                 id="g286"><g
                   id="g292"><path
                     id="path294"
                     style="fill:#ed7d31;fill-opacity:1;fill-rule:nonzero;stroke:none"
                     d="m 585.59998,489.28 4.64001,9.11999 H 581.12 Z" /></g><g
                   id="g296"><path
                     id="path298"
                     style="fill:none;stroke:#ed7d31;stroke-width:1.27999997;stroke-linecap:butt;stroke-linejoin:round;stroke-miterlimit:10;stroke-dasharray:none;stroke-opacity:1"
                     d="m 585.59998,489.28 4.64001,9.11999 H 581.12 Z" /></g></g></g><g
               transform="scale(0.049303)"
               id="g300"><text
                 id="text304"
                 style="font-variant:normal;font-weight:normal;font-size:327.67999268px;font-family:F1;-inkscape-font-specification:F1;writing-mode:lr-tb;fill:#000000;fill-opacity:1;fill-rule:nonzero;stroke:none"
                 transform="translate(12043.2,10109)"><tspan
                   id="tspan302"
                   y="0"
                   x="0 219.54559 334.23358 504.6272 668.46716 783.15521">Order3</tspan></text>
</g></g></g></g></g></g></svg>