<?xml version="1.0" encoding="utf-8"?>
<!-- Generator: Adobe Illustrator 26.2.1, SVG Export Plug-In . SVG Version: 6.00 Build 0)  -->
<svg version="1.1" xmlns="http://www.w3.org/2000/svg" xmlns:xlink="http://www.w3.org/1999/xlink" x="0px" y="0px"
	 viewBox="0 0 305.6 191.9" style="enable-background:new 0 0 305.6 191.9;" xml:space="preserve">
<style type="text/css">
	.st0{fill:#FFFFFF;stroke:#000000;stroke-miterlimit:10;}
	.st1{font-family:'KozGoPr6N-Regular-90ms-RKSJ-H';}
	.st2{font-size:12px;}
	.st3{fill:none;stroke:#00A0E9;stroke-miterlimit:10;}
	.st4{opacity:0.15;}
	.st5{fill:#00A0E9;}
</style>
<g id="glo">
	<line class="st0" x1="148.2" y1="14.6" x2="148.2" y2="191.5"/>
	<line class="st0" x1="10" y1="14.6" x2="10" y2="191.5"/>
	<line class="st0" x1="286.4" y1="14.6" x2="286.4" y2="191.5"/>
	<line class="st0" x1="0" y1="31.1" x2="296.4" y2="31.1"/>
	<line class="st0" x1="0" y1="170.6" x2="296.4" y2="170.6"/>
	<text transform="matrix(1 0 0 1 12.3699 182.5041)" class="st1 st2">global element</text>
</g>
<g id="loc">
	<g id="XMLID_00000072962808484507614370000003441595951000654779_">
		<g>
		</g>
		<g>
			<path class="st3" d="M33.2,14.6c32,7.9,62.4,16.9,90.6,26.2c9.7,3.2,19.2,6.5,28.4,9.8c26.7,9.5,50.8,19.2,71.5,28
				c50.8,21.6,81.6,38.5,81.6,38.5"/>
			<path class="st3" d="M6.4,89c24.9,6.1,48.9,12.9,71.6,20c16.5,5.2,32.4,10.5,47.4,15.9c18.1,6.5,35,13,50.5,19.3
				c63.1,25.6,102.6,47.2,102.6,47.2"/>
			<path class="st3" d="M30.9,155.9c18.3-15.3,33.9-31.3,47-46.8c21.1-25,35.9-49.1,45.9-68.3c12.7-24.2,17.5-40.5,17.5-40.5"/>
			<path class="st3" d="M137.8,180.8c14.3-12,26.9-24.3,38-36.6C197,121,212.5,98,223.7,78.5c17.9-31.2,24.6-53.3,24.6-53.3"/>
		</g>
	</g>
	<g id="XMLID_00000170237769400586419630000001112862478400690861_" class="st4">
		<g>
			<path class="st5" d="M223.7,78.5C212.5,98,197,121,175.9,144.2c-15.5-6.3-32.4-12.8-50.5-19.3c-15-5.4-30.9-10.8-47.4-15.9
				c21.1-25,35.9-49.1,45.9-68.3c9.7,3.2,19.2,6.5,28.4,9.8C178.9,60.1,203,69.7,223.7,78.5z"/>
		</g>
		<g>
			<path class="st3" d="M33.2,14.6c32,7.8,62.4,16.8,90.6,26.2c9.7,3.2,19.2,6.5,28.4,9.8c26.7,9.5,50.8,19.2,71.5,28
				c50.7,21.6,81.6,38.5,81.6,38.5"/>
			<path class="st3" d="M6.4,89c24.9,6.1,48.9,12.9,71.5,20c16.5,5.2,32.4,10.6,47.4,15.9c18.1,6.5,35,13,50.5,19.3
				c63.1,25.6,102.6,47.2,102.6,47.2"/>
			<path class="st3" d="M30.9,155.9c18.3-15.3,33.9-31.3,47-46.8c21.1-25,35.9-49.1,45.9-68.3c12.7-24.2,17.5-40.5,17.5-40.5"/>
			<path class="st3" d="M137.8,180.8c14.3-12,26.9-24.3,38-36.6C197,121,212.5,98,223.7,78.5c17.9-31.2,24.6-53.3,24.6-53.3"/>
		</g>
	</g>
	<text transform="matrix(1 0 0 1 187.4902 145.1404)" class="st5 st1 st2">local element</text>
</g>
</svg>
