<svg xmlns="http://www.w3.org/2000/svg" viewBox="0 0 221.83 180.47"><defs><style>.cls-1,.cls-2{fill:#fff;}.cls-1,.cls-2,.cls-3,.cls-4,.cls-5,.cls-6{stroke:#231815;stroke-miterlimit:10;}.cls-1,.cls-3,.cls-5,.cls-6{stroke-linecap:round;}.cls-3,.cls-5,.cls-6{fill:none;}.cls-10,.cls-4,.cls-7,.cls-8,.cls-9{fill:#231815;}.cls-5,.cls-6{stroke-width:0.5px;}.cls-6{stroke-dasharray:5.9 5.9;}.cls-10,.cls-8,.cls-9{font-size:12px;}.cls-8{font-family:CambriaMath, Cambria Math;}.cls-9{font-family:SegoeUI, Segoe UI;}.cls-10{font-family:SegoeUI-Italic, Segoe UI;font-style:italic;}</style></defs><g id="図形"><path class="cls-1" d="M305.64,177A141.74,141.74,0,0,1,447.37,318.73" transform="translate(-235.36 -157.3)"/><path class="cls-2" d="M305.64,389.6" transform="translate(-235.36 -157.3)"/><path class="cls-1" d="M305.64,247.87a70.85,70.85,0,0,1,70.86,70.86" transform="translate(-235.36 -157.3)"/><line class="cls-3" x1="141.14" y1="161.44" x2="212.01" y2="161.44"/><line class="cls-3" x1="70.28" y1="90.57" x2="70.28" y2="19.7"/><circle class="cls-4" cx="70.28" cy="161.44" r="0.89"/><line class="cls-5" x1="141.14" y1="161.44" x2="138.14" y2="161.44"/><line class="cls-6" x1="132.25" y1="161.44" x2="76.23" y2="161.44"/><line class="cls-5" x1="73.28" y1="161.44" x2="70.28" y2="161.44"/><line class="cls-5" x1="70.28" y1="161.44" x2="70.28" y2="158.44"/><line class="cls-6" x1="70.28" y1="152.54" x2="70.28" y2="96.52"/><line class="cls-5" x1="70.28" y1="93.57" x2="70.28" y2="90.57"/><line class="cls-5" x1="70.28" y1="161.44" x2="168.25" y2="63.46"/><path class="cls-7" d="M405.75,218.62a15.21,15.21,0,0,0-1.34,4.71L403.33,221,401,220A15.21,15.21,0,0,0,405.75,218.62Z" transform="translate(-235.36 -157.3)"/><line class="cls-5" x1="70.28" y1="161.44" x2="134.68" y2="140.05"/><path class="cls-7" d="M372.91,296.39a15.42,15.42,0,0,0-3.31,3.6l.07-2.52-1.57-2A15,15,0,0,0,372.91,296.39Z" transform="translate(-235.36 -157.3)"/><line class="cls-5" x1="70.29" y1="106.78" x2="70.29" y2="93.59"/><path class="cls-7" d="M305.65,247.87a14.72,14.72,0,0,0,2.38,4.27l-2.38-.86-2.38.86A15.2,15.2,0,0,0,305.65,247.87Z" transform="translate(-235.36 -157.3)"/><line class="cls-5" x1="117.68" y1="134.07" x2="129.1" y2="127.47"/><path class="cls-7" d="M367.08,283.26a15.14,15.14,0,0,0-2.52,4.2l-.44-2.49-1.93-1.63A15.18,15.18,0,0,0,367.08,283.26Z" transform="translate(-235.36 -157.3)"/><line class="cls-5" x1="97.74" y1="113.88" x2="104.33" y2="102.46"/><path class="cls-7" d="M341.2,257.14a15.17,15.17,0,0,0-.08,4.89l-1.63-1.94-2.49-.44A15.35,15.35,0,0,0,341.2,257.14Z" transform="translate(-235.36 -157.3)"/><line class="cls-5" x1="125.57" y1="161.44" x2="138.76" y2="161.44"/><path class="cls-7" d="M377.14,318.73a15.2,15.2,0,0,0-4.27,2.38l.86-2.38-.86-2.38A14.72,14.72,0,0,0,377.14,318.73Z" transform="translate(-235.36 -157.3)"/></g><g id="拘束系"><g id="拘束6"><line class="cls-5" x1="60.3" y1="49.37" x2="60.3" y2="60.9"/><line class="cls-5" x1="70.28" y1="55.14" x2="60.3" y2="60.9"/><line class="cls-5" x1="60.3" y1="49.37" x2="70.28" y2="55.14"/><line class="cls-5" x1="54.95" y1="49.37" x2="54.95" y2="60.9"/><circle class="cls-5" cx="57.62" cy="52.26" r="2.25"/><circle class="cls-5" cx="57.62" cy="58.02" r="2.25"/><line class="cls-5" x1="51.49" y1="56.65" x2="54.95" y2="59.39"/><line class="cls-5" x1="51.49" y1="50.89" x2="54.95" y2="53.62"/><line class="cls-5" x1="51.49" y1="53.77" x2="54.95" y2="56.51"/></g><g id="拘束5"><line class="cls-5" x1="60.3" y1="13.94" x2="60.3" y2="25.47"/><line class="cls-5" x1="70.28" y1="19.7" x2="60.3" y2="25.47"/><line class="cls-5" x1="60.3" y1="13.94" x2="70.28" y2="19.7"/><line class="cls-5" x1="54.95" y1="13.94" x2="54.95" y2="25.47"/><circle class="cls-5" cx="57.62" cy="16.82" r="2.25"/><circle class="cls-5" cx="57.62" cy="22.59" r="2.25"/><line class="cls-5" x1="51.49" y1="21.22" x2="54.95" y2="23.96"/><line class="cls-5" x1="51.49" y1="15.45" x2="54.95" y2="18.19"/><line class="cls-5" x1="51.49" y1="18.34" x2="54.95" y2="21.07"/></g><g id="拘束4"><line class="cls-5" x1="60.31" y1="84.81" x2="60.31" y2="96.33"/><line class="cls-5" x1="70.29" y1="90.57" x2="60.31" y2="96.33"/><line class="cls-5" x1="60.31" y1="84.81" x2="70.29" y2="90.57"/><line class="cls-5" x1="54.96" y1="84.81" x2="54.96" y2="96.33"/><circle class="cls-5" cx="57.63" cy="87.69" r="2.25"/><circle class="cls-5" cx="57.63" cy="93.45" r="2.25"/><line class="cls-5" x1="51.5" y1="92.08" x2="54.96" y2="94.82"/><line class="cls-5" x1="51.5" y1="86.32" x2="54.96" y2="89.06"/><line class="cls-5" x1="51.5" y1="89.2" x2="54.96" y2="91.94"/></g><g id="拘束3"><line class="cls-5" x1="170.81" y1="171.42" x2="182.34" y2="171.42"/><line class="cls-5" x1="176.58" y1="161.44" x2="182.34" y2="171.42"/><line class="cls-5" x1="170.81" y1="171.42" x2="176.58" y2="161.44"/><line class="cls-5" x1="170.81" y1="176.76" x2="182.34" y2="176.76"/><circle class="cls-5" cx="173.7" cy="174.09" r="2.25"/><circle class="cls-5" cx="179.46" cy="174.09" r="2.25"/><line class="cls-5" x1="178.09" y1="180.22" x2="180.83" y2="176.76"/><line class="cls-5" x1="172.33" y1="180.22" x2="175.06" y2="176.76"/><line class="cls-5" x1="175.21" y1="180.22" x2="177.95" y2="176.76"/></g><g id="拘束2"><line class="cls-5" x1="135.38" y1="171.42" x2="146.91" y2="171.42"/><line class="cls-5" x1="141.14" y1="161.44" x2="146.91" y2="171.42"/><line class="cls-5" x1="135.38" y1="171.42" x2="141.14" y2="161.44"/><line class="cls-5" x1="135.38" y1="176.76" x2="146.91" y2="176.76"/><circle class="cls-5" cx="138.26" cy="174.09" r="2.25"/><circle class="cls-5" cx="144.03" cy="174.09" r="2.25"/><line class="cls-5" x1="142.66" y1="180.22" x2="145.4" y2="176.76"/><line class="cls-5" x1="136.89" y1="180.22" x2="139.63" y2="176.76"/><line class="cls-5" x1="139.78" y1="180.22" x2="142.51" y2="176.76"/></g><g id="拘束1"><line class="cls-5" x1="206.25" y1="171.42" x2="217.77" y2="171.42"/><line class="cls-5" x1="212.01" y1="161.44" x2="217.77" y2="171.42"/><line class="cls-5" x1="206.25" y1="171.42" x2="212.01" y2="161.44"/><line class="cls-5" x1="206.25" y1="176.76" x2="217.77" y2="176.76"/><circle class="cls-5" cx="209.13" cy="174.09" r="2.25"/><circle class="cls-5" cx="214.89" cy="174.09" r="2.25"/><line class="cls-5" x1="213.52" y1="180.22" x2="216.26" y2="176.76"/><line class="cls-5" x1="207.76" y1="180.22" x2="210.5" y2="176.76"/><line class="cls-5" x1="210.64" y1="180.22" x2="213.38" y2="176.76"/></g></g><g id="文字"><text class="cls-8" transform="translate(130.14 90.17)">2</text><text class="cls-8" transform="translate(107.07 145.65)">1</text><text class="cls-9" transform="translate(70.72 10.2)">Internal stress : 10MPa</text><line class="cls-5" x1="3.29" y1="161.44" x2="24.12" y2="161.44"/><path class="cls-7" d="M261.59,318.73a10.66,10.66,0,0,0-3,1.67l.6-1.67-.6-1.66A10.89,10.89,0,0,0,261.59,318.73Z" transform="translate(-235.36 -157.3)"/><line class="cls-5" x1="3.29" y1="161.74" x2="3.29" y2="140.91"/><path class="cls-7" d="M238.65,296.09a10.74,10.74,0,0,0,1.66,3l-1.66-.6-1.67.6A10.52,10.52,0,0,0,238.65,296.09Z" transform="translate(-235.36 -157.3)"/><text class="cls-9" transform="translate(27.18 164.4)">x</text><text class="cls-9" transform="translate(0.72 134.86)">y</text><text class="cls-10" transform="translate(56.91 165.45)">O</text><text class="cls-9" transform="translate(0 117.25)">Unit : mm</text></g></svg>