<?xml version="1.0" encoding="UTF-8" standalone="no"?>
<svg
   xmlns:dc="http://purl.org/dc/elements/1.1/"
   xmlns:cc="http://creativecommons.org/ns#"
   xmlns:rdf="http://www.w3.org/1999/02/22-rdf-syntax-ns#"
   xmlns:svg="http://www.w3.org/2000/svg"
   xmlns="http://www.w3.org/2000/svg"
   viewBox="0 0 612 366.66666"
   height="366.66666"
   width="612"
   xml:space="preserve"
   id="svg2"
   version="1.1"><metadata
     id="metadata8"><rdf:RDF><cc:Work
         rdf:about=""><dc:format>image/svg+xml</dc:format><dc:type
           rdf:resource="http://purl.org/dc/dcmitype/StillImage" /></cc:Work></rdf:RDF></metadata><defs
     id="defs6"><clipPath
       id="clipPath20"
       clipPathUnits="userSpaceOnUse"><path
         id="path18"
         d="M 0,0 H 595.32001 V 841.92004 H 0 Z" /></clipPath><clipPath
       id="clipPath34"
       clipPathUnits="userSpaceOnUse"><path
         style="clip-rule:evenodd"
         id="path32"
         d="m 67.199997,126.24 v 924.3201 H 726.56 V 126.24 Z" /></clipPath><clipPath
       id="clipPath62"
       clipPathUnits="userSpaceOnUse"><path
         style="clip-rule:evenodd"
         id="path60"
         d="m 67.199997,126.24 v 924.3201 H 726.56 V 126.24 Z" /></clipPath><clipPath
       id="clipPath212"
       clipPathUnits="userSpaceOnUse"><path
         style="clip-rule:evenodd"
         id="path210"
         d="m 67.199997,126.24 v 924.3201 H 726.56 V 126.24 Z" /></clipPath><clipPath
       id="clipPath234"
       clipPathUnits="userSpaceOnUse"><path
         style="clip-rule:evenodd"
         id="path232"
         d="m 67.199997,126.24 v 924.3201 H 726.56 V 126.24 Z" /></clipPath></defs><g
     transform="matrix(1.3333333,0,0,-1.3333333,0,366.66667)"
     id="g10"><g
       transform="translate(-71,-267)"
       id="g12"><g
         id="g14"><g
           clip-path="url(#clipPath20)"
           id="g16"><g
             transform="matrix(0.75,0,0,-0.75,0,841.92004)"
             id="g22"><g
               id="g24"><path
                 id="path26"
                 style="fill:#ffffff;fill-opacity:1;fill-rule:nonzero;stroke:none"
                 d="M 67.519997,387.20001 H 726.56 V 789.91998 H 67.519997 Z" /></g><g
               id="g28"><g
                 clip-path="url(#clipPath34)"
                 id="g30"><g
                   transform="translate(196.16,707.03998)"
                   id="g36"><path
                     id="path38"
                     style="fill:none;stroke:#a5a5a5;stroke-width:1.27999997;stroke-linecap:butt;stroke-linejoin:round;stroke-miterlimit:10;stroke-dasharray:none;stroke-opacity:1"
                     d="M 0,0 H 490.72 M 0,-18.08 H 490.72 M 0,-28.639999 H 490.72 M 0,-36.16 H 490.72 M 0,-42.080002 H 490.72 M 0,-46.720001 h 490.72 m -490.72,-4 H 490.72 M 0,-54.400002 H 490.72 M 0,-57.439999 H 490.72 M 0,-60.16 H 490.72 M 0,-78.239998 H 490.72 M 0,-88.800003 H 490.72 M 0,-96.32 H 490.72 M 0,-102.24 H 490.72 M 0,-106.88 H 490.72 M 0,-110.88 H 490.72 M 0,-114.24 H 490.72 M 0,-117.44 H 490.72 M 0,-120.32 H 490.72 M 0,-138.24 H 490.72 M 0,-148.96001 H 490.72 M 0,-156.32001 H 490.72 M 0,-162.08 H 490.72 M 0,-167.03999 h 490.72 m -490.72,-4 H 490.72 M 0,-174.39999 H 490.72 M 0,-177.60001 H 490.72 M 0,-180.16 H 490.72 M 0,-198.39999 H 490.72 M 0,-208.8 H 490.72 M 0,-216.48 H 490.72 M 0,-222.24 H 490.72 M 0,-227.03999 H 490.72 M 0,-230.88 H 490.72 M 0,-234.56 H 490.72 M 0,-237.44 H 490.72 M 0,-240.32001 H 490.72 M 0,-258.39999 H 490.72 M 0,-268.95999 H 490.72 M 0,-276.32001 H 490.72 M 0,-282.39999 H 490.72 M 0,-287.04001 h 490.72 m -490.72,-4 H 490.72 M 0,-294.72 H 490.72 M 0,-297.60001 h 490.72" /></g><g
                   transform="translate(196.16,707.03998)"
                   id="g40"><path
                     id="path42"
                     style="fill:none;stroke:#000000;stroke-width:1.75999999;stroke-linecap:butt;stroke-linejoin:round;stroke-miterlimit:10;stroke-dasharray:none;stroke-opacity:1"
                     d="M 0,0 H 490.72 M 0,-60.16 H 490.72 M 0,-120.32 H 490.72 M 0,-180.16 H 490.72 M 0,-240.32001 h 490.72" /></g><g
                   transform="translate(245.44,406.72)"
                   id="g44"><path
                     id="path46"
                     style="fill:none;stroke:#a5a5a5;stroke-width:1.27999997;stroke-linecap:butt;stroke-linejoin:round;stroke-miterlimit:10;stroke-dasharray:none;stroke-opacity:1"
                     d="M 0,0 V 300.32001 M 28.639999,0 V 300.32001 M 49.279999,0 V 300.32001 M 64.959999,0 V 300.32001 M 77.919998,0 V 300.32001 M 88.959999,0 V 300.32001 M 98.400002,0 V 300.32001 M 106.88,0 V 300.32001 M 163.52,0 V 300.32001 M 192.48,0 V 300.32001 M 212.8,0 V 300.32001 M 228.48,0 V 300.32001 M 241.44,0 V 300.32001 M 252.48,0 V 300.32001 M 262.07999,0 V 300.32001 M 270.39999,0 V 300.32001 M 327.04001,0 V 300.32001 M 356,0 V 300.32001 M 376.32001,0 V 300.32001 M 392.32001,0 V 300.32001 M 405.28,0 V 300.32001 M 416.16,0 V 300.32001 M 425.60001,0 V 300.32001 M 433.92001,0 v 300.32001" /></g><g
                   id="g48"><path
                     id="path50"
                     style="fill:none;stroke:#000000;stroke-width:1.75999999;stroke-linecap:butt;stroke-linejoin:round;stroke-miterlimit:10;stroke-dasharray:none;stroke-opacity:1"
                     d="M 359.67999,406.72 V 707.03998 M 523.20001,406.72 V 707.03998 M 686.88,406.72 v 300.31998" /></g></g></g><g
               id="g52"><path
                 id="path54"
                 style="fill:none;stroke:#000000;stroke-width:1.75999999;stroke-linecap:butt;stroke-linejoin:round;stroke-miterlimit:10;stroke-dasharray:none;stroke-opacity:1"
                 d="M 196.16,406.72 H 686.88 V 707.03998 H 196.16 Z" /></g><g
               id="g56"><g
                 clip-path="url(#clipPath62)"
                 id="g58"><g
                   id="g64"><path
                     id="path66"
                     style="fill:none;stroke:#000000;stroke-width:1.75999999;stroke-linecap:butt;stroke-linejoin:round;stroke-miterlimit:10;stroke-dasharray:none;stroke-opacity:1"
                     d="M 196.16,707.03998 V 406.72" /></g><g
                   id="g68"><path
                     id="path70"
                     style="fill:none;stroke:#000000;stroke-width:1.75999999;stroke-linecap:butt;stroke-linejoin:round;stroke-miterlimit:10;stroke-dasharray:none;stroke-opacity:1"
                     d="M 196.16,406.72 H 686.88" /></g><g
                   transform="translate(299.20001,485.12)"
                   id="g72"><path
                     id="path74"
                     style="fill:#4472c4;fill-opacity:1;fill-rule:nonzero;stroke:none"
                     d="m 0,0 c 0,2.4 -1.92,4.48 -4.48,4.48 -2.4,0 -4.48,-2.08 -4.48,-4.48 0,-2.4 2.08,-4.48 4.48,-4.48 C -1.92,-4.48 0,-2.4 0,0 Z" /></g><g
                   transform="translate(299.20001,485.12)"
                   id="g76"><path
                     id="path78"
                     style="fill:none;stroke:#4472c4;stroke-width:1.27999997;stroke-linecap:butt;stroke-linejoin:round;stroke-miterlimit:10;stroke-dasharray:none;stroke-opacity:1"
                     d="m 0,0 c 0,2.4 -1.92,4.48 -4.48,4.48 -2.4,0 -4.48,-2.08 -4.48,-4.48 0,-2.4 2.08,-4.48 4.48,-4.48 C -1.92,-4.48 0,-2.4 0,0" /></g><g
                   transform="translate(406.07999,535.67999)"
                   id="g80"><path
                     id="path82"
                     style="fill:#4472c4;fill-opacity:1;fill-rule:nonzero;stroke:none"
                     d="m 0,0 c 0,2.4 -2.08,4.48 -4.48,4.48 -2.4,0 -4.48,-2.08 -4.48,-4.48 0,-2.56 2.08,-4.48 4.48,-4.48 2.4,0 4.48,1.92 4.48,4.48 z" /></g><g
                   transform="translate(406.07999,535.67999)"
                   id="g84"><path
                     id="path86"
                     style="fill:none;stroke:#4472c4;stroke-width:1.27999997;stroke-linecap:butt;stroke-linejoin:round;stroke-miterlimit:10;stroke-dasharray:none;stroke-opacity:1"
                     d="m 0,0 c 0,2.4 -2.08,4.48 -4.48,4.48 -2.4,0 -4.48,-2.08 -4.48,-4.48 0,-2.56 2.08,-4.48 4.48,-4.48 2.4,0 4.48,1.92 4.48,4.48" /></g><g
                   transform="translate(508.16,578.08002)"
                   id="g88"><path
                     id="path90"
                     style="fill:#4472c4;fill-opacity:1;fill-rule:nonzero;stroke:none"
                     d="M 0,0 C 0,2.56 -1.92,4.48 -4.32,4.48 -6.88,4.48 -8.8,2.56 -8.8,0 c 0,-2.4 1.92,-4.32 4.48,-4.32 C -1.92,-4.32 0,-2.4 0,0 Z" /></g><g
                   transform="translate(508.16,578.08002)"
                   id="g92"><path
                     id="path94"
                     style="fill:none;stroke:#4472c4;stroke-width:1.27999997;stroke-linecap:butt;stroke-linejoin:round;stroke-miterlimit:10;stroke-dasharray:none;stroke-opacity:1"
                     d="M 0,0 C 0,2.56 -1.92,4.48 -4.32,4.48 -6.88,4.48 -8.8,2.56 -8.8,0 c 0,-2.4 1.92,-4.32 4.48,-4.32 C -1.92,-4.32 0,-2.4 0,0" /></g><g
                   transform="translate(608.64001,616.96002)"
                   id="g96"><path
                     id="path98"
                     style="fill:#4472c4;fill-opacity:1;fill-rule:nonzero;stroke:none"
                     d="M 0,0 C 0,2.56 -1.92,4.48 -4.32,4.48 -6.88,4.48 -8.8,2.56 -8.8,0 c 0,-2.4 1.92,-4.48 4.48,-4.48 C -1.92,-4.48 0,-2.4 0,0 Z" /></g><g
                   transform="translate(608.64001,616.96002)"
                   id="g100"><path
                     id="path102"
                     style="fill:none;stroke:#4472c4;stroke-width:1.27999997;stroke-linecap:butt;stroke-linejoin:round;stroke-miterlimit:10;stroke-dasharray:none;stroke-opacity:1"
                     d="M 0,0 C 0,2.56 -1.92,4.48 -4.32,4.48 -6.88,4.48 -8.8,2.56 -8.8,0 c 0,-2.4 1.92,-4.48 4.48,-4.48 C -1.92,-4.48 0,-2.4 0,0" /></g><g
                   id="g104"><path
                     id="path106"
                     style="fill:#ed7d31;fill-opacity:1;fill-rule:nonzero;stroke:none"
                     d="m 294.72,527.35998 4.48001,8.96003 h -8.96002 z" /></g><g
                   id="g108"><path
                     id="path110"
                     style="fill:none;stroke:#ed7d31;stroke-width:1.27999997;stroke-linecap:butt;stroke-linejoin:round;stroke-miterlimit:10;stroke-dasharray:none;stroke-opacity:1"
                     d="m 294.72,527.35998 4.48001,8.96003 h -8.96002 z" /></g><g
                   id="g112"><path
                     id="path114"
                     style="fill:#ed7d31;fill-opacity:1;fill-rule:nonzero;stroke:none"
                     d="m 401.60001,578.08002 4.47998,8.95996 H 397.12 Z" /></g><g
                   id="g116"><path
                     id="path118"
                     style="fill:none;stroke:#ed7d31;stroke-width:1.27999997;stroke-linecap:butt;stroke-linejoin:round;stroke-miterlimit:10;stroke-dasharray:none;stroke-opacity:1"
                     d="m 401.60001,578.08002 4.47998,8.95996 H 397.12 Z" /></g><g
                   id="g120"><path
                     id="path122"
                     style="fill:#ed7d31;fill-opacity:1;fill-rule:nonzero;stroke:none"
                     d="m 503.84,620.47998 4.32,8.80005 h -8.80001 z" /></g><g
                   id="g124"><path
                     id="path126"
                     style="fill:none;stroke:#ed7d31;stroke-width:1.27999997;stroke-linecap:butt;stroke-linejoin:round;stroke-miterlimit:10;stroke-dasharray:none;stroke-opacity:1"
                     d="m 503.84,620.47998 4.32,8.80005 h -8.80001 z" /></g><g
                   id="g128"><path
                     id="path130"
                     style="fill:#ed7d31;fill-opacity:1;fill-rule:nonzero;stroke:none"
                     d="m 604.32001,659.52002 4.32,8.95996 h -8.79998 z" /></g><g
                   id="g132"><path
                     id="path134"
                     style="fill:none;stroke:#ed7d31;stroke-width:1.27999997;stroke-linecap:butt;stroke-linejoin:round;stroke-miterlimit:10;stroke-dasharray:none;stroke-opacity:1"
                     d="m 604.32001,659.52002 4.32,8.95996 h -8.79998 z" /></g><g
                   id="g136"><path
                     id="path138"
                     style="fill:#4472c4;fill-opacity:1;fill-rule:nonzero;stroke:none"
                     d="m 295.04001,486.07999 v 0 0 c 0.63998,0.16 1.11999,0.96002 0.79999,1.6 -0.16001,0.64002 -0.79999,1.12 -1.60001,0.96002 v 0 0 c -0.63998,-0.16 -1.11999,-0.96002 -0.95999,-1.6 0.32001,-0.80002 0.95999,-1.12 1.76001,-0.96002 z M 300,488.32001 v 0 0 c 0.64001,0.32 0.95999,1.11999 0.64001,1.75998 -0.32,0.64001 -1.12002,0.80001 -1.76001,0.48001 v 0 c -0.64001,-0.32001 -0.95999,-1.12 -0.64001,-1.76001 C 298.56,488.16 299.35999,487.84 300,488.32001 Z m 4.95999,1.91998 v 0 0 c 0.64002,0.32001 0.96002,1.12 0.64002,1.76001 -0.32001,0.64001 -1.12,0.95999 -1.92002,0.64001 v 0 c -0.63998,-0.32 -0.79999,-1.12002 -0.47998,-1.76001 0.31998,-0.64001 1.12,-0.95999 1.75998,-0.64001 z m 4.80002,2.08002 v 0 0 c 0.79999,0.32 0.95999,1.11999 0.63998,1.75998 -0.32,0.64001 -1.11999,0.96002 -1.75998,0.64001 v 0 C 308,494.39999 307.67999,493.60001 308,492.79999 308.32001,492.16 309.12,492 309.76001,492.32001 Z m 4.95999,2.07998 v 0 0 c 0.63999,0.32001 0.79999,1.12 0.48001,1.76001 -0.32001,0.63999 -1.12002,0.96 -1.76001,0.63999 v 0 c -0.64001,-0.31998 -0.95999,-1.12 -0.48001,-1.75998 0.32001,-0.80002 1.12,-0.96002 1.76001,-0.64002 z m 4.79999,2.24002 v 0 c 0.64001,0.31998 0.96002,1.12 0.48001,1.75998 -0.32001,0.64002 -1.12,0.96 -1.76001,0.48001 v 0 c -0.63998,-0.32 -0.79999,-1.11999 -0.47998,-1.76 0.31998,-0.63999 1.11999,-0.79999 1.75998,-0.47999 z m 4.80002,1.91999 v 0 c 0.63998,0.32 0.95999,1.11999 0.63998,1.76001 -0.31998,0.63998 -1.11999,0.95999 -1.75998,0.63998 v 0 C 322.56,500.64001 322.23999,499.84 322.56,499.20001 c 0.32,-0.64001 1.11999,-0.96002 1.76001,-0.64001 z m 4.95999,2.08001 v 0 c 0.64001,0.31998 0.95999,1.12 0.64001,1.75998 -0.48001,0.64002 -1.12002,0.96 -1.92001,0.64002 v 0 c -0.64001,-0.32001 -0.79999,-1.12 -0.48001,-1.76001 0.32001,-0.79999 1.12002,-0.95999 1.76001,-0.63999 z m 4.79999,2.07999 v 0 c 0.64001,0.32001 0.96002,1.12 0.64001,1.76001 -0.32001,0.63999 -1.11999,0.95999 -1.76001,0.63999 v 0 C 332.32001,504.79999 332,504 332.32001,503.35999 c 0.32,-0.63999 1.11999,-0.96 1.75998,-0.63999 z m 4.96002,2.07999 v 0 c 0.63998,0.32001 0.79999,1.12002 0.47998,1.76001 -0.31998,0.64001 -1.12,0.95999 -1.75998,0.48001 v 0 C 337.12,506.72 336.95999,505.92001 337.28,505.28 c 0.32001,-0.63999 1.11999,-0.79999 1.76001,-0.48001 z m 4.47998,1.92001 v 0 c 0.80002,0.16 1.28,0.79999 1.12002,1.60001 -0.32,0.63998 -0.96002,1.11999 -1.76001,0.95999 v 0 c -0.64001,-0.16 -1.11999,-0.95999 -0.95999,-1.60001 C 342.23999,506.88 342.88,506.56 343.51999,506.72 Z m 4.96002,2.07999 v 0 c 0.63999,0.16 1.12,0.96002 0.95999,1.6 -0.16,0.64002 -0.95999,1.12 -1.6,0.96 v 0 c -0.79999,-0.15998 -1.12,-0.96 -0.96,-1.59998 0.16001,-0.80002 0.79999,-1.12 1.60001,-0.96002 z m 5.12,2.24002 v 0 c 0.63998,0.31998 0.79998,1.11996 0.47998,1.75998 -0.31998,0.64001 -1.12,0.96002 -1.75998,0.64001 v 0 c -0.64002,-0.32 -0.96002,-1.11999 -0.64002,-1.76001 0.32001,-0.63998 1.12,-0.95999 1.92002,-0.63998 z m 4.79998,2.07999 v 0 c 0.64002,0.32 0.96,1.11999 0.64002,1.76 -0.32001,0.64002 -1.12,0.96003 -1.76001,0.64002 v 0 c -0.63999,-0.48004 -0.95999,-1.12 -0.63999,-1.92004 0.31998,-0.63996 1.12,-0.79999 1.75998,-0.47998 z m 4.80002,2.08001 v 0 c 0.63999,0.32001 0.95999,1.12 0.63999,1.76001 -0.32001,0.63996 -1.12,0.95996 -1.76001,0.63996 v 0 c -0.63999,-0.31995 -0.95999,-1.12 -0.63999,-1.75995 0.32001,-0.80005 1.12,-0.96003 1.76001,-0.64002 z M 368.16,517.12 v 0 c 0.63999,0.32 0.96,1.11999 0.63999,1.91998 -0.31998,0.64001 -1.12,0.80005 -1.91999,0.48004 v 0 c -0.64001,-0.32001 -0.80001,-1.12 -0.48001,-1.76001 0.32001,-0.64001 1.12,-0.96002 1.76001,-0.64001 z m 4.63999,2.08001 v 0 c 0.64001,0.15997 1.12002,0.79999 0.96002,1.59998 -0.16,0.64001 -0.96002,1.11999 -1.60001,0.96002 v 0 c -0.80001,-0.16003 -1.28,-0.96002 -0.95999,-1.60004 0.15998,-0.79999 0.79999,-1.11999 1.59998,-0.95996 z m 4.80002,2.08002 v 0 c 0.63998,0.15997 1.11999,0.79999 0.95999,1.59997 -0.16001,0.64002 -0.95999,1.12 -1.60001,0.96003 v 0 C 376.32001,523.67999 375.84,522.88 376,522.23999 c 0.16,-0.79999 0.95999,-1.11999 1.60001,-0.95996 z m 4.79998,2.07995 v 0 c 0.80002,0.16004 1.12,0.79999 0.96,1.60004 -0.15998,0.63996 -0.79999,1.12 -1.59998,0.95996 v 0 c -0.64001,-0.15997 -1.12,-0.95996 -0.96002,-1.59997 0.16,-0.79999 0.96002,-1.12 1.6,-0.96003 z m 4.96,2.08002 v 0 c 0.64001,0.15998 1.12002,0.79999 0.96002,1.59998 C 388.16,527.67999 387.35999,528.15997 386.72,528 v 0 c -0.79999,-0.15997 -1.28,-0.96002 -0.95999,-1.59998 0.16,-0.80004 0.79999,-1.11999 1.59998,-0.96002 z m 5.12002,2.08002 v 0 c 0.63999,0.32001 0.95999,1.11999 0.63999,1.76001 -0.47999,0.63995 -1.28,0.95996 -1.91999,0.63995 v 0 c -0.64001,-0.32 -0.80002,-1.11999 -0.48001,-1.76001 0.32001,-0.63995 1.12,-0.95996 1.76001,-0.63995 z m 4.79999,2.07996 v 0 c 0.64001,0.32 0.95999,1.11999 0.64001,1.76 -0.32,0.79999 -1.12002,0.96003 -1.76001,0.64002 v 0 c -0.64001,-0.32001 -0.95999,-1.12 -0.64001,-1.76001 0.32001,-0.64001 1.12002,-0.95996 1.76001,-0.64001 z m 4.95999,2.08001 v 0 c 0.64001,0.32001 0.80002,1.12 0.48001,1.76001 -0.32001,0.64002 -1.11999,0.96002 -1.76001,0.64002 v 0 c -0.63998,-0.32001 -0.95999,-1.12 -0.47998,-1.76001 0.31998,-0.64002 1.12,-0.96003 1.75998,-0.64002 z m 4.80002,2.08002 v 0 c 0.63998,0.32001 0.95999,1.11999 0.63998,1.76001 -0.32,0.63995 -1.11999,0.79999 -1.75998,0.47998 v 0 c -0.64001,-0.32001 -0.96002,-1.12 -0.64001,-1.76001 0.32001,-0.64001 1.11999,-0.95996 1.76001,-0.47998 z m 4.79999,2.08002 v 0 c 0.64001,0.31994 0.95999,1.11999 0.64001,1.75995 -0.32001,0.64001 -1.12002,0.96002 -1.76001,0.64001 v 0 c -0.64001,-0.32001 -0.95999,-1.11999 -0.64001,-1.76001 0.32,-0.63995 1.12002,-0.95996 1.76001,-0.63995 z m 4.95999,2.07995 v 0 c 0.64001,0.32001 0.80002,1.12 0.48001,1.92005 -0.32001,0.63995 -1.12,0.79998 -1.76001,0.47998 v 0 C 414.88,540 414.56,539.20001 415.04001,538.56 c 0.31998,-0.64002 1.11999,-0.96002 1.75998,-0.64002 z M 421.60001,540 v 0 c 0.63998,0.32001 0.95999,1.12 0.63998,1.76001 -0.31998,0.64001 -1.11999,0.95996 -1.75998,0.64001 v 0 c -0.64001,-0.32 -0.96002,-1.11999 -0.64001,-1.76001 C 420.16,540 420.95999,539.67999 421.60001,540 Z m 4.95999,2.08002 v 0 c 0.64001,0.32 0.95999,1.11999 0.48001,1.76001 -0.32001,0.63995 -1.12,0.95996 -1.76001,0.47998 v 0 c -0.63999,-0.32001 -0.79999,-1.12 -0.48001,-1.76001 0.32001,-0.64002 1.12002,-0.79999 1.76001,-0.47998 z m 4.79999,2.07995 v 0 c 0.64001,0.32001 0.96002,1.12006 0.64001,1.76001 -0.32001,0.64002 -1.12,0.96002 -1.76001,0.64002 v 0 c -0.79999,-0.32001 -0.95999,-1.12 -0.63998,-1.91999 0.32,-0.64001 1.11999,-0.79998 1.75998,-0.48004 z m 4.80001,1.92005 h 0.16001 c 0.63998,0.32 0.79999,1.11999 0.47998,1.91998 -0.31998,0.64001 -1.12,0.79999 -1.75998,0.47998 v 0 c -0.64002,-0.32001 -0.96002,-1.12 -0.64002,-1.76001 0.32001,-0.63995 1.12,-0.95996 1.76001,-0.63995 z m 4.63999,2.07995 v 0 c 0.80002,0.16004 1.12002,0.80005 0.96002,1.60004 -0.16,0.64001 -0.80002,1.11999 -1.60001,0.95996 v 0 c -0.64001,-0.15997 -1.11999,-0.95996 -0.95999,-1.59997 0.15998,-0.79999 0.95999,-1.27997 1.59998,-0.96003 z m 4.96002,2.08002 v 0 c 0.79999,0.16003 1.11999,0.96002 0.79999,1.60004 -0.16001,0.79998 -0.95999,1.11999 -1.60001,0.95996 v 0 c -0.63998,-0.32001 -1.11999,-1.12 -0.79999,-1.76001 0.16001,-0.63996 0.96,-1.12 1.60001,-0.79999 z m 4.95999,2.23999 h 0.16 c 0.63999,0.32001 0.79999,1.12 0.47999,1.76001 -0.31998,0.64001 -1.12,0.96002 -1.75998,0.64001 v 0 c -0.64002,-0.32 -0.96,-1.11999 -0.64002,-1.76 0.32001,-0.64002 1.12,-0.96003 1.76001,-0.64002 z m 4.95999,2.08002 v 0 c 0.64002,0.32 0.96002,1.11999 0.64002,1.76001 -0.32001,0.64001 -1.12,0.79999 -1.76001,0.47998 v 0 c -0.79999,-0.32001 -0.95999,-1.12 -0.63999,-1.76001 0.31998,-0.63996 1.12,-0.95996 1.75998,-0.47998 z m 4.96002,1.91998 v 0 c 0.63999,0.32001 0.79999,1.12 0.47999,1.76001 -0.32001,0.64001 -1.12,0.96002 -1.76001,0.64001 v 0 c -0.63999,-0.32 -0.96,-1.11999 -0.63999,-1.76 0.32001,-0.64002 1.12,-0.96003 1.92001,-0.64002 z M 465.44,558.56 v 0 c 0.63999,0.32 0.95999,1.11999 0.63999,1.76001 -0.47998,0.64001 -1.28,0.96002 -1.91999,0.64001 v 0 c -0.64001,-0.32001 -0.80001,-1.11999 -0.48001,-1.76001 C 464,558.56 464.79999,558.23999 465.44,558.56 Z m 4.48001,2.08001 v 0 c 0.79999,0.15998 1.28,0.79999 1.12,1.59998 -0.32001,0.64001 -0.96002,1.11999 -1.76001,0.96002 v 0 c -0.63999,-0.16003 -1.12,-0.96002 -0.95999,-1.60003 0.32,-0.79999 0.95999,-1.27997 1.6,-0.95997 z m 4.95999,2.07996 v 0 c 0.63999,0.16003 1.12,0.80005 0.96,1.60004 -0.16001,0.64001 -0.96,1.11999 -1.60001,0.96002 v 0 C 473.44,565.12 473.12,564.32001 473.28,563.67999 c 0.16,-0.79999 0.79999,-1.27997 1.6,-0.96002 z m 4.79999,2.08002 v 0 c 0.80002,0.16003 1.12,0.79999 0.96002,1.60003 -0.16,0.63996 -0.80001,1.12 -1.6,0.95996 v 0 c -0.64002,-0.15997 -1.12,-0.95996 -0.96002,-1.59997 0.16,-0.79999 0.96002,-1.12 1.6,-0.96002 z m 5.12,2.08001 v 0 c 0.64001,0.32001 0.96002,1.12 0.64001,1.76001 -0.32,0.79999 -1.11999,0.95997 -1.76001,0.64002 v 0 c -0.63998,-0.32001 -0.95999,-1.12006 -0.63998,-1.76001 C 483.35999,566.88 484.16,566.56 484.79999,566.88 Z m 4.96002,2.08002 v 0 c 0.63998,0.32001 0.79999,1.12 0.47998,1.75995 -0.31998,0.64001 -1.11999,0.96002 -1.75998,0.64001 v 0 c -0.64001,-0.32 -0.80002,-1.11999 -0.48001,-1.76 0.32001,-0.63996 1.12,-0.95997 1.76001,-0.63996 z m 4.79999,2.07996 v 0 c 0.64001,0.32 0.95999,1.11999 0.64001,1.76001 -0.32001,0.64001 -1.12002,0.79999 -1.76001,0.48004 v 0 c -0.64001,-0.32001 -0.95999,-1.12006 -0.64001,-1.76001 C 493.12,570.88 493.92001,570.56 494.56,571.03998 Z m 4.79999,2.08002 v 0 c 0.80001,0.32 0.96002,1.11999 0.64001,1.76 -0.32001,0.64002 -1.12,0.96003 -1.76001,0.64002 v 0 c -0.63998,-0.48004 -0.95999,-1.28003 -0.63998,-1.92004 0.32,-0.63996 1.11999,-0.79999 1.75998,-0.47998 z M 504,575.20001 v 0 c 0.64001,0.15997 1.12,0.79999 0.95999,1.59998 -0.16,0.64001 -0.95999,1.11999 -1.6,0.96002 v 0 c -0.63999,-0.16003 -1.12,-0.96002 -0.96,-1.60004 0.16001,-0.79999 0.96,-1.27997 1.60001,-0.95996 z m 5.12,2.08002 v 0 c 0.64001,0.31995 0.95999,1.11999 0.64001,1.75995 C 509.44,579.67999 508.64001,580 508,579.67999 v 0 c -0.64001,-0.32001 -0.95999,-1.11999 -0.64001,-1.76001 0.32,-0.63995 1.12002,-0.95996 1.76001,-0.63995 z m 4.79998,2.07995 v 0 c 0.79999,0.32001 0.96002,1.12 0.64002,1.76002 -0.32001,0.64001 -1.12,0.96002 -1.76001,0.64001 v 0 C 512.15997,581.44 511.84,580.64001 512.15997,580 c 0.32001,-0.64002 1.12006,-0.96002 1.76001,-0.64002 z M 518.88,581.44 v 0 c 0.64002,0.32001 0.96003,1.12 0.64002,1.76001 -0.32001,0.64002 -1.12,0.95996 -1.76001,0.64002 v 0 c -0.79999,-0.32001 -0.96002,-1.12006 -0.64001,-1.76001 0.32,-0.79999 1.11999,-0.96002 1.76,-0.64002 z m 4.96003,1.91998 v 0 c 0.63995,0.32001 0.79998,1.12 0.47998,1.92005 -0.32001,0.63995 -1.12,0.79999 -1.76001,0.47998 v 0 c -0.64002,-0.32001 -0.96002,-1.12 -0.64002,-1.76001 0.32001,-0.64002 1.12,-0.96002 1.92005,-0.64002 z m 4.79998,2.24 v 0 c 0.64002,0.32 0.95997,1.11999 0.64002,1.76 -0.32001,0.64002 -1.12006,0.79999 -1.92005,0.48005 v 0 c -0.64001,-0.32001 -0.79998,-1.12006 -0.47998,-1.76001 0.32001,-0.64002 1.12,-0.79999 1.76001,-0.48004 z m 4.79999,1.92004 v 0 c 0.79999,0.32001 0.96002,1.11999 0.64002,1.76001 -0.32001,0.63995 -1.12,0.95996 -1.76001,0.63995 v 0 c -0.64002,-0.32 -0.96003,-1.11999 -0.64002,-1.76001 0.32001,-0.63995 1.12,-0.95996 1.76001,-0.63995 z m 4.64002,1.91998 v 0 c 0.79998,0.15998 1.11999,0.96002 0.95996,1.59998 C 538.88,591.84003 538.23999,592.32001 537.44,592 v 0 c -0.64001,-0.15997 -1.11999,-0.79999 -0.96002,-1.59998 0.16003,-0.64001 0.96002,-1.11999 1.60004,-0.96002 z m 5.11999,2.40003 v 0 c 0.64002,0.31994 0.95996,1.11999 0.64002,1.75995 -0.32001,0.64001 -1.12006,0.80004 -1.76001,0.48004 v 0 c -0.64002,-0.32001 -0.96002,-1.12 -0.64002,-1.76001 0.32001,-0.64002 1.12,-0.96003 1.76001,-0.47998 z M 548,593.91998 v 0 c 0.64001,0.32001 0.96002,1.12 0.64001,1.76001 -0.32,0.64002 -1.11999,0.96002 -1.76001,0.64002 v 0 c -0.64001,-0.47998 -0.96002,-1.28003 -0.64001,-1.91999 0.32001,-0.64001 1.11999,-0.80004 1.76001,-0.48004 z m 4.96002,1.92005 v 0 c 0.63996,0.31994 0.95996,1.11999 0.63996,1.75995 -0.47998,0.80004 -1.12,0.96002 -1.91999,0.64001 v 0 c -0.64001,-0.32001 -0.79999,-1.11999 -0.47998,-1.76001 0.32001,-0.63995 1.12,-0.95996 1.76001,-0.63995 z m 4.79999,2.07995 v 0 c 0.64001,0.32001 0.95996,1.12 0.64001,1.76001 -0.32,0.64002 -1.11999,0.96002 -1.76001,0.64002 v 0 C 556,600 555.67999,599.20001 556,598.56 c 0.32001,-0.79999 1.12,-0.96002 1.76001,-0.64002 z m 4.64001,1.92005 V 600 c 0.63996,0.15997 1.12,0.79999 0.95996,1.59998 -0.15997,0.64001 -0.95996,1.11999 -1.59997,0.96002 v 0 c -0.79999,-0.15998 -1.12,-0.96002 -0.96002,-1.59998 0.16003,-0.80005 0.79999,-1.28003 1.60003,-1.11999 z m 4.79999,2.07995 v 0 c 0.79999,0.32001 1.12,0.96002 0.95996,1.60004 -0.15997,0.79999 -0.79999,1.27997 -1.59997,1.11999 v 0 c -0.64002,-0.32 -1.12,-0.96002 -0.96002,-1.76001 0.16003,-0.64001 0.96002,-1.11999 1.60003,-0.96002 z M 572.15997,604 v 0 c 0.64002,0.15997 1.12006,0.96002 0.96003,1.59998 -0.15998,0.80004 -0.96003,1.28002 -1.59998,0.96002 v 0 c -0.80005,-0.15998 -1.12,-0.79999 -0.96002,-1.59998 0.15997,-0.64001 0.79998,-1.11999 1.59997,-0.96002 z m 4.80005,2.08002 v 0 c 0.79999,0.15997 1.12,0.95996 0.95996,1.59997 -0.15997,0.79999 -0.79998,1.12 -1.59997,0.96002 v 0 c -0.64002,-0.16003 -1.12,-0.79998 -0.96003,-1.60003 0.16004,-0.63996 0.96003,-1.12 1.60004,-0.95996 z m 5.12,2.23999 v 0 c 0.63995,0.32 0.95996,1.11999 0.63995,1.76001 -0.31995,0.63995 -1.11999,0.95996 -1.75995,0.63995 v 0 c -0.80005,-0.31995 -0.96002,-1.11999 -0.64001,-1.75995 0.32,-0.64001 1.11999,-0.96002 1.76001,-0.64001 z m 4.95996,2.08001 v 0 c 0.64001,0.31995 0.80005,1.12 0.48004,1.75995 -0.32001,0.64002 -1.12,0.96003 -1.76001,0.64002 v 0 c -0.64001,-0.47998 -0.96002,-1.12 -0.64001,-1.91999 0.32,-0.64001 1.11999,-0.79998 1.91998,-0.47998 z m 4.80005,1.91999 v 0 c 0.63995,0.32 0.95996,1.11999 0.63995,1.76001 -0.32001,0.79998 -1.12,0.95996 -1.76001,0.63995 v 0 c -0.63995,-0.31995 -0.95996,-1.11999 -0.63995,-1.75995 0.32,-0.64001 1.11999,-0.96002 1.76001,-0.64001 z m 4.79998,2.08001 v 0 c 0.64002,0.31995 0.95997,1.12 0.64002,1.91999 -0.32001,0.64001 -1.12006,0.79999 -1.76001,0.47998 v 0 c -0.64002,-0.32001 -0.96002,-1.12 -0.64002,-1.76001 0.32001,-0.63996 1.12,-0.95996 1.76001,-0.63996 z m 4.64002,2.07996 v 0 c 0.63995,0.16003 1.11999,0.96002 0.95996,1.60004 -0.15997,0.79998 -0.95996,1.27996 -1.59998,0.95996 v 0 c -0.79998,-0.15998 -1.11999,-0.79999 -0.96002,-1.59998 0.16004,-0.64001 0.79999,-1.11999 1.60004,-0.96002 z" /></g><g
                   id="g140"><path
                     id="path142"
                     style="fill:#ed7d31;fill-opacity:1;fill-rule:nonzero;stroke:none"
                     d="m 295.20001,532.96002 v 0 0 c 0.63999,0.32001 0.95999,0.95996 0.63999,1.75995 -0.32001,0.64001 -1.12,0.96002 -1.76001,0.64001 v 0 0 C 293.44,535.03998 293.12,534.23999 293.44,533.44 c 0.32001,-0.64001 1.12,-0.79999 1.76001,-0.47998 z M 300,535.03998 v 0 0 c 0.79999,0.32 0.95999,1.11999 0.64001,1.76001 -0.32,0.64001 -1.12002,0.96002 -1.76001,0.48004 v 0 c -0.64001,-0.32001 -0.95999,-1.12006 -0.64001,-1.76001 0.32001,-0.64002 1.12,-0.80005 1.76001,-0.48004 z m 4.95999,1.92004 v 0 0 c 0.64002,0.32001 0.96002,1.12 0.64002,1.75995 -0.32001,0.64001 -1.12,0.96002 -1.76001,0.64001 h -0.16001 c -0.63998,-0.32 -0.79999,-1.11999 -0.47998,-1.76 0.31998,-0.63996 1.12,-0.95997 1.75998,-0.63996 z m 4.48001,2.07996 v 0 c 0.79999,0.16003 1.28,0.96002 1.12,1.60003 -0.32001,0.79999 -0.95999,1.12 -1.76001,0.95997 v 0 C 308.16,541.44 307.67999,540.64001 307.84,540 c 0.32,-0.64002 0.95999,-1.12 1.6,-0.96002 z m 4.95999,2.08002 v 0 c 0.64002,0.16003 1.12,0.96002 0.96,1.59997 -0.15998,0.80005 -0.96,1.12006 -1.59998,0.96002 v 0 c -0.80002,-0.15997 -1.28,-0.79999 -0.96002,-1.59997 0.16,-0.64002 0.80002,-1.12 1.6,-0.96002 z m 5.12,2.23998 v 0 c 0.64001,0.32001 0.96002,1.12 0.64001,1.76002 -0.48001,0.64001 -1.28,0.96002 -1.92001,0.64001 v 0 c -0.63998,-0.32001 -0.79999,-1.12 -0.47998,-1.91998 0.31998,-0.64002 1.11999,-0.80005 1.75998,-0.48005 z m 4.80002,1.92005 v 0 c 0.63998,0.31995 0.95999,1.11999 0.63998,1.75995 -0.31998,0.80005 -1.11999,0.96002 -1.75998,0.64001 v 0 C 322.56,547.35998 322.23999,546.56 322.56,545.91998 c 0.32,-0.63995 1.11999,-0.95996 1.76001,-0.63995 z m 4.95999,2.07995 v 0 c 0.64001,0.32001 0.95999,1.12 0.64001,1.76002 -0.32,0.64001 -1.12002,0.96002 -1.92001,0.64001 v 0 c -0.64001,-0.32001 -0.79999,-1.12 -0.48001,-1.76001 0.32001,-0.64002 1.12002,-0.96002 1.76001,-0.64002 z m 4.79999,2.08002 v 0 c 0.64001,0.32001 0.96002,1.12 0.64001,1.76001 -0.32001,0.64002 -1.11999,0.95996 -1.76001,0.64002 v 0 c -0.63998,-0.32001 -0.95999,-1.12006 -0.63998,-1.76001 0.32,-0.64002 1.11999,-0.96002 1.75998,-0.64002 z m 4.96002,2.08002 v 0 c 0.63998,0.32001 0.79999,1.11999 0.47998,1.76001 -0.31998,0.63995 -1.12,0.95996 -1.75998,0.63995 v 0 C 337.12,553.44 336.79999,552.64001 337.12,552 c 0.48001,-0.64002 1.27999,-0.79999 1.92001,-0.47998 z m 4.79999,2.07996 v 0 c 0.64001,0.32 0.95999,1.11999 0.48001,1.92004 C 344,556.15997 343.20001,556.32001 342.56,556 v 0 c -0.63999,-0.32001 -0.79999,-1.12 -0.48001,-1.76001 0.32,-0.64001 1.12002,-0.95996 1.76001,-0.64001 z m 4.80001,2.24005 v 0 c 0.63999,0.31994 0.96,1.11999 0.63999,1.75995 -0.32001,0.64001 -1.12,0.80004 -1.76001,0.48004 v 0 c -0.63999,-0.32001 -0.95999,-1.12 -0.63999,-1.76001 0.32001,-0.64002 1.12,-0.79999 1.76001,-0.47998 z m 4.96,1.91998 v 0 c 0.63998,0.32001 0.79998,1.11999 0.47998,1.76001 -0.31998,0.63995 -1.12,0.95996 -1.75998,0.63995 v 0 c -0.64002,-0.31994 -0.96002,-1.11999 -0.64002,-1.75995 0.48001,-0.64001 1.28,-0.96002 1.92002,-0.64001 z m 4.79998,2.08002 v 0 c 0.64002,0.31994 0.96,1.11999 0.64002,1.75995 -0.32001,0.64001 -1.12,0.96002 -1.76001,0.64001 v 0 c -0.63999,-0.32001 -0.95999,-1.11999 -0.63999,-1.76001 0.31998,-0.79999 1.12,-0.95996 1.75998,-0.63995 z m 4.80002,2.07995 h 0.15998 c 0.64001,0.32001 0.80001,1.12 0.48001,1.76001 -0.32001,0.64002 -1.12,0.96002 -1.76001,0.64002 v 0 C 361.44,564 361.12,563.20001 361.44,562.56 c 0.32001,-0.64002 1.12,-0.96002 1.76001,-0.64002 z M 368.16,564 v 0 c 0.63999,0.32001 0.96,1.12 0.63999,1.76001 -0.31998,0.64001 -1.12,0.79999 -1.75998,0.47998 v 0 c -0.80002,-0.32001 -0.96002,-1.11999 -0.64002,-1.76001 0.32001,-0.63995 1.12,-0.79999 1.76001,-0.47998 z m 4.63999,1.91998 v 0 c 0.64001,0.16004 1.12002,0.79999 0.96002,1.60004 -0.16,0.63995 -0.96002,1.11999 -1.60001,0.95996 v 0 c -0.80001,-0.15997 -1.11999,-0.95996 -0.95999,-1.59998 0.15998,-0.79998 0.79999,-1.11999 1.59998,-0.96002 z m 5.12002,2.23999 v 0 c 0.63999,0.32001 0.79999,1.12006 0.47998,1.76001 -0.32,0.64002 -1.11999,0.96002 -1.75998,0.64002 v 0 C 376,570.23999 375.67999,569.44 376.16,568.79999 c 0.32001,-0.64002 1.12,-0.95996 1.76001,-0.64002 z m 4.79999,2.08002 v 0 c 0.63999,0.32001 0.95999,1.11999 0.63999,1.76001 -0.31998,0.64001 -1.12,0.96002 -1.91999,0.64001 v 0 c -0.64001,-0.32 -0.79999,-1.11999 -0.48001,-1.76001 0.32001,-0.64001 1.12,-0.96002 1.76001,-0.64001 z m 4.79999,2.08002 v 0 c 0.80002,0.32 0.96002,1.11999 0.64001,1.76001 -0.32,0.63995 -1.11999,0.95996 -1.76001,0.63995 v 0 c -0.63998,-0.47998 -0.95999,-1.27997 -0.63998,-1.91998 0.31998,-0.64002 1.11999,-0.79999 1.75998,-0.47998 z m 4.96002,1.91998 v 0 C 393.12,574.56 393.44,575.35998 393.12,576 c -0.32001,0.79999 -1.12,0.96002 -1.76001,0.64001 v 0 c -0.79999,-0.32 -0.96,-1.11999 -0.63999,-1.76001 0.32001,-0.64001 1.12,-0.96002 1.76001,-0.64001 z m 4.47998,2.08002 v 0 c 0.80002,0.15997 1.28,0.96002 0.96002,1.59997 -0.16,0.79999 -0.80001,1.12 -1.6,0.96002 v 0 c -0.64002,-0.16003 -1.12,-0.96002 -0.96002,-1.59997 0.16,-0.64002 0.96002,-1.12006 1.6,-0.96002 z m 4.96002,2.08001 v 0 c 0.63999,0.15998 1.12,0.95996 0.95999,1.59998 -0.16,0.64001 -0.95999,1.12 -1.6,0.96002 v 0 c -0.79999,-0.16003 -1.12,-0.96002 -0.95999,-1.60004 0.16,-0.64001 0.79999,-1.11999 1.6,-0.95996 z m 4.79999,2.07996 v 0 c 0.79999,0.16003 1.12,0.80005 0.95999,1.60004 -0.16,0.63995 -0.79999,1.11999 -1.6,0.95996 v 0 C 405.44,582.88 404.95999,582.08002 405.12,581.44 c 0.16,-0.79999 0.95999,-1.11999 1.6,-0.96002 z m 5.12,2.08002 v 0 c 0.64001,0.32 0.95999,1.11999 0.64001,1.76001 -0.32001,0.79999 -1.12002,0.96002 -1.76001,0.64001 v 0 c -0.64001,-0.32001 -0.95999,-1.11999 -0.64001,-1.76001 0.32,-0.64001 1.12002,-0.96002 1.76001,-0.64001 z m 4.95999,2.08001 v 0 c 0.64001,0.47999 0.80002,1.27997 0.48001,1.91999 -0.32001,0.64001 -1.12,0.79998 -1.76001,0.47998 v 0 c -0.63999,-0.32001 -0.95999,-1.12 -0.63999,-1.75995 0.47999,-0.64002 1.28,-0.96002 1.91999,-0.64002 z m 4.80002,2.07996 v 0 c 0.63998,0.32001 0.95999,1.12006 0.63998,1.76001 C 421.92001,589.12 421.12,589.44 420.48001,589.12 v 0 C 419.84,588.79999 419.51999,588 419.84,587.35998 c 0.32,-0.64001 1.11999,-0.95996 1.76001,-0.64001 z m 4.95999,2.08002 v 0 c 0.64001,0.32001 0.79999,1.11999 0.48001,1.76001 -0.32001,0.64001 -1.12,0.96002 -1.76001,0.64001 v 0 c -0.63999,-0.48004 -0.95999,-1.28003 -0.48001,-1.91998 0.32001,-0.64002 1.12002,-0.80005 1.76001,-0.48004 z m 4.48001,2.08001 v 0 c 0.63998,0.15998 1.11999,0.96003 0.95999,1.59998 -0.16,0.80005 -0.95999,1.12 -1.60001,0.96002 v 0 c -0.63998,-0.15997 -1.11999,-0.96002 -0.95999,-1.59997 0.16001,-0.64002 0.95999,-1.12006 1.60001,-0.96003 z m 4.79999,2.08002 v 0 c 0.80001,0.15998 1.28,0.95996 1.11999,1.59998 -0.31998,0.64001 -0.95999,1.11999 -1.75998,0.96002 v 0 c -0.64001,-0.16004 -1.12002,-0.96002 -0.96002,-1.60004 0.16,-0.63995 0.96002,-1.11999 1.60001,-0.95996 z m 5.28,2.07996 v 0 c 0.64001,0.32 0.80001,1.11999 0.48001,1.76001 -0.32001,0.64001 -1.12,0.96002 -1.76001,0.64001 v 0 c -0.63999,-0.32 -0.96,-1.11999 -0.48001,-1.76001 0.32,-0.64001 1.12002,-0.96002 1.76001,-0.64001 z m 4.95999,2.24005 v 0 c 0.64001,0.31995 0.80001,1.11999 0.32,1.75995 -0.32,0.64001 -1.27999,0.80005 -1.75998,0.32 v 0 c -0.64001,-0.32 -0.80001,-1.11999 -0.48001,-1.76 0.48001,-0.63996 1.28,-0.79999 1.91999,-0.31995 z m 4.64001,1.91998 v 0 c 0.79999,0.32001 0.95999,1.12 0.63999,1.76001 -0.31998,0.63996 -1.12,0.95996 -1.75998,0.63996 v 0 c -0.64002,-0.31995 -0.96,-1.12 -0.64002,-1.75995 0.32001,-0.64002 1.12,-0.96003 1.76001,-0.64002 z m 4.95999,2.08002 v 0 c 0.64002,0.31995 0.96002,1.11999 0.64002,1.75995 -0.32001,0.64001 -1.12,0.80005 -1.76001,0.48004 v 0 c -0.79999,-0.32001 -0.95999,-1.12 -0.63999,-1.76001 0.31998,-0.64001 1.12,-0.79999 1.75998,-0.47998 z m 4.80002,2.07995 v 0 c 0.63999,0.32001 0.95999,1.12 0.63999,1.76002 -0.32001,0.79998 -1.12,0.96002 -1.76001,0.64001 v 0 C 458.72,605.44 458.39999,604.64001 458.72,604 c 0.32001,-0.64002 1.12,-0.96002 1.76001,-0.64002 z M 465.28,605.44 v 0 c 0.64001,0.32001 0.95999,1.12 0.64001,1.91998 -0.32,0.64002 -1.12002,0.79999 -1.76001,0.48005 v 0 c -0.64001,-0.32001 -0.95999,-1.12006 -0.64001,-1.76001 C 463.84,605.44 464.64001,605.12 465.28,605.44 Z m 4.95999,2.08002 v 0 c 0.64001,0.32001 0.96002,1.11999 0.64001,1.76001 -0.32,0.63995 -1.11999,0.95996 -1.92001,0.63995 v 0 c -0.63998,-0.32 -0.79999,-1.11999 -0.47998,-1.76001 0.31998,-0.63995 1.12,-0.95996 1.75998,-0.63995 z m 4.80002,2.07996 v 0 c 0.63998,0.32 0.95999,1.11999 0.63998,1.76 -0.32,0.64002 -1.11999,0.96003 -1.75998,0.48005 v 0 c -0.64001,-0.32001 -0.96002,-1.12006 -0.64001,-1.76001 0.32001,-0.64002 1.11999,-0.79999 1.76001,-0.48004 z M 480,611.67999 v 0 c 0.64001,0.32001 0.79999,1.12 0.48001,1.76001 -0.32001,0.64002 -1.12002,0.96002 -1.76001,0.64002 v 0 c -0.64001,-0.32001 -0.95999,-1.12 -0.64001,-1.92005 0.48001,-0.63995 1.12002,-0.79999 1.92001,-0.47998 z m 4.79999,1.91999 v 0 c 0.64001,0.32 0.96002,1.11999 0.64001,1.92004 -0.32,0.63995 -1.11999,0.79999 -1.76001,0.47998 v 0 c -0.63998,-0.32001 -0.95999,-1.12 -0.63998,-1.76001 0.31998,-0.64001 1.11999,-0.95996 1.75998,-0.64001 z m 4.64001,2.08001 v 0 c 0.63999,0.16004 1.12,0.79999 0.95999,1.60004 -0.16,0.63995 -0.95999,1.11999 -1.6,0.95996 v 0 c -0.79999,-0.15997 -1.12,-0.95996 -0.95999,-1.59998 0.16,-0.79998 0.80001,-1.28003 1.6,-0.96002 z m 5.12,2.23999 v 0 c 0.64001,0.32001 0.95999,1.12 0.48001,1.76001 -0.32001,0.64002 -1.12,0.96002 -1.76001,0.64002 v 0 c -0.63999,-0.47998 -0.79999,-1.12 -0.48001,-1.91999 0.32001,-0.64001 1.12002,-0.80004 1.76001,-0.48004 z M 499.35999,620 v 0 c 0.64001,0.32001 0.96002,1.12 0.64001,1.76001 -0.32001,0.64001 -1.12,0.95996 -1.76001,0.64001 v 0 c -0.63998,-0.32 -0.95999,-1.11999 -0.63998,-1.76001 0.32,-0.79998 1.11999,-0.96002 1.75998,-0.64001 z m 4.96002,1.91998 v 0.16004 c 0.63998,0.32 0.79999,1.11999 0.47998,1.76001 -0.31998,0.63995 -1.12,0.79998 -1.75998,0.47998 v 0 C 502.39999,624 502.07999,623.20001 502.56,622.56 c 0.32,-0.64002 1.11999,-0.96002 1.76001,-0.64002 z M 509.12,624 v 0 c 0.64001,0.32001 0.95999,1.12 0.64001,1.76001 -0.32001,0.64001 -1.12,0.95996 -1.76001,0.64001 v 0 c -0.64001,-0.32 -0.95999,-1.11999 -0.64001,-1.76001 C 507.67999,624 508.48001,623.67999 509.12,624 Z m 4.64001,2.08002 v 0 c 0.64001,0.15997 1.11999,0.79998 0.95996,1.59997 -0.15997,0.64002 -0.95996,1.12 -1.59997,0.96002 v 0 c -0.79999,-0.16003 -1.28,-0.96002 -0.96003,-1.60003 0.16004,-0.79999 0.80005,-1.12 1.60004,-0.95996 z m 4.79999,2.07995 v 0 c 0.79998,0.16004 1.11999,0.80005 0.96002,1.60004 -0.16004,0.64001 -0.80005,1.11999 -1.60004,0.95996 v 0 c -0.63995,-0.15997 -1.11999,-0.95996 -0.95996,-1.59997 0.15998,-0.79999 0.95996,-1.12 1.59998,-0.96003 z m 4.79998,2.08002 v 0 c 0.79999,0.16003 1.28003,0.79999 1.12,1.60004 -0.32001,0.63995 -0.95996,1.11999 -1.76001,0.95996 v 0 c -0.63995,-0.15998 -1.11999,-0.95996 -0.95996,-1.59998 0.32001,-0.79999 0.95996,-1.28003 1.59997,-0.96002 z m 5.12,2.23999 v 0 c 0.64002,0.32001 0.96002,1.12 0.64002,1.76001 -0.32001,0.64001 -1.12,0.96002 -1.76002,0.64001 v 0 c -0.64001,-0.47998 -0.95996,-1.11999 -0.64001,-1.91998 0.32001,-0.64001 1.12006,-0.80005 1.76001,-0.48004 z m 4.96002,1.92004 v 0 c 0.64002,0.31995 0.96002,1.12 0.64002,1.75995 -0.48004,0.80005 -1.12,0.96003 -1.92005,0.64002 v 0 c -0.63995,-0.32001 -0.79999,-1.12 -0.47998,-1.76001 0.32001,-0.63996 1.12,-0.95996 1.76001,-0.63996 z m 4.79999,2.07996 v 0 c 0.64001,0.32001 0.96002,1.12 0.64001,1.76001 -0.32,0.64001 -1.11999,0.96002 -1.76,0.64001 v 0 c -0.64002,-0.32 -0.96003,-1.11999 -0.64002,-1.76 0.32001,-0.64002 1.12,-0.96003 1.76001,-0.64002 z m 4.96002,2.08002 v 0 c 0.64002,0.32 0.95996,1.11999 0.64002,1.76001 -0.32001,0.64001 -1.12006,0.79999 -1.92005,0.47998 v 0 c -0.63995,-0.32001 -0.79998,-1.12 -0.47998,-1.76001 0.32001,-0.63996 1.12,-0.95996 1.76001,-0.47998 z m 4.47998,2.08001 v 0 c 0.79999,0.15998 1.12,0.79999 0.96002,1.59998 -0.16003,0.64001 -0.79998,1.11999 -1.60003,0.96002 v 0 c -0.63996,-0.16003 -1.12,-0.96002 -0.95996,-1.60003 0.15997,-0.79999 0.95996,-1.12 1.59997,-0.95997 z m 4.96002,2.07996 v 0 c 0.64002,0.16003 1.12,0.80005 0.95997,1.60004 C 553.44,644.96002 552.64001,645.44 552,645.28003 v 0 c -0.79999,-0.16003 -1.28003,-0.96002 -0.96002,-1.60004 0.16003,-0.79999 0.80005,-1.11999 1.60003,-0.96002 z m 5.12,2.08002 v 0 c 0.64001,0.32001 0.95996,1.11999 0.47998,1.76001 -0.32001,0.64001 -1.11999,0.96002 -1.76001,0.64001 v 0 C 555.84003,646.88 555.67999,646.08002 556,645.44 c 0.32001,-0.64001 1.12,-0.96002 1.76001,-0.64001 z M 562.56,646.88 v 0 c 0.64001,0.32001 0.96002,1.12 0.64001,1.76001 -0.32001,0.64002 -1.11999,0.95997 -1.76001,0.64002 v 0 c -0.79999,-0.32001 -0.96002,-1.12006 -0.64001,-1.76001 C 561.12,646.88 561.91998,646.56 562.56,646.88 Z m 4.96002,2.08002 v 0 c 0.63995,0.32001 0.79999,1.12 0.47998,1.75995 -0.32001,0.64001 -1.12,0.96002 -1.76001,0.64001 v 0 c -0.64001,-0.32 -0.95996,-1.11999 -0.64001,-1.91998 0.32,-0.64001 1.11999,-0.79999 1.92004,-0.47998 z m 4.79999,1.91998 v 0 c 0.64001,0.32001 0.96002,1.12 0.64001,1.76001 -0.32001,0.79999 -1.11999,0.95997 -1.76001,0.64002 v 0 c -0.64001,-0.32001 -0.96002,-1.12006 -0.64001,-1.76001 0.32,-0.64002 1.11999,-0.96002 1.76001,-0.64002 z m 4.96002,2.08002 v 0 c 0.63995,0.32001 0.79999,1.12 0.47998,1.75995 -0.32001,0.64001 -1.12,0.96002 -1.76001,0.64001 v 0 c -0.64002,-0.32 -0.96002,-1.11999 -0.64002,-1.76 0.32001,-0.63996 1.12,-0.95997 1.92005,-0.63996 z m 4.63995,2.23999 v 0 c 0.79999,0.32001 0.96002,1.12 0.64002,1.76001 -0.32001,0.63996 -1.12,0.95996 -1.76001,0.63996 v 0 c -0.64002,-0.31995 -0.95996,-1.12 -0.64002,-1.75995 0.32001,-0.64002 1.12006,-0.96003 1.76001,-0.64002 z m 4.96002,2.08002 v 0 c 0.64002,0.31995 0.96003,1.11999 0.64002,1.75995 -0.32001,0.64001 -1.12,0.96002 -1.76001,0.64001 v 0 c -0.79999,-0.32001 -0.96002,-1.11999 -0.64001,-1.76001 0.32,-0.79998 1.11999,-0.95996 1.76,-0.63995 z m 4.79999,1.91998 v 0 c 0.79999,0.32001 0.96002,1.12 0.64002,1.91999 -0.32001,0.64001 -1.12,0.79998 -1.76001,0.47998 v 0 c -0.64002,-0.31995 -0.96002,-1.12 -0.64002,-1.75995 0.32001,-0.64002 1.12,-0.96003 1.76001,-0.64002 z m 4.96002,2.23999 v 0 c 0.64002,0.32001 0.79999,1.12 0.47999,1.76001 -0.32001,0.64002 -1.12,0.79999 -1.76002,0.47998 v 0 C 594.71997,663.35998 594.56,662.56 594.88,661.91998 c 0.32001,-0.63995 1.12,-0.95996 1.76001,-0.47998 z m 4.79999,1.91998 v 0 c 0.64002,0.32001 0.96002,1.12 0.64002,1.76002 -0.32001,0.64001 -1.12,0.96002 -1.76001,0.64001 v 0 c -0.64002,-0.32001 -0.96003,-1.12 -0.64002,-1.76001 0.32001,-0.64002 1.12,-0.96002 1.76001,-0.64002 z" /></g></g></g><g
               transform="scale(0.04862)"
               id="g144"><text
                 id="text148"
                 style="font-variant:normal;font-weight:normal;font-size:327.67999268px;font-family:F1;-inkscape-font-specification:F1;writing-mode:lr-tb;fill:#000000;fill-opacity:1;fill-rule:nonzero;stroke:none"
                 transform="translate(2649.1201,14634.4)"><tspan
                   id="tspan146"
                   y="0"
                   x="0 167.11679 249.03679 416.15359 583.27039 747.11041 914.22717">0.00001</tspan></text>
</g><g
               transform="scale(0.04862)"
               id="g150"><text
                 id="text154"
                 style="font-variant:normal;font-weight:normal;font-size:327.67999268px;font-family:F1;-inkscape-font-specification:F1;writing-mode:lr-tb;fill:#000000;fill-opacity:1;fill-rule:nonzero;stroke:none"
                 transform="translate(2816.96,13400.3)"><tspan
                   id="tspan152"
                   y="0"
                   x="0 163.84 245.75999 416.15359 579.99359 747.11041">0.0001</tspan></text>
</g><g
               transform="scale(0.04862)"
               id="g156"><text
                 id="text160"
                 style="font-variant:normal;font-weight:normal;font-size:327.67999268px;font-family:F1;-inkscape-font-specification:F1;writing-mode:lr-tb;fill:#000000;fill-opacity:1;fill-rule:nonzero;stroke:none"
                 transform="translate(2981.4399,12163)"><tspan
                   id="tspan158"
                   y="0"
                   x="0 163.84 249.03679 416.15359 583.27039">0.001</tspan></text>
</g><g
               transform="scale(0.04862)"
               id="g162"><text
                 id="text166"
                 style="font-variant:normal;font-weight:normal;font-size:327.67999268px;font-family:F1;-inkscape-font-specification:F1;writing-mode:lr-tb;fill:#000000;fill-opacity:1;fill-rule:nonzero;stroke:none"
                 transform="translate(3149.28,10929)"><tspan
                   id="tspan164"
                   y="0"
                   x="0 163.84 245.75999 416.15359">0.01</tspan></text>
</g><g
               transform="scale(0.04862)"
               id="g168"><text
                 id="text172"
                 style="font-variant:normal;font-weight:normal;font-size:327.67999268px;font-family:F1;-inkscape-font-specification:F1;writing-mode:lr-tb;fill:#000000;fill-opacity:1;fill-rule:nonzero;stroke:none"
                 transform="translate(3313.9199,9691.5195)"><tspan
                   id="tspan170"
                   y="0"
                   x="0 163.84 249.03679">0.1</tspan></text>
</g><g
               transform="scale(0.04862)"
               id="g174"><text
                 id="text178"
                 style="font-variant:normal;font-weight:normal;font-size:327.67999268px;font-family:F1;-inkscape-font-specification:F1;writing-mode:lr-tb;fill:#000000;fill-opacity:1;fill-rule:nonzero;stroke:none"
                 transform="translate(3564,8457.4404)"><tspan
                   id="tspan176"
                   y="0"
                   x="0">1</tspan></text>
</g><g
               transform="scale(0.04862)"
               id="g180"><text
                 id="text184"
                 style="font-variant:normal;font-weight:normal;font-size:327.67999268px;font-family:F1;-inkscape-font-specification:F1;writing-mode:lr-tb;fill:#000000;fill-opacity:1;fill-rule:nonzero;stroke:none"
                 transform="translate(3866.72,15058.9)"><tspan
                   id="tspan182"
                   y="0"
                   x="0 163.84 3280.0767 3447.1936 3614.3103 6566.707 6730.5469 6894.3872 7061.5039 9846.7842 10010.624 10177.74 10341.581 10511.975">10100100010000</tspan></text>
</g><g
               transform="matrix(0,-0.064826,0.064826,0,0,0)"
               id="g186"><text
                 id="text190"
                 style="font-variant:normal;font-weight:normal;font-size:327.67999268px;font-family:F1;-inkscape-font-specification:F1;writing-mode:lr-tb;fill:#000000;fill-opacity:1;fill-rule:nonzero;stroke:none"
                 transform="translate(-9756.4805,1698.08)"><tspan
                   id="tspan188"
                   y="0"
                   x="0 160.5632 275.25119 383.38559 557.05597 671.74396 743.83356 917.50397 1091.1743 1205.8624 1468.0063 1540.0959 1641.6768 1746.5343">Error norm [-]</tspan></text>
</g><g
               transform="scale(0.064826)"
               id="g192"><text
                 id="text196"
                 style="font-variant:normal;font-weight:normal;font-size:327.67999268px;font-family:F1;-inkscape-font-specification:F1;writing-mode:lr-tb;fill:#000000;fill-opacity:1;fill-rule:nonzero;stroke:none"
                 transform="translate(4551.2002,11755.7)"><tspan
                   id="tspan194"
                   y="0"
                   x="0 212.99199 386.66238 648.8064 822.47681 986.31677 1101.0048 1169.8176 1343.4879 1445.0687 1517.1583 1690.8287 1854.6687 2008.6783 2120.0896 2287.2063 2447.7695 2575.5647 2644.3774 2818.0479 2919.6287 2991.7183 3093.2991 3204.7104 3368.5503 3532.3904 3706.0608 3879.7312 4141.875 4207.4111 4308.9917 4410.5728">Number of degrees of freedom [-]</tspan></text>
</g><g
               id="g198"><path
                 id="path200"
                 style="fill:#ffffff;fill-opacity:1;fill-rule:nonzero;stroke:none"
                 d="m 586.08002,442.72 h 74.23999 v 62.4 h -74.23999 z" /></g><g
               id="g202"><path
                 id="path204"
                 style="fill:none;stroke:#000000;stroke-width:1.27999997;stroke-linecap:butt;stroke-linejoin:round;stroke-miterlimit:10;stroke-dasharray:none;stroke-opacity:1"
                 d="m 586.08002,442.72 h 74.23999 v 62.4 h -74.23999 z" /></g><g
               id="g206"><g
                 clip-path="url(#clipPath212)"
                 id="g208"><g
                   transform="translate(603.20001,458.23999)"
                   id="g214"><path
                     id="path216"
                     style="fill:#4472c4;fill-opacity:1;fill-rule:nonzero;stroke:none"
                     d="m 0,0 c 0,2.56 -2.08,4.48 -4.48,4.48 -2.56,0 -4.48,-1.92 -4.48,-4.48 0,-2.4 1.92,-4.48 4.48,-4.48 C -2.08,-4.48 0,-2.4 0,0 Z" /></g><g
                   transform="translate(603.20001,458.23999)"
                   id="g218"><path
                     id="path220"
                     style="fill:none;stroke:#4472c4;stroke-width:1.27999997;stroke-linecap:butt;stroke-linejoin:round;stroke-miterlimit:10;stroke-dasharray:none;stroke-opacity:1"
                     d="m 0,0 c 0,2.56 -2.08,4.48 -4.48,4.48 -2.56,0 -4.48,-1.92 -4.48,-4.48 0,-2.4 1.92,-4.48 4.48,-4.48 C -2.08,-4.48 0,-2.4 0,0" /></g></g></g><g
               transform="scale(0.04862)"
               id="g222"><text
                 id="text226"
                 style="font-variant:normal;font-weight:normal;font-size:327.67999268px;font-family:F1;-inkscape-font-specification:F1;writing-mode:lr-tb;fill:#000000;fill-opacity:1;fill-rule:nonzero;stroke:none"
                 transform="translate(12482.2,9520.4805)"><tspan
                   id="tspan224"
                   y="0"
                   x="0 216.2688 330.95679 504.6272 668.46716 783.15521">Order2</tspan></text>
</g><g
               id="g228"><g
                 clip-path="url(#clipPath234)"
                 id="g230"><g
                   id="g236"><path
                     id="path238"
                     style="fill:#ed7d31;fill-opacity:1;fill-rule:nonzero;stroke:none"
                     d="m 598.71997,484.95999 4.48004,8.96002 h -8.96002 z" /></g><g
                   id="g240"><path
                     id="path242"
                     style="fill:none;stroke:#ed7d31;stroke-width:1.27999997;stroke-linecap:butt;stroke-linejoin:round;stroke-miterlimit:10;stroke-dasharray:none;stroke-opacity:1"
                     d="m 598.71997,484.95999 4.48004,8.96002 h -8.96002 z" /></g></g></g><g
               transform="scale(0.04862)"
               id="g244"><text
                 id="text248"
                 style="font-variant:normal;font-weight:normal;font-size:327.67999268px;font-family:F1;-inkscape-font-specification:F1;writing-mode:lr-tb;fill:#000000;fill-opacity:1;fill-rule:nonzero;stroke:none"
                 transform="translate(12482.2,10162.1)"><tspan
                   id="tspan246"
                   y="0"
                   x="0 216.2688 330.95679 504.6272 668.46716 783.15521">Order3</tspan></text>
</g></g></g></g></g></g></svg>