<svg width="1668" height="1069" xmlns="http://www.w3.org/2000/svg" xmlns:xlink="http://www.w3.org/1999/xlink" overflow="hidden"><defs><clipPath id="clip0"><rect x="6363" y="3246" width="1668" height="1069"/></clipPath><clipPath id="clip1"><rect x="6362" y="3246" width="1668" height="1069"/></clipPath><clipPath id="clip2"><rect x="6362" y="3246" width="1668" height="1069"/></clipPath><clipPath id="clip3"><rect x="6362" y="3246" width="1668" height="1069"/></clipPath><clipPath id="clip4"><rect x="6362" y="3246" width="1668" height="1069"/></clipPath><clipPath id="clip5"><rect x="6362" y="3246" width="1668" height="1069"/></clipPath><clipPath id="clip6"><rect x="6362" y="3246" width="1668" height="1069"/></clipPath><clipPath id="clip7"><rect x="6362" y="3246" width="1668" height="1069"/></clipPath><clipPath id="clip8"><rect x="6362" y="3246" width="1668" height="1069"/></clipPath><clipPath id="clip9"><rect x="6362" y="3246" width="1668" height="1069"/></clipPath><clipPath id="clip10"><rect x="6783" y="3302" width="1127" height="750"/></clipPath><clipPath id="clip11"><rect x="6783" y="3302" width="1127" height="750"/></clipPath><clipPath id="clip12"><rect x="6362" y="3246" width="1668" height="1069"/></clipPath><clipPath id="clip13"><rect x="6362" y="3246" width="1668" height="1069"/></clipPath><clipPath id="clip14"><rect x="6362" y="3246" width="1668" height="1069"/></clipPath><clipPath id="clip15"><rect x="6362" y="3246" width="1668" height="1069"/></clipPath><clipPath id="clip16"><rect x="6362" y="3246" width="1668" height="1069"/></clipPath><clipPath id="clip17"><rect x="6362" y="3246" width="1668" height="1069"/></clipPath><clipPath id="clip18"><rect x="6362" y="3246" width="1668" height="1069"/></clipPath><clipPath id="clip19"><rect x="6362" y="3246" width="1668" height="1069"/></clipPath><clipPath id="clip20"><rect x="6362" y="3246" width="1668" height="1069"/></clipPath><clipPath id="clip21"><rect x="6362" y="3246" width="1668" height="1069"/></clipPath><clipPath id="clip22"><rect x="6362" y="3246" width="1668" height="1069"/></clipPath><clipPath id="clip23"><rect x="6362" y="3246" width="1668" height="1069"/></clipPath><clipPath id="clip24"><rect x="6362" y="3246" width="1668" height="1069"/></clipPath><clipPath id="clip25"><rect x="6362" y="3246" width="1668" height="1069"/></clipPath><clipPath id="clip26"><rect x="6362" y="3246" width="1668" height="1069"/></clipPath><clipPath id="clip27"><rect x="6362" y="3246" width="1668" height="1069"/></clipPath><clipPath id="clip28"><rect x="6362" y="3246" width="1668" height="1069"/></clipPath><clipPath id="clip29"><rect x="6362" y="3246" width="1668" height="1069"/></clipPath><clipPath id="clip30"><rect x="6362" y="3246" width="1668" height="1069"/></clipPath><clipPath id="clip31"><rect x="6362" y="3246" width="1668" height="1069"/></clipPath><clipPath id="clip32"><rect x="6362" y="3246" width="1668" height="1069"/></clipPath><clipPath id="clip33"><rect x="6362" y="3246" width="1668" height="1069"/></clipPath><clipPath id="clip34"><rect x="6362" y="3246" width="1668" height="1069"/></clipPath><clipPath id="clip35"><rect x="6362" y="3246" width="1668" height="1069"/></clipPath><clipPath id="clip36"><rect x="6362" y="3246" width="1668" height="1069"/></clipPath><clipPath id="clip37"><rect x="6362" y="3246" width="1668" height="1069"/></clipPath><clipPath id="clip38"><rect x="6362" y="3246" width="1668" height="1069"/></clipPath><clipPath id="clip39"><rect x="6362" y="3246" width="1668" height="1069"/></clipPath><clipPath id="clip40"><rect x="6362" y="3246" width="1668" height="1069"/></clipPath></defs><g clip-path="url(#clip0)" transform="translate(-6363 -3246)"><rect x="6363" y="3246" width="1668" height="1069" fill="#FFFFFF"/><g clip-path="url(#clip1)"><path d="M6783.5 4052.5 7910.5 4052.5M6783.5 4007.63 7910.5 4007.63M6783.5 3981.63 7910.5 3981.63M6783.5 3962.63 7910.5 3962.63M6783.5 3947.63 7910.5 3947.63M6783.5 3935.63 7910.5 3935.63M6783.5 3925.63 7910.5 3925.63M6783.5 3917.63 7910.5 3917.63M6783.5 3909.63 7910.5 3909.63M6783.5 3902.63 7910.5 3902.63M6783.5 3857.63 7910.5 3857.63M6783.5 3831.63 7910.5 3831.63M6783.5 3812.63 7910.5 3812.63M6783.5 3797.62 7910.5 3797.62M6783.5 3785.62 7910.5 3785.62M6783.5 3775.62 7910.5 3775.62M6783.5 3767.62 7910.5 3767.62M6783.5 3759.62 7910.5 3759.62M6783.5 3752.62 7910.5 3752.62M6783.5 3707.62 7910.5 3707.62M6783.5 3681.62 7910.5 3681.62M6783.5 3662.62 7910.5 3662.62M6783.5 3647.62 7910.5 3647.62M6783.5 3635.62 7910.5 3635.62M6783.5 3625.62 7910.5 3625.62M6783.5 3617.62 7910.5 3617.62M6783.5 3609.62 7910.5 3609.62M6783.5 3602.62 7910.5 3602.62M6783.5 3557.62 7910.5 3557.62M6783.5 3531.62 7910.5 3531.62M6783.5 3512.62 7910.5 3512.62M6783.5 3497.61 7910.5 3497.61M6783.5 3485.61 7910.5 3485.61M6783.5 3475.61 7910.5 3475.61M6783.5 3467.61 7910.5 3467.61M6783.5 3459.61 7910.5 3459.61M6783.5 3452.61 7910.5 3452.61M6783.5 3407.61 7910.5 3407.61M6783.5 3381.61 7910.5 3381.61M6783.5 3362.61 7910.5 3362.61M6783.5 3347.61 7910.5 3347.61M6783.5 3335.61 7910.5 3335.61M6783.5 3325.61 7910.5 3325.61M6783.5 3317.61 7910.5 3317.61M6783.5 3309.61 7910.5 3309.61" stroke="#A5A5A5" stroke-width="3.4375" stroke-linejoin="round" stroke-miterlimit="10" fill="none"/></g><g clip-path="url(#clip2)"><path d="M6783.5 4052.5 7910.5 4052.5M6783.5 3902.63 7910.5 3902.63M6783.5 3752.62 7910.5 3752.62M6783.5 3602.62 7910.5 3602.62M6783.5 3452.61 7910.5 3452.61" stroke="#000000" stroke-width="4.58333" stroke-linejoin="round" stroke-miterlimit="10" fill="none"/></g><g clip-path="url(#clip3)"><path d="M6896.73 3302.5 6896.73 4052.5M6962.73 3302.5 6962.73 4052.5M7009.73 3302.5 7009.73 4052.5M7045.73 3302.5 7045.73 4052.5M7075.73 3302.5 7075.73 4052.5M7100.73 3302.5 7100.73 4052.5M7122.73 3302.5 7122.73 4052.5M7141.73 3302.5 7141.73 4052.5M7272.74 3302.5 7272.74 4052.5M7338.74 3302.5 7338.74 4052.5M7385.74 3302.5 7385.74 4052.5M7421.74 3302.5 7421.74 4052.5M7451.74 3302.5 7451.74 4052.5M7476.75 3302.5 7476.75 4052.5M7498.75 3302.5 7498.75 4052.5M7517.75 3302.5 7517.75 4052.5M7647.75 3302.5 7647.75 4052.5M7714.75 3302.5 7714.75 4052.5M7761.75 3302.5 7761.75 4052.5M7797.76 3302.5 7797.76 4052.5M7827.76 3302.5 7827.76 4052.5M7852.76 3302.5 7852.76 4052.5M7874.76 3302.5 7874.76 4052.5M7893.76 3302.5 7893.76 4052.5" stroke="#A5A5A5" stroke-width="3.4375" stroke-linejoin="round" stroke-miterlimit="10" fill="none"/></g><g clip-path="url(#clip4)"><path d="M7158.73 3302.5 7158.73 4052.5M7534.75 3302.5 7534.75 4052.5M7910.5 3302.5 7910.5 4052.5" stroke="#000000" stroke-width="4.58333" stroke-linejoin="round" stroke-miterlimit="10" fill="none"/></g><g clip-path="url(#clip5)"><rect x="6783.5" y="3302.5" width="1127" height="750" stroke="#000000" stroke-width="4.58333" stroke-linejoin="round" stroke-miterlimit="10" fill="none"/></g><g clip-path="url(#clip6)"><path d="M0 0 0.000360892 750" stroke="#000000" stroke-width="4.58333" stroke-linejoin="round" stroke-miterlimit="10" fill="none" fill-rule="evenodd" transform="matrix(1 0 0 -1 6783.5 4052.5)"/></g><g clip-path="url(#clip7)"><path d="M6783.5 3302.5 7910.5 3302.5" stroke="#000000" stroke-width="4.58333" stroke-linejoin="round" stroke-miterlimit="10" fill="none" fill-rule="evenodd"/></g><g clip-path="url(#clip8)"><path d="M7020.31 3498.7C7020.31 3504.77 7015.39 3509.69 7009.31 3509.69 7003.24 3509.69 6998.31 3504.77 6998.31 3498.7 6998.31 3492.62 7003.24 3487.7 7009.31 3487.7 7015.39 3487.7 7020.31 3492.62 7020.31 3498.7Z" stroke="#4472C4" stroke-width="3.4375" stroke-linejoin="round" stroke-miterlimit="10" fill="#4472C4"/><path d="M7266.31 3624.69C7266.31 3630.77 7261.39 3635.69 7255.31 3635.69 7249.24 3635.69 7244.31 3630.77 7244.31 3624.69 7244.31 3618.62 7249.24 3613.7 7255.31 3613.7 7261.39 3613.7 7266.31 3618.62 7266.31 3624.69Z" stroke="#4472C4" stroke-width="3.4375" stroke-linejoin="round" stroke-miterlimit="10" fill="#4472C4"/><path d="M7501.31 3730.69C7501.31 3736.77 7496.39 3741.69 7490.31 3741.69 7484.24 3741.69 7479.31 3736.77 7479.31 3730.69 7479.31 3724.62 7484.24 3719.7 7490.31 3719.7 7496.39 3719.7 7501.31 3724.62 7501.31 3730.69Z" stroke="#4472C4" stroke-width="3.4375" stroke-linejoin="round" stroke-miterlimit="10" fill="#4472C4"/><path d="M7731.31 3828.7C7731.31 3834.77 7726.39 3839.69 7720.31 3839.69 7714.24 3839.69 7709.31 3834.77 7709.31 3828.7 7709.31 3822.62 7714.24 3817.7 7720.31 3817.7 7726.39 3817.7 7731.31 3822.62 7731.31 3828.7Z" stroke="#4472C4" stroke-width="3.4375" stroke-linejoin="round" stroke-miterlimit="10" fill="#4472C4"/></g><g clip-path="url(#clip9)"><path d="M7009.31 3603.7 7020.31 3625.69 6998.31 3625.69Z" stroke="#ED7D31" stroke-width="3.4375" stroke-linejoin="round" stroke-miterlimit="10" fill="#ED7D31"/><path d="M7255.31 3730.7 7266.31 3752.69 7244.31 3752.69Z" stroke="#ED7D31" stroke-width="3.4375" stroke-linejoin="round" stroke-miterlimit="10" fill="#ED7D31"/><path d="M7490.31 3836.7 7501.31 3858.69 7479.31 3858.69Z" stroke="#ED7D31" stroke-width="3.4375" stroke-linejoin="round" stroke-miterlimit="10" fill="#ED7D31"/><path d="M7720.31 3934.7 7731.31 3956.69 7709.31 3956.69Z" stroke="#ED7D31" stroke-width="3.4375" stroke-linejoin="round" stroke-miterlimit="10" fill="#ED7D31"/></g><g clip-path="url(#clip10)"><path d="M7009.5 3504.5 7011.73 3505.62 7013.73 3506.62 7015.73 3507.62 7018.73 3508.62 7020.73 3509.62 7022.73 3510.62 7024.73 3511.62 7026.73 3512.62 7028.73 3513.62 7031.73 3514.62 7033.73 3515.62 7035.73 3516.62 7037.73 3517.62 7039.73 3518.62 7041.73 3519.62 7044.73 3520.62 7046.73 3521.62 7048.73 3522.62 7050.73 3523.62 7052.73 3524.62 7054.73 3525.62 7057.73 3526.62 7059.73 3527.62 7061.73 3528.62 7063.73 3529.62 7065.73 3530.62 7067.73 3531.62 7070.73 3532.62 7072.73 3533.62 7074.73 3534.62 7076.73 3535.62 7078.73 3536.62 7080.73 3537.62 7083.73 3538.62 7085.73 3539.62 7087.73 3540.62 7089.73 3541.62 7091.73 3542.62 7093.73 3543.62 7096.73 3544.62 7098.73 3545.62 7100.73 3546.62 7102.73 3547.62 7104.73 3548.62 7106.73 3549.62 7109.73 3550.62 7111.73 3551.62 7113.73 3552.62 7115.73 3553.62 7117.73 3554.62 7119.73 3555.62 7122.73 3556.62 7124.73 3557.62 7126.73 3558.62 7128.73 3559.62 7130.73 3560.62 7132.73 3561.62 7135.73 3562.62 7137.73 3563.62 7139.73 3564.62 7141.73 3565.62 7143.73 3566.62 7145.73 3567.62 7148.73 3568.62 7150.73 3569.62 7152.73 3570.62 7154.73 3571.62 7156.73 3572.62 7158.74 3573.62 7161.74 3574.62 7163.74 3575.62 7165.74 3576.62 7167.74 3577.62 7169.74 3578.62 7172.74 3579.62 7174.74 3580.62 7176.74 3581.62 7178.74 3582.62 7180.74 3583.62 7182.74 3584.62 7185.74 3585.62 7187.74 3586.62 7189.74 3587.62 7191.74 3588.62 7193.74 3589.62 7195.74 3590.62 7198.74 3591.62 7200.74 3592.62 7202.74 3593.62 7204.74 3594.62 7206.74 3595.62 7208.74 3596.62 7211.74 3597.62 7213.74 3598.62 7215.74 3599.62 7217.74 3600.62 7219.74 3601.62 7221.74 3602.62 7224.74 3603.62 7226.74 3604.62 7228.74 3605.62 7230.74 3606.62 7232.74 3607.62 7234.74 3608.62 7237.74 3609.62 7239.74 3610.62 7241.74 3611.62 7243.74 3612.62 7245.74 3613.62 7247.74 3614.62 7250.74 3615.62 7252.74 3616.62 7254.74 3617.62 7256.74 3618.62 7258.74 3619.62 7260.74 3620.62 7263.74 3621.62 7265.74 3622.62 7267.74 3623.62 7269.74 3624.62 7271.74 3625.62 7273.74 3626.62 7276.74 3627.62 7278.74 3628.62 7280.74 3629.62 7282.74 3630.62 7284.74 3631.62 7286.74 3632.62 7289.74 3633.62 7291.74 3634.62 7293.74 3635.62 7295.74 3636.62 7297.74 3637.62 7299.74 3638.62 7302.74 3639.62 7304.74 3640.62 7306.74 3641.62 7308.74 3642.62 7310.74 3643.62 7312.74 3644.62 7315.74 3645.62 7317.74 3646.62 7319.74 3647.62 7321.74 3648.62 7323.74 3649.62 7325.74 3650.62 7328.74 3651.62 7330.74 3652.62 7332.74 3653.62 7334.74 3654.62 7336.74 3655.62 7338.74 3656.62 7341.74 3657.62 7343.74 3658.62 7345.74 3659.62 7347.74 3660.62 7349.74 3661.62 7351.74 3662.62 7354.74 3663.62 7356.74 3664.62 7358.74 3665.62 7360.74 3666.62 7362.74 3667.62 7364.74 3668.62 7367.74 3669.62 7369.74 3670.62 7371.74 3671.62 7373.74 3672.62 7375.74 3673.62 7377.74 3674.62 7380.74 3675.62 7382.74 3676.62 7384.74 3677.62 7386.74 3678.62 7388.74 3679.62 7390.74 3680.62 7393.74 3681.62 7395.74 3682.62 7397.74 3683.62 7399.74 3684.62 7401.74 3685.62 7403.74 3686.62 7406.74 3687.62 7408.74 3688.62 7410.74 3689.62 7412.74 3690.62 7414.74 3691.62 7416.74 3692.62 7419.74 3693.62 7421.74 3694.62 7423.74 3695.62 7425.74 3696.62 7427.74 3697.62 7429.74 3698.62 7432.74 3699.62 7434.74 3700.62 7436.74 3701.62 7438.74 3702.62 7440.74 3703.62 7443.74 3704.62 7445.74 3705.62 7447.74 3706.62 7449.74 3707.62 7451.74 3708.62 7453.74 3709.62 7456.75 3710.62 7458.75 3711.62 7460.75 3712.62 7462.75 3713.62 7464.75 3714.62 7466.75 3715.62 7469.75 3716.62 7471.75 3717.62 7473.75 3718.62 7475.75 3719.62 7477.75 3720.62 7479.75 3721.62 7482.75 3722.62 7484.75 3723.62 7486.75 3724.62 7488.75 3725.62 7490.75 3726.62 7492.75 3727.62 7495.75 3728.62 7497.75 3729.62 7499.75 3730.62 7501.75 3731.62 7503.75 3732.62 7505.75 3733.62 7508.75 3734.62 7510.75 3735.62 7512.75 3736.62 7514.75 3737.62 7516.75 3738.62 7518.75 3739.62 7521.75 3740.62 7523.75 3741.62 7525.75 3742.62 7527.75 3743.62 7529.75 3744.62 7531.75 3745.62 7534.75 3746.62 7536.75 3747.62 7538.75 3748.62 7540.75 3749.62 7542.75 3750.62 7544.75 3751.62 7547.75 3752.62 7549.75 3753.62 7551.75 3754.62 7553.75 3755.62 7555.75 3756.62 7557.75 3758.62 7560.75 3759.62 7562.75 3760.62 7564.75 3761.62 7566.75 3762.62 7568.75 3763.62 7570.75 3764.62 7573.75 3765.62 7575.75 3766.62 7577.75 3767.62 7579.75 3768.62 7581.75 3769.62 7583.75 3770.62 7586.75 3771.62 7588.75 3772.62 7590.75 3773.62 7592.75 3774.62 7594.75 3775.62 7596.75 3776.62 7599.75 3777.62 7601.75 3778.62 7603.75 3779.62 7605.75 3780.62 7607.75 3781.62 7609.75 3782.62 7612.75 3783.62 7614.75 3784.62 7616.75 3785.62 7618.75 3786.62 7620.75 3787.62 7622.75 3788.62 7625.75 3789.62 7627.75 3790.62 7629.75 3791.62 7631.75 3792.62 7633.75 3793.62 7635.75 3794.62 7638.75 3795.62 7640.75 3796.62 7642.75 3797.62 7644.75 3798.62 7646.75 3799.62 7648.75 3800.62 7651.75 3801.62 7653.75 3802.62 7655.75 3803.62 7657.75 3804.62 7659.75 3805.62 7661.75 3806.62 7664.75 3807.62 7666.75 3808.62 7668.75 3809.62 7670.75 3810.63 7672.75 3811.63 7674.75 3812.63 7677.75 3813.63 7679.75 3814.63 7681.75 3815.63 7683.75 3816.63 7685.75 3817.63 7687.75 3818.63 7690.75 3819.63 7692.75 3820.63 7694.75 3821.63 7696.75 3822.63 7698.75 3823.63 7701.75 3824.63 7703.75 3825.63 7705.75 3826.63 7707.75 3827.63 7709.75 3828.63 7711.75 3829.63 7714.75 3830.63 7716.75 3831.63 7718.75 3832.63 7720.5 3833.5" stroke="#4472C4" stroke-width="6.875" stroke-linecap="round" stroke-linejoin="round" stroke-miterlimit="10" stroke-dasharray="0 13.75" fill="none"/></g><g clip-path="url(#clip11)"><path d="M7009.5 3620.5 7011.73 3621.62 7013.73 3622.62 7015.73 3623.62 7018.73 3624.62 7020.73 3625.62 7022.73 3626.62 7024.73 3627.62 7026.73 3628.62 7028.73 3629.62 7031.73 3630.62 7033.73 3631.62 7035.73 3632.62 7037.73 3633.62 7039.73 3634.62 7041.73 3635.62 7044.73 3636.62 7046.73 3637.62 7048.73 3638.62 7050.73 3639.62 7052.73 3640.62 7054.73 3641.62 7057.73 3642.62 7059.73 3643.62 7061.73 3644.62 7063.73 3645.62 7065.73 3646.62 7067.73 3647.62 7070.73 3648.62 7072.73 3649.62 7074.73 3650.62 7076.73 3651.62 7078.73 3652.62 7080.73 3654.62 7083.73 3655.62 7085.73 3656.62 7087.73 3657.62 7089.73 3658.62 7091.73 3659.62 7093.73 3660.62 7096.73 3661.62 7098.73 3662.62 7100.73 3663.62 7102.73 3664.62 7104.73 3665.62 7106.73 3666.62 7109.73 3667.62 7111.73 3668.62 7113.73 3669.62 7115.73 3670.62 7117.73 3671.62 7119.73 3672.62 7122.73 3673.62 7124.73 3674.62 7126.73 3675.62 7128.73 3676.62 7130.73 3677.62 7132.73 3678.62 7135.73 3679.62 7137.73 3680.62 7139.73 3681.62 7141.73 3682.62 7143.73 3683.62 7145.73 3684.62 7148.73 3685.62 7150.73 3686.62 7152.73 3687.62 7154.73 3688.62 7156.73 3689.62 7158.74 3690.62 7161.74 3691.62 7163.74 3692.62 7165.74 3693.62 7167.74 3694.62 7169.74 3695.62 7172.74 3696.62 7174.74 3697.62 7176.74 3698.62 7178.74 3699.62 7180.74 3700.62 7182.74 3701.62 7185.74 3702.62 7187.74 3703.62 7189.74 3704.62 7191.74 3705.62 7193.74 3706.62 7195.74 3707.62 7198.74 3708.62 7200.74 3709.62 7202.74 3710.62 7204.74 3711.62 7206.74 3712.62 7208.74 3713.62 7211.74 3714.62 7213.74 3715.62 7215.74 3716.62 7217.74 3717.62 7219.74 3718.62 7221.74 3719.62 7224.74 3720.62 7226.74 3721.62 7228.74 3722.62 7230.74 3723.62 7232.74 3724.62 7234.74 3725.62 7237.74 3726.62 7239.74 3727.62 7241.74 3728.62 7243.74 3729.62 7245.74 3730.62 7247.74 3731.62 7250.74 3732.62 7252.74 3733.62 7254.74 3734.62 7256.74 3735.62 7258.74 3736.62 7260.74 3737.62 7263.74 3738.62 7265.74 3739.62 7267.74 3740.62 7269.74 3741.62 7271.74 3742.62 7273.74 3743.62 7276.74 3744.62 7278.74 3745.62 7280.74 3746.62 7282.74 3747.62 7284.74 3748.62 7286.74 3749.62 7289.74 3750.62 7291.74 3751.62 7293.74 3752.62 7295.74 3753.62 7297.74 3754.62 7299.74 3755.62 7302.74 3756.62 7304.74 3757.62 7306.74 3758.62 7308.74 3759.62 7310.74 3760.62 7312.74 3761.62 7315.74 3762.62 7317.74 3763.62 7319.74 3764.62 7321.74 3765.62 7323.74 3766.62 7325.74 3767.62 7328.74 3768.62 7330.74 3769.62 7332.74 3770.62 7334.74 3771.62 7336.74 3772.62 7338.74 3773.62 7341.74 3774.62 7343.74 3775.62 7345.74 3776.62 7347.74 3777.62 7349.74 3778.62 7351.74 3779.62 7354.74 3780.62 7356.74 3781.62 7358.74 3782.62 7360.74 3783.62 7362.74 3784.62 7364.74 3785.62 7367.74 3786.62 7369.74 3787.62 7371.74 3788.62 7373.74 3789.62 7375.74 3790.62 7377.74 3791.62 7380.74 3792.62 7382.74 3793.62 7384.74 3794.62 7386.74 3795.62 7388.74 3796.62 7390.74 3797.62 7393.74 3798.62 7395.74 3799.62 7397.74 3800.62 7399.74 3801.62 7401.74 3802.62 7403.74 3803.62 7406.74 3804.62 7408.74 3805.62 7410.74 3806.62 7412.74 3807.62 7414.74 3808.62 7416.74 3809.62 7419.74 3810.62 7421.74 3811.62 7423.74 3812.63 7425.74 3813.63 7427.74 3814.63 7429.74 3815.63 7432.74 3816.63 7434.74 3817.63 7436.74 3818.63 7438.74 3819.63 7440.74 3820.63 7443.74 3821.63 7445.74 3822.63 7447.74 3823.63 7449.74 3824.63 7451.74 3825.63 7453.74 3826.63 7456.75 3827.63 7458.75 3828.63 7460.75 3829.63 7462.75 3830.63 7464.75 3831.63 7466.75 3832.63 7469.75 3833.63 7471.75 3834.63 7473.75 3835.63 7475.75 3836.63 7477.75 3837.63 7479.75 3838.63 7482.75 3839.63 7484.75 3840.63 7486.75 3841.63 7488.75 3842.63 7490.75 3843.63 7492.75 3844.63 7495.75 3845.63 7497.75 3846.63 7499.75 3847.63 7501.75 3848.63 7503.75 3849.63 7505.75 3850.63 7508.75 3851.63 7510.75 3852.63 7512.75 3853.63 7514.75 3854.63 7516.75 3855.63 7518.75 3856.63 7521.75 3857.63 7523.75 3858.63 7525.75 3859.63 7527.75 3860.63 7529.75 3861.63 7531.75 3862.63 7534.75 3863.63 7536.75 3864.63 7538.75 3865.63 7540.75 3866.63 7542.75 3867.63 7544.75 3868.63 7547.75 3869.63 7549.75 3871.63 7551.75 3872.63 7553.75 3873.63 7555.75 3874.63 7557.75 3875.63 7560.75 3876.63 7562.75 3877.63 7564.75 3878.63 7566.75 3879.63 7568.75 3880.63 7570.75 3881.63 7573.75 3882.63 7575.75 3883.63 7577.75 3884.63 7579.75 3885.63 7581.75 3886.63 7583.75 3887.63 7586.75 3888.63 7588.75 3889.63 7590.75 3890.63 7592.75 3891.63 7594.75 3892.63 7596.75 3893.63 7599.75 3894.63 7601.75 3895.63 7603.75 3896.63 7605.75 3897.63 7607.75 3898.63 7609.75 3899.63 7612.75 3900.63 7614.75 3901.63 7616.75 3902.63 7618.75 3903.63 7620.75 3904.63 7622.75 3905.63 7625.75 3906.63 7627.75 3907.63 7629.75 3908.63 7631.75 3909.63 7633.75 3910.63 7635.75 3911.63 7638.75 3912.63 7640.75 3913.63 7642.75 3914.63 7644.75 3915.63 7646.75 3916.63 7648.75 3917.63 7651.75 3918.63 7653.75 3919.63 7655.75 3920.63 7657.75 3921.63 7659.75 3922.63 7661.75 3923.63 7664.75 3924.63 7666.75 3925.63 7668.75 3926.63 7670.75 3927.63 7672.75 3928.63 7674.75 3929.63 7677.75 3930.63 7679.75 3931.63 7681.75 3932.63 7683.75 3933.63 7685.75 3934.63 7687.75 3935.63 7690.75 3936.63 7692.75 3937.63 7694.75 3938.63 7696.75 3939.63 7698.75 3940.63 7701.75 3941.63 7703.75 3942.63 7705.75 3943.63 7707.75 3944.63 7709.75 3945.63 7711.75 3946.63 7714.75 3947.63 7716.75 3948.63 7718.75 3949.63 7720.5 3950.5" stroke="#ED7D31" stroke-width="6.875" stroke-linecap="round" stroke-linejoin="round" stroke-miterlimit="10" stroke-dasharray="0 13.75" fill="none"/></g><g clip-path="url(#clip12)"><rect x="7133.5" y="3438.5" width="470" height="92.0002" stroke="#000000" stroke-width="3.4375" stroke-linejoin="round" stroke-miterlimit="10" fill="#FFFFFF"/></g><g clip-path="url(#clip13)"><text fill="#595959" font-family="Calibri,Calibri_MSFontService,sans-serif" font-weight="400" font-size="64" transform="matrix(1 0 0 1 7146.82 3507)">y = 3.2719 x</text></g><g clip-path="url(#clip14)"><text fill="#595959" font-family="Calibri,Calibri_MSFontService,sans-serif" font-weight="400" font-size="43" transform="matrix(1 0 0 1 7457.93 3488)">-</text></g><g clip-path="url(#clip15)"><text fill="#595959" font-family="Calibri,Calibri_MSFontService,sans-serif" font-weight="400" font-size="43" transform="matrix(1 0 0 1 7471.04 3488)">1.1598 </text></g><g clip-path="url(#clip16)"><rect x="6954.5" y="3856.5" width="471" height="92.0002" stroke="#000000" stroke-width="3.4375" stroke-linejoin="round" stroke-miterlimit="10" fill="#FFFFFF"/></g><g clip-path="url(#clip17)"><text fill="#595959" font-family="Calibri,Calibri_MSFontService,sans-serif" font-weight="400" font-size="64" transform="matrix(1 0 0 1 6968.07 3924)">y = 0.5473 x</text></g><g clip-path="url(#clip18)"><text fill="#595959" font-family="Calibri,Calibri_MSFontService,sans-serif" font-weight="400" font-size="43" transform="matrix(1 0 0 1 7279.18 3905)">-</text></g><g clip-path="url(#clip19)"><text fill="#595959" font-family="Calibri,Calibri_MSFontService,sans-serif" font-weight="400" font-size="43" transform="matrix(1 0 0 1 7292.29 3905)">1.1609 </text></g><g clip-path="url(#clip20)"><text font-family="Calibri,Calibri_MSFontService,sans-serif" font-weight="400" font-size="55" transform="matrix(1 0 0 1 6551.23 4068)">0.00001</text></g><g clip-path="url(#clip21)"><text font-family="Calibri,Calibri_MSFontService,sans-serif" font-weight="400" font-size="55" transform="matrix(1 0 0 1 6579.1 3918)">0.0001</text></g><g clip-path="url(#clip22)"><text font-family="Calibri,Calibri_MSFontService,sans-serif" font-weight="400" font-size="55" transform="matrix(1 0 0 1 6606.97 3768)">0.001</text></g><g clip-path="url(#clip23)"><text font-family="Calibri,Calibri_MSFontService,sans-serif" font-weight="400" font-size="55" transform="matrix(1 0 0 1 6634.83 3618)">0.01</text></g><g clip-path="url(#clip24)"><text font-family="Calibri,Calibri_MSFontService,sans-serif" font-weight="400" font-size="55" transform="matrix(1 0 0 1 6662.7 3468)">0.1</text></g><g clip-path="url(#clip25)"><text font-family="Calibri,Calibri_MSFontService,sans-serif" font-weight="400" font-size="55" transform="matrix(1 0 0 1 6704.45 3318)">1</text></g><g clip-path="url(#clip26)"><text font-family="Calibri,Calibri_MSFontService,sans-serif" font-weight="400" font-size="55" transform="matrix(1 0 0 1 6755.48 4140)">10</text></g><g clip-path="url(#clip27)"><text font-family="Calibri,Calibri_MSFontService,sans-serif" font-weight="400" font-size="55" transform="matrix(1 0 0 1 7117.4 4140)">100</text></g><g clip-path="url(#clip28)"><text font-family="Calibri,Calibri_MSFontService,sans-serif" font-weight="400" font-size="55" transform="matrix(1 0 0 1 7479.31 4140)">1000</text></g><g clip-path="url(#clip29)"><text font-family="Calibri,Calibri_MSFontService,sans-serif" font-weight="400" font-size="55" transform="matrix(1 0 0 1 7841.22 4140)">10000</text></g><g clip-path="url(#clip30)"><text font-family="Calibri,Calibri_MSFontService,sans-serif" font-weight="400" font-size="73" transform="matrix(6.12323e-17 -1 1 6.12323e-17 6490.11 3992)">Error norm [</text></g><g clip-path="url(#clip31)"><text font-family="Calibri,Calibri_MSFontService,sans-serif" font-weight="400" font-size="73" transform="matrix(6.12323e-17 -1 1 6.12323e-17 6490.11 3625)">-</text></g><g clip-path="url(#clip32)"><text font-family="Calibri,Calibri_MSFontService,sans-serif" font-weight="400" font-size="73" transform="matrix(6.12323e-17 -1 1 6.12323e-17 6490.11 3602)">]</text></g><g clip-path="url(#clip33)"><text font-family="Calibri,Calibri_MSFontService,sans-serif" font-weight="400" font-size="73" transform="matrix(1 0 0 1 6842.63 4239)">Number of degrees of freedom [</text></g><g clip-path="url(#clip34)"><text font-family="Calibri,Calibri_MSFontService,sans-serif" font-weight="400" font-size="73" transform="matrix(1 0 0 1 7806.67 4239)">-</text></g><g clip-path="url(#clip35)"><text font-family="Calibri,Calibri_MSFontService,sans-serif" font-weight="400" font-size="73" transform="matrix(1 0 0 1 7829.12 4239)">]</text></g><g clip-path="url(#clip36)"><rect x="7675.5" y="3393.5" width="188" height="166" stroke="#000000" stroke-width="3.4375" stroke-linejoin="round" stroke-miterlimit="10" fill="#FFFFFF"/></g><g clip-path="url(#clip37)"><path d="M7717 3435C7717 3441.07 7712.08 3446 7706 3446 7699.92 3446 7695 3441.07 7695 3435 7695 3428.92 7699.92 3424 7706 3424 7712.08 3424 7717 3428.92 7717 3435Z" stroke="#4472C4" stroke-width="3.4375" stroke-linejoin="round" stroke-miterlimit="10" fill="#4472C4"/></g><g clip-path="url(#clip38)"><text font-family="Calibri,Calibri_MSFontService,sans-serif" font-weight="400" font-size="41" transform="matrix(1 0 0 1 7727.27 3447)">Order2</text></g><g clip-path="url(#clip39)"><path d="M7706.5 3506.5 7717.5 3528.5 7695.5 3528.5Z" stroke="#ED7D31" stroke-width="3.4375" stroke-linejoin="round" stroke-miterlimit="10" fill="#ED7D31"/></g><g clip-path="url(#clip40)"><text font-family="Calibri,Calibri_MSFontService,sans-serif" font-weight="400" font-size="41" transform="matrix(1 0 0 1 7727.27 3529)">Order3</text></g></g></svg>