<?xml version="1.0" encoding="UTF-8" standalone="no"?>
<svg
   xmlns:dc="http://purl.org/dc/elements/1.1/"
   xmlns:cc="http://creativecommons.org/ns#"
   xmlns:rdf="http://www.w3.org/1999/02/22-rdf-syntax-ns#"
   xmlns:svg="http://www.w3.org/2000/svg"
   xmlns="http://www.w3.org/2000/svg"
   viewBox="0 0 612 366.66666"
   height="366.66666"
   width="612"
   xml:space="preserve"
   id="svg2"
   version="1.1"><metadata
     id="metadata8"><rdf:RDF><cc:Work
         rdf:about=""><dc:format>image/svg+xml</dc:format><dc:type
           rdf:resource="http://purl.org/dc/dcmitype/StillImage" /></cc:Work></rdf:RDF></metadata><defs
     id="defs6"><clipPath
       id="clipPath20"
       clipPathUnits="userSpaceOnUse"><path
         id="path18"
         d="M 0,0 H 595.32001 V 841.92004 H 0 Z" /></clipPath><clipPath
       id="clipPath34"
       clipPathUnits="userSpaceOnUse"><path
         style="clip-rule:evenodd"
         id="path32"
         d="m 67.199997,126.24 v 924.3201 H 726.56 V 126.24 Z" /></clipPath><clipPath
       id="clipPath62"
       clipPathUnits="userSpaceOnUse"><path
         style="clip-rule:evenodd"
         id="path60"
         d="m 67.199997,126.24 v 924.3201 H 726.56 V 126.24 Z" /></clipPath><clipPath
       id="clipPath224"
       clipPathUnits="userSpaceOnUse"><path
         style="clip-rule:evenodd"
         id="path222"
         d="m 67.199997,126.24 v 924.3201 H 726.56 V 126.24 Z" /></clipPath><clipPath
       id="clipPath246"
       clipPathUnits="userSpaceOnUse"><path
         style="clip-rule:evenodd"
         id="path244"
         d="m 67.199997,126.24 v 924.3201 H 726.56 V 126.24 Z" /></clipPath></defs><g
     transform="matrix(1.3333333,0,0,-1.3333333,0,366.66667)"
     id="g10"><g
       transform="translate(-71,-267)"
       id="g12"><g
         id="g14"><g
           clip-path="url(#clipPath20)"
           id="g16"><g
             transform="matrix(0.75,0,0,-0.75,0,841.92004)"
             id="g22"><g
               id="g24"><path
                 id="path26"
                 style="fill:#ffffff;fill-opacity:1;fill-rule:nonzero;stroke:none"
                 d="M 67.519997,387.20001 H 726.56 v 402.56 H 67.519997 Z" /></g><g
               id="g28"><g
                 clip-path="url(#clipPath34)"
                 id="g30"><g
                   transform="translate(204.32001,706.88)"
                   id="g36"><path
                     id="path38"
                     style="fill:none;stroke:#a5a5a5;stroke-width:1.27999997;stroke-linecap:butt;stroke-linejoin:round;stroke-miterlimit:10;stroke-dasharray:none;stroke-opacity:1"
                     d="M 0,0 H 482.72 M 0,-12.8 H 482.72 M 0,-20.48 H 482.72 M 0,-25.76 H 482.72 M 0,-30.08 H 482.72 M 0,-33.439999 H 482.72 M 0,-36.16 H 482.72 M 0,-38.720001 H 482.72 M 0,-40.959999 H 482.72 M 0,-42.880001 H 482.72 M 0,-55.84 H 482.72 M 0,-63.360001 H 482.72 M 0,-68.800003 h 482.72 m -482.72,-4 H 482.72 M 0,-76.160004 H 482.72 M 0,-79.199997 H 482.72 M 0,-81.599998 H 482.72 M 0,-83.839996 H 482.72 M 0,-85.760002 H 482.72 M 0,-98.720001 H 482.72 M 0,-106.4 H 482.72 M 0,-111.68 H 482.72 M 0,-115.68 H 482.72 M 0,-119.04 H 482.72 M 0,-122.08 H 482.72 M 0,-124.64 H 482.72 M 0,-126.72 H 482.72 M 0,-128.64 H 482.72 M 0,-141.60001 H 482.72 M 0,-149.28 H 482.72 M 0,-154.56 H 482.72 M 0,-158.56 H 482.72 M 0,-161.92 H 482.72 M 0,-164.96001 H 482.72 M 0,-167.52 H 482.72 M 0,-169.60001 H 482.72 M 0,-171.52 H 482.72 M 0,-184.48 H 482.72 M 0,-192.16 H 482.72 M 0,-197.44 H 482.72 M 0,-201.44 H 482.72 M 0,-204.96001 H 482.72 M 0,-207.84 H 482.72 M 0,-210.39999 H 482.72 M 0,-212.48 H 482.72 M 0,-214.39999 H 482.72 M 0,-227.36 H 482.72 M 0,-234.88 H 482.72 M 0,-240.32001 h 482.72 m -482.72,-4 H 482.72 M 0,-247.84 H 482.72 M 0,-250.72 H 482.72 M 0,-253.11999 H 482.72 M 0,-255.52 H 482.72 M 0,-257.28 H 482.72 M 0,-270.23999 H 482.72 M 0,-277.76001 H 482.72 M 0,-283.20001 H 482.72 M 0,-287.35999 H 482.72 M 0,-290.72 H 482.72 M 0,-293.60001 H 482.72 M 0,-296 H 482.72 M 0,-298.39999 h 482.72" /></g><g
                   transform="translate(204.32001,706.88)"
                   id="g40"><path
                     id="path42"
                     style="fill:none;stroke:#000000;stroke-width:1.75999999;stroke-linecap:butt;stroke-linejoin:round;stroke-miterlimit:10;stroke-dasharray:none;stroke-opacity:1"
                     d="M 0,0 H 482.72 M 0,-42.880001 H 482.72 M 0,-85.760002 H 482.72 M 0,-128.64 H 482.72 M 0,-171.52 H 482.72 M 0,-214.39999 H 482.72 M 0,-257.28 h 482.72" /></g><g
                   transform="translate(252.8,406.56)"
                   id="g44"><path
                     id="path46"
                     style="fill:none;stroke:#a5a5a5;stroke-width:1.27999997;stroke-linecap:butt;stroke-linejoin:round;stroke-miterlimit:10;stroke-dasharray:none;stroke-opacity:1"
                     d="M 0,0 V 300.32001 M 28.32,0 V 300.32001 M 48.48,0 V 300.32001 M 64,0 V 300.32001 M 76.800003,0 V 300.32001 M 87.519997,0 V 300.32001 M 96.959999,0 V 300.32001 M 104.96,0 V 300.32001 M 160.8,0 V 300.32001 M 189.11999,0 V 300.32001 M 209.28,0 V 300.32001 M 224.8,0 V 300.32001 M 237.60001,0 V 300.32001 M 248.32001,0 V 300.32001 M 257.76001,0 V 300.32001 M 266.07999,0 V 300.32001 M 321.92001,0 V 300.32001 M 350.07999,0 V 300.32001 M 370.23999,0 V 300.32001 M 385.76001,0 V 300.32001 M 398.56,0 V 300.32001 M 409.44,0 V 300.32001 M 418.72,0 V 300.32001 M 426.88,0 v 300.32001" /></g><g
                   id="g48"><path
                     id="path50"
                     style="fill:none;stroke:#000000;stroke-width:1.75999999;stroke-linecap:butt;stroke-linejoin:round;stroke-miterlimit:10;stroke-dasharray:none;stroke-opacity:1"
                     d="M 365.28,406.56 V 706.88 M 526.23999,406.56 V 706.88 M 687.03998,406.56 v 300.32" /></g></g></g><g
               id="g52"><path
                 id="path54"
                 style="fill:none;stroke:#000000;stroke-width:1.75999999;stroke-linecap:butt;stroke-linejoin:round;stroke-miterlimit:10;stroke-dasharray:none;stroke-opacity:1"
                 d="M 204.32001,406.56 H 687.03998 V 706.88 H 204.32001 Z" /></g><g
               id="g56"><g
                 clip-path="url(#clipPath62)"
                 id="g58"><g
                   id="g64"><path
                     id="path66"
                     style="fill:none;stroke:#000000;stroke-width:1.75999999;stroke-linecap:butt;stroke-linejoin:round;stroke-miterlimit:10;stroke-dasharray:none;stroke-opacity:1"
                     d="M 204.32001,706.88 V 406.56" /></g><g
                   id="g68"><path
                     id="path70"
                     style="fill:none;stroke:#000000;stroke-width:1.75999999;stroke-linecap:butt;stroke-linejoin:round;stroke-miterlimit:10;stroke-dasharray:none;stroke-opacity:1"
                     d="M 204.32001,406.56 H 687.03998" /></g><g
                   transform="translate(305.76001,479.51999)"
                   id="g72"><path
                     id="path74"
                     style="fill:#4472c4;fill-opacity:1;fill-rule:nonzero;stroke:none"
                     d="m 0,0 c 0,2.56 -2.08,4.48 -4.48,4.48 -2.56,0 -4.48,-1.92 -4.48,-4.48 0,-2.4 1.92,-4.48 4.48,-4.48 C -2.08,-4.48 0,-2.4 0,0 Z" /></g><g
                   transform="translate(305.76001,479.51999)"
                   id="g76"><path
                     id="path78"
                     style="fill:none;stroke:#4472c4;stroke-width:1.27999997;stroke-linecap:butt;stroke-linejoin:round;stroke-miterlimit:10;stroke-dasharray:none;stroke-opacity:1"
                     d="m 0,0 c 0,2.56 -2.08,4.48 -4.48,4.48 -2.56,0 -4.48,-1.92 -4.48,-4.48 0,-2.4 1.92,-4.48 4.48,-4.48 C -2.08,-4.48 0,-2.4 0,0" /></g><g
                   transform="translate(410.72,545.12)"
                   id="g80"><path
                     id="path82"
                     style="fill:#4472c4;fill-opacity:1;fill-rule:nonzero;stroke:none"
                     d="m 0,0 c 0,2.56 -2.08,4.48 -4.48,4.48 -2.56,0 -4.48,-1.92 -4.48,-4.48 0,-2.4 1.92,-4.32 4.48,-4.32 C -2.08,-4.32 0,-2.4 0,0 Z" /></g><g
                   transform="translate(410.72,545.12)"
                   id="g84"><path
                     id="path86"
                     style="fill:none;stroke:#4472c4;stroke-width:1.27999997;stroke-linecap:butt;stroke-linejoin:round;stroke-miterlimit:10;stroke-dasharray:none;stroke-opacity:1"
                     d="m 0,0 c 0,2.56 -2.08,4.48 -4.48,4.48 -2.56,0 -4.48,-1.92 -4.48,-4.48 0,-2.4 1.92,-4.32 4.48,-4.32 C -2.08,-4.32 0,-2.4 0,0" /></g><g
                   transform="translate(511.35999,592.96002)"
                   id="g88"><path
                     id="path90"
                     style="fill:#4472c4;fill-opacity:1;fill-rule:nonzero;stroke:none"
                     d="m 0,0 c 0,2.56 -2.08,4.48 -4.48,4.48 -2.4,0 -4.48,-1.92 -4.48,-4.48 0,-2.4 2.08,-4.48 4.48,-4.48 C -2.08,-4.48 0,-2.4 0,0 Z" /></g><g
                   transform="translate(511.35999,592.96002)"
                   id="g92"><path
                     id="path94"
                     style="fill:none;stroke:#4472c4;stroke-width:1.27999997;stroke-linecap:butt;stroke-linejoin:round;stroke-miterlimit:10;stroke-dasharray:none;stroke-opacity:1"
                     d="m 0,0 c 0,2.56 -2.08,4.48 -4.48,4.48 -2.4,0 -4.48,-1.92 -4.48,-4.48 0,-2.4 2.08,-4.48 4.48,-4.48 C -2.08,-4.48 0,-2.4 0,0" /></g><g
                   transform="translate(610.08002,635.67999)"
                   id="g96"><path
                     id="path98"
                     style="fill:#4472c4;fill-opacity:1;fill-rule:nonzero;stroke:none"
                     d="m 0,0 c 0,2.4 -1.92,4.48 -4.48,4.48 -2.4,0 -4.48,-2.08 -4.48,-4.48 0,-2.4 2.08,-4.48 4.48,-4.48 C -1.92,-4.48 0,-2.4 0,0 Z" /></g><g
                   transform="translate(610.08002,635.67999)"
                   id="g100"><path
                     id="path102"
                     style="fill:none;stroke:#4472c4;stroke-width:1.27999997;stroke-linecap:butt;stroke-linejoin:round;stroke-miterlimit:10;stroke-dasharray:none;stroke-opacity:1"
                     d="m 0,0 c 0,2.4 -1.92,4.48 -4.48,4.48 -2.4,0 -4.48,-2.08 -4.48,-4.48 0,-2.4 2.08,-4.48 4.48,-4.48 C -1.92,-4.48 0,-2.4 0,0" /></g><g
                   id="g104"><path
                     id="path106"
                     style="fill:#ed7d31;fill-opacity:1;fill-rule:nonzero;stroke:none"
                     d="m 301.28,508.16 4.48001,8.96 h -8.96002 z" /></g><g
                   id="g108"><path
                     id="path110"
                     style="fill:none;stroke:#ed7d31;stroke-width:1.27999997;stroke-linecap:butt;stroke-linejoin:round;stroke-miterlimit:10;stroke-dasharray:none;stroke-opacity:1"
                     d="m 301.28,508.16 4.48001,8.96 h -8.96002 z" /></g><g
                   id="g112"><path
                     id="path114"
                     style="fill:#ed7d31;fill-opacity:1;fill-rule:nonzero;stroke:none"
                     d="m 406.23999,574.23999 4.48001,8.96002 h -8.95999 z" /></g><g
                   id="g116"><path
                     id="path118"
                     style="fill:none;stroke:#ed7d31;stroke-width:1.27999997;stroke-linecap:butt;stroke-linejoin:round;stroke-miterlimit:10;stroke-dasharray:none;stroke-opacity:1"
                     d="m 406.23999,574.23999 4.48001,8.96002 h -8.95999 z" /></g><g
                   id="g120"><path
                     id="path122"
                     style="fill:#ed7d31;fill-opacity:1;fill-rule:nonzero;stroke:none"
                     d="m 506.88,622.08002 4.47999,8.95996 h -8.96 z" /></g><g
                   id="g124"><path
                     id="path126"
                     style="fill:none;stroke:#ed7d31;stroke-width:1.27999997;stroke-linecap:butt;stroke-linejoin:round;stroke-miterlimit:10;stroke-dasharray:none;stroke-opacity:1"
                     d="m 506.88,622.08002 4.47999,8.95996 h -8.96 z" /></g><g
                   id="g128"><path
                     id="path130"
                     style="fill:#ed7d31;fill-opacity:1;fill-rule:nonzero;stroke:none"
                     d="m 605.59998,664.64001 4.48004,8.79999 H 601.12 Z" /></g><g
                   id="g132"><path
                     id="path134"
                     style="fill:none;stroke:#ed7d31;stroke-width:1.27999997;stroke-linecap:butt;stroke-linejoin:round;stroke-miterlimit:10;stroke-dasharray:none;stroke-opacity:1"
                     d="m 605.59998,664.64001 4.48004,8.79999 H 601.12 Z" /></g><g
                   id="g136"><path
                     id="path138"
                     style="fill:#4472c4;fill-opacity:1;fill-rule:nonzero;stroke:none"
                     d="m 301.76001,483.84 v 0 0 c 0.63998,0.32 0.95999,1.11999 0.63998,1.76001 -0.32,0.63998 -1.11999,0.79998 -1.75998,0.47998 v 0 0 C 300,485.76001 299.67999,484.95999 300,484.32001 c 0.32001,-0.64002 1.12,-0.96002 1.76001,-0.48001 z m 4.79999,2.39999 v 0 0 c 0.64001,0.32001 0.79999,1.12 0.48001,1.76001 -0.32001,0.64001 -1.12,0.95999 -1.76001,0.64001 v 0 0 c -0.63999,-0.32 -0.95999,-1.12002 -0.63999,-1.76001 0.47999,-0.64001 1.28,-0.95999 1.91999,-0.64001 z m 4.64001,2.40002 v 0 0 c 0.63999,0.31998 0.95999,1.12 0.63999,1.75998 -0.32001,0.64002 -1.12,0.96 -1.76001,0.64002 v 0 C 309.44,490.72 309.12,489.92001 309.44,489.12 c 0.32001,-0.63999 1.12,-0.79999 1.76001,-0.47999 z m 4.79999,2.4 v 0 0 c 0.64001,0.31998 0.95999,1.11999 0.64001,1.75998 -0.32,0.64001 -1.12002,0.96002 -1.76001,0.48001 v 0 c -0.64001,-0.32001 -0.95999,-1.12 -0.64001,-1.76001 C 314.56,490.88 315.35999,490.72 316,491.04001 Z m 4.64001,2.39999 v 0 0 c 0.79999,0.32001 0.96,1.12 0.63999,1.76001 -0.32001,0.63999 -1.12,0.95999 -1.76001,0.63999 v 0 C 318.88,495.51999 318.56,494.72 318.88,494.07999 319.20001,493.44 320,493.12 320.64001,493.44 Z m 4.79999,2.4 v 0 c 0.63999,0.32 0.95999,1.11999 0.63999,1.76001 -0.31998,0.63998 -1.12,0.95999 -1.75998,0.63998 v 0 c -0.64002,-0.31998 -0.96002,-1.11999 -0.64002,-1.75998 0.32001,-0.80002 1.12,-0.96002 1.76001,-0.64001 z m 4.79999,2.39999 v 0 c 0.64001,0.32001 0.96002,1.12 0.64001,1.76001 -0.32,0.64001 -1.11999,0.95999 -1.92001,0.64001 v 0 C 328.32001,500.16 328.16,499.35999 328.48001,498.72 c 0.31998,-0.64001 1.12,-0.79999 1.75998,-0.48001 z m 4.80002,2.40002 v 0 c 0.63998,0.31998 0.79999,1.12 0.47998,1.75998 -0.31998,0.64002 -1.12,0.80002 -1.75998,0.48001 v 0 c -0.64001,-0.32 -0.96002,-1.11999 -0.64001,-1.76 0.32,-0.63999 1.11999,-0.96 1.92001,-0.47999 z m 4.63998,2.4 v 0 c 0.64002,0.31998 0.96002,1.11999 0.64002,1.75998 C 340,505.44 339.20001,505.76001 338.56,505.44 v 0 c -0.79999,-0.32 -0.95999,-1.11999 -0.63999,-1.76001 0.31998,-0.63998 1.12,-0.95999 1.75998,-0.63998 z m 4.80002,2.39999 v 0 c 0.63999,0.32001 0.79999,1.12 0.47998,1.76001 C 344.64001,507.84 343.84,508.16 343.20001,507.84 v 0 c -0.64001,-0.32001 -0.96002,-1.12 -0.48001,-1.91999 0.32001,-0.64001 1.12,-0.80001 1.76001,-0.48001 z m 4.63999,2.4 v 0 c 0.64001,0.32 0.95999,1.11999 0.64001,1.76001 -0.32001,0.63998 -1.12,0.79998 -1.76001,0.47998 v 0 c -0.64001,-0.31998 -0.95999,-1.12 -0.64001,-1.75998 0.32,-0.64002 1.12002,-0.80002 1.76001,-0.48001 z m 4.80001,2.39999 v 0 c 0.63999,0.32001 0.95999,1.12 0.47998,1.76001 -0.32,0.64001 -1.11999,0.96002 -1.75998,0.64001 v 0 C 352,512.32001 351.84,511.51999 352.16,510.88 c 0.32001,-0.64001 1.12,-0.95999 1.76001,-0.64001 z m 4.63999,2.40002 v 0 c 0.79999,0.32001 0.95999,1.12 0.64001,1.76001 -0.32001,0.63996 -1.12002,0.95996 -1.76001,0.63996 v 0 c -0.64001,-0.32001 -0.95999,-1.12 -0.64001,-1.75995 0.32001,-0.80005 1.12002,-0.96002 1.76001,-0.64002 z m 4.79999,2.56 v 0 c 0.64001,0.32001 0.80001,1.12 0.48001,1.76001 -0.32001,0.63996 -1.12,0.95996 -1.76001,0.63996 v 0 C 361.44,517.12 361.12,516.32001 361.44,515.67999 c 0.32001,-0.64001 1.12,-0.79999 1.91999,-0.47998 z M 368,517.59998 v 0 c 0.64001,0.32 0.95999,1.11999 0.64001,1.76 C 368.32001,520 367.51999,520.32001 366.88,520 v 0 c -0.80001,-0.32001 -0.95999,-1.12 -0.64001,-1.76001 0.32001,-0.64001 1.12,-0.95996 1.76001,-0.64001 z M 372.79999,520 v 0 c 0.64001,0.32001 0.80002,1.12 0.48001,1.76001 -0.32001,0.64001 -1.12,0.95996 -1.76001,0.64001 v 0 C 370.88,522.08002 370.56,521.28003 370.88,520.64001 371.35999,520 372.16,519.67999 372.79999,520 Z m 4.64001,2.40002 v 0 c 0.63999,0.31995 0.95999,1.12 0.63999,1.75995 -0.31998,0.64002 -1.12,0.96003 -1.75998,0.64002 v 0 c -0.64002,-0.32001 -0.96002,-1.12 -0.64002,-1.91999 0.32001,-0.64001 1.12,-0.79998 1.76001,-0.47998 z m 4.79999,2.39997 v 0 c 0.64001,0.32001 0.96002,1.11999 0.64001,1.76001 -0.32,0.64001 -1.11999,0.79998 -1.76,0.47998 v 0 c -0.63999,-0.32001 -0.96,-1.12 -0.63999,-1.75995 0.31998,-0.64002 1.12,-0.80005 1.75998,-0.48004 z m 4.64001,2.40002 v 0 c 0.79999,0.32001 0.96,1.12 0.63999,1.76001 -0.31998,0.63996 -1.12,0.95996 -1.75998,0.63996 v 0 c -0.64001,-0.31995 -0.96002,-1.12 -0.64001,-1.75995 0.32,-0.64002 1.11999,-0.96003 1.76,-0.64002 z m 4.79999,2.39997 v 0 c 0.64002,0.32 0.96002,1.11999 0.64002,1.76 C 392,532 391.20001,532.32001 390.56,532 v 0 c -0.63999,-0.32001 -0.95999,-1.12 -0.63999,-1.76001 0.31998,-0.79999 1.12,-0.95996 1.75998,-0.64001 z M 396.48001,532 v 0 c 0.63999,0.32001 0.95999,1.12 0.63999,1.76001 -0.32001,0.64001 -1.12,0.95996 -1.91999,0.64001 v 0 C 394.56,533.91998 394.39999,533.12 394.72,532.47998 c 0.32001,-0.63995 1.12,-0.79999 1.76001,-0.47998 z m 4.63999,2.40002 v 0 c 0.64001,0.31995 0.95999,1.12 0.64001,1.75995 -0.32001,0.64002 -1.12,0.96003 -1.76001,0.64002 v 0 c -0.64001,-0.32001 -0.95999,-1.12 -0.64001,-1.76001 0.32,-0.63996 1.12002,-0.95996 1.76001,-0.63996 z m 4.80001,2.39997 v 0 C 406.56,537.12 406.88,537.91998 406.56,538.56 c -0.32001,0.64001 -1.12,0.96002 -1.76001,0.64001 v 0 C 404,538.88 403.84,538.08002 404.16,537.44 c 0.32001,-0.79999 1.12,-0.96002 1.76001,-0.64001 z m 4.79999,2.40002 v 0 c 0.63999,0.32001 0.79999,1.12 0.48001,1.76001 -0.32001,0.63996 -1.12002,0.95996 -1.76001,0.63996 v 0 c -0.64001,-0.31995 -0.95999,-1.12 -0.48001,-1.91999 0.32001,-0.64001 1.12,-0.79999 1.76001,-0.47998 z m 4.63999,2.39997 v 0 c 0.64001,0.32 0.96002,1.11999 0.64001,1.76 -0.32001,0.64002 -1.12,0.79999 -1.76001,0.48005 v 0 c -0.63998,-0.32001 -0.95999,-1.12006 -0.63998,-1.76001 0.32,-0.64002 1.11999,-0.79999 1.75998,-0.48004 z M 420.16,544 v 0 c 0.63999,0.32001 0.96,1.12 0.48001,1.76001 -0.32,0.64001 -1.12002,0.95996 -1.76001,0.64001 v 0 c -0.64001,-0.32 -0.80001,-1.11999 -0.48001,-1.76001 C 418.72,544 419.51999,543.67999 420.16,544 Z m 4.63999,2.40002 v 0 c 0.80002,0.31995 0.96002,1.12 0.64001,1.75995 -0.32,0.64002 -1.11999,0.96003 -1.76001,0.64002 v 0 c -0.63998,-0.32001 -0.95999,-1.12 -0.63998,-1.76001 0.31998,-0.79999 1.11999,-0.95996 1.75998,-0.63996 z m 4.80002,2.39997 v 0 c 0.63998,0.32001 0.95999,1.11999 0.63998,1.76001 -0.31998,0.64001 -1.11999,0.96002 -1.75998,0.64001 v -0.16003 c -0.64001,-0.32001 -0.96002,-1.12 -0.64001,-1.75995 0.32,-0.64002 1.11999,-0.80005 1.76001,-0.48004 z m 4.79998,2.40002 v 0 c 0.64002,0.32001 0.80002,1.12 0.48001,1.76001 -0.32,0.63996 -1.11999,0.95996 -1.76,0.63996 v 0 c -0.63999,-0.31995 -0.96,-1.12 -0.63999,-1.75995 0.31998,-0.64002 1.12,-0.96003 1.91998,-0.64002 z m 4.64002,2.39997 v 0 c 0.63998,0.32 0.95999,1.11999 0.63998,1.76 C 439.35999,556 438.56,556.32001 437.92001,556 v 0 c -0.64001,-0.32001 -0.96002,-1.12 -0.64001,-1.76001 0.32001,-0.79999 1.11999,-0.95996 1.76001,-0.64001 z m 4.63998,2.55999 v 0 c 0.64002,0.32001 0.96002,1.12006 0.64002,1.76001 C 444,558.56 443.20001,558.88 442.56,558.56 v 0 c -0.63999,-0.32001 -0.95999,-1.12 -0.63999,-1.91999 0.31998,-0.64001 1.12,-0.79998 1.75998,-0.48004 z m 4.80002,2.40003 v 0 c 0.63999,0.32 0.95999,1.11999 0.63999,1.76001 -0.32001,0.64001 -1.12,0.79999 -1.76001,0.47998 v 0 c -0.63999,-0.32001 -0.96,-1.12 -0.63999,-1.76001 0.32001,-0.63996 1.12,-0.79999 1.76001,-0.47998 z m 4.63999,2.40002 v 0 c 0.80001,0.32001 0.95999,1.12 0.64001,1.75995 -0.32001,0.64001 -1.12,0.96002 -1.76001,0.64001 v 0 c -0.64001,-0.32 -0.95999,-1.11999 -0.64001,-1.76 0.32,-0.63996 1.12002,-0.95997 1.76001,-0.63996 z m 4.80001,2.39996 v 0 c 0.63999,0.32001 0.95999,1.12 0.63999,1.76002 -0.32001,0.64001 -1.12,0.96002 -1.76001,0.64001 v 0 C 456.16,565.44 455.84,564.64001 456.16,564 c 0.32001,-0.79999 1.12,-0.96002 1.76001,-0.64002 z m 4.79999,2.40003 v 0 c 0.63999,0.32001 0.95999,1.11999 0.63999,1.76001 -0.31998,0.63995 -1.12,0.95996 -1.91999,0.63995 V 568 c -0.64001,-0.32001 -0.79999,-1.12 -0.48001,-1.76001 0.32001,-0.64001 1.12,-0.79999 1.76001,-0.47998 z m 4.63999,2.39996 v 0 c 0.64001,0.32001 0.96002,1.12006 0.64001,1.76001 -0.32001,0.64002 -1.12,0.96002 -1.76001,0.64002 v 0 c -0.63998,-0.32001 -0.95999,-1.12 -0.63998,-1.76001 0.32,-0.64002 1.11999,-0.95996 1.75998,-0.64002 z M 472.16,570.56 v 0 c 0.63999,0.32 0.96,1.11999 0.63999,1.76001 -0.31998,0.64001 -1.12,0.96002 -1.75998,0.64001 v 0 c -0.80002,-0.32001 -0.96002,-1.11999 -0.64002,-1.76001 0.32001,-0.79999 1.12,-0.96002 1.76001,-0.64001 z m 4.79999,2.40002 v 0 c 0.64002,0.32001 0.80002,1.12 0.48001,1.75995 -0.32,0.64001 -1.11999,0.96002 -1.76001,0.64001 v 0 c -0.63998,-0.32 -0.95999,-1.11999 -0.47998,-1.91998 0.31998,-0.64001 1.12,-0.79999 1.75998,-0.47998 z m 4.80002,2.39996 v 0 c 0.63998,0.48005 0.79999,1.28003 0.31998,1.92005 -0.31998,0.63995 -1.12,0.79999 -1.75998,0.31995 v 0 c -0.64002,-0.31995 -0.80002,-1.27997 -0.32001,-1.75995 0.32001,-0.64002 1.12,-0.80005 1.76001,-0.48005 z m 4.63998,2.40003 v 0 c 0.64002,0.32001 0.96,1.11999 0.48001,1.76001 -0.32,0.63995 -1.11999,0.95996 -1.76,0.63995 v 0 c -0.63999,-0.31994 -0.79999,-1.11999 -0.47999,-1.75995 0.31998,-0.64001 1.12,-0.96002 1.75998,-0.64001 z m 4.64002,2.39996 v 0 c 0.79999,0.32001 0.95999,1.12006 0.63998,1.76001 -0.32,0.64002 -1.11999,0.96002 -1.75998,0.64002 v 0 c -0.64001,-0.32001 -0.96002,-1.12 -0.64001,-1.91999 0.32001,-0.64001 1.11999,-0.79998 1.76001,-0.48004 z M 495.84,582.56 v 0 c 0.64001,0.32 0.95999,1.11999 0.64001,1.76001 -0.32001,0.64001 -1.12002,0.96002 -1.76001,0.47998 v 0 c -0.64001,-0.32001 -0.95999,-1.12 -0.64001,-1.76001 0.32,-0.63996 1.12002,-0.79999 1.76001,-0.47998 z m 4.80001,2.40002 v 0 c 0.63999,0.32001 0.79999,1.12 0.47999,1.75995 -0.32001,0.64001 -1.12,0.96002 -1.76001,0.64001 v 0 c -0.63999,-0.32 -0.96,-1.11999 -0.63999,-1.76 0.32001,-0.63996 1.12,-0.95997 1.92001,-0.63996 z m 4.63999,2.39996 v 0 c 0.64001,0.32001 0.95999,1.12 0.64001,1.76002 -0.32,0.64001 -1.12002,0.96002 -1.76001,0.64001 v 0 c -0.64001,-0.32001 -0.95999,-1.12 -0.64001,-1.76001 0.32001,-0.79999 1.12002,-0.96002 1.76001,-0.64002 z m 4.79999,2.40003 v 0 c 0.64001,0.32001 0.96002,1.11999 0.64001,1.76001 -0.32001,0.63995 -1.11999,0.95996 -1.76001,0.63995 v 0 C 508.16,591.67999 508,591.03998 508.32001,590.23999 c 0.32,-0.64001 1.11999,-0.79999 1.75998,-0.47998 z m 4.63998,2.39996 v 0 c 0.64001,0.32001 0.96002,1.12006 0.64001,1.76001 -0.32,0.64002 -1.11999,0.96002 -1.76,0.64002 v 0 c -0.63996,-0.32001 -0.95997,-1.12 -0.63996,-1.76001 0.32001,-0.64002 1.12,-0.95996 1.75995,-0.64002 z m 4.80005,2.40003 v 0 c 0.63995,0.32 0.95996,1.11999 0.63995,1.76001 -0.31994,0.64001 -1.11999,0.96002 -1.75995,0.64001 v 0 c -0.64001,-0.32001 -0.96002,-1.11999 -0.64001,-1.76001 0.32001,-0.64001 1.11999,-0.96002 1.76001,-0.64001 z m 4.63995,2.56 v 0 c 0.64002,0.32 0.96003,1.11999 0.64002,1.76 -0.32001,0.64002 -1.12,0.96003 -1.76001,0.64002 v 0 c -0.63996,-0.32001 -0.95996,-1.12 -0.63996,-1.92004 0.31995,-0.63996 1.12,-0.79999 1.75995,-0.47998 z m 4.80005,2.40002 v 0 c 0.63996,0.32001 0.95996,1.11999 0.63996,1.76001 -0.31995,0.63995 -1.12,0.95996 -1.91999,0.47998 v 0 C 527.03998,601.44 526.88,600.64001 527.20001,600 c 0.32001,-0.64002 1.12,-0.79999 1.76001,-0.47998 z m 4.63996,2.39996 v 0 c 0.64001,0.32001 0.96002,1.12 0.64001,1.76001 -0.32001,0.64002 -1.11999,0.96002 -1.76001,0.64002 v 0 c -0.63995,-0.32001 -0.95996,-1.12 -0.63995,-1.76001 0.31994,-0.64002 1.11999,-0.96002 1.75995,-0.64002 z m 4.80004,2.40003 v 0 c 0.63996,0.32 0.95996,1.11999 0.63996,1.76001 -0.32001,0.63995 -1.12,0.95996 -1.75995,0.63995 v 0 c -0.80005,-0.31995 -0.96002,-1.11999 -0.64002,-1.75995 0.32001,-0.80005 1.12,-0.96002 1.76001,-0.64001 z m 4.79999,2.39996 v 0 c 0.64002,0.32001 0.79999,1.12006 0.47998,1.76001 C 543.35998,609.12 542.56,609.44 541.91998,609.12 v 0 c -0.63995,-0.47999 -0.95996,-1.12 -0.47998,-1.91999 0.32001,-0.64001 1.12,-0.79999 1.76001,-0.48004 z m 4.64002,2.40003 v 0 c 0.63995,0.32 0.95996,1.11999 0.63995,1.76 -0.32001,0.64002 -1.12,0.96003 -1.76001,0.64002 v 0 c -0.63995,-0.32001 -0.95996,-1.12 -0.63995,-1.76001 0.32,-0.64001 1.11999,-0.96002 1.76001,-0.64001 z m 4.79998,2.40002 v 0 c 0.64002,0.32001 0.95997,1.11999 0.47999,1.76001 -0.32001,0.63995 -1.12,0.95996 -1.76002,0.63995 v 0 c -0.64001,-0.32 -0.79998,-1.11999 -0.47998,-1.76001 0.32001,-0.63995 1.12,-0.95996 1.76001,-0.63995 z m 4.64002,2.39996 v 0 c 0.79999,0.32001 0.95996,1.12 0.63995,1.76001 -0.32,0.64002 -1.11999,0.96002 -1.76001,0.64002 v 0 c -0.63995,-0.32001 -0.95996,-1.12 -0.63995,-1.91999 0.32001,-0.64001 1.11999,-0.80004 1.76001,-0.48004 z m 4.79999,2.40003 v 0 c 0.63995,0.32 0.95996,1.11999 0.63995,1.76001 -0.31995,0.63995 -1.11999,0.95996 -1.75995,0.47998 v 0 c -0.64001,-0.32001 -0.96002,-1.12 -0.64001,-1.76001 0.32,-0.64002 1.11999,-0.79999 1.76001,-0.47998 z m 4.79998,2.39996 v 0 c 0.64002,0.32001 0.79999,1.12006 0.47998,1.76001 -0.32,0.64002 -1.11999,0.96002 -1.76,0.64002 v 0 c -0.63996,-0.32001 -0.95997,-1.12 -0.63996,-1.76002 0.32001,-0.64001 1.12,-0.95996 1.91998,-0.64001 z m 4.64002,2.40003 v 0 c 0.63995,0.32 0.95996,1.11999 0.63995,1.76 -0.31994,0.64002 -1.11999,0.96003 -1.75995,0.64002 v 0 c -0.64001,-0.32001 -0.96002,-1.12 -0.64001,-1.76001 0.32001,-0.79999 1.11999,-0.96002 1.76001,-0.64001 z m 4.79999,2.40002 v 0 c 0.64001,0.32001 0.96002,1.11999 0.64001,1.76001 -0.32001,0.63995 -1.11999,0.95996 -1.76001,0.63995 v 0 C 574.40002,625.44 574.23999,624.64001 574.56,624 c 0.32,-0.64002 1.11999,-0.79999 1.76001,-0.47998 z m 4.64001,2.39996 v 0 c 0.63996,0.32001 0.95996,1.12 0.63996,1.76001 -0.31995,0.64002 -1.12,0.96002 -1.75995,0.64002 v 0 C 579.20001,628 578.88,627.20001 579.20001,626.56 c 0.32001,-0.64002 1.12,-0.96002 1.76001,-0.64002 z m 4.79999,2.40003 v 0 c 0.64001,0.32 0.95996,1.11999 0.64001,1.76001 -0.32,0.63995 -1.11999,0.95996 -1.76001,0.63995 v 0 C 584,630.40002 583.67999,629.59998 584,628.96002 c 0.32001,-0.64001 1.12,-0.96002 1.76001,-0.64001 z m 4.79999,2.39996 v 0 c 0.64001,0.32001 0.96002,1.12006 0.64001,1.76001 -0.48004,0.64002 -1.28003,0.96002 -1.91998,0.64002 v 0 c -0.64002,-0.32001 -0.80005,-1.12 -0.48004,-1.91999 0.32001,-0.64001 1.11999,-0.79999 1.76001,-0.48004 z m 4.64001,2.40003 v 0 c 0.79999,0.32 0.95996,1.11999 0.64002,1.76 -0.32001,0.64002 -1.12006,0.96003 -1.76001,0.47998 v 0 c -0.64002,-0.32 -0.96002,-1.11999 -0.64002,-1.76 0.32001,-0.63996 1.12,-0.79999 1.76001,-0.47998 z m 4.95996,2.55999 v 0 c 0.64002,0.47998 0.64002,1.28003 0.16004,1.91999 -0.32001,0.64001 -1.28003,0.64001 -1.76001,0.32 v 0 C 597.91998,637.44 597.76001,636.64001 598.23999,636 c 0.47998,-0.64002 1.28003,-0.64002 1.91998,-0.32001 z m 4.48004,2.40003 v 0 c 0.64002,0.32 0.95997,1.11999 0.64002,1.76001 -0.32001,0.63995 -1.12006,0.95996 -1.76001,0.63995 v 0 c -0.80005,-0.32001 -0.96002,-1.12 -0.64002,-1.76001 0.32001,-0.79999 1.12,-0.95996 1.76001,-0.63995 z" /></g><g
                   id="g140"><path
                     id="path142"
                     style="fill:#ed7d31;fill-opacity:1;fill-rule:nonzero;stroke:none"
                     d="m 301.76001,516.96002 v 0 0 c 0.63998,0.32001 0.95999,1.12 0.63998,1.75995 -0.32,0.64001 -1.11999,0.96002 -1.75998,0.64001 v 0 0 c -0.64001,-0.32 -0.96002,-1.11999 -0.64001,-1.76 0.32001,-0.63996 1.12,-0.95997 1.76001,-0.63996 z m 4.79999,2.39996 v 0 0 c 0.64001,0.32001 0.79999,1.12 0.48001,1.76002 -0.32001,0.64001 -1.12,0.96002 -1.76001,0.64001 v 0 0 c -0.63999,-0.32001 -0.79999,-1.12 -0.48001,-1.76001 0.32001,-0.64002 1.12002,-0.96002 1.76001,-0.64002 z m 4.64001,2.40003 v 0 0 C 312,522.08002 312.16,522.88 311.84,523.52002 c -0.32001,0.63995 -1.12,0.95996 -1.76001,0.63995 v 0 C 309.44,523.84003 309.12,523.03998 309.44,522.40002 c 0.32001,-0.64001 1.12,-0.96002 1.76001,-0.64001 z M 316,524.15997 v 0 0 c 0.64001,0.32001 0.95999,1.12006 0.64001,1.76001 -0.32,0.64002 -1.12002,0.96002 -1.76001,0.64002 v 0 c -0.64001,-0.32001 -0.95999,-1.12 -0.64001,-1.91999 C 314.56,524 315.35999,523.84003 316,524.15997 Z m 4.79999,2.40003 v 0 0 c 0.64001,0.32 0.80002,1.11999 0.48001,1.76001 -0.32001,0.64001 -1.12,0.96002 -1.76001,0.64001 v 0 C 318.88,528.64001 318.56,527.84003 318.88,527.20001 319.20001,526.56 320,526.23999 320.79999,526.56 Z m 4.64001,2.40002 v 0 c 0.63999,0.32001 0.95999,1.12 0.63999,1.75995 -0.31998,0.64001 -1.12,0.96002 -1.75998,0.64001 v 0 c -0.64002,-0.32 -0.96002,-1.11999 -0.64002,-1.76 0.32001,-0.63996 1.12,-0.95997 1.76001,-0.63996 z m 4.79999,2.39996 v 0 c 0.64001,0.32001 0.96002,1.12 0.64001,1.76002 -0.32,0.64001 -1.11999,0.96002 -1.76,0.64001 h -0.16001 C 328.32001,533.44 328.16,532.64001 328.48001,532 c 0.31998,-0.79999 1.12,-0.96002 1.75998,-0.64002 z m 4.64001,2.56 v 0 c 0.63999,0.32001 0.96,1.12 0.63999,1.76001 -0.31998,0.64002 -1.12,0.96002 -1.75998,0.64002 v 0 c -0.80002,-0.47998 -0.96002,-1.12 -0.64001,-1.91999 0.32,-0.64001 1.11999,-0.80004 1.76,-0.48004 z m 4.63999,2.40003 v 0 c 0.80002,0.32 0.96002,1.11999 0.64001,1.76001 -0.32,0.63995 -1.11999,0.95996 -1.76001,0.63995 v 0 c -0.63998,-0.31995 -0.95999,-1.11999 -0.63998,-1.75995 0.31998,-0.64001 1.11999,-0.96002 1.75998,-0.64001 z m 4.80002,2.39996 v 0 c 0.63998,0.32001 0.95999,1.12006 0.63998,1.76001 C 344.64001,541.12 343.84,541.44 343.20001,541.12 v 0 C 342.56,540.79999 342.23999,540 342.56,539.35998 c 0.32,-0.64001 1.11999,-0.95996 1.76001,-0.64001 z M 349.12,541.12 v 0 c 0.64001,0.32 0.95999,1.11999 0.64001,1.76 -0.48001,0.64002 -1.28,0.96003 -1.92001,0.64002 v 0 c -0.63999,-0.32001 -0.79999,-1.12 -0.48001,-1.92004 0.32,-0.63996 1.12002,-0.79999 1.76001,-0.47998 z m 4.64001,2.40002 v 0 c 0.63998,0.32001 0.95999,1.11999 0.63998,1.76001 -0.32,0.63995 -1.11999,0.95996 -1.75998,0.63995 v 0 C 352,545.59998 351.67999,544.79999 352,544.15997 c 0.32001,-0.63995 1.12,-0.95996 1.76001,-0.63995 z m 4.79999,2.39996 v 0 c 0.64001,0.32001 0.95999,1.12 0.64001,1.76001 -0.32001,0.64002 -1.12002,0.96002 -1.92001,0.64002 v 0 c -0.63999,-0.32001 -0.79999,-1.12 -0.48001,-1.76001 0.32001,-0.64002 1.12002,-0.96002 1.76001,-0.64002 z m 4.79999,2.40003 v 0 c 0.64001,0.32 0.80001,1.11999 0.48001,1.76001 -0.32001,0.63995 -1.12,0.95996 -1.76001,0.63995 v 0 C 361.44,550.40002 361.12,549.59998 361.44,548.96002 c 0.48001,-0.80005 1.28,-0.96002 1.91999,-0.64001 z M 368,550.71997 v 0 c 0.64001,0.32001 0.95999,1.12006 0.64001,1.76001 -0.32,0.64002 -1.12002,0.96002 -1.76001,0.64002 v 0 c -0.80001,-0.32001 -0.95999,-1.12 -0.64001,-1.76002 0.32001,-0.64001 1.12,-0.95996 1.76001,-0.64001 z m 4.79999,2.40003 v 0 c 0.64001,0.32 0.80002,1.11999 0.48001,1.76 -0.32001,0.64002 -1.12,0.96003 -1.76001,0.64002 v 0 c -0.63999,-0.32001 -0.79999,-1.12 -0.47998,-1.76001 0.31998,-0.64001 1.11999,-0.96002 1.75998,-0.64001 z m 4.64001,2.40002 v 0 c 0.79999,0.32001 0.95999,1.11999 0.63999,1.76001 -0.31998,0.63995 -1.12,0.95996 -1.75998,0.63995 v 0 c -0.64002,-0.32 -0.96002,-1.11999 -0.64002,-1.76001 0.32001,-0.63995 1.12,-0.95996 1.76001,-0.63995 z m 4.79999,2.39996 v 0 c 0.64001,0.32001 0.96002,1.12 0.64001,1.76001 -0.32,0.64002 -1.11999,0.96002 -1.76,0.64002 v 0 c -0.63999,-0.32001 -0.96,-1.12 -0.63999,-1.91999 0.31998,-0.64001 1.12,-0.80004 1.75998,-0.48004 z m 4.80002,2.40003 v 0 c 0.63998,0.32 0.79999,1.11999 0.47998,1.76001 -0.31998,0.63995 -1.12,0.95996 -1.75998,0.63995 v 0 c -0.64001,-0.31995 -0.96002,-1.11999 -0.64001,-1.75995 0.32,-0.64001 1.11999,-0.96002 1.92001,-0.64001 z m 4.63998,2.55999 v 0 c 0.64002,0.32001 0.80002,1.12 0.48001,1.76001 -0.32,0.64002 -1.11999,0.95997 -1.76001,0.64002 v 0 c -0.63998,-0.32001 -0.95999,-1.12006 -0.63998,-1.76001 C 390.23999,562.88 390.88,562.56 391.67999,562.88 Z m 4.64002,2.40003 v 0 c 0.63998,0.31995 0.95999,1.11999 0.63998,1.75995 -0.31998,0.64001 -1.11999,0.96002 -1.75998,0.64001 v 0 C 394.56,567.35998 394.23999,566.56 394.56,565.91998 c 0.32,-0.79998 1.11999,-0.95996 1.76001,-0.63995 z m 4.79999,2.39996 v 0 c 0.64001,0.32001 0.80001,1.12 0.48001,1.76001 -0.32001,0.64002 -1.12,0.96002 -1.76001,0.64002 v 0 c -0.63999,-0.32001 -0.79999,-1.12 -0.48001,-1.76001 0.32,-0.64002 1.12002,-0.96003 1.76001,-0.64002 z m 4.64001,2.40003 v 0 c 0.79999,0.32 0.95999,1.11999 0.63998,1.76001 -0.32,0.63995 -1.11999,0.95996 -1.75998,0.63995 v 0 C 404,572.15997 403.67999,571.35998 404,570.71997 c 0.32001,-0.63995 1.12,-0.95996 1.76001,-0.63995 z m 4.79999,2.39996 v 0 c 0.64001,0.32001 0.95999,1.12 0.64001,1.76001 C 410.88,574.88 410.07999,575.20001 409.44,574.88 v 0 c -0.64001,-0.32 -0.95999,-1.11999 -0.64001,-1.76 0.32001,-0.64002 1.12002,-0.96003 1.76001,-0.64002 z m 4.79999,2.40002 v 0 C 416,575.20001 416.32001,576 416,576.64001 c -0.48001,0.64002 -1.28,0.95997 -1.92001,0.64002 v 0 c -0.63999,-0.32001 -0.79999,-1.12006 -0.47998,-1.92005 0.32,-0.64001 1.11999,-0.79998 1.75998,-0.47998 z M 420,577.28003 v 0 c 0.64001,0.31995 0.95999,1.11999 0.64001,1.75995 -0.32,0.64001 -1.12002,0.96002 -1.76001,0.64001 v 0 c -0.64001,-0.32001 -0.95999,-1.11999 -0.64001,-1.76001 0.32001,-0.63995 1.12,-0.95996 1.76001,-0.63995 z m 4.79999,2.39996 v 0 c 0.64001,0.32001 0.96002,1.12 0.64001,1.76001 -0.32,0.64002 -1.11999,0.96002 -1.92001,0.64002 v 0 c -0.63999,-0.32001 -0.79999,-1.12 -0.47998,-1.76001 0.31998,-0.64002 1.11999,-0.96003 1.75998,-0.64002 z m 4.80002,2.40003 v 0 c 0.63998,0.32 0.79998,1.11999 0.47998,1.76001 -0.31998,0.63995 -1.12,0.95996 -1.75998,0.63995 v 0 c -0.64002,-0.32001 -0.96002,-1.12 -0.64002,-1.76001 0.48001,-0.79999 1.28,-0.95996 1.92002,-0.63995 z m 4.63998,2.39996 v 0 c 0.64001,0.32001 0.96002,1.12 0.64001,1.76001 -0.32,0.64001 -1.11999,0.96002 -1.76,0.64001 v 0 c -0.79999,-0.32 -0.96,-1.11999 -0.63999,-1.76 0.31998,-0.64002 1.12,-0.96003 1.75998,-0.64002 z m 4.80002,2.40002 v 0 c 0.63998,0.32001 0.79999,1.12 0.47998,1.76001 -0.31998,0.64002 -1.12,0.95997 -1.75998,0.64002 v 0 c -0.64001,-0.32001 -0.80002,-1.12006 -0.48001,-1.76001 0.32001,-0.64002 1.11999,-0.96002 1.76001,-0.64002 z m 4.63998,2.56 v 0 c 0.64002,0.32001 0.96002,1.12 0.64002,1.76001 -0.48001,0.64002 -1.28,0.95996 -1.92002,0.64002 v 0 c -0.63998,-0.32001 -0.79998,-1.12006 -0.47998,-1.76001 0.31998,-0.64002 1.12,-0.96002 1.75998,-0.64002 z m 4.64002,2.40003 h 0.16 c 0.63999,0.31994 0.79999,1.11999 0.47998,1.75995 -0.31998,0.64001 -1.11999,0.96002 -1.75998,0.64001 v 0 C 446.56,593.91998 446.23999,593.12 446.56,592.32001 c 0.32,-0.64002 1.11999,-0.79999 1.76001,-0.47998 z m 4.79999,2.39996 v 0 c 0.64001,0.32001 0.95999,1.11999 0.64001,1.76001 -0.32001,0.64001 -1.12,0.96002 -1.92001,0.64001 v 0 c -0.63999,-0.32 -0.79999,-1.11999 -0.48001,-1.76001 0.32,-0.64001 1.12002,-0.96002 1.76001,-0.64001 z m 4.80001,2.40002 v 0 c 0.63999,0.32001 0.79999,1.12 0.47998,1.76001 -0.32,0.63996 -1.11999,0.95996 -1.75998,0.63996 v 0 C 456,598.71997 455.67999,597.91998 456,597.28003 c 0.48001,-0.64002 1.12,-0.96002 1.92001,-0.64002 z m 4.63999,2.39997 v 0 c 0.64001,0.32 0.95999,1.11999 0.64001,1.76001 C 462.88,601.44 462.07999,601.76001 461.44,601.44 v 0 c -0.64001,-0.32 -0.95999,-1.11999 -0.64001,-1.76001 0.32001,-0.79999 1.12002,-0.96002 1.76001,-0.64001 z m 4.79999,2.40002 v 0 c 0.64001,0.32001 0.80001,1.12 0.48001,1.76001 -0.32001,0.64002 -1.12,0.95996 -1.76001,0.64002 v 0 C 465.44,603.52002 465.28,602.71997 465.60001,602.08002 465.92001,601.44 466.72,601.12 467.35999,601.44 Z M 472,603.84003 v 0 c 0.79999,0.31994 0.95999,1.11999 0.64001,1.75995 -0.32,0.64001 -1.12002,0.96002 -1.76001,0.64001 v 0 c -0.64001,-0.32001 -0.95999,-1.11999 -0.64001,-1.76001 0.32001,-0.63995 1.12,-0.95996 1.76001,-0.63995 z m 4.79999,2.39996 v 0 C 477.44,606.56 477.76001,607.35998 477.44,608 c -0.32,0.64001 -1.11999,0.96002 -1.76001,0.64001 v 0 c -0.63998,-0.32 -0.95999,-1.11999 -0.63998,-1.76001 0.31998,-0.79998 1.11999,-0.96002 1.75998,-0.64001 z m 4.96002,2.40002 v 0 c 0.47998,0.47999 0.63998,1.27997 0.31998,1.91999 -0.47998,0.64001 -1.28,0.79998 -1.91999,0.32 v 0 c -0.48001,-0.32 -0.64001,-1.28002 -0.32,-1.76 0.48001,-0.64002 1.28,-0.79999 1.92001,-0.47999 z m 4.47998,2.39997 v 0 c 0.64001,0.32 0.96002,1.11999 0.64001,1.76001 -0.32,0.64001 -1.11999,0.96002 -1.76,0.64001 v 0 c -0.63999,-0.32 -0.96,-1.11999 -0.63999,-1.76001 0.31998,-0.64001 1.12,-0.96002 1.75998,-0.64001 z m 4.80002,2.40002 v 0 c 0.63998,0.32001 0.95999,1.12 0.63998,1.76001 -0.32,0.64002 -1.11999,0.95996 -1.75998,0.64002 h -0.16 c -0.64001,-0.32001 -0.80002,-1.12006 -0.48001,-1.76001 0.32001,-0.64002 1.11999,-0.96002 1.76001,-0.64002 z m 4.79999,2.40003 v 0 c 0.64001,0.31994 0.80001,1.11999 0.48001,1.75995 -0.32001,0.64001 -1.12,0.96002 -1.76001,0.64001 v 0 c -0.63999,-0.32001 -0.95999,-1.11999 -0.63999,-1.76001 0.47998,-0.79999 1.28,-0.95996 1.91999,-0.63995 z m 4.48001,2.55999 v 0 c 0.79999,0.31995 0.95999,1.12 0.63998,1.75995 -0.31998,0.64002 -1.11999,0.96003 -1.75998,0.64002 v 0 c -0.64001,-0.32001 -0.96002,-1.12 -0.64001,-1.76001 0.32,-0.63996 1.11999,-0.95996 1.76001,-0.63996 z m 4.79999,2.39997 v 0 c 0.64001,0.32001 0.95999,1.11999 0.64001,1.76001 -0.32001,0.64001 -1.12,0.96002 -1.76001,0.64001 v 0 c -0.64001,-0.32001 -0.95999,-1.11999 -0.64001,-1.76001 0.32,-0.64001 1.12002,-0.96002 1.76001,-0.64001 z m 4.80001,2.40002 v 0 c 0.63999,0.32001 0.95999,1.12 0.63999,1.76001 -0.48001,0.63996 -1.28,0.95996 -1.91999,0.63996 v 0 C 508,625.28003 507.84,624.47998 508.16,623.84003 c 0.32001,-0.80005 1.12,-0.96003 1.76001,-0.64002 z m 4.79996,2.56 v 0 c 0.64001,0.32001 0.80005,1.11999 0.32001,1.76001 -0.32001,0.63995 -1.12,0.79999 -1.75995,0.32001 v 0 c -0.64002,-0.32001 -0.80005,-1.12006 -0.32001,-1.76001 0.32001,-0.64002 1.12,-0.79999 1.75995,-0.32001 z M 519.35998,628 v 0 c 0.64002,0.32001 0.96003,1.12 0.64002,1.76001 -0.32001,0.64001 -1.12,0.95996 -1.91998,0.64001 v 0 c -0.64002,-0.32 -0.79999,-1.11999 -0.48004,-1.76001 0.32,-0.64001 1.11999,-0.96002 1.76,-0.64001 z m 4.79999,2.40002 v 0 c 0.64002,0.31995 0.80005,1.12 0.48004,1.75995 -0.32,0.64002 -1.11999,0.96003 -1.76001,0.64002 v 0 c -0.64001,-0.32001 -0.96002,-1.12 -0.64001,-1.76001 0.47998,-0.63996 1.28003,-0.95996 1.91998,-0.63996 z m 4.64002,2.39997 v 0 c 0.64001,0.32001 0.96002,1.11999 0.64001,1.76001 -0.32,0.64001 -1.11999,0.96002 -1.76001,0.64001 v 0 c -0.64001,-0.32001 -0.96002,-1.11999 -0.64001,-1.76001 0.32,-0.79999 1.11999,-0.96002 1.76001,-0.64001 z m 4.79999,2.40002 v 0 c 0.64001,0.32001 0.80004,1.12 0.48004,1.76001 -0.32001,0.63996 -1.12,0.95996 -1.76001,0.63996 v 0 c -0.64002,-0.31995 -0.79999,-1.12 -0.47998,-1.75995 0.31994,-0.64002 1.11999,-0.96003 1.75995,-0.64002 z m 4.64001,2.39997 v 0 c 0.79999,0.32 0.96002,1.11999 0.64001,1.76 C 538.56,640 537.76001,640.32001 537.12,640 v 0 c -0.64002,-0.32001 -0.96003,-1.12 -0.64002,-1.76001 0.32001,-0.64001 1.12,-0.95996 1.76001,-0.64001 z M 543.03998,640 v 0 c 0.64001,0.32001 0.96002,1.12 0.64001,1.76001 -0.32001,0.64001 -1.11999,0.95996 -1.76001,0.64001 v 0 c -0.63995,-0.32 -0.95996,-1.11999 -0.63995,-1.76001 0.31995,-0.79998 1.11999,-0.96002 1.75995,-0.64001 z m 4.80005,2.40002 v 0 c 0.63995,0.31995 0.79998,1.12 0.47998,1.75995 -0.32001,0.64002 -1.12,0.96003 -1.76001,0.64002 v 0 c -0.64002,-0.32001 -0.96002,-1.12 -0.64002,-1.76001 0.32001,-0.63996 1.12,-0.95996 1.92005,-0.63996 z m 4.79998,2.71998 v 0 c 0.64002,0.47998 0.64002,1.28002 0.32001,1.76 -0.48004,0.64002 -1.28003,0.79999 -1.92004,0.32001 v 0 c -0.63996,-0.48004 -0.63996,-1.28003 -0.32001,-1.91998 0.48004,-0.48004 1.28003,-0.64002 1.92004,-0.16003 z m 4.47999,2.23998 v 0 c 0.64001,0.32001 0.96002,1.12 0.64001,1.76002 -0.32001,0.64001 -1.12,0.96002 -1.76001,0.64001 v 0 c -0.64002,-0.32001 -0.96002,-1.12 -0.64002,-1.76001 0.32001,-0.64002 1.12,-0.96002 1.76002,-0.64002 z m 4.79998,2.40003 v 0 c 0.64002,0.32001 0.96002,1.11999 0.64002,1.76001 -0.32001,0.63995 -1.12,0.95996 -1.76001,0.63995 v 0 c -0.79999,-0.31994 -0.95996,-1.11999 -0.64002,-1.75995 0.32001,-0.80004 1.12006,-0.96002 1.76001,-0.64001 z m 4.64002,2.39996 v 0 c 0.79998,0.32001 0.96002,1.12006 0.64001,1.76001 C 566.88,654.56 566.08002,654.88 565.44,654.56 v 0 c -0.64001,-0.32001 -0.96002,-1.12 -0.64001,-1.76001 0.32001,-0.64002 1.11999,-0.95996 1.76001,-0.64002 z m 4.79998,2.40003 v 0 c 0.64002,0.32 0.96003,1.11999 0.64002,1.76001 -0.32001,0.64001 -1.12,0.96002 -1.76001,0.64001 v 0 c -0.64001,-0.32001 -0.95996,-1.11999 -0.64001,-1.76001 0.32,-0.64001 1.11999,-0.96002 1.76,-0.64001 z m 4.79999,2.40002 v 0 c 0.64002,0.32001 0.96003,1.12 0.64002,1.75995 -0.47998,0.64001 -1.27997,0.96002 -1.91999,0.64001 v 0 c -0.64001,-0.32 -0.79998,-1.11999 -0.47998,-1.76 0.31995,-0.79999 1.12,-0.95997 1.75995,-0.63996 z m 4.64002,2.39996 v 0 c 0.64001,0.32001 0.96002,1.12 0.64001,1.76002 -0.32,0.64001 -1.11999,0.96002 -1.76001,0.64001 v 0 c -0.64001,-0.32001 -0.96002,-1.12 -0.64001,-1.76001 0.32,-0.64002 1.11999,-0.96002 1.76001,-0.64002 z m 4.79999,2.40003 v 0 c 0.64001,0.32001 0.96002,1.11999 0.64001,1.76001 -0.32001,0.63995 -1.11999,0.95996 -1.91998,0.63995 v 0 c -0.64002,-0.31994 -0.79999,-1.11999 -0.47998,-1.75995 0.31994,-0.64001 1.11999,-0.96002 1.75995,-0.64001 z m 4.80004,2.39996 v 0 c 0.63996,0.32001 0.79999,1.12006 0.47998,1.76001 -0.32,0.64002 -1.11999,0.96002 -1.76,0.64002 v 0 c -0.64002,-0.32001 -0.96003,-1.12 -0.64002,-1.76001 0.48004,-0.64002 1.28003,-0.95996 1.92004,-0.64002 z m 4.63996,2.40003 v 0 c 0.64001,0.32 0.96002,1.11999 0.64001,1.76001 -0.32001,0.64001 -1.11999,0.96002 -1.76001,0.64001 v 0 c -0.63995,-0.32001 -0.95996,-1.11999 -0.63995,-1.92004 0.31995,-0.63996 1.11999,-0.79999 1.75995,-0.47998 z m 4.80005,2.40002 v 0 c 0.63995,0.32001 0.79998,1.12 0.47998,1.75995 -0.32001,0.64001 -1.12,0.96002 -1.76001,0.64001 v 0 c -0.64002,-0.32 -0.79999,-1.11999 -0.47998,-1.76 0.32,-0.63996 1.11999,-0.95997 1.76001,-0.63996 z m 4.63995,2.39996 v 0 c 0.80005,0.32001 0.96002,1.12 0.64002,1.76002 -0.32001,0.64001 -1.12,0.96002 -1.76002,0.64001 v 0 c -0.64001,-0.32001 -0.95996,-1.12 -0.64001,-1.76001 0.32001,-0.64002 1.12006,-0.96002 1.76001,-0.64002 z" /></g></g></g><g
               transform="scale(0.04862)"
               id="g144"><text
                 id="text148"
                 style="font-variant:normal;font-weight:normal;font-size:327.67999268px;font-family:F1;-inkscape-font-specification:F1;writing-mode:lr-tb;fill:#000000;fill-opacity:1;fill-rule:nonzero;stroke:none"
                 transform="translate(2487.8401,14631)"><tspan
                   id="tspan146"
                   y="0"
                   x="0 163.84 245.75999 416.15359 579.99359 747.11041 910.95038 1074.7904 1245.184">0.0000001</tspan></text>
</g><g
               transform="scale(0.04862)"
               id="g150"><text
                 id="text154"
                 style="font-variant:normal;font-weight:normal;font-size:327.67999268px;font-family:F1;-inkscape-font-specification:F1;writing-mode:lr-tb;fill:#000000;fill-opacity:1;fill-rule:nonzero;stroke:none"
                 transform="translate(2652.48,13749.1)"><tspan
                   id="tspan152"
                   y="0"
                   x="0 163.84 249.03679 416.15359 583.27039 747.11041 910.95038 1078.0671">0.000001</tspan></text>
</g><g
               transform="scale(0.04862)"
               id="g156"><text
                 id="text160"
                 style="font-variant:normal;font-weight:normal;font-size:327.67999268px;font-family:F1;-inkscape-font-specification:F1;writing-mode:lr-tb;fill:#000000;fill-opacity:1;fill-rule:nonzero;stroke:none"
                 transform="translate(2816.96,12867.2)"><tspan
                   id="tspan158"
                   y="0"
                   x="0 167.11679 249.03679 419.43039 583.27039 747.11041 914.22717">0.00001</tspan></text>
</g><g
               transform="scale(0.04862)"
               id="g162"><text
                 id="text166"
                 style="font-variant:normal;font-weight:normal;font-size:327.67999268px;font-family:F1;-inkscape-font-specification:F1;writing-mode:lr-tb;fill:#000000;fill-opacity:1;fill-rule:nonzero;stroke:none"
                 transform="translate(2984.8,11985.3)"><tspan
                   id="tspan164"
                   y="0"
                   x="0 163.84 249.03679 416.15359 579.99359 747.11041">0.0001</tspan></text>
</g><g
               transform="scale(0.04862)"
               id="g168"><text
                 id="text172"
                 style="font-variant:normal;font-weight:normal;font-size:327.67999268px;font-family:F1;-inkscape-font-specification:F1;writing-mode:lr-tb;fill:#000000;fill-opacity:1;fill-rule:nonzero;stroke:none"
                 transform="translate(3149.28,11103.4)"><tspan
                   id="tspan170"
                   y="0"
                   x="0 167.11679 249.03679 416.15359 583.27039">0.001</tspan></text>
</g><g
               transform="scale(0.04862)"
               id="g174"><text
                 id="text178"
                 style="font-variant:normal;font-weight:normal;font-size:327.67999268px;font-family:F1;-inkscape-font-specification:F1;writing-mode:lr-tb;fill:#000000;fill-opacity:1;fill-rule:nonzero;stroke:none"
                 transform="translate(3317.1201,10221.4)"><tspan
                   id="tspan176"
                   y="0"
                   x="0 163.84 245.75999 416.15359">0.01</tspan></text>
</g><g
               transform="scale(0.04862)"
               id="g180"><text
                 id="text184"
                 style="font-variant:normal;font-weight:normal;font-size:327.67999268px;font-family:F1;-inkscape-font-specification:F1;writing-mode:lr-tb;fill:#000000;fill-opacity:1;fill-rule:nonzero;stroke:none"
                 transform="translate(3481.76,9339.3604)"><tspan
                   id="tspan182"
                   y="0"
                   x="0 167.11679 249.03679">0.1</tspan></text>
</g><g
               transform="scale(0.04862)"
               id="g186"><text
                 id="text190"
                 style="font-variant:normal;font-weight:normal;font-size:327.67999268px;font-family:F1;-inkscape-font-specification:F1;writing-mode:lr-tb;fill:#000000;fill-opacity:1;fill-rule:nonzero;stroke:none"
                 transform="translate(3731.8401,8457.4404)"><tspan
                   id="tspan188"
                   y="0"
                   x="0">1</tspan></text>
</g><g
               transform="scale(0.04862)"
               id="g192"><text
                 id="text196"
                 style="font-variant:normal;font-weight:normal;font-size:327.67999268px;font-family:F1;-inkscape-font-specification:F1;writing-mode:lr-tb;fill:#000000;fill-opacity:1;fill-rule:nonzero;stroke:none"
                 transform="translate(4034.5601,15058.9)"><tspan
                   id="tspan194"
                   y="0"
                   x="0 167.11679 3227.6479 3391.488 3561.8816 6452.019 6622.4126 6786.2524 6950.0928 9682.9434 9846.7842 10010.624 10177.74 10341.581">10100100010000</tspan></text>
</g><g
               transform="matrix(0,-0.064826,0.064826,0,0,0)"
               id="g198"><text
                 id="text202"
                 style="font-variant:normal;font-weight:normal;font-size:327.67999268px;font-family:F1;-inkscape-font-specification:F1;writing-mode:lr-tb;fill:#000000;fill-opacity:1;fill-rule:nonzero;stroke:none"
                 transform="translate(-9509.7598,1693.12)"><tspan
                   id="tspan200"
                   y="0"
                   x="0 160.5632 275.25119 383.38559 553.77917 671.74396 743.83356 914.22717 1091.1743 1205.8624 1464.7296 1540.0959 1641.6768 1743.2576">Error norm [-]</tspan></text>
</g><g
               transform="scale(0.064826)"
               id="g204"><text
                 id="text208"
                 style="font-variant:normal;font-weight:normal;font-size:327.67999268px;font-family:F1;-inkscape-font-specification:F1;writing-mode:lr-tb;fill:#000000;fill-opacity:1;fill-rule:nonzero;stroke:none"
                 transform="translate(4615.3599,11755.7)"><tspan
                   id="tspan206"
                   y="0"
                   x="0 216.2688 386.66238 648.8064 822.47681 986.31677 1101.0048 1169.8176 1343.4879 1445.0687 1517.1583 1690.8287 1854.6687 2008.6783 2120.0896 2287.2063 2447.7695 2575.5647 2644.3774 2818.0479 2919.6287 2991.7183 3096.5759 3204.7104 3368.5503 3532.3904 3706.0608 3879.7312 4141.875 4207.4111 4308.9917 4410.5728">Number of degrees of freedom [-]</tspan></text>
</g><g
               id="g210"><path
                 id="path212"
                 style="fill:#ffffff;fill-opacity:1;fill-rule:nonzero;stroke:none"
                 d="m 586.23999,442.72 h 74.23999 v 62.4 h -74.23999 z" /></g><g
               id="g214"><path
                 id="path216"
                 style="fill:none;stroke:#000000;stroke-width:1.27999997;stroke-linecap:butt;stroke-linejoin:round;stroke-miterlimit:10;stroke-dasharray:none;stroke-opacity:1"
                 d="m 586.23999,442.72 h 74.23999 v 62.4 h -74.23999 z" /></g><g
               id="g218"><g
                 clip-path="url(#clipPath224)"
                 id="g220"><g
                   transform="translate(603.35998,458.23999)"
                   id="g226"><path
                     id="path228"
                     style="fill:#4472c4;fill-opacity:1;fill-rule:nonzero;stroke:none"
                     d="m 0,0 c 0,2.4 -1.92,4.48 -4.48,4.48 -2.4,0 -4.48,-2.08 -4.48,-4.48 0,-2.4 2.08,-4.48 4.48,-4.48 C -1.92,-4.48 0,-2.4 0,0 Z" /></g><g
                   transform="translate(603.35998,458.23999)"
                   id="g230"><path
                     id="path232"
                     style="fill:none;stroke:#4472c4;stroke-width:1.27999997;stroke-linecap:butt;stroke-linejoin:round;stroke-miterlimit:10;stroke-dasharray:none;stroke-opacity:1"
                     d="m 0,0 c 0,2.4 -1.92,4.48 -4.48,4.48 -2.4,0 -4.48,-2.08 -4.48,-4.48 0,-2.4 2.08,-4.48 4.48,-4.48 C -1.92,-4.48 0,-2.4 0,0" /></g></g></g><g
               transform="scale(0.04862)"
               id="g234"><text
                 id="text238"
                 style="font-variant:normal;font-weight:normal;font-size:327.67999268px;font-family:F1;-inkscape-font-specification:F1;writing-mode:lr-tb;fill:#000000;fill-opacity:1;fill-rule:nonzero;stroke:none"
                 transform="translate(12485.4,9517.1201)"><tspan
                   id="tspan236"
                   y="0"
                   x="0 216.2688 330.95679 501.3504 668.46716 779.87836">Order2</tspan></text>
</g><g
               id="g240"><g
                 clip-path="url(#clipPath246)"
                 id="g242"><g
                   id="g248"><path
                     id="path250"
                     style="fill:#ed7d31;fill-opacity:1;fill-rule:nonzero;stroke:none"
                     d="m 598.88,484.79999 4.47998,8.96002 h -8.95996 z" /></g><g
                   id="g252"><path
                     id="path254"
                     style="fill:none;stroke:#ed7d31;stroke-width:1.27999997;stroke-linecap:butt;stroke-linejoin:round;stroke-miterlimit:10;stroke-dasharray:none;stroke-opacity:1"
                     d="m 598.88,484.79999 4.47998,8.96002 h -8.95996 z" /></g></g></g><g
               transform="scale(0.04862)"
               id="g256"><text
                 id="text260"
                 style="font-variant:normal;font-weight:normal;font-size:327.67999268px;font-family:F1;-inkscape-font-specification:F1;writing-mode:lr-tb;fill:#000000;fill-opacity:1;fill-rule:nonzero;stroke:none"
                 transform="translate(12485.4,10158.9)"><tspan
                   id="tspan258"
                   y="0"
                   x="0 216.2688 330.95679 501.3504 668.46716 779.87836">Order3</tspan></text>
</g></g></g></g></g></g></svg>