<svg width="1669" height="1069" xmlns="http://www.w3.org/2000/svg" xmlns:xlink="http://www.w3.org/1999/xlink" overflow="hidden"><defs><clipPath id="clip0"><rect x="6352" y="4325" width="1669" height="1069"/></clipPath><clipPath id="clip1"><rect x="6351" y="4324" width="1669" height="1069"/></clipPath><clipPath id="clip2"><rect x="6351" y="4324" width="1669" height="1069"/></clipPath><clipPath id="clip3"><rect x="6351" y="4324" width="1669" height="1069"/></clipPath><clipPath id="clip4"><rect x="6351" y="4324" width="1669" height="1069"/></clipPath><clipPath id="clip5"><rect x="6351" y="4324" width="1669" height="1069"/></clipPath><clipPath id="clip6"><rect x="6351" y="4324" width="1669" height="1069"/></clipPath><clipPath id="clip7"><rect x="6351" y="4324" width="1669" height="1069"/></clipPath><clipPath id="clip8"><rect x="6351" y="4324" width="1669" height="1069"/></clipPath><clipPath id="clip9"><rect x="6351" y="4324" width="1669" height="1069"/></clipPath><clipPath id="clip10"><rect x="6800" y="4381" width="1100" height="750"/></clipPath><clipPath id="clip11"><rect x="6800" y="4381" width="1100" height="750"/></clipPath><clipPath id="clip12"><rect x="6351" y="4324" width="1669" height="1069"/></clipPath><clipPath id="clip13"><rect x="6351" y="4324" width="1669" height="1069"/></clipPath><clipPath id="clip14"><rect x="6351" y="4324" width="1669" height="1069"/></clipPath><clipPath id="clip15"><rect x="6351" y="4324" width="1669" height="1069"/></clipPath><clipPath id="clip16"><rect x="6351" y="4324" width="1669" height="1069"/></clipPath><clipPath id="clip17"><rect x="6351" y="4324" width="1669" height="1069"/></clipPath><clipPath id="clip18"><rect x="6351" y="4324" width="1669" height="1069"/></clipPath><clipPath id="clip19"><rect x="6351" y="4324" width="1669" height="1069"/></clipPath><clipPath id="clip20"><rect x="6351" y="4324" width="1669" height="1069"/></clipPath><clipPath id="clip21"><rect x="6351" y="4324" width="1669" height="1069"/></clipPath><clipPath id="clip22"><rect x="6351" y="4324" width="1669" height="1069"/></clipPath><clipPath id="clip23"><rect x="6351" y="4324" width="1669" height="1069"/></clipPath><clipPath id="clip24"><rect x="6351" y="4324" width="1669" height="1069"/></clipPath><clipPath id="clip25"><rect x="6351" y="4324" width="1669" height="1069"/></clipPath><clipPath id="clip26"><rect x="6351" y="4324" width="1669" height="1069"/></clipPath><clipPath id="clip27"><rect x="6351" y="4324" width="1669" height="1069"/></clipPath><clipPath id="clip28"><rect x="6351" y="4324" width="1669" height="1069"/></clipPath><clipPath id="clip29"><rect x="6351" y="4324" width="1669" height="1069"/></clipPath><clipPath id="clip30"><rect x="6351" y="4324" width="1669" height="1069"/></clipPath><clipPath id="clip31"><rect x="6351" y="4324" width="1669" height="1069"/></clipPath><clipPath id="clip32"><rect x="6351" y="4324" width="1669" height="1069"/></clipPath><clipPath id="clip33"><rect x="6351" y="4324" width="1669" height="1069"/></clipPath><clipPath id="clip34"><rect x="6351" y="4324" width="1669" height="1069"/></clipPath><clipPath id="clip35"><rect x="6351" y="4324" width="1669" height="1069"/></clipPath><clipPath id="clip36"><rect x="6351" y="4324" width="1669" height="1069"/></clipPath><clipPath id="clip37"><rect x="6351" y="4324" width="1669" height="1069"/></clipPath><clipPath id="clip38"><rect x="6351" y="4324" width="1669" height="1069"/></clipPath><clipPath id="clip39"><rect x="6351" y="4324" width="1669" height="1069"/></clipPath><clipPath id="clip40"><rect x="6351" y="4324" width="1669" height="1069"/></clipPath><clipPath id="clip41"><rect x="6351" y="4324" width="1669" height="1069"/></clipPath><clipPath id="clip42"><rect x="6351" y="4324" width="1669" height="1069"/></clipPath></defs><g clip-path="url(#clip0)" transform="translate(-6352 -4325)"><rect x="6352" y="4325" width="1669" height="1069" fill="#FFFFFF"/><g clip-path="url(#clip1)"><path d="M6800.5 5131.5 7900.5 5131.5M6800.5 5098.67 7900.5 5098.67M6800.5 5079.67 7900.5 5079.67M6800.5 5066.67 7900.5 5066.67M6800.5 5056.67 7900.5 5056.67M6800.5 5047.67 7900.5 5047.67M6800.5 5040.67 7900.5 5040.67M6800.5 5034.67 7900.5 5034.67M6800.5 5028.67 7900.5 5028.67M6800.5 5023.67 7900.5 5023.67M6800.5 4991.66 7900.5 4991.66M6800.5 4972.66 7900.5 4972.66M6800.5 4959.66 7900.5 4959.66M6800.5 4949.66 7900.5 4949.66M6800.5 4940.66 7900.5 4940.66M6800.5 4933.66 7900.5 4933.66M6800.5 4927.66 7900.5 4927.66M6800.5 4921.66 7900.5 4921.66M6800.5 4916.66 7900.5 4916.66M6800.5 4884.66 7900.5 4884.66M6800.5 4865.66 7900.5 4865.66M6800.5 4852.66 7900.5 4852.66M6800.5 4841.66 7900.5 4841.66M6800.5 4833.66 7900.5 4833.66M6800.5 4826.66 7900.5 4826.66M6800.5 4820.66 7900.5 4820.66M6800.5 4814.66 7900.5 4814.66M6800.5 4809.66 7900.5 4809.66M6800.5 4777.66 7900.5 4777.66M6800.5 4758.66 7900.5 4758.66M6800.5 4745.66 7900.5 4745.66M6800.5 4734.66 7900.5 4734.66M6800.5 4726.66 7900.5 4726.66M6800.5 4719.66 7900.5 4719.66M6800.5 4712.65 7900.5 4712.65M6800.5 4707.65 7900.5 4707.65M6800.5 4702.65 7900.5 4702.65M6800.5 4670.65 7900.5 4670.65M6800.5 4651.65 7900.5 4651.65M6800.5 4637.65 7900.5 4637.65M6800.5 4627.65 7900.5 4627.65M6800.5 4619.65 7900.5 4619.65M6800.5 4611.65 7900.5 4611.65M6800.5 4605.65 7900.5 4605.65M6800.5 4600.65 7900.5 4600.65M6800.5 4595.65 7900.5 4595.65M6800.5 4563.65 7900.5 4563.65M6800.5 4544.65 7900.5 4544.65M6800.5 4530.65 7900.5 4530.65M6800.5 4520.65 7900.5 4520.65M6800.5 4511.65 7900.5 4511.65M6800.5 4504.65 7900.5 4504.65M6800.5 4498.65 7900.5 4498.65M6800.5 4493.65 7900.5 4493.65M6800.5 4488.65 7900.5 4488.65M6800.5 4455.65 7900.5 4455.65M6800.5 4437.65 7900.5 4437.65M6800.5 4423.65 7900.5 4423.65M6800.5 4413.65 7900.5 4413.65M6800.5 4404.64 7900.5 4404.64M6800.5 4397.64 7900.5 4397.64M6800.5 4391.64 7900.5 4391.64M6800.5 4385.64 7900.5 4385.64" stroke="#A5A5A5" stroke-width="3.4375" stroke-linejoin="round" stroke-miterlimit="10" fill="none"/></g><g clip-path="url(#clip2)"><path d="M6800.5 5131.5 7900.5 5131.5M6800.5 5023.67 7900.5 5023.67M6800.5 4916.66 7900.5 4916.66M6800.5 4809.66 7900.5 4809.66M6800.5 4702.65 7900.5 4702.65M6800.5 4595.65 7900.5 4595.65M6800.5 4488.65 7900.5 4488.65" stroke="#000000" stroke-width="4.58333" stroke-linejoin="round" stroke-miterlimit="10" fill="none"/></g><g clip-path="url(#clip3)"><path d="M6910.73 4381.5 6910.73 5131.5M6975.73 4381.5 6975.73 5131.5M7020.73 4381.5 7020.73 5131.5M7056.73 4381.5 7056.73 5131.5M7085.73 4381.5 7085.73 5131.5M7110.73 4381.5 7110.73 5131.5M7131.73 4381.5 7131.73 5131.5M7150.73 4381.5 7150.73 5131.5M7277.74 4381.5 7277.74 5131.5M7341.74 4381.5 7341.74 5131.5M7387.74 4381.5 7387.74 5131.5M7423.74 4381.5 7423.74 5131.5M7452.74 4381.5 7452.74 5131.5M7476.75 4381.5 7476.75 5131.5M7498.75 4381.5 7498.75 5131.5M7516.75 4381.5 7516.75 5131.5M7643.75 4381.5 7643.75 5131.5M7708.75 4381.5 7708.75 5131.5M7754.75 4381.5 7754.75 5131.5M7789.76 4381.5 7789.76 5131.5M7818.76 4381.5 7818.76 5131.5M7843.76 4381.5 7843.76 5131.5M7864.76 4381.5 7864.76 5131.5M7883.76 4381.5 7883.76 5131.5" stroke="#A5A5A5" stroke-width="3.4375" stroke-linejoin="round" stroke-miterlimit="10" fill="none"/></g><g clip-path="url(#clip4)"><path d="M7166.74 4381.5 7166.74 5131.5M7533.75 4381.5 7533.75 5131.5M7900.5 4381.5 7900.5 5131.5" stroke="#000000" stroke-width="4.58333" stroke-linejoin="round" stroke-miterlimit="10" fill="none"/></g><g clip-path="url(#clip5)"><rect x="6800.5" y="4381.5" width="1100" height="750" stroke="#000000" stroke-width="4.58333" stroke-linejoin="round" stroke-miterlimit="10" fill="none"/></g><g clip-path="url(#clip6)"><path d="M0 0 0.000360892 750" stroke="#000000" stroke-width="4.58333" stroke-linejoin="round" stroke-miterlimit="10" fill="none" fill-rule="evenodd" transform="matrix(1 0 0 -1 6800.5 5131.5)"/></g><g clip-path="url(#clip7)"><path d="M6800.5 4381.5 7900.5 4381.5" stroke="#000000" stroke-width="4.58333" stroke-linejoin="round" stroke-miterlimit="10" fill="none" fill-rule="evenodd"/></g><g clip-path="url(#clip8)"><path d="M7032.4 4563.17C7032.4 4569.25 7027.48 4574.17 7021.4 4574.17 7015.33 4574.17 7010.4 4569.25 7010.4 4563.17 7010.4 4557.1 7015.33 4552.17 7021.4 4552.17 7027.48 4552.17 7032.4 4557.1 7032.4 4563.17Z" stroke="#4472C4" stroke-width="3.4375" stroke-linejoin="round" stroke-miterlimit="10" fill="#4472C4"/><path d="M7271.4 4727.17C7271.4 4733.25 7266.48 4738.17 7260.4 4738.17 7254.33 4738.17 7249.4 4733.25 7249.4 4727.17 7249.4 4721.1 7254.33 4716.17 7260.4 4716.17 7266.48 4716.17 7271.4 4721.1 7271.4 4727.17Z" stroke="#4472C4" stroke-width="3.4375" stroke-linejoin="round" stroke-miterlimit="10" fill="#4472C4"/><path d="M7501.4 4846.17C7501.4 4852.25 7496.48 4857.17 7490.4 4857.17 7484.33 4857.17 7479.4 4852.25 7479.4 4846.17 7479.4 4840.1 7484.33 4835.17 7490.4 4835.17 7496.48 4835.17 7501.4 4840.1 7501.4 4846.17Z" stroke="#4472C4" stroke-width="3.4375" stroke-linejoin="round" stroke-miterlimit="10" fill="#4472C4"/><path d="M7726.4 4952.17C7726.4 4958.25 7721.48 4963.17 7715.4 4963.17 7709.33 4963.17 7704.4 4958.25 7704.4 4952.17 7704.4 4946.1 7709.33 4941.17 7715.4 4941.17 7721.48 4941.17 7726.4 4946.1 7726.4 4952.17Z" stroke="#4472C4" stroke-width="3.4375" stroke-linejoin="round" stroke-miterlimit="10" fill="#4472C4"/></g><g clip-path="url(#clip9)"><path d="M7021.4 4634.17 7032.4 4656.17 7010.4 4656.17Z" stroke="#ED7D31" stroke-width="3.4375" stroke-linejoin="round" stroke-miterlimit="10" fill="#ED7D31"/><path d="M7260.4 4799.17 7271.4 4821.17 7249.4 4821.17Z" stroke="#ED7D31" stroke-width="3.4375" stroke-linejoin="round" stroke-miterlimit="10" fill="#ED7D31"/><path d="M7490.4 4919.17 7501.4 4941.17 7479.4 4941.17Z" stroke="#ED7D31" stroke-width="3.4375" stroke-linejoin="round" stroke-miterlimit="10" fill="#ED7D31"/><path d="M7715.4 5025.17 7726.4 5047.17 7704.4 5047.17Z" stroke="#ED7D31" stroke-width="3.4375" stroke-linejoin="round" stroke-miterlimit="10" fill="#ED7D31"/></g><g clip-path="url(#clip10)"><path d="M7021.5 4576.5 7023.73 4577.65 7025.73 4579.65 7027.73 4580.65 7029.73 4581.65 7031.73 4582.65 7033.73 4583.65 7036.73 4585.65 7038.73 4586.65 7040.73 4587.65 7042.73 4588.65 7044.73 4589.65 7046.73 4591.65 7049.73 4592.65 7051.73 4593.65 7053.73 4594.65 7055.73 4596.65 7057.73 4597.65 7059.73 4598.65 7062.73 4599.65 7064.73 4600.65 7066.73 4602.65 7068.73 4603.65 7070.73 4604.65 7072.73 4605.65 7075.73 4606.65 7077.73 4608.65 7079.73 4609.65 7081.73 4610.65 7083.73 4611.65 7085.73 4612.65 7088.73 4614.65 7090.73 4615.65 7092.73 4616.65 7094.73 4617.65 7096.73 4619.65 7098.73 4620.65 7101.73 4621.65 7103.73 4622.65 7105.73 4623.65 7107.73 4625.65 7109.73 4626.65 7111.73 4627.65 7114.73 4628.65 7116.73 4629.65 7118.73 4631.65 7120.73 4632.65 7122.73 4633.65 7124.73 4634.65 7127.73 4635.65 7129.73 4637.65 7131.73 4638.65 7133.73 4639.65 7135.73 4640.65 7137.73 4642.65 7140.73 4643.65 7142.73 4644.65 7144.73 4645.65 7146.73 4646.65 7148.73 4648.65 7150.73 4649.65 7153.73 4650.65 7155.73 4651.65 7157.73 4652.65 7159.74 4654.65 7161.74 4655.65 7164.74 4656.65 7166.74 4657.65 7168.74 4658.65 7170.74 4660.65 7172.74 4661.65 7174.74 4662.65 7177.74 4663.65 7179.74 4665.65 7181.74 4666.65 7183.74 4667.65 7185.74 4668.65 7187.74 4669.65 7190.74 4671.65 7192.74 4672.65 7194.74 4673.65 7196.74 4674.65 7198.74 4675.65 7200.74 4677.65 7203.74 4678.65 7205.74 4679.65 7207.74 4680.65 7209.74 4681.65 7211.74 4683.65 7213.74 4684.65 7216.74 4685.65 7218.74 4686.65 7220.74 4688.65 7222.74 4689.65 7224.74 4690.65 7226.74 4691.65 7229.74 4692.65 7231.74 4694.65 7233.74 4695.65 7235.74 4696.65 7237.74 4697.65 7239.74 4698.65 7242.74 4700.65 7244.74 4701.65 7246.74 4702.65 7248.74 4703.65 7250.74 4704.65 7252.74 4706.65 7255.74 4707.65 7257.74 4708.65 7259.74 4709.65 7261.74 4711.65 7263.74 4712.65 7265.74 4713.65 7268.74 4714.65 7270.74 4715.66 7272.74 4717.66 7274.74 4718.66 7276.74 4719.66 7278.74 4720.66 7281.74 4721.66 7283.74 4723.66 7285.74 4724.66 7287.74 4725.66 7289.74 4726.66 7291.74 4727.66 7294.74 4729.66 7296.74 4730.66 7298.74 4731.66 7300.74 4732.66 7302.74 4734.66 7304.74 4735.66 7307.74 4736.66 7309.74 4737.66 7311.74 4738.66 7313.74 4740.66 7315.74 4741.66 7317.74 4742.66 7320.74 4743.66 7322.74 4744.66 7324.74 4746.66 7326.74 4747.66 7328.74 4748.66 7330.74 4749.66 7333.74 4750.66 7335.74 4752.66 7337.74 4753.66 7339.74 4754.66 7341.74 4755.66 7343.74 4757.66 7346.74 4758.66 7348.74 4759.66 7350.74 4760.66 7352.74 4761.66 7354.74 4763.66 7357.74 4764.66 7359.74 4765.66 7361.74 4766.66 7363.74 4767.66 7365.74 4769.66 7367.74 4770.66 7370.74 4771.66 7372.74 4772.66 7374.74 4773.66 7376.74 4775.66 7378.74 4776.66 7380.74 4777.66 7383.74 4778.66 7385.74 4779.66 7387.74 4781.66 7389.74 4782.66 7391.74 4783.66 7393.74 4784.66 7396.74 4786.66 7398.74 4787.66 7400.74 4788.66 7402.74 4789.66 7404.74 4790.66 7406.74 4792.66 7409.74 4793.66 7411.74 4794.66 7413.74 4795.66 7415.74 4796.66 7417.74 4798.66 7419.74 4799.66 7422.74 4800.66 7424.74 4801.66 7426.74 4802.66 7428.74 4804.66 7430.74 4805.66 7432.74 4806.66 7435.74 4807.66 7437.74 4809.66 7439.74 4810.66 7441.74 4811.66 7443.74 4812.66 7445.74 4813.66 7448.74 4815.66 7450.74 4816.66 7452.74 4817.66 7454.74 4818.66 7456.75 4819.66 7458.75 4821.66 7461.75 4822.66 7463.75 4823.66 7465.75 4824.66 7467.75 4825.66 7469.75 4827.66 7471.75 4828.66 7474.75 4829.66 7476.75 4830.66 7478.75 4832.66 7480.75 4833.66 7482.75 4834.66 7484.75 4835.66 7487.75 4836.66 7489.75 4838.66 7491.75 4839.66 7493.75 4840.66 7495.75 4841.66 7497.75 4842.66 7500.75 4844.66 7502.75 4845.66 7504.75 4846.66 7506.75 4847.66 7508.75 4848.66 7510.75 4850.66 7513.75 4851.66 7515.75 4852.66 7517.75 4853.66 7519.75 4855.66 7521.75 4856.66 7523.75 4857.66 7526.75 4858.66 7528.75 4859.66 7530.75 4861.66 7532.75 4862.66 7534.75 4863.66 7536.75 4864.66 7539.75 4865.66 7541.75 4867.66 7543.75 4868.66 7545.75 4869.66 7547.75 4870.66 7549.75 4871.66 7552.75 4873.66 7554.75 4874.66 7556.75 4875.66 7558.75 4876.66 7560.75 4878.66 7563.75 4879.66 7565.75 4880.66 7567.75 4881.66 7569.75 4882.66 7571.75 4884.66 7573.75 4885.66 7576.75 4886.66 7578.75 4887.66 7580.75 4888.66 7582.75 4890.66 7584.75 4891.66 7586.75 4892.66 7589.75 4893.66 7591.75 4894.66 7593.75 4896.66 7595.75 4897.66 7597.75 4898.66 7599.75 4899.66 7602.75 4901.66 7604.75 4902.66 7606.75 4903.66 7608.75 4904.66 7610.75 4905.66 7612.75 4907.66 7615.75 4908.66 7617.75 4909.66 7619.75 4910.66 7621.75 4911.66 7623.75 4913.66 7625.75 4914.66 7628.75 4915.66 7630.75 4916.66 7632.75 4917.66 7634.75 4919.66 7636.75 4920.66 7638.75 4921.66 7641.75 4922.66 7643.75 4924.66 7645.75 4925.66 7647.75 4926.66 7649.75 4927.66 7651.75 4928.66 7654.75 4930.66 7656.75 4931.66 7658.75 4932.66 7660.75 4933.66 7662.75 4934.66 7664.75 4936.66 7667.75 4937.66 7669.75 4938.66 7671.75 4939.66 7673.75 4940.66 7675.75 4942.66 7677.75 4943.66 7680.75 4944.66 7682.75 4945.66 7684.75 4947.66 7686.75 4948.66 7688.75 4949.66 7690.75 4950.66 7693.75 4951.66 7695.75 4953.66 7697.75 4954.66 7699.75 4955.66 7701.75 4956.66 7703.75 4957.66 7706.75 4959.66 7708.75 4960.66 7710.75 4961.66 7712.75 4962.66 7715.5 4964.5" stroke="#4472C4" stroke-width="6.875" stroke-linecap="round" stroke-linejoin="round" stroke-miterlimit="10" stroke-dasharray="0 13.75" fill="none"/></g><g clip-path="url(#clip11)"><path d="M7021.5 4659.5 7023.73 4660.65 7025.73 4661.65 7027.73 4663.65 7029.73 4664.65 7031.73 4665.65 7033.73 4666.65 7036.73 4668.65 7038.73 4669.65 7040.73 4670.65 7042.73 4671.65 7044.73 4672.65 7046.73 4674.65 7049.73 4675.65 7051.73 4676.65 7053.73 4677.65 7055.73 4678.65 7057.73 4680.65 7059.73 4681.65 7062.73 4682.65 7064.73 4683.65 7066.73 4685.65 7068.73 4686.65 7070.73 4687.65 7072.73 4688.65 7075.73 4689.65 7077.73 4691.65 7079.73 4692.65 7081.73 4693.65 7083.73 4694.65 7085.73 4695.65 7088.73 4697.65 7090.73 4698.65 7092.73 4699.65 7094.73 4700.65 7096.73 4702.65 7098.73 4703.65 7101.73 4704.65 7103.73 4705.65 7105.73 4706.65 7107.73 4708.65 7109.73 4709.65 7111.73 4710.65 7114.73 4711.65 7116.73 4712.65 7118.73 4714.65 7120.73 4715.65 7122.73 4716.65 7124.73 4717.65 7127.73 4718.65 7129.73 4720.65 7131.73 4721.66 7133.73 4722.66 7135.73 4723.66 7137.73 4725.66 7140.73 4726.66 7142.73 4727.66 7144.73 4728.66 7146.73 4729.66 7148.73 4731.66 7150.73 4732.66 7153.73 4733.66 7155.73 4734.66 7157.73 4735.66 7159.74 4737.66 7161.74 4738.66 7164.74 4739.66 7166.74 4740.66 7168.74 4742.66 7170.74 4743.66 7172.74 4744.66 7174.74 4745.66 7177.74 4746.66 7179.74 4748.66 7181.74 4749.66 7183.74 4750.66 7185.74 4751.66 7187.74 4752.66 7190.74 4754.66 7192.74 4755.66 7194.74 4756.66 7196.74 4757.66 7198.74 4759.66 7200.74 4760.66 7203.74 4761.66 7205.74 4762.66 7207.74 4763.66 7209.74 4765.66 7211.74 4766.66 7213.74 4767.66 7216.74 4768.66 7218.74 4769.66 7220.74 4771.66 7222.74 4772.66 7224.74 4773.66 7226.74 4774.66 7229.74 4776.66 7231.74 4777.66 7233.74 4778.66 7235.74 4779.66 7237.74 4780.66 7239.74 4782.66 7242.74 4783.66 7244.74 4784.66 7246.74 4785.66 7248.74 4786.66 7250.74 4788.66 7252.74 4789.66 7255.74 4790.66 7257.74 4791.66 7259.74 4792.66 7261.74 4794.66 7263.74 4795.66 7265.74 4796.66 7268.74 4797.66 7270.74 4799.66 7272.74 4800.66 7274.74 4801.66 7276.74 4802.66 7278.74 4803.66 7281.74 4805.66 7283.74 4806.66 7285.74 4807.66 7287.74 4808.66 7289.74 4809.66 7291.74 4811.66 7294.74 4812.66 7296.74 4813.66 7298.74 4814.66 7300.74 4816.66 7302.74 4817.66 7304.74 4818.66 7307.74 4819.66 7309.74 4820.66 7311.74 4822.66 7313.74 4823.66 7315.74 4824.66 7317.74 4825.66 7320.74 4826.66 7322.74 4828.66 7324.74 4829.66 7326.74 4830.66 7328.74 4831.66 7330.74 4833.66 7333.74 4834.66 7335.74 4835.66 7337.74 4836.66 7339.74 4837.66 7341.74 4839.66 7343.74 4840.66 7346.74 4841.66 7348.74 4842.66 7350.74 4843.66 7352.74 4845.66 7354.74 4846.66 7357.74 4847.66 7359.74 4848.66 7361.74 4850.66 7363.74 4851.66 7365.74 4852.66 7367.74 4853.66 7370.74 4854.66 7372.74 4856.66 7374.74 4857.66 7376.74 4858.66 7378.74 4859.66 7380.74 4860.66 7383.74 4862.66 7385.74 4863.66 7387.74 4864.66 7389.74 4865.66 7391.74 4866.66 7393.74 4868.66 7396.74 4869.66 7398.74 4870.66 7400.74 4871.66 7402.74 4873.66 7404.74 4874.66 7406.74 4875.66 7409.74 4876.66 7411.74 4877.66 7413.74 4879.66 7415.74 4880.66 7417.74 4881.66 7419.74 4882.66 7422.74 4883.66 7424.74 4885.66 7426.74 4886.66 7428.74 4887.66 7430.74 4888.66 7432.74 4890.66 7435.74 4891.66 7437.74 4892.66 7439.74 4893.66 7441.74 4894.66 7443.74 4896.66 7445.74 4897.66 7448.74 4898.66 7450.74 4899.66 7452.74 4900.66 7454.74 4902.66 7456.75 4903.66 7458.75 4904.66 7461.75 4905.66 7463.75 4907.66 7465.75 4908.66 7467.75 4909.66 7469.75 4910.66 7471.75 4911.66 7474.75 4913.66 7476.75 4914.66 7478.75 4915.66 7480.75 4916.66 7482.75 4917.66 7484.75 4919.66 7487.75 4920.66 7489.75 4921.66 7491.75 4922.66 7493.75 4923.66 7495.75 4925.66 7497.75 4926.66 7500.75 4927.66 7502.75 4928.66 7504.75 4930.66 7506.75 4931.66 7508.75 4932.66 7510.75 4933.66 7513.75 4934.66 7515.75 4936.66 7517.75 4937.66 7519.75 4938.66 7521.75 4939.66 7523.75 4940.66 7526.75 4942.66 7528.75 4943.66 7530.75 4944.66 7532.75 4945.66 7534.75 4947.66 7536.75 4948.66 7539.75 4949.66 7541.75 4950.66 7543.75 4951.66 7545.75 4953.66 7547.75 4954.66 7549.75 4955.66 7552.75 4956.66 7554.75 4957.66 7556.75 4959.66 7558.75 4960.66 7560.75 4961.66 7563.75 4962.66 7565.75 4964.66 7567.75 4965.66 7569.75 4966.66 7571.75 4967.66 7573.75 4968.66 7576.75 4970.66 7578.75 4971.66 7580.75 4972.66 7582.75 4973.66 7584.75 4974.66 7586.75 4976.66 7589.75 4977.66 7591.75 4978.66 7593.75 4979.66 7595.75 4981.66 7597.75 4982.66 7599.75 4983.66 7602.75 4984.66 7604.75 4985.66 7606.75 4987.66 7608.75 4988.66 7610.75 4989.66 7612.75 4990.66 7615.75 4991.66 7617.75 4993.66 7619.75 4994.66 7621.75 4995.66 7623.75 4996.66 7625.75 4997.66 7628.75 4999.66 7630.75 5000.66 7632.75 5001.66 7634.75 5002.66 7636.75 5004.66 7638.75 5005.66 7641.75 5006.66 7643.75 5007.66 7645.75 5008.66 7647.75 5010.66 7649.75 5011.66 7651.75 5012.66 7654.75 5013.66 7656.75 5014.66 7658.75 5016.66 7660.75 5017.66 7662.75 5018.67 7664.75 5019.67 7667.75 5021.67 7669.75 5022.67 7671.75 5023.67 7673.75 5024.67 7675.75 5025.67 7677.75 5027.67 7680.75 5028.67 7682.75 5029.67 7684.75 5030.67 7686.75 5031.67 7688.75 5033.67 7690.75 5034.67 7693.75 5035.67 7695.75 5036.67 7697.75 5038.67 7699.75 5039.67 7701.75 5040.67 7703.75 5041.67 7706.75 5042.67 7708.75 5044.67 7710.75 5045.67 7712.75 5046.67 7715.5 5047.5" stroke="#ED7D31" stroke-width="6.875" stroke-linecap="round" stroke-linejoin="round" stroke-miterlimit="10" stroke-dasharray="0 13.75" fill="none"/></g><g clip-path="url(#clip12)"><rect x="7121.5" y="4503.5" width="504" height="92" stroke="#000000" stroke-width="3.4375" stroke-linejoin="round" stroke-miterlimit="10" fill="#FFFFFF"/></g><g clip-path="url(#clip13)"><text fill="#595959" font-family="Calibri,Calibri_MSFontService,sans-serif" font-weight="400" font-size="64" transform="matrix(1 0 0 1 7135.65 4571)">y = 17.1397 x</text></g><g clip-path="url(#clip14)"><text fill="#595959" font-family="Calibri,Calibri_MSFontService,sans-serif" font-weight="400" font-size="43" transform="matrix(1 0 0 1 7479.29 4552)">-</text></g><g clip-path="url(#clip15)"><text fill="#595959" font-family="Calibri,Calibri_MSFontService,sans-serif" font-weight="400" font-size="43" transform="matrix(1 0 0 1 7492.4 4552)">1.9100 </text></g><g clip-path="url(#clip16)"><rect x="7011.5" y="4966.5" width="471" height="92" stroke="#000000" stroke-width="3.4375" stroke-linejoin="round" stroke-miterlimit="10" fill="#FFFFFF"/></g><g clip-path="url(#clip17)"><text fill="#595959" font-family="Calibri,Calibri_MSFontService,sans-serif" font-weight="400" font-size="64" transform="matrix(1 0 0 1 7025.65 5034)">y = 2.9384 x</text></g><g clip-path="url(#clip18)"><text fill="#595959" font-family="Calibri,Calibri_MSFontService,sans-serif" font-weight="400" font-size="43" transform="matrix(1 0 0 1 7336.77 5015)">-</text></g><g clip-path="url(#clip19)"><text fill="#595959" font-family="Calibri,Calibri_MSFontService,sans-serif" font-weight="400" font-size="43" transform="matrix(1 0 0 1 7349.88 5015)">1.9146 </text></g><g clip-path="url(#clip20)"><text font-family="Calibri,Calibri_MSFontService,sans-serif" font-weight="400" font-size="55" transform="matrix(1 0 0 1 6512.46 5147)">0.0000001</text></g><g clip-path="url(#clip21)"><text font-family="Calibri,Calibri_MSFontService,sans-serif" font-weight="400" font-size="55" transform="matrix(1 0 0 1 6540.32 5040)">0.000001</text></g><g clip-path="url(#clip22)"><text font-family="Calibri,Calibri_MSFontService,sans-serif" font-weight="400" font-size="55" transform="matrix(1 0 0 1 6568.19 4932)">0.00001</text></g><g clip-path="url(#clip23)"><text font-family="Calibri,Calibri_MSFontService,sans-serif" font-weight="400" font-size="55" transform="matrix(1 0 0 1 6596.06 4825)">0.0001</text></g><g clip-path="url(#clip24)"><text font-family="Calibri,Calibri_MSFontService,sans-serif" font-weight="400" font-size="55" transform="matrix(1 0 0 1 6623.92 4718)">0.001</text></g><g clip-path="url(#clip25)"><text font-family="Calibri,Calibri_MSFontService,sans-serif" font-weight="400" font-size="55" transform="matrix(1 0 0 1 6651.79 4611)">0.01</text></g><g clip-path="url(#clip26)"><text font-family="Calibri,Calibri_MSFontService,sans-serif" font-weight="400" font-size="55" transform="matrix(1 0 0 1 6679.66 4504)">0.1</text></g><g clip-path="url(#clip27)"><text font-family="Calibri,Calibri_MSFontService,sans-serif" font-weight="400" font-size="55" transform="matrix(1 0 0 1 6721.41 4397)">1</text></g><g clip-path="url(#clip28)"><text font-family="Calibri,Calibri_MSFontService,sans-serif" font-weight="400" font-size="55" transform="matrix(1 0 0 1 6772.44 5218)">10</text></g><g clip-path="url(#clip29)"><text font-family="Calibri,Calibri_MSFontService,sans-serif" font-weight="400" font-size="55" transform="matrix(1 0 0 1 7125.26 5218)">100</text></g><g clip-path="url(#clip30)"><text font-family="Calibri,Calibri_MSFontService,sans-serif" font-weight="400" font-size="55" transform="matrix(1 0 0 1 7478.08 5218)">1000</text></g><g clip-path="url(#clip31)"><text font-family="Calibri,Calibri_MSFontService,sans-serif" font-weight="400" font-size="55" transform="matrix(1 0 0 1 7830.91 5218)">10000</text></g><g clip-path="url(#clip32)"><text font-family="Calibri,Calibri_MSFontService,sans-serif" font-weight="400" font-size="73" transform="matrix(6.12323e-17 -1 1 6.12323e-17 6479.2 4962)">Error norm [</text></g><g clip-path="url(#clip33)"><text font-family="Calibri,Calibri_MSFontService,sans-serif" font-weight="400" font-size="73" transform="matrix(6.12323e-17 -1 1 6.12323e-17 6479.2 4595)">-</text></g><g clip-path="url(#clip34)"><text font-family="Calibri,Calibri_MSFontService,sans-serif" font-weight="400" font-size="73" transform="matrix(6.12323e-17 -1 1 6.12323e-17 6479.2 4573)">]</text></g><g clip-path="url(#clip35)"><text font-family="Calibri,Calibri_MSFontService,sans-serif" font-weight="400" font-size="73" transform="matrix(1 0 0 1 6845.95 5317)">Number of degrees of freedom [</text></g><g clip-path="url(#clip36)"><text font-family="Calibri,Calibri_MSFontService,sans-serif" font-weight="400" font-size="73" transform="matrix(1 0 0 1 7809.99 5317)">-</text></g><g clip-path="url(#clip37)"><text font-family="Calibri,Calibri_MSFontService,sans-serif" font-weight="400" font-size="73" transform="matrix(1 0 0 1 7832.45 5317)">]</text></g><g clip-path="url(#clip38)"><rect x="7664.5" y="4472.5" width="189" height="165" stroke="#000000" stroke-width="3.4375" stroke-linejoin="round" stroke-miterlimit="10" fill="#FFFFFF"/></g><g clip-path="url(#clip39)"><path d="M7706 4513C7706 4519.07 7701.08 4524 7695 4524 7688.92 4524 7684 4519.07 7684 4513 7684 4506.92 7688.92 4502 7695 4502 7701.08 4502 7706 4506.92 7706 4513Z" stroke="#4472C4" stroke-width="3.4375" stroke-linejoin="round" stroke-miterlimit="10" fill="#4472C4"/></g><g clip-path="url(#clip40)"><text font-family="Calibri,Calibri_MSFontService,sans-serif" font-weight="400" font-size="41" transform="matrix(1 0 0 1 7716.86 4525)">Order2</text></g><g clip-path="url(#clip41)"><path d="M7695.5 4585.5 7706.5 4607.5 7684.5 4607.5Z" stroke="#ED7D31" stroke-width="3.4375" stroke-linejoin="round" stroke-miterlimit="10" fill="#ED7D31"/></g><g clip-path="url(#clip42)"><text font-family="Calibri,Calibri_MSFontService,sans-serif" font-weight="400" font-size="41" transform="matrix(1 0 0 1 7716.86 4608)">Order3</text></g></g></svg>