<?xml version="1.0" encoding="UTF-8" standalone="no"?>
<svg
   xmlns:dc="http://purl.org/dc/elements/1.1/"
   xmlns:cc="http://creativecommons.org/ns#"
   xmlns:rdf="http://www.w3.org/1999/02/22-rdf-syntax-ns#"
   xmlns:svg="http://www.w3.org/2000/svg"
   xmlns="http://www.w3.org/2000/svg"
   viewBox="0 0 918.66669 518.66669"
   height="518.66669"
   width="918.66669"
   xml:space="preserve"
   id="svg2"
   version="1.1"><metadata
     id="metadata8"><rdf:RDF><cc:Work
         rdf:about=""><dc:format>image/svg+xml</dc:format><dc:type
           rdf:resource="http://purl.org/dc/dcmitype/StillImage" /></cc:Work></rdf:RDF></metadata><defs
     id="defs6"><clipPath
       id="clipPath20"
       clipPathUnits="userSpaceOnUse"><path
         id="path18"
         d="M 0,0 H 841.92004 V 595.32001 H 0 Z" /></clipPath><clipPath
       id="clipPath34"
       clipPathUnits="userSpaceOnUse"><path
         style="clip-rule:evenodd"
         id="path32"
         d="M 67.199997,72 V 721.76001 H 1055.36 V 72 Z" /></clipPath><clipPath
       id="clipPath62"
       clipPathUnits="userSpaceOnUse"><path
         style="clip-rule:evenodd"
         id="path60"
         d="M 67.199997,72 V 721.76001 H 1055.36 V 72 Z" /></clipPath><clipPath
       id="clipPath186"
       clipPathUnits="userSpaceOnUse"><path
         style="clip-rule:evenodd"
         id="path184"
         d="M 67.199997,72 V 721.76001 H 1055.36 V 72 Z" /></clipPath><clipPath
       id="clipPath202"
       clipPathUnits="userSpaceOnUse"><path
         style="clip-rule:evenodd"
         id="path200"
         d="M 67.199997,72 V 721.76001 H 1055.36 V 72 Z" /></clipPath><clipPath
       id="clipPath218"
       clipPathUnits="userSpaceOnUse"><path
         style="clip-rule:evenodd"
         id="path216"
         d="M 67.199997,72 V 721.76001 H 1055.36 V 72 Z" /></clipPath><clipPath
       id="clipPath234"
       clipPathUnits="userSpaceOnUse"><path
         style="clip-rule:evenodd"
         id="path232"
         d="M -737.12,-242.72 V 407.04001 H 251.03999 V -242.72 Z" /></clipPath></defs><g
     transform="matrix(1.3333333,0,0,-1.3333333,0,518.66667)"
     id="g10"><g
       transform="translate(-81,-109)"
       id="g12"><g
         id="g14"><g
           clip-path="url(#clipPath20)"
           id="g16"><g
             transform="matrix(0.75,0,0,-0.75,0,595.32001)"
             id="g22"><g
               id="g24"><path
                 id="path26"
                 style="fill:#ffffff;fill-opacity:1;fill-rule:nonzero;stroke:none"
                 d="M 67.360001,110.72 H 1055.2 V 683.03998 H 67.360001 Z" /></g><g
               id="g28"><g
                 clip-path="url(#clipPath34)"
                 id="g30"><g
                   transform="translate(225.11999,556.47998)"
                   id="g36"><path
                     id="path38"
                     style="fill:none;stroke:#a5a5a5;stroke-width:1.91999996;stroke-linecap:butt;stroke-linejoin:round;stroke-miterlimit:10;stroke-dasharray:none;stroke-opacity:1"
                     d="M 0,0 H 772.47998 M 0,-62.720001 H 772.47998 M 0,-99.68 H 772.47998 M 0,-125.6 H 772.47998 M 0,-145.92 H 772.47998 M 0,-162.56 H 772.47998 M 0,-176.48 H 772.47998 M 0,-188.48 H 772.47998 M 0,-199.2 H 772.47998 M 0,-208.8 H 772.47998 M 0,-271.67999 H 772.47998 M 0,-308.32001 H 772.47998 M 0,-334.56 H 772.47998 M 0,-354.56 H 772.47998 M 0,-371.20001 H 772.47998 M 0,-385.12 H 772.47998 M 0,-397.44 H 772.47998 M 0,-407.84 h 772.47998" /></g><g
                   id="g40"><path
                     id="path42"
                     style="fill:none;stroke:#000000;stroke-width:3.20000005;stroke-linecap:butt;stroke-linejoin:round;stroke-miterlimit:10;stroke-dasharray:none;stroke-opacity:1"
                     d="M 225.11999,556.47998 H 997.59998 M 225.11999,347.67999 h 772.47999" /></g><g
                   transform="translate(457.76001,139.03999)"
                   id="g44"><path
                     id="path46"
                     style="fill:none;stroke:#a5a5a5;stroke-width:1.91999996;stroke-linecap:butt;stroke-linejoin:round;stroke-miterlimit:10;stroke-dasharray:none;stroke-opacity:1"
                     d="M 0,0 V 417.44 M 135.84,0 V 417.44 M 232.64,0 V 417.44 M 307.51999,0 V 417.44 M 368.48001,0 V 417.44 M 420.16,0 V 417.44 M 464.95999,0 V 417.44 M 504.64001,0 v 417.44" /></g><g
                   id="g48"><path
                     id="path50"
                     style="fill:none;stroke:#d9d9d9;stroke-width:1.91999996;stroke-linecap:butt;stroke-linejoin:round;stroke-miterlimit:10;stroke-dasharray:none;stroke-opacity:1"
                     d="M 997.59998,139.03999 V 556.47998" /></g></g></g><g
               id="g52"><path
                 id="path54"
                 style="fill:none;stroke:#000000;stroke-width:3.20000005;stroke-linecap:butt;stroke-linejoin:round;stroke-miterlimit:10;stroke-dasharray:none;stroke-opacity:1"
                 d="M 225.11999,139.03999 H 997.59998 V 556.47998 H 225.11999 Z" /></g><g
               id="g56"><g
                 clip-path="url(#clipPath62)"
                 id="g58"><g
                   id="g64"><path
                     id="path66"
                     style="fill:none;stroke:#000000;stroke-width:1.91999996;stroke-linecap:butt;stroke-linejoin:round;stroke-miterlimit:10;stroke-dasharray:none;stroke-opacity:1"
                     d="M 225.11999,556.47998 V 139.03999" /></g><g
                   id="g68"><path
                     id="path70"
                     style="fill:none;stroke:#000000;stroke-width:3.20000005;stroke-linecap:butt;stroke-linejoin:round;stroke-miterlimit:10;stroke-dasharray:none;stroke-opacity:1"
                     d="M 225.11999,139.03999 H 997.59998" /></g><g
                   id="g72"><path
                     id="path74"
                     style="fill:none;stroke:#4472c4;stroke-width:1.91999996;stroke-linecap:butt;stroke-linejoin:round;stroke-miterlimit:10;stroke-dasharray:none;stroke-opacity:1"
                     d="m 417.12,186.56 6.39999,6.40001 -6.39999,6.55999 -6.56,-6.55999 z" /></g><g
                   id="g76"><path
                     id="path78"
                     style="fill:none;stroke:#4472c4;stroke-width:1.91999996;stroke-linecap:butt;stroke-linejoin:round;stroke-miterlimit:10;stroke-dasharray:none;stroke-opacity:1"
                     d="m 440.79999,222.24 6.56,6.56 -6.56,6.4 -6.4,-6.4 z" /></g><g
                   id="g80"><path
                     id="path82"
                     style="fill:none;stroke:#4472c4;stroke-width:1.91999996;stroke-linecap:butt;stroke-linejoin:round;stroke-miterlimit:10;stroke-dasharray:none;stroke-opacity:1"
                     d="m 527.35998,320 6.56,6.39999 -6.56,6.56 -6.39996,-6.56 z" /></g><g
                   id="g84"><path
                     id="path86"
                     style="fill:none;stroke:#4472c4;stroke-width:1.91999996;stroke-linecap:butt;stroke-linejoin:round;stroke-miterlimit:10;stroke-dasharray:none;stroke-opacity:1"
                     d="m 638.08002,378.56 6.39996,6.39999 -6.39996,6.56 -6.56,-6.56 z" /></g><g
                   id="g88"><path
                     id="path90"
                     style="fill:none;stroke:#ed7d31;stroke-width:1.91999996;stroke-linecap:butt;stroke-linejoin:round;stroke-miterlimit:10;stroke-dasharray:none;stroke-opacity:1"
                     d="M 423.51999,217.28 410.56,204.48 m 0,12.8 12.95999,-12.8" /></g><g
                   id="g92"><path
                     id="path94"
                     style="fill:none;stroke:#ed7d31;stroke-width:1.91999996;stroke-linecap:butt;stroke-linejoin:round;stroke-miterlimit:10;stroke-dasharray:none;stroke-opacity:1"
                     d="m 447.35999,236.8 -12.96,-12.96 m 0,12.96 12.96,-12.96" /></g><g
                   id="g96"><path
                     id="path98"
                     style="fill:none;stroke:#ed7d31;stroke-width:1.91999996;stroke-linecap:butt;stroke-linejoin:round;stroke-miterlimit:10;stroke-dasharray:none;stroke-opacity:1"
                     d="m 533.91998,344.32001 -12.95996,-12.96002 m 0,12.96002 12.95996,-12.96002" /></g><g
                   id="g100"><path
                     id="path102"
                     style="fill:none;stroke:#ed7d31;stroke-width:1.91999996;stroke-linecap:butt;stroke-linejoin:round;stroke-miterlimit:10;stroke-dasharray:none;stroke-opacity:1"
                     d="m 644.47998,396 -12.95996,-12.79999 m 0,12.79999 12.95996,-12.79999" /></g><g
                   id="g104"><path
                     id="path106"
                     style="fill:none;stroke:#70ad47;stroke-width:1.91999996;stroke-linecap:butt;stroke-linejoin:round;stroke-miterlimit:10;stroke-dasharray:none;stroke-opacity:1"
                     d="m 417.12,224.16 6.39999,12.95999 H 410.56 Z" /></g><g
                   id="g108"><path
                     id="path110"
                     style="fill:none;stroke:#70ad47;stroke-width:1.91999996;stroke-linecap:butt;stroke-linejoin:round;stroke-miterlimit:10;stroke-dasharray:none;stroke-opacity:1"
                     d="m 440.79999,340.64001 6.56,12.96 h -12.96 z" /></g><g
                   id="g112"><path
                     id="path114"
                     style="fill:none;stroke:#70ad47;stroke-width:1.91999996;stroke-linecap:butt;stroke-linejoin:round;stroke-miterlimit:10;stroke-dasharray:none;stroke-opacity:1"
                     d="m 527.35998,453.44 6.56,12.79999 h -12.95996 z" /></g><g
                   id="g116"><path
                     id="path118"
                     style="fill:none;stroke:#70ad47;stroke-width:1.91999996;stroke-linecap:butt;stroke-linejoin:round;stroke-miterlimit:10;stroke-dasharray:none;stroke-opacity:1"
                     d="m 638.08002,500.79999 6.39996,12.96002 h -12.95996 z" /></g><g
                   transform="translate(423.51999,257.76001)"
                   id="g120"><path
                     id="path122"
                     style="fill:none;stroke:#ffc000;stroke-width:1.91999996;stroke-linecap:butt;stroke-linejoin:round;stroke-miterlimit:10;stroke-dasharray:none;stroke-opacity:1"
                     d="m 0,0 c 0,3.52 -2.88,6.4 -6.4,6.4 -3.68,0 -6.56,-2.88 -6.56,-6.4 0,-3.68 2.88,-6.56 6.56,-6.56 3.52,0 6.4,2.88 6.4,6.56" /></g><g
                   transform="translate(447.35999,384.64001)"
                   id="g124"><path
                     id="path126"
                     style="fill:none;stroke:#ffc000;stroke-width:1.91999996;stroke-linecap:butt;stroke-linejoin:round;stroke-miterlimit:10;stroke-dasharray:none;stroke-opacity:1"
                     d="m 0,0 c 0,3.52 -3.04,6.56 -6.56,6.56 -3.52,0 -6.4,-3.04 -6.4,-6.56 0,-3.52 2.88,-6.4 6.4,-6.4 C -3.04,-6.4 0,-3.52 0,0" /></g><g
                   transform="translate(533.91998,499.35999)"
                   id="g128"><path
                     id="path130"
                     style="fill:none;stroke:#ffc000;stroke-width:1.91999996;stroke-linecap:butt;stroke-linejoin:round;stroke-miterlimit:10;stroke-dasharray:none;stroke-opacity:1"
                     d="m 0,0 c 0,3.52 -2.88,6.4 -6.56,6.4 -3.52,0 -6.4,-2.88 -6.4,-6.4 0,-3.68 2.88,-6.56 6.4,-6.56 C -2.88,-6.56 0,-3.68 0,0" /></g><g
                   transform="translate(644.47998,527.35998)"
                   id="g132"><path
                     id="path134"
                     style="fill:none;stroke:#ffc000;stroke-width:1.91999996;stroke-linecap:butt;stroke-linejoin:round;stroke-miterlimit:10;stroke-dasharray:none;stroke-opacity:1"
                     d="m 0,0 c 0,3.52 -2.88,6.4 -6.4,6.4 -3.68,0 -6.56,-2.88 -6.56,-6.4 0,-3.68 2.88,-6.56 6.56,-6.56 3.52,0 6.4,2.88 6.4,6.56" /></g></g></g><g
               transform="scale(0.070524)"
               id="g136"><text
                 id="text140"
                 style="font-variant:normal;font-weight:normal;font-size:327.67999268px;font-family:F1;-inkscape-font-specification:F1;writing-mode:lr-tb;fill:#000000;fill-opacity:1;fill-rule:nonzero;stroke:none"
                 transform="translate(2309.6001,7981.2798)"><tspan
                   id="tspan138"
                   y="0"
                   x="0 167.11679 245.75999 416.15359">0.01</tspan></text>
</g><g
               transform="scale(0.070524)"
               id="g142"><text
                 id="text146"
                 style="font-variant:normal;font-weight:normal;font-size:327.67999268px;font-family:F1;-inkscape-font-specification:F1;writing-mode:lr-tb;fill:#000000;fill-opacity:1;fill-rule:nonzero;stroke:none"
                 transform="translate(2475.2,5020.6401)"><tspan
                   id="tspan144"
                   y="0"
                   x="0 167.11679 249.03679">0.1</tspan></text>
</g><g
               transform="scale(0.070524)"
               id="g148"><text
                 id="text152"
                 style="font-variant:normal;font-weight:normal;font-size:327.67999268px;font-family:F1;-inkscape-font-specification:F1;writing-mode:lr-tb;fill:#000000;fill-opacity:1;fill-rule:nonzero;stroke:none"
                 transform="translate(2722.3999,2062.24)"><tspan
                   id="tspan150"
                   y="0"
                   x="0">1</tspan></text>
</g><g
               transform="scale(0.070524)"
               id="g154"><text
                 id="text158"
                 style="font-variant:normal;font-weight:normal;font-size:327.67999268px;font-family:F1;-inkscape-font-specification:F1;writing-mode:lr-tb;fill:#000000;fill-opacity:1;fill-rule:nonzero;stroke:none"
                 transform="translate(2860.8,8407.8398)"><tspan
                   id="tspan156"
                   y="0"
                   x="0 167.11679 334.23358 498.07358 10872.422 11036.262 11203.379 11367.219 11537.612">100010000</tspan></text>
</g><g
               transform="matrix(0,-0.110018,0.110018,0,0,0)"
               id="g160"><text
                 id="text164"
                 style="font-variant:normal;font-weight:normal;font-size:327.67999268px;font-family:F1;-inkscape-font-specification:F1;writing-mode:lr-tb;fill:#000000;fill-opacity:1;fill-rule:nonzero;stroke:none"
                 transform="translate(-4077.9199,1215.84)"><tspan
                   id="tspan162"
                   y="0"
                   x="0 157.28639 271.9744 383.38559 557.05597 671.74396 740.55676 914.22717 1087.8976 1202.5856 1461.4528 1533.5424 1635.1232 1736.704">Error norm [-]</tspan></text>
</g><g
               transform="scale(0.110018)"
               id="g166"><text
                 id="text170"
                 style="font-variant:normal;font-weight:normal;font-size:327.67999268px;font-family:F1;-inkscape-font-specification:F1;writing-mode:lr-tb;fill:#000000;fill-opacity:1;fill-rule:nonzero;stroke:none"
                 transform="translate(3308.48,5827.3599)"><tspan
                   id="tspan168"
                   y="0"
                   x="0 212.99199 383.38559 645.5296 815.92316 976.48639 1091.1743 1166.5408 1336.9343 1438.5151 1513.8816 1684.2751 1844.8384 1998.8479 2110.259 2270.8223 2434.6624 2562.4575 2634.5471 2808.2175 2909.7983 2981.8879 3083.4688 3191.603 3355.4431 3516.0063 3689.6768 3860.0703 4122.2144 4194.3037 4295.8848 4397.4653">Number of degrees of freedom [-]</tspan></text>
</g><g
               id="g172"><path
                 id="path174"
                 style="fill:#ffffff;fill-opacity:1;fill-rule:nonzero;stroke:none"
                 d="M 779.52002,166.88 H 955.20001 V 336.16 H 779.52002 Z" /></g><g
               id="g176"><path
                 id="path178"
                 style="fill:none;stroke:#000000;stroke-width:1.91999996;stroke-linecap:butt;stroke-linejoin:round;stroke-miterlimit:10;stroke-dasharray:none;stroke-opacity:1"
                 d="M 779.52002,166.88 H 955.20001 V 336.16 H 779.52002 Z" /></g><g
               id="g180"><g
                 clip-path="url(#clipPath186)"
                 id="g182"><path
                   id="path188"
                   style="fill:none;stroke:#4472c4;stroke-width:1.91999996;stroke-linecap:butt;stroke-linejoin:round;stroke-miterlimit:10;stroke-dasharray:none;stroke-opacity:1"
                   d="m 797.91998,181.28 6.40003,6.39999 -6.40003,6.56001 -6.56,-6.56001 z" /></g></g><g
               transform="scale(0.070524)"
               id="g190"><text
                 id="text194"
                 style="font-variant:normal;font-weight:normal;font-size:327.67999268px;font-family:F1;-inkscape-font-specification:F1;writing-mode:lr-tb;fill:#000000;fill-opacity:1;fill-rule:nonzero;stroke:none"
                 transform="translate(11481.9,2756.48)"><tspan
                   id="tspan192"
                   y="0"
                   x="0 101.5808 258.86719 353.89438 429.2608 645.5296 760.21759 933.888 1097.728 1212.416 1310.72 1477.8368 1559.7567 1635.1232 1802.24">(a) Order(2, 2)</tspan></text>
</g><g
               id="g196"><g
                 clip-path="url(#clipPath202)"
                 id="g198"><path
                   id="path204"
                   style="fill:none;stroke:#ed7d31;stroke-width:1.91999996;stroke-linecap:butt;stroke-linejoin:round;stroke-miterlimit:10;stroke-dasharray:none;stroke-opacity:1"
                   d="m 804.32001,236.8 -12.96003,-12.96 m 0,12.96 12.96003,-12.96" /></g></g><g
               transform="scale(0.070524)"
               id="g206"><text
                 id="text210"
                 style="font-variant:normal;font-weight:normal;font-size:327.67999268px;font-family:F1;-inkscape-font-specification:F1;writing-mode:lr-tb;fill:#000000;fill-opacity:1;fill-rule:nonzero;stroke:none"
                 transform="translate(11481.9,3357.76)"><tspan
                   id="tspan208"
                   y="0"
                   x="0 101.5808 271.9744 373.55521 445.64478 665.19037 779.87836 946.99518 1110.8352 1228.7999 1323.8271 1490.944 1576.1407 1648.2303 1812.0703">(b) Order(2, 3)</tspan></text>
</g><g
               id="g212"><g
                 clip-path="url(#clipPath218)"
                 id="g214"><path
                   id="path220"
                   style="fill:none;stroke:#70ad47;stroke-width:1.91999996;stroke-linecap:butt;stroke-linejoin:round;stroke-miterlimit:10;stroke-dasharray:none;stroke-opacity:1"
                   d="M 797.91998,266.07999 804.32001,278.88 H 791.35998 Z" /></g></g><g
               transform="scale(0.070524)"
               id="g222"><text
                 id="text226"
                 style="font-variant:normal;font-weight:normal;font-size:327.67999268px;font-family:F1;-inkscape-font-specification:F1;writing-mode:lr-tb;fill:#000000;fill-opacity:1;fill-rule:nonzero;stroke:none"
                 transform="translate(11481.9,3956.6399)"><tspan
                   id="tspan224"
                   y="0"
                   x="0 101.5808 235.9296 337.51041 409.60001 629.14557 743.83356 914.22717 1081.344 1192.7551 1294.3359 1458.176 1536.8192 1612.1855 1779.3024">(c) Order(3, 2)</tspan></text>
</g><g
               transform="translate(804.32001,314.72)"
               id="g228"><g
                 clip-path="url(#clipPath234)"
                 id="g230"><path
                   id="path236"
                   style="fill:none;stroke:#ffc000;stroke-width:1.91999996;stroke-linecap:butt;stroke-linejoin:round;stroke-miterlimit:10;stroke-dasharray:none;stroke-opacity:1"
                   d="m 0,0 c 0,3.52 -2.88,6.4 -6.4,6.4 -3.68,0 -6.56,-2.88 -6.56,-6.4 0,-3.68 2.88,-6.56 6.56,-6.56 3.52,0 6.4,2.88 6.4,6.56" /></g></g><g
               transform="scale(0.070524)"
               id="g238"><text
                 id="text242"
                 style="font-variant:normal;font-weight:normal;font-size:327.67999268px;font-family:F1;-inkscape-font-specification:F1;writing-mode:lr-tb;fill:#000000;fill-opacity:1;fill-rule:nonzero;stroke:none"
                 transform="translate(11481.9,4557.9199)"><tspan
                   id="tspan240"
                   y="0"
                   x="0 101.5808 271.9744 373.55521 445.64478 665.19037 779.87836 946.99518 1110.8352 1228.7999 1323.8271 1490.944 1576.1407 1648.2303 1812.0703">(d) Order(3, 3)</tspan></text>
</g></g></g></g></g></g></svg>