<svg width="1736" height="1054" xmlns="http://www.w3.org/2000/svg" xmlns:xlink="http://www.w3.org/1999/xlink" overflow="hidden"><defs><clipPath id="clip0"><rect x="1674" y="2848" width="1736" height="1054"/></clipPath><clipPath id="clip1"><rect x="1673" y="2847" width="1736" height="1054"/></clipPath><clipPath id="clip2"><rect x="1673" y="2847" width="1736" height="1054"/></clipPath><clipPath id="clip3"><rect x="1673" y="2847" width="1736" height="1054"/></clipPath><clipPath id="clip4"><rect x="1673" y="2847" width="1736" height="1054"/></clipPath><clipPath id="clip5"><rect x="1673" y="2847" width="1736" height="1054"/></clipPath><clipPath id="clip6"><rect x="1673" y="2847" width="1736" height="1054"/></clipPath><clipPath id="clip7"><rect x="1673" y="2847" width="1736" height="1054"/></clipPath><clipPath id="clip8"><rect x="1673" y="2847" width="1736" height="1054"/></clipPath><clipPath id="clip9"><rect x="1673" y="2847" width="1736" height="1054"/></clipPath><clipPath id="clip10"><rect x="1673" y="2847" width="1736" height="1054"/></clipPath><clipPath id="clip11"><rect x="1673" y="2847" width="1736" height="1054"/></clipPath><clipPath id="clip12"><rect x="1673" y="2847" width="1736" height="1054"/></clipPath><clipPath id="clip13"><rect x="1673" y="2847" width="1736" height="1054"/></clipPath><clipPath id="clip14"><rect x="1673" y="2847" width="1736" height="1054"/></clipPath><clipPath id="clip15"><rect x="1673" y="2847" width="1736" height="1054"/></clipPath><clipPath id="clip16"><rect x="1673" y="2847" width="1736" height="1054"/></clipPath><clipPath id="clip17"><rect x="1673" y="2847" width="1736" height="1054"/></clipPath><clipPath id="clip18"><rect x="1673" y="2847" width="1736" height="1054"/></clipPath><clipPath id="clip19"><rect x="1673" y="2847" width="1736" height="1054"/></clipPath><clipPath id="clip20"><rect x="1673" y="2847" width="1736" height="1054"/></clipPath><clipPath id="clip21"><rect x="1673" y="2847" width="1736" height="1054"/></clipPath><clipPath id="clip22"><rect x="1673" y="2847" width="1736" height="1054"/></clipPath><clipPath id="clip23"><rect x="1673" y="2847" width="1736" height="1054"/></clipPath><clipPath id="clip24"><rect x="1673" y="2847" width="1736" height="1054"/></clipPath><clipPath id="clip25"><rect x="1673" y="2847" width="1736" height="1054"/></clipPath><clipPath id="clip26"><rect x="1673" y="2847" width="1736" height="1054"/></clipPath><clipPath id="clip27"><rect x="1673" y="2847" width="1736" height="1054"/></clipPath><clipPath id="clip28"><rect x="1673" y="2847" width="1736" height="1054"/></clipPath><clipPath id="clip29"><rect x="1673" y="2847" width="1736" height="1054"/></clipPath><clipPath id="clip30"><rect x="1673" y="2847" width="1736" height="1054"/></clipPath><clipPath id="clip31"><rect x="1673" y="2847" width="1736" height="1054"/></clipPath></defs><g clip-path="url(#clip0)" transform="translate(-1674 -2848)"><rect x="1674" y="2848" width="1736" height="1054" fill="#FFFFFF"/><g clip-path="url(#clip1)"><path d="M2010.5 3639.5 3289.5 3639.5M2010.5 3528.62 3289.5 3528.62M2010.5 3463.61 3289.5 3463.61M2010.5 3417.61 3289.5 3417.61M2010.5 3382.61 3289.5 3382.61M2010.5 3353.61 3289.5 3353.61M2010.5 3328.61 3289.5 3328.61M2010.5 3307.61 3289.5 3307.61M2010.5 3288.61 3289.5 3288.61M2010.5 3271.61 3289.5 3271.61M2010.5 3160.6 3289.5 3160.6M2010.5 3096.6 3289.5 3096.6M2010.5 3050.6 3289.5 3050.6M2010.5 3014.6 3289.5 3014.6M2010.5 2985.6 3289.5 2985.6M2010.5 2961.6 3289.5 2961.6M2010.5 2939.6 3289.5 2939.6M2010.5 2921.6 3289.5 2921.6" stroke="#A5A5A5" stroke-width="3.4375" stroke-linejoin="round" stroke-miterlimit="10" fill="none"/></g><g clip-path="url(#clip2)"><path d="M2011 3639 3290 3639M2011 3272.11 3290 3272.11" stroke="#000000" stroke-width="5.72917" stroke-linejoin="round" stroke-miterlimit="10" fill="none"/></g><g clip-path="url(#clip3)"><path d="M2395.58 2904.5 2395.58 3639.5M2620.59 2904.5 2620.59 3639.5M2780.59 2904.5 2780.59 3639.5M2904.6 2904.5 2904.6 3639.5M3005.6 2904.5 3005.6 3639.5M3091.6 2904.5 3091.6 3639.5M3165.6 2904.5 3165.6 3639.5M3230.61 2904.5 3230.61 3639.5" stroke="#A5A5A5" stroke-width="3.4375" stroke-linejoin="round" stroke-miterlimit="10" fill="none"/></g><g clip-path="url(#clip4)"><path d="M3289.5 2904.5 3289.5 3639.5" stroke="#D9D9D9" stroke-width="3.4375" stroke-linejoin="round" stroke-miterlimit="10" fill="none"/></g><g clip-path="url(#clip5)"><rect x="2011" y="2904" width="1279" height="735" stroke="#000000" stroke-width="5.72917" stroke-linejoin="round" stroke-miterlimit="10" fill="none"/></g><g clip-path="url(#clip6)"><path d="M0 0 0.000360892 735" stroke="#000000" stroke-width="3.4375" stroke-linejoin="round" stroke-miterlimit="10" fill="none" fill-rule="evenodd" transform="matrix(1 0 0 -1 2010.5 3639.5)"/></g><g clip-path="url(#clip7)"><path d="M2011 2904 3290 2904" stroke="#000000" stroke-width="5.72917" stroke-linejoin="round" stroke-miterlimit="10" fill="none" fill-rule="evenodd"/></g><g clip-path="url(#clip8)"><path d="M2328.3 2988.34 2339.3 2999.34 2328.3 3010.34 2317.3 2999.34Z" stroke="#4472C4" stroke-width="3.4375" stroke-linejoin="round" stroke-miterlimit="10" fill="#4472C4"/><path d="M2367.3 3051.34 2378.3 3062.34 2367.3 3073.34 2356.3 3062.34Z" stroke="#4472C4" stroke-width="3.4375" stroke-linejoin="round" stroke-miterlimit="10" fill="#4472C4"/><path d="M2511.3 3223.34 2522.3 3234.34 2511.3 3245.34 2500.3 3234.34Z" stroke="#4472C4" stroke-width="3.4375" stroke-linejoin="round" stroke-miterlimit="10" fill="#4472C4"/><path d="M2693.3 3326.34 2704.3 3337.34 2693.3 3348.34 2682.3 3337.34Z" stroke="#4472C4" stroke-width="3.4375" stroke-linejoin="round" stroke-miterlimit="10" fill="#4472C4"/></g><g clip-path="url(#clip9)"><path d="M2328.3 3019.34 2339.3 3041.34 2317.3 3041.34Z" stroke="#ED7D31" stroke-width="3.4375" stroke-linejoin="round" stroke-miterlimit="10" fill="#ED7D31"/><path d="M2367.3 3053.34 2378.3 3075.34 2356.3 3075.34Z" stroke="#ED7D31" stroke-width="3.4375" stroke-linejoin="round" stroke-miterlimit="10" fill="#ED7D31"/><path d="M2511.3 3243.34 2522.3 3265.34 2500.3 3265.34Z" stroke="#ED7D31" stroke-width="3.4375" stroke-linejoin="round" stroke-miterlimit="10" fill="#ED7D31"/><path d="M2693.3 3334.34 2704.3 3356.34 2682.3 3356.34Z" stroke="#ED7D31" stroke-width="3.4375" stroke-linejoin="round" stroke-miterlimit="10" fill="#ED7D31"/></g><g clip-path="url(#clip10)"><path d="M2317.3 3054.34 2339.3 3054.34 2339.3 3076.34 2317.3 3076.34Z" stroke="#70AD47" stroke-width="3.4375" stroke-linejoin="round" stroke-miterlimit="10" fill="#70AD47"/><path d="M2356.3 3259.34 2378.3 3259.34 2378.3 3281.34 2356.3 3281.34Z" stroke="#70AD47" stroke-width="3.4375" stroke-linejoin="round" stroke-miterlimit="10" fill="#70AD47"/><path d="M2500.3 3457.34 2522.3 3457.34 2522.3 3479.34 2500.3 3479.34Z" stroke="#70AD47" stroke-width="3.4375" stroke-linejoin="round" stroke-miterlimit="10" fill="#70AD47"/><path d="M2682.3 3541.34 2704.3 3541.34 2704.3 3563.34 2682.3 3563.34Z" stroke="#70AD47" stroke-width="3.4375" stroke-linejoin="round" stroke-miterlimit="10" fill="#70AD47"/></g><g clip-path="url(#clip11)"><path d="M2339.3 3113.34C2339.3 3119.41 2334.37 3124.34 2328.3 3124.34 2322.22 3124.34 2317.3 3119.41 2317.3 3113.34 2317.3 3107.26 2322.22 3102.34 2328.3 3102.34 2334.37 3102.34 2339.3 3107.26 2339.3 3113.34Z" stroke="#44546A" stroke-width="3.4375" stroke-linejoin="round" stroke-miterlimit="10" fill="#44546A"/><path d="M2378.3 3336.34C2378.3 3342.41 2373.37 3347.34 2367.3 3347.34 2361.22 3347.34 2356.3 3342.41 2356.3 3336.34 2356.3 3330.26 2361.22 3325.34 2367.3 3325.34 2373.37 3325.34 2378.3 3330.26 2378.3 3336.34Z" stroke="#44546A" stroke-width="3.4375" stroke-linejoin="round" stroke-miterlimit="10" fill="#44546A"/><path d="M2522.3 3538.34C2522.3 3544.41 2517.37 3549.34 2511.3 3549.34 2505.22 3549.34 2500.3 3544.41 2500.3 3538.34 2500.3 3532.26 2505.22 3527.34 2511.3 3527.34 2517.37 3527.34 2522.3 3532.26 2522.3 3538.34Z" stroke="#44546A" stroke-width="3.4375" stroke-linejoin="round" stroke-miterlimit="10" fill="#44546A"/><path d="M2704.3 3587.34C2704.3 3593.41 2699.37 3598.34 2693.3 3598.34 2687.22 3598.34 2682.3 3593.41 2682.3 3587.34 2682.3 3581.26 2687.22 3576.34 2693.3 3576.34 2699.37 3576.34 2704.3 3581.26 2704.3 3587.34Z" stroke="#44546A" stroke-width="3.4375" stroke-linejoin="round" stroke-miterlimit="10" fill="#44546A"/></g><g clip-path="url(#clip12)"><text font-family="Calibri,Calibri_MSFontService,sans-serif" font-weight="400" font-size="55" transform="matrix(1 0 0 1 1862.22 3654)">0.01</text></g><g clip-path="url(#clip13)"><text font-family="Calibri,Calibri_MSFontService,sans-serif" font-weight="400" font-size="55" transform="matrix(1 0 0 1 1890.09 3287)">0.1</text></g><g clip-path="url(#clip14)"><text font-family="Calibri,Calibri_MSFontService,sans-serif" font-weight="400" font-size="55" transform="matrix(1 0 0 1 1931.84 2920)">1</text></g><g clip-path="url(#clip15)"><text font-family="Calibri,Calibri_MSFontService,sans-serif" font-weight="400" font-size="55" transform="matrix(1 0 0 1 1955 3726)">1000</text></g><g clip-path="url(#clip16)"><text font-family="Calibri,Calibri_MSFontService,sans-serif" font-weight="400" font-size="55" transform="matrix(1 0 0 1 3219.9 3726)">10000</text></g><g clip-path="url(#clip17)"><text font-family="Calibri,Calibri_MSFontService,sans-serif" font-weight="400" font-size="73" transform="matrix(6.12323e-17 -1 1 6.12323e-17 1801.1 3478)">Error norm [</text></g><g clip-path="url(#clip18)"><text font-family="Calibri,Calibri_MSFontService,sans-serif" font-weight="400" font-size="73" transform="matrix(6.12323e-17 -1 1 6.12323e-17 1801.1 3111)">-</text></g><g clip-path="url(#clip19)"><text font-family="Calibri,Calibri_MSFontService,sans-serif" font-weight="400" font-size="73" transform="matrix(6.12323e-17 -1 1 6.12323e-17 1801.1 3088)">]</text></g><g clip-path="url(#clip20)"><text font-family="Calibri,Calibri_MSFontService,sans-serif" font-weight="400" font-size="73" transform="matrix(1 0 0 1 2145.67 3825)">Number of degrees of freedom [</text></g><g clip-path="url(#clip21)"><text font-family="Calibri,Calibri_MSFontService,sans-serif" font-weight="400" font-size="73" transform="matrix(1 0 0 1 3109.7 3825)">-</text></g><g clip-path="url(#clip22)"><text font-family="Calibri,Calibri_MSFontService,sans-serif" font-weight="400" font-size="73" transform="matrix(1 0 0 1 3132.16 3825)">]</text></g><g clip-path="url(#clip23)"><rect x="2925.5" y="2951.5" width="309" height="311" stroke="#000000" stroke-width="3.4375" stroke-linejoin="round" stroke-miterlimit="10" fill="#FFFFFF"/></g><g clip-path="url(#clip24)"><path d="M2955.5 2979.5 2966.5 2990.5 2955.5 3001.5 2944.5 2990.5Z" stroke="#4472C4" stroke-width="3.4375" stroke-linejoin="round" stroke-miterlimit="10" fill="#4472C4"/></g><g clip-path="url(#clip25)"><text font-family="Calibri,Calibri_MSFontService,sans-serif" font-weight="400" font-size="41" transform="matrix(1 0 0 1 2976.82 3002)">(a) Order(2, 2)</text></g><g clip-path="url(#clip26)"><path d="M2955.5 3057.5 2966.5 3079.5 2944.5 3079.5Z" stroke="#ED7D31" stroke-width="3.4375" stroke-linejoin="round" stroke-miterlimit="10" fill="#ED7D31"/></g><g clip-path="url(#clip27)"><text font-family="Calibri,Calibri_MSFontService,sans-serif" font-weight="400" font-size="41" transform="matrix(1 0 0 1 2976.82 3080)">(b) Order(2, 3)</text></g><g clip-path="url(#clip28)"><path d="M2944.6 3134.6 2966.6 3134.6 2966.6 3156.6 2944.6 3156.6Z" stroke="#70AD47" stroke-width="3.4375" stroke-linejoin="round" stroke-miterlimit="10" fill="#70AD47"/></g><g clip-path="url(#clip29)"><text font-family="Calibri,Calibri_MSFontService,sans-serif" font-weight="400" font-size="41" transform="matrix(1 0 0 1 2976.82 3158)">(c) Order(3, 2)</text></g><g clip-path="url(#clip30)"><path d="M2966 3223.5C2966 3229.31 2961.07 3234.02 2955 3234.02 2948.93 3234.02 2944 3229.31 2944 3223.5 2944 3217.69 2948.93 3212.98 2955 3212.98 2961.07 3212.98 2966 3217.69 2966 3223.5Z" stroke="#44546A" stroke-width="3.4375" stroke-linejoin="round" stroke-miterlimit="10" fill="#44546A"/></g><g clip-path="url(#clip31)"><text font-family="Calibri,Calibri_MSFontService,sans-serif" font-weight="400" font-size="41" transform="matrix(1 0 0 1 2976.82 3235)">(d) Order(3, 3)</text></g></g></svg>