<?xml version="1.0" encoding="UTF-8" standalone="no"?>
<svg
   xmlns:dc="http://purl.org/dc/elements/1.1/"
   xmlns:cc="http://creativecommons.org/ns#"
   xmlns:rdf="http://www.w3.org/1999/02/22-rdf-syntax-ns#"
   xmlns:svg="http://www.w3.org/2000/svg"
   xmlns="http://www.w3.org/2000/svg"
   viewBox="0 0 918.66669 518.66669"
   height="518.66669"
   width="918.66669"
   xml:space="preserve"
   id="svg2"
   version="1.1"><metadata
     id="metadata8"><rdf:RDF><cc:Work
         rdf:about=""><dc:format>image/svg+xml</dc:format><dc:type
           rdf:resource="http://purl.org/dc/dcmitype/StillImage" /></cc:Work></rdf:RDF></metadata><defs
     id="defs6"><clipPath
       id="clipPath20"
       clipPathUnits="userSpaceOnUse"><path
         id="path18"
         d="M 0,0 H 841.92004 V 595.32001 H 0 Z" /></clipPath><clipPath
       id="clipPath34"
       clipPathUnits="userSpaceOnUse"><path
         style="clip-rule:evenodd"
         id="path32"
         d="M 67.199997,72 V 721.76001 H 1055.36 V 72 Z" /></clipPath><clipPath
       id="clipPath62"
       clipPathUnits="userSpaceOnUse"><path
         style="clip-rule:evenodd"
         id="path60"
         d="M 67.199997,72 V 721.76001 H 1055.36 V 72 Z" /></clipPath><clipPath
       id="clipPath180"
       clipPathUnits="userSpaceOnUse"><path
         style="clip-rule:evenodd"
         id="path178"
         d="M 67.199997,72 V 721.76001 H 1055.36 V 72 Z" /></clipPath><clipPath
       id="clipPath196"
       clipPathUnits="userSpaceOnUse"><path
         style="clip-rule:evenodd"
         id="path194"
         d="M 67.199997,72 V 721.76001 H 1055.36 V 72 Z" /></clipPath><clipPath
       id="clipPath212"
       clipPathUnits="userSpaceOnUse"><path
         style="clip-rule:evenodd"
         id="path210"
         d="M 67.199997,72 V 721.76001 H 1055.36 V 72 Z" /></clipPath><clipPath
       id="clipPath228"
       clipPathUnits="userSpaceOnUse"><path
         style="clip-rule:evenodd"
         id="path226"
         d="M -737.44,-242.72 V 407.04001 H 250.72 V -242.72 Z" /></clipPath></defs><g
     transform="matrix(1.3333333,0,0,-1.3333333,0,518.66667)"
     id="g10"><g
       transform="translate(-81,-109)"
       id="g12"><g
         id="g14"><g
           clip-path="url(#clipPath20)"
           id="g16"><g
             transform="matrix(0.75,0,0,-0.75,0,595.32001)"
             id="g22"><g
               id="g24"><path
                 id="path26"
                 style="fill:#ffffff;fill-opacity:1;fill-rule:nonzero;stroke:none"
                 d="M 67.519997,110.56 H 1055.36 V 683.20001 H 67.519997 Z" /></g><g
               id="g28"><g
                 clip-path="url(#clipPath34)"
                 id="g30"><g
                   transform="translate(225.28,556.64001)"
                   id="g36"><path
                     id="path38"
                     style="fill:none;stroke:#a5a5a5;stroke-width:1.91999996;stroke-linecap:butt;stroke-linejoin:round;stroke-miterlimit:10;stroke-dasharray:none;stroke-opacity:1"
                     d="M 0,0 H 772.64001 M 0,-125.76 H 772.64001 M 0,-199.36 H 772.64001 M 0,-251.52 H 772.64001 M 0,-292.16 H 772.64001 M 0,-325.12 H 772.64001 M 0,-353.12 H 772.64001 M 0,-377.60001 H 772.64001 M 0,-398.72 h 772.64001" /></g><g
                   id="g40"><path
                     id="path42"
                     style="fill:none;stroke:#000000;stroke-width:3.20000005;stroke-linecap:butt;stroke-linejoin:round;stroke-miterlimit:10;stroke-dasharray:none;stroke-opacity:1"
                     d="M 225.28,556.64001 H 997.91998" /></g><g
                   transform="translate(457.92001,138.72)"
                   id="g44"><path
                     id="path46"
                     style="fill:none;stroke:#a5a5a5;stroke-width:1.91999996;stroke-linecap:butt;stroke-linejoin:round;stroke-miterlimit:10;stroke-dasharray:none;stroke-opacity:1"
                     d="M 0,0 V 417.92001 M 136,0 V 417.92001 M 232.48,0 V 417.92001 M 307.20001,0 V 417.92001 M 368.64001,0 V 417.92001 M 420.32001,0 V 417.92001 M 464.95999,0 V 417.92001 M 504.48001,0 v 417.92001" /></g><g
                   id="g48"><path
                     id="path50"
                     style="fill:none;stroke:#d9d9d9;stroke-width:1.91999996;stroke-linecap:butt;stroke-linejoin:round;stroke-miterlimit:10;stroke-dasharray:none;stroke-opacity:1"
                     d="M 997.91998,138.72 V 556.64001" /></g></g></g><g
               id="g52"><path
                 id="path54"
                 style="fill:none;stroke:#000000;stroke-width:3.20000005;stroke-linecap:butt;stroke-linejoin:round;stroke-miterlimit:10;stroke-dasharray:none;stroke-opacity:1"
                 d="M 225.28,138.72 H 997.91998 V 556.64001 H 225.28 Z" /></g><g
               id="g56"><g
                 clip-path="url(#clipPath62)"
                 id="g58"><g
                   id="g64"><path
                     id="path66"
                     style="fill:none;stroke:#000000;stroke-width:1.91999996;stroke-linecap:butt;stroke-linejoin:round;stroke-miterlimit:10;stroke-dasharray:none;stroke-opacity:1"
                     d="M 225.28,556.64001 V 138.72" /></g><g
                   id="g68"><path
                     id="path70"
                     style="fill:none;stroke:#000000;stroke-width:3.20000005;stroke-linecap:butt;stroke-linejoin:round;stroke-miterlimit:10;stroke-dasharray:none;stroke-opacity:1"
                     d="M 225.28,138.72 H 997.91998" /></g><g
                   id="g72"><path
                     id="path74"
                     style="fill:none;stroke:#4472c4;stroke-width:1.91999996;stroke-linecap:butt;stroke-linejoin:round;stroke-miterlimit:10;stroke-dasharray:none;stroke-opacity:1"
                     d="m 417.28,171.52 6.56,6.4 -6.56,6.56 -6.4,-6.56 z" /></g><g
                   id="g76"><path
                     id="path78"
                     style="fill:none;stroke:#4472c4;stroke-width:1.91999996;stroke-linecap:butt;stroke-linejoin:round;stroke-miterlimit:10;stroke-dasharray:none;stroke-opacity:1"
                     d="m 440.95999,222.08 6.56,6.4 -6.56,6.55999 L 434.56,228.48 Z" /></g><g
                   id="g80"><path
                     id="path82"
                     style="fill:none;stroke:#4472c4;stroke-width:1.91999996;stroke-linecap:butt;stroke-linejoin:round;stroke-miterlimit:10;stroke-dasharray:none;stroke-opacity:1"
                     d="m 527.67999,322.56 6.40003,6.39999 -6.40003,6.4 -6.55999,-6.4 z" /></g><g
                   id="g84"><path
                     id="path86"
                     style="fill:none;stroke:#4472c4;stroke-width:1.91999996;stroke-linecap:butt;stroke-linejoin:round;stroke-miterlimit:10;stroke-dasharray:none;stroke-opacity:1"
                     d="m 638.23999,351.84 6.40002,6.39999 -6.40002,6.40002 -6.56,-6.40002 z" /></g><g
                   id="g88"><path
                     id="path90"
                     style="fill:none;stroke:#ed7d31;stroke-width:1.91999996;stroke-linecap:butt;stroke-linejoin:round;stroke-miterlimit:10;stroke-dasharray:none;stroke-opacity:1"
                     d="m 423.84,203.2 -12.96,-12.96 m 0,12.96 12.96,-12.96" /></g><g
                   id="g92"><path
                     id="path94"
                     style="fill:none;stroke:#ed7d31;stroke-width:1.91999996;stroke-linecap:butt;stroke-linejoin:round;stroke-miterlimit:10;stroke-dasharray:none;stroke-opacity:1"
                     d="M 447.51999,231.52 434.56,218.72 m 0,12.8 12.95999,-12.8" /></g><g
                   id="g96"><path
                     id="path98"
                     style="fill:none;stroke:#ed7d31;stroke-width:1.91999996;stroke-linecap:butt;stroke-linejoin:round;stroke-miterlimit:10;stroke-dasharray:none;stroke-opacity:1"
                     d="M 534.08002,341.28 521.12,328.32001 m 0,12.95999 12.96002,-12.95999" /></g><g
                   id="g100"><path
                     id="path102"
                     style="fill:none;stroke:#ed7d31;stroke-width:1.91999996;stroke-linecap:butt;stroke-linejoin:round;stroke-miterlimit:10;stroke-dasharray:none;stroke-opacity:1"
                     d="M 644.64001,368.95999 631.67999,356.16 m 0,12.79999 12.96002,-12.79999" /></g><g
                   id="g104"><path
                     id="path106"
                     style="fill:none;stroke:#70ad47;stroke-width:1.91999996;stroke-linecap:butt;stroke-linejoin:round;stroke-miterlimit:10;stroke-dasharray:none;stroke-opacity:1"
                     d="M 417.28,245.75999 423.84,258.72 H 410.88 Z" /></g><g
                   id="g108"><path
                     id="path110"
                     style="fill:none;stroke:#70ad47;stroke-width:1.91999996;stroke-linecap:butt;stroke-linejoin:round;stroke-miterlimit:10;stroke-dasharray:none;stroke-opacity:1"
                     d="m 440.95999,340 6.56,12.95999 H 434.56 Z" /></g><g
                   id="g112"><path
                     id="path114"
                     style="fill:none;stroke:#70ad47;stroke-width:1.91999996;stroke-linecap:butt;stroke-linejoin:round;stroke-miterlimit:10;stroke-dasharray:none;stroke-opacity:1"
                     d="m 527.67999,368.64001 6.40003,12.96 H 521.12 Z" /></g><g
                   id="g116"><path
                     id="path118"
                     style="fill:none;stroke:#70ad47;stroke-width:1.91999996;stroke-linecap:butt;stroke-linejoin:round;stroke-miterlimit:10;stroke-dasharray:none;stroke-opacity:1"
                     d="m 638.23999,382.23999 6.40002,12.96002 h -12.96002 z" /></g><g
                   transform="translate(423.84,288.32001)"
                   id="g120"><path
                     id="path122"
                     style="fill:none;stroke:#ffc000;stroke-width:1.91999996;stroke-linecap:butt;stroke-linejoin:round;stroke-miterlimit:10;stroke-dasharray:none;stroke-opacity:1"
                     d="m 0,0 c 0,3.52 -3.04,6.4 -6.56,6.4 -3.52,0 -6.4,-2.88 -6.4,-6.4 0,-3.52 2.88,-6.56 6.4,-6.56 C -3.04,-6.56 0,-3.52 0,0" /></g><g
                   transform="translate(447.51999,352.32001)"
                   id="g124"><path
                     id="path126"
                     style="fill:none;stroke:#ffc000;stroke-width:1.91999996;stroke-linecap:butt;stroke-linejoin:round;stroke-miterlimit:10;stroke-dasharray:none;stroke-opacity:1"
                     d="m 0,0 c 0,3.68 -2.88,6.56 -6.56,6.56 -3.52,0 -6.4,-2.88 -6.4,-6.56 0,-3.52 2.88,-6.4 6.4,-6.4 C -2.88,-6.4 0,-3.52 0,0" /></g><g
                   transform="translate(534.08002,387.84)"
                   id="g128"><path
                     id="path130"
                     style="fill:none;stroke:#ffc000;stroke-width:1.91999996;stroke-linecap:butt;stroke-linejoin:round;stroke-miterlimit:10;stroke-dasharray:none;stroke-opacity:1"
                     d="m 0,0 c 0,3.52 -2.88,6.4 -6.4,6.4 -3.68,0 -6.56,-2.88 -6.56,-6.4 0,-3.52 2.88,-6.56 6.56,-6.56 3.52,0 6.4,3.04 6.4,6.56" /></g><g
                   transform="translate(644.64001,392.16)"
                   id="g132"><path
                     id="path134"
                     style="fill:none;stroke:#ffc000;stroke-width:1.91999996;stroke-linecap:butt;stroke-linejoin:round;stroke-miterlimit:10;stroke-dasharray:none;stroke-opacity:1"
                     d="m 0,0 c 0,3.52 -2.88,6.4 -6.4,6.4 -3.52,0 -6.56,-2.88 -6.56,-6.4 0,-3.68 3.04,-6.56 6.56,-6.56 3.52,0 6.4,2.88 6.4,6.56" /></g></g></g><g
               transform="scale(0.070524)"
               id="g136"><text
                 id="text140"
                 style="font-variant:normal;font-weight:normal;font-size:327.67999268px;font-family:F1;-inkscape-font-specification:F1;writing-mode:lr-tb;fill:#000000;fill-opacity:1;fill-rule:nonzero;stroke:none"
                 transform="translate(2311.8401,7983.6802)"><tspan
                   id="tspan138"
                   y="0"
                   x="0 167.11679 249.03679 416.15359">0.01</tspan></text>
</g><g
               transform="scale(0.070524)"
               id="g142"><text
                 id="text146"
                 style="font-variant:normal;font-weight:normal;font-size:327.67999268px;font-family:F1;-inkscape-font-specification:F1;writing-mode:lr-tb;fill:#000000;fill-opacity:1;fill-rule:nonzero;stroke:none"
                 transform="translate(2477.4399,2057.76)"><tspan
                   id="tspan144"
                   y="0"
                   x="0 167.11679 249.03679">0.1</tspan></text>
</g><g
               transform="scale(0.070524)"
               id="g148"><text
                 id="text152"
                 style="font-variant:normal;font-weight:normal;font-size:327.67999268px;font-family:F1;-inkscape-font-specification:F1;writing-mode:lr-tb;fill:#000000;fill-opacity:1;fill-rule:nonzero;stroke:none"
                 transform="translate(2865.4399,8410.0801)"><tspan
                   id="tspan150"
                   y="0"
                   x="0 167.11679 330.95679 498.07358 10869.146 11036.262 11203.379 11367.219 11534.336">100010000</tspan></text>
</g><g
               transform="matrix(0,-0.110018,0.110018,0,0,0)"
               id="g154"><text
                 id="text158"
                 style="font-variant:normal;font-weight:normal;font-size:327.67999268px;font-family:F1;-inkscape-font-specification:F1;writing-mode:lr-tb;fill:#000000;fill-opacity:1;fill-rule:nonzero;stroke:none"
                 transform="translate(-4079.3601,1217.28)"><tspan
                   id="tspan156"
                   y="0"
                   x="0 160.5632 275.25119 383.38559 557.05597 671.74396 740.55676 914.22717 1087.8976 1202.5856 1461.4528 1533.5424 1635.1232 1736.704">Error norm [-]</tspan></text>
</g><g
               transform="scale(0.110018)"
               id="g160"><text
                 id="text164"
                 style="font-variant:normal;font-weight:normal;font-size:327.67999268px;font-family:F1;-inkscape-font-specification:F1;writing-mode:lr-tb;fill:#000000;fill-opacity:1;fill-rule:nonzero;stroke:none"
                 transform="translate(3310.0801,5828.7998)"><tspan
                   id="tspan162"
                   y="0"
                   x="0 212.99199 383.38559 645.5296 815.92316 976.48639 1091.1743 1163.2639 1336.9343 1438.5151 1513.8816 1680.9984 1844.8384 1998.8479 2110.259 2270.8223 2431.3855 2562.4575 2634.5471 2808.2175 2909.7983 2981.8879 3083.4688 3191.603 3355.4431 3519.2832 3686.3999 3863.3472 4122.2144 4194.3037 4295.8848 4397.4653">Number of degrees of freedom [-]</tspan></text>
</g><g
               id="g166"><path
                 id="path168"
                 style="fill:#ffffff;fill-opacity:1;fill-rule:nonzero;stroke:none"
                 d="M 779.84003,166.72 H 955.35998 V 336 H 779.84003 Z" /></g><g
               id="g170"><path
                 id="path172"
                 style="fill:none;stroke:#000000;stroke-width:1.91999996;stroke-linecap:butt;stroke-linejoin:round;stroke-miterlimit:10;stroke-dasharray:none;stroke-opacity:1"
                 d="M 779.84003,166.72 H 955.35998 V 336 H 779.84003 Z" /></g><g
               id="g174"><g
                 clip-path="url(#clipPath180)"
                 id="g176"><path
                   id="path182"
                   style="fill:none;stroke:#4472c4;stroke-width:1.91999996;stroke-linecap:butt;stroke-linejoin:round;stroke-miterlimit:10;stroke-dasharray:none;stroke-opacity:1"
                   d="m 798.23999,181.28 6.40002,6.39999 -6.40002,6.56001 -6.56,-6.56001 z" /></g></g><g
               transform="scale(0.070524)"
               id="g184"><text
                 id="text188"
                 style="font-variant:normal;font-weight:normal;font-size:327.67999268px;font-family:F1;-inkscape-font-specification:F1;writing-mode:lr-tb;fill:#000000;fill-opacity:1;fill-rule:nonzero;stroke:none"
                 transform="translate(11486.6,2754.24)"><tspan
                   id="tspan186"
                   y="0"
                   x="0 98.304001 255.59039 353.89438 425.98398 645.5296 760.21759 933.888 1094.4512 1209.1392 1307.4431 1477.8368 1559.7567 1631.8463 1798.9631">(a) Order(2, 2)</tspan></text>
</g><g
               id="g190"><g
                 clip-path="url(#clipPath196)"
                 id="g192"><path
                   id="path198"
                   style="fill:none;stroke:#ed7d31;stroke-width:1.91999996;stroke-linecap:butt;stroke-linejoin:round;stroke-miterlimit:10;stroke-dasharray:none;stroke-opacity:1"
                   d="m 804.64001,236.48 -12.96002,-12.96 m 0,12.96 12.96002,-12.96" /></g></g><g
               transform="scale(0.070524)"
               id="g200"><text
                 id="text204"
                 style="font-variant:normal;font-weight:normal;font-size:327.67999268px;font-family:F1;-inkscape-font-specification:F1;writing-mode:lr-tb;fill:#000000;fill-opacity:1;fill-rule:nonzero;stroke:none"
                 transform="translate(11486.6,3355.3601)"><tspan
                   id="tspan202"
                   y="0"
                   x="0 98.304001 268.6976 370.27838 445.64478 661.91357 776.60156 946.99518 1110.8352 1228.7999 1323.8271 1487.6671 1572.864 1648.2303 1812.0703">(b) Order(2, 3)</tspan></text>
</g><g
               id="g206"><g
                 clip-path="url(#clipPath212)"
                 id="g208"><path
                   id="path214"
                   style="fill:none;stroke:#70ad47;stroke-width:1.91999996;stroke-linecap:butt;stroke-linejoin:round;stroke-miterlimit:10;stroke-dasharray:none;stroke-opacity:1"
                   d="M 798.23999,265.92001 804.64001,278.88 H 791.67999 Z" /></g></g><g
               transform="scale(0.070524)"
               id="g216"><text
                 id="text220"
                 style="font-variant:normal;font-weight:normal;font-size:327.67999268px;font-family:F1;-inkscape-font-specification:F1;writing-mode:lr-tb;fill:#000000;fill-opacity:1;fill-rule:nonzero;stroke:none"
                 transform="translate(11486.6,3954.3999)"><tspan
                   id="tspan218"
                   y="0"
                   x="0 98.304001 235.9296 334.23358 409.60001 629.14557 740.55676 910.95038 1078.0671 1189.4784 1294.3359 1458.176 1536.8192 1612.1855 1776.0255">(c) Order(3, 2)</tspan></text>
</g><g
               transform="translate(804.64001,314.72)"
               id="g222"><g
                 clip-path="url(#clipPath228)"
                 id="g224"><path
                   id="path230"
                   style="fill:none;stroke:#ffc000;stroke-width:1.91999996;stroke-linecap:butt;stroke-linejoin:round;stroke-miterlimit:10;stroke-dasharray:none;stroke-opacity:1"
                   d="m 0,0 c 0,3.52 -2.88,6.4 -6.4,6.4 -3.68,0 -6.56,-2.88 -6.56,-6.4 0,-3.68 2.88,-6.56 6.56,-6.56 3.52,0 6.4,2.88 6.4,6.56" /></g></g><g
               transform="scale(0.070524)"
               id="g232"><text
                 id="text236"
                 style="font-variant:normal;font-weight:normal;font-size:327.67999268px;font-family:F1;-inkscape-font-specification:F1;writing-mode:lr-tb;fill:#000000;fill-opacity:1;fill-rule:nonzero;stroke:none"
                 transform="translate(11486.6,4555.52)"><tspan
                   id="tspan234"
                   y="0"
                   x="0 98.304001 268.6976 370.27838 445.64478 661.91357 776.60156 946.99518 1110.8352 1228.7999 1323.8271 1487.6671 1572.864 1648.2303 1812.0703">(d) Order(3, 3)</tspan></text>
</g></g></g></g></g></g></svg>