<svg width="1736" height="1053" xmlns="http://www.w3.org/2000/svg" xmlns:xlink="http://www.w3.org/1999/xlink" overflow="hidden"><defs><clipPath id="clip0"><rect x="3556" y="2877" width="1736" height="1053"/></clipPath><clipPath id="clip1"><rect x="3556" y="2877" width="1736" height="1053"/></clipPath><clipPath id="clip2"><rect x="3556" y="2877" width="1736" height="1053"/></clipPath><clipPath id="clip3"><rect x="3556" y="2877" width="1736" height="1053"/></clipPath><clipPath id="clip4"><rect x="3556" y="2877" width="1736" height="1053"/></clipPath><clipPath id="clip5"><rect x="3556" y="2877" width="1736" height="1053"/></clipPath><clipPath id="clip6"><rect x="3556" y="2877" width="1736" height="1053"/></clipPath><clipPath id="clip7"><rect x="3556" y="2877" width="1736" height="1053"/></clipPath><clipPath id="clip8"><rect x="3556" y="2877" width="1736" height="1053"/></clipPath><clipPath id="clip9"><rect x="3556" y="2877" width="1736" height="1053"/></clipPath><clipPath id="clip10"><rect x="3556" y="2877" width="1736" height="1053"/></clipPath><clipPath id="clip11"><rect x="3556" y="2877" width="1736" height="1053"/></clipPath><clipPath id="clip12"><rect x="3556" y="2877" width="1736" height="1053"/></clipPath><clipPath id="clip13"><rect x="3556" y="2877" width="1736" height="1053"/></clipPath><clipPath id="clip14"><rect x="3556" y="2877" width="1736" height="1053"/></clipPath><clipPath id="clip15"><rect x="3556" y="2877" width="1736" height="1053"/></clipPath><clipPath id="clip16"><rect x="3556" y="2877" width="1736" height="1053"/></clipPath><clipPath id="clip17"><rect x="3556" y="2877" width="1736" height="1053"/></clipPath><clipPath id="clip18"><rect x="3556" y="2877" width="1736" height="1053"/></clipPath><clipPath id="clip19"><rect x="3556" y="2877" width="1736" height="1053"/></clipPath><clipPath id="clip20"><rect x="3556" y="2877" width="1736" height="1053"/></clipPath><clipPath id="clip21"><rect x="3556" y="2877" width="1736" height="1053"/></clipPath><clipPath id="clip22"><rect x="3556" y="2877" width="1736" height="1053"/></clipPath><clipPath id="clip23"><rect x="3556" y="2877" width="1736" height="1053"/></clipPath><clipPath id="clip24"><rect x="3556" y="2877" width="1736" height="1053"/></clipPath><clipPath id="clip25"><rect x="3556" y="2877" width="1736" height="1053"/></clipPath><clipPath id="clip26"><rect x="3556" y="2877" width="1736" height="1053"/></clipPath><clipPath id="clip27"><rect x="3556" y="2877" width="1736" height="1053"/></clipPath><clipPath id="clip28"><rect x="3556" y="2877" width="1736" height="1053"/></clipPath><clipPath id="clip29"><rect x="3556" y="2877" width="1736" height="1053"/></clipPath><clipPath id="clip30"><rect x="3556" y="2877" width="1736" height="1053"/></clipPath></defs><g clip-path="url(#clip0)" transform="translate(-3556 -2877)"><rect x="3556" y="2877" width="1736" height="1053" fill="#FFFFFF"/><g clip-path="url(#clip1)"><path d="M3893.5 3667.5 5172.5 3667.5M3893.5 3446.61 5172.5 3446.61M3893.5 3317.61 5172.5 3317.61M3893.5 3225.61 5172.5 3225.61M3893.5 3154.6 5172.5 3154.6M3893.5 3096.6 5172.5 3096.6M3893.5 3047.6 5172.5 3047.6M3893.5 3004.6 5172.5 3004.6M3893.5 2967.6 5172.5 2967.6" stroke="#A5A5A5" stroke-width="3.4375" stroke-linejoin="round" stroke-miterlimit="10" fill="none"/></g><g clip-path="url(#clip2)"><path d="M3893 3668 5172 3668" stroke="#000000" stroke-width="5.72917" stroke-linejoin="round" stroke-miterlimit="10" fill="none"/></g><g clip-path="url(#clip3)"><path d="M4278.64 2933.5 4278.64 3667.5M4503.65 2933.5 4503.65 3667.5M4663.65 2933.5 4663.65 3667.5M4787.66 2933.5 4787.66 3667.5M4888.66 2933.5 4888.66 3667.5M4973.66 2933.5 4973.66 3667.5M5048.67 2933.5 5048.67 3667.5M5113.67 2933.5 5113.67 3667.5" stroke="#A5A5A5" stroke-width="3.4375" stroke-linejoin="round" stroke-miterlimit="10" fill="none"/></g><g clip-path="url(#clip4)"><path d="M5172.5 2933.5 5172.5 3667.5" stroke="#D9D9D9" stroke-width="3.4375" stroke-linejoin="round" stroke-miterlimit="10" fill="none"/></g><g clip-path="url(#clip5)"><rect x="3893" y="2934" width="1279" height="734" stroke="#000000" stroke-width="5.72917" stroke-linejoin="round" stroke-miterlimit="10" fill="none"/></g><g clip-path="url(#clip6)"><path d="M0 0 0.000360892 734" stroke="#000000" stroke-width="3.4375" stroke-linejoin="round" stroke-miterlimit="10" fill="none" fill-rule="evenodd" transform="matrix(1 0 0 -1 3893.5 3667.5)"/></g><g clip-path="url(#clip7)"><path d="M3893 2934 5172 2934" stroke="#000000" stroke-width="5.72917" stroke-linejoin="round" stroke-miterlimit="10" fill="none" fill-rule="evenodd"/></g><g clip-path="url(#clip8)"><path d="M4211.92 2991.58 4222.92 3002.58 4211.92 3013.58 4200.92 3002.58Z" stroke="#4472C4" stroke-width="3.4375" stroke-linejoin="round" stroke-miterlimit="10" fill="#4472C4"/><path d="M4250.92 3080.58 4261.92 3091.58 4250.92 3102.58 4239.92 3091.58Z" stroke="#4472C4" stroke-width="3.4375" stroke-linejoin="round" stroke-miterlimit="10" fill="#4472C4"/><path d="M4393.92 3256.58 4404.92 3267.58 4393.92 3278.58 4382.92 3267.58Z" stroke="#4472C4" stroke-width="3.4375" stroke-linejoin="round" stroke-miterlimit="10" fill="#4472C4"/><path d="M4576.92 3307.58 4587.92 3318.58 4576.92 3329.58 4565.92 3318.58Z" stroke="#4472C4" stroke-width="3.4375" stroke-linejoin="round" stroke-miterlimit="10" fill="#4472C4"/></g><g clip-path="url(#clip9)"><path d="M4211.92 3024.58 4222.92 3046.58 4200.92 3046.58Z" stroke="#ED7D31" stroke-width="3.4375" stroke-linejoin="round" stroke-miterlimit="10" fill="#ED7D31"/><path d="M4250.92 3074.58 4261.92 3096.58 4239.92 3096.58Z" stroke="#ED7D31" stroke-width="3.4375" stroke-linejoin="round" stroke-miterlimit="10" fill="#ED7D31"/><path d="M4393.92 3266.58 4404.92 3288.58 4382.92 3288.58Z" stroke="#ED7D31" stroke-width="3.4375" stroke-linejoin="round" stroke-miterlimit="10" fill="#ED7D31"/><path d="M4576.92 3315.58 4587.92 3337.58 4565.92 3337.58Z" stroke="#ED7D31" stroke-width="3.4375" stroke-linejoin="round" stroke-miterlimit="10" fill="#ED7D31"/></g><g clip-path="url(#clip10)"><path d="M4200.92 3121.58 4222.92 3121.58 4222.92 3143.58 4200.92 3143.58Z" stroke="#70AD47" stroke-width="3.4375" stroke-linejoin="round" stroke-miterlimit="10" fill="#70AD47"/><path d="M4239.92 3287.58 4261.92 3287.58 4261.92 3309.58 4239.92 3309.58Z" stroke="#70AD47" stroke-width="3.4375" stroke-linejoin="round" stroke-miterlimit="10" fill="#70AD47"/><path d="M4382.92 3337.58 4404.92 3337.58 4404.92 3359.58 4382.92 3359.58Z" stroke="#70AD47" stroke-width="3.4375" stroke-linejoin="round" stroke-miterlimit="10" fill="#70AD47"/><path d="M4565.92 3361.58 4587.92 3361.58 4587.92 3383.58 4565.92 3383.58Z" stroke="#70AD47" stroke-width="3.4375" stroke-linejoin="round" stroke-miterlimit="10" fill="#70AD47"/></g><g clip-path="url(#clip11)"><path d="M4222.92 3196.58C4222.92 3202.66 4218 3207.58 4211.92 3207.58 4205.85 3207.58 4200.92 3202.66 4200.92 3196.58 4200.92 3190.51 4205.85 3185.58 4211.92 3185.58 4218 3185.58 4222.92 3190.51 4222.92 3196.58Z" stroke="#44546A" stroke-width="3.4375" stroke-linejoin="round" stroke-miterlimit="10" fill="#44546A"/><path d="M4261.92 3308.58C4261.92 3314.66 4257 3319.58 4250.92 3319.58 4244.85 3319.58 4239.92 3314.66 4239.92 3308.58 4239.92 3302.51 4244.85 3297.58 4250.92 3297.58 4257 3297.58 4261.92 3302.51 4261.92 3308.58Z" stroke="#44546A" stroke-width="3.4375" stroke-linejoin="round" stroke-miterlimit="10" fill="#44546A"/><path d="M4404.92 3370.58C4404.92 3376.66 4400 3381.58 4393.92 3381.58 4387.85 3381.58 4382.92 3376.66 4382.92 3370.58 4382.92 3364.51 4387.85 3359.58 4393.92 3359.58 4400 3359.58 4404.92 3364.51 4404.92 3370.58Z" stroke="#44546A" stroke-width="3.4375" stroke-linejoin="round" stroke-miterlimit="10" fill="#44546A"/><path d="M4587.92 3378.58C4587.92 3384.66 4583 3389.58 4576.92 3389.58 4570.85 3389.58 4565.92 3384.66 4565.92 3378.58 4565.92 3372.51 4570.85 3367.58 4576.92 3367.58 4583 3367.58 4587.92 3372.51 4587.92 3378.58Z" stroke="#44546A" stroke-width="3.4375" stroke-linejoin="round" stroke-miterlimit="10" fill="#44546A"/></g><g clip-path="url(#clip12)"><text font-family="Calibri,Calibri_MSFontService,sans-serif" font-weight="400" font-size="55" transform="matrix(1 0 0 1 3744.84 3683)">0.01</text></g><g clip-path="url(#clip13)"><text font-family="Calibri,Calibri_MSFontService,sans-serif" font-weight="400" font-size="55" transform="matrix(1 0 0 1 3772.71 2949)">0.1</text></g><g clip-path="url(#clip14)"><text font-family="Calibri,Calibri_MSFontService,sans-serif" font-weight="400" font-size="55" transform="matrix(1 0 0 1 3837.62 3755)">1000</text></g><g clip-path="url(#clip15)"><text font-family="Calibri,Calibri_MSFontService,sans-serif" font-weight="400" font-size="55" transform="matrix(1 0 0 1 5102.53 3755)">10000</text></g><g clip-path="url(#clip16)"><text font-family="Calibri,Calibri_MSFontService,sans-serif" font-weight="400" font-size="73" transform="matrix(6.12323e-17 -1 1 6.12323e-17 3683.72 3507)">Error norm [</text></g><g clip-path="url(#clip17)"><text font-family="Calibri,Calibri_MSFontService,sans-serif" font-weight="400" font-size="73" transform="matrix(6.12323e-17 -1 1 6.12323e-17 3683.72 3140)">-</text></g><g clip-path="url(#clip18)"><text font-family="Calibri,Calibri_MSFontService,sans-serif" font-weight="400" font-size="73" transform="matrix(6.12323e-17 -1 1 6.12323e-17 3683.72 3117)">]</text></g><g clip-path="url(#clip19)"><text font-family="Calibri,Calibri_MSFontService,sans-serif" font-weight="400" font-size="73" transform="matrix(1 0 0 1 4028.29 3854)">Number of degrees of freedom [</text></g><g clip-path="url(#clip20)"><text font-family="Calibri,Calibri_MSFontService,sans-serif" font-weight="400" font-size="73" transform="matrix(1 0 0 1 4992.32 3854)">-</text></g><g clip-path="url(#clip21)"><text font-family="Calibri,Calibri_MSFontService,sans-serif" font-weight="400" font-size="73" transform="matrix(1 0 0 1 5014.78 3854)">]</text></g><g clip-path="url(#clip22)"><rect x="4808.5" y="2980.5" width="308" height="311" stroke="#000000" stroke-width="3.4375" stroke-linejoin="round" stroke-miterlimit="10" fill="#FFFFFF"/></g><g clip-path="url(#clip23)"><path d="M4838.5 3008.5 4849.5 3019.5 4838.5 3030.5 4827.5 3019.5Z" stroke="#4472C4" stroke-width="3.4375" stroke-linejoin="round" stroke-miterlimit="10" fill="#4472C4"/></g><g clip-path="url(#clip24)"><text font-family="Calibri,Calibri_MSFontService,sans-serif" font-weight="400" font-size="41" transform="matrix(1 0 0 1 4859.44 3031)">(a) Order(2, 2)</text></g><g clip-path="url(#clip25)"><path d="M4838.5 3086.5 4849.5 3108.5 4827.5 3108.5Z" stroke="#ED7D31" stroke-width="3.4375" stroke-linejoin="round" stroke-miterlimit="10" fill="#ED7D31"/></g><g clip-path="url(#clip26)"><text font-family="Calibri,Calibri_MSFontService,sans-serif" font-weight="400" font-size="41" transform="matrix(1 0 0 1 4859.44 3109)">(b) Order(2, 3)</text></g><g clip-path="url(#clip27)"><path d="M4827.66 3164.6 4849.66 3164.6 4849.66 3186.6 4827.66 3186.6Z" stroke="#70AD47" stroke-width="3.4375" stroke-linejoin="round" stroke-miterlimit="10" fill="#70AD47"/></g><g clip-path="url(#clip28)"><text font-family="Calibri,Calibri_MSFontService,sans-serif" font-weight="400" font-size="41" transform="matrix(1 0 0 1 4859.44 3187)">(c) Order(3, 2)</text></g><g clip-path="url(#clip29)"><path d="M4849 3252C4849 3258.07 4844.08 3263 4838 3263 4831.92 3263 4827 3258.07 4827 3252 4827 3245.92 4831.92 3241 4838 3241 4844.08 3241 4849 3245.92 4849 3252Z" stroke="#44546A" stroke-width="3.4375" stroke-linejoin="round" stroke-miterlimit="10" fill="#44546A"/></g><g clip-path="url(#clip30)"><text font-family="Calibri,Calibri_MSFontService,sans-serif" font-weight="400" font-size="41" transform="matrix(1 0 0 1 4859.44 3264)">(d) Order(3, 3)</text></g></g></svg>